<svg width="45" height="58" viewBox="0 0 45 58" fill="none" xmlns="http://www.w3.org/2000/svg">
<path d="M29.3622 24.4103C28.0586 20.5023 27.9042 20.1392 27.5926 19.5674C27.281 18.9957 21.1345 13.0036 19.6222 11.3369C18.1128 9.67018 18.9961 5.45055 23.7904 6.85709C28.5818 8.26363 34.8855 18.524 34.8855 18.524L34.3652 26.3886L32.4383 27.6922L29.3622 24.4103Z" fill="url(#paint0_linear_459_350)"/>
<path d="M34.3481 26.3995C34.0708 25.6448 33.6334 24.9273 32.9444 24.67C31.2635 24.0439 28.7648 20.7619 28.1388 19.0438C27.5127 17.3256 23.9392 14.2181 22.4754 12.7544C21.2776 11.5565 19.4537 9.65255 19.5337 7.67139C18.6961 8.77203 18.8019 10.4273 19.6223 11.3336C21.1318 13.0002 27.2783 18.9895 27.5927 19.5641C27.9043 20.1359 28.0616 20.5018 29.3652 24.4069L32.4384 27.6889L34.3481 26.3995Z" fill="url(#paint1_linear_459_350)"/>
<path d="M34.6569 21.922C33.7478 19.1718 32.6701 15.9556 32.2384 14.6663C31.6695 13.8973 31.0405 13.0854 30.3601 12.2735L27.8472 9.56903C26.4864 8.27112 25.0828 7.23622 23.7849 6.85599C22.9987 6.62443 22.3269 6.55868 21.7437 6.59299C21.9123 9.12305 24.6682 11.17 27.4327 15.5268C30.4802 20.3325 31.8467 23.2228 31.8467 26.2703C31.8467 26.6019 31.881 26.8821 31.9211 27.1451L32.4328 27.6911L34.3596 26.3875L34.6569 21.922Z" fill="url(#paint2_linear_459_350)"/>
<path d="M24.1535 0.709838C27.4355 -1.16555 30.5087 1.90768 37.1755 13.7318C39.251 17.4111 39.2081 19.8268 40.7833 23.5576C42.8788 28.5176 44.7514 31.1334 44.6227 34.8813C44.5198 37.9546 41.518 43.7494 40.4917 46.5024C39.4654 49.2555 33.6334 26.3392 33.6334 26.3392C33.6334 26.3392 31.5236 20.9046 30.4029 16.9108C29.571 13.9376 18.7618 6.09872 24.1535 0.709838Z" fill="url(#paint3_linear_459_350)"/>
<path d="M34.1535 22.637C31.7063 13.5202 30.2454 14.355 28.2157 11.439C26.7891 9.39206 23.9818 6.03582 22.741 3.26562C21.7748 8.33432 29.6937 14.3836 30.4027 16.9079C31.5233 20.9017 33.6331 26.3363 33.6331 26.3363C33.6331 26.3363 33.8447 27.1654 34.1906 28.4833L37.9643 30.2157C36.7664 29.1351 35.3199 26.9795 34.1535 22.637Z" fill="url(#paint4_linear_459_350)"/>
<path d="M44.4169 32.5024C43.8909 29.8495 42.4129 27.408 40.7833 23.5572C39.2053 19.8264 39.251 17.4136 37.1755 13.7314C32.8301 6.02688 30.017 2.05599 27.6699 0.729492C29.0422 4.16865 32.6557 8.55981 34.4653 12.0133C36.7581 16.3873 37.3813 19.6177 37.59 21.0757C37.7987 22.5337 42.1213 29.2548 42.956 30.607C43.3391 31.2274 43.908 31.9221 44.4169 32.5024Z" fill="url(#paint5_radial_459_350)"/>
<path d="M22.7412 3.26562C22.461 5.46406 23.5759 7.49382 24.7566 9.252C25.9859 11.0302 27.4496 12.6283 28.8562 14.2835C29.508 15.1412 30.2884 15.9674 30.5858 17.0766C30.8745 18.1172 31.1947 19.1521 31.5292 20.1841C32.2096 22.2396 32.9128 24.2894 33.6333 26.3363C32.8013 24.3323 32.0266 22.3054 31.3319 20.2499C30.9803 19.2236 30.6429 18.1915 30.337 17.1481C30.054 16.136 29.2793 15.3213 28.616 14.4836C27.2438 12.8141 25.7972 11.1817 24.5851 9.36921C24.0019 8.45153 23.4187 7.51955 23.0642 6.47894C22.7126 5.44976 22.5296 4.33768 22.7412 3.26562Z" fill="#804B24"/>
<path d="M19.1535 28.1458C21.2118 30.9989 25.8145 32.6914 28.0358 33.2374C28.316 33.306 28.0301 33.9407 27.7614 34.0436C26.1461 34.6697 26.2605 35.8018 25.1713 36.9339C20.5343 41.751 16.9665 42.5343 13.7131 40.293C10.6599 38.1917 12.5924 37.9487 10.0138 33.3403C7.43513 28.7319 3.19551 28.243 1.24293 30.1956C-0.709644 32.1482 1.76324 33.6834 2.12059 36.545C2.53798 39.8784 2.58943 41.8568 8.2156 48.5778C13.8418 55.2961 17.4353 57.7975 23.6847 57.7975C29.9341 57.7975 34.3109 55.9221 37.5929 53.5779C40.8748 51.2337 40.8748 40.7647 41.8125 38.2775C42.7502 35.7903 45.2516 31.2334 39.311 28.4203C33.3732 25.6072 20.0911 19.8267 17.2781 19.8267C14.465 19.8267 12.3294 20.9216 9.4649 21.3904C7.02632 21.7907 5.55689 22.9542 5.55689 26.3905C5.55689 27.797 7.43228 29.0092 9.15043 29.0092C12.1722 29.0063 14.3592 28.1458 19.1535 28.1458Z" fill="url(#paint6_linear_459_350)"/>
<path d="M37.5929 53.5778C40.8748 51.2335 40.8748 40.7646 41.8125 38.2774C42.0898 37.5398 42.5044 36.6164 42.796 35.6158C42.7331 35.7016 40.1916 39.2322 39.677 41.7023C39.1567 44.2037 39.2596 50.0872 32.6957 53.7865C29.8827 55.3731 25.9232 58.0061 18.8933 54.8814C11.8635 51.7567 4.8308 41.2877 3.83879 37.5884C3.04976 34.6352 2.48657 31.988 0.516843 31.542C0.348172 32.9542 1.84906 34.3665 2.12064 36.5478C2.53803 39.8812 2.58949 41.8595 8.21565 48.5806C13.8418 55.2988 17.4354 57.8003 23.6847 57.8003C29.9341 57.8003 34.311 55.922 37.5929 53.5778Z" fill="url(#paint7_radial_459_350)"/>
<path d="M29.9341 32.3257C24.1136 31.7139 19.4137 26.4393 19.4137 26.4393C19.4137 26.4393 14.5165 26.2821 11.3404 26.9596C8.73311 27.5142 6.56612 27.2055 5.60841 25.5874C5.58554 25.8447 5.55981 26.0934 5.55981 26.385C5.55981 27.7916 7.4352 29.0037 9.15335 29.0037C12.1751 29.0037 14.3621 28.1432 19.1535 28.1432C21.2119 30.9963 25.8146 32.6887 28.0359 33.2348C28.316 33.3034 28.0301 33.938 27.7614 34.0409C26.1462 34.667 26.2605 35.7991 25.1713 36.9312C21.1147 41.1451 17.8785 42.2715 14.951 40.9879C19.0792 44.9645 25.2485 39.5613 26.1862 37.6859C27.1239 35.8106 30.9233 32.4286 29.9341 32.3257Z" fill="url(#paint8_linear_459_350)"/>
<path d="M42.9217 35.1247C43.4648 32.8548 43.2047 30.2619 39.311 28.4179C34.9055 26.331 26.472 22.6174 21.2546 20.8335C24.7567 23.3435 28.7848 24.9874 33.1645 26.594C38.9965 28.7353 43.5649 32.6604 42.9217 35.1247Z" fill="url(#paint9_linear_459_350)"/>
<path d="M40.9548 43.4033C40.0085 47.6258 37.893 52.3143 35.0913 53.9953C32.181 55.742 28.0558 57.3201 27.4983 57.5316C31.7751 56.9456 35.0256 55.4132 37.5928 53.5807C39.6769 52.0884 40.4373 47.3228 40.9548 43.4033Z" fill="url(#paint10_radial_459_350)"/>
<path d="M40.4917 46.5C41.518 43.747 44.5198 37.9521 44.6227 34.8789C44.6256 34.8189 44.617 34.7617 44.617 34.7017C43.0418 36.234 41.8668 38.1208 41.2379 41.9631C40.9949 43.4439 40.5861 45.0392 40.04 46.5858C40.2316 46.783 40.3888 46.7802 40.4917 46.5Z" fill="url(#paint11_linear_459_350)"/>
<path d="M41.4436 29.7869C40.5545 29.0722 39.5311 28.5977 38.4762 28.1803L35.3543 26.8338C33.2903 25.8961 31.2233 24.9698 29.2021 23.9292C31.3234 24.7297 33.4018 25.6445 35.483 26.5479L38.5762 27.963C39.6083 28.4118 40.6346 28.9865 41.4436 29.7869Z" fill="#804B24"/>
<path opacity="0.75" d="M36.6323 28.14C39.5883 29.3007 40.5174 31.5106 40.2601 33.4374C40.0486 35.0126 37.0668 35.7045 34.1852 34.5466C31.3035 33.3888 28.7991 32.1853 29.9427 29.1806C30.6145 27.411 33.742 27.0051 36.6323 28.14Z" fill="url(#paint12_radial_459_350)"/>
<path d="M27.5269 34.592C29.065 33.8372 28.9592 33.0282 28.4389 32.8481C23.7219 31.1986 19.4279 27.5621 19.4279 27.5621C19.4279 27.5621 12.4209 27.928 10.4426 28.4484C8.73019 28.9 6.7719 28.0367 5.59692 26.6216C5.78846 27.9252 7.52949 29.0087 9.1533 29.0087C12.1751 29.0087 14.3621 28.1482 19.1535 28.1482C21.2118 31.0013 25.8145 32.6937 28.0358 33.2398C28.316 33.3084 28.0301 33.943 27.7614 34.0459C26.1461 34.672 26.2605 35.8041 25.1713 36.9362C23.03 39.1604 21.1175 40.5183 19.3593 41.1215C19.3679 41.1187 19.3764 41.1215 19.385 41.1215C24.022 40.2496 25.9889 35.3467 27.5269 34.592Z" fill="url(#paint13_linear_459_350)"/>
<defs>
<linearGradient id="paint0_linear_459_350" x1="30.4455" y1="19.0504" x2="8.77692" y2="-7.41028" gradientUnits="userSpaceOnUse">
<stop offset="0.00132565" stop-color="#FFCB4B"/>
<stop offset="1" stop-color="#FFD748"/>
</linearGradient>
<linearGradient id="paint1_linear_459_350" x1="24.4928" y1="25.9548" x2="30.1183" y2="4.49454" gradientUnits="userSpaceOnUse">
<stop stop-color="#FFBC47" stop-opacity="0"/>
<stop offset="1" stop-color="#C86F34"/>
</linearGradient>
<linearGradient id="paint2_linear_459_350" x1="1.58781" y1="6.36084" x2="34.299" y2="19.7995" gradientUnits="userSpaceOnUse">
<stop stop-color="#FFBC47" stop-opacity="0"/>
<stop offset="1" stop-color="#C86F34"/>
</linearGradient>
<linearGradient id="paint3_linear_459_350" x1="37.3233" y1="29.5871" x2="28.26" y2="3.33484" gradientUnits="userSpaceOnUse">
<stop offset="0.00132565" stop-color="#FFCB4B"/>
<stop offset="1" stop-color="#FFD748"/>
</linearGradient>
<linearGradient id="paint4_linear_459_350" x1="16.6075" y1="8.34847" x2="47.9644" y2="28.246" gradientUnits="userSpaceOnUse">
<stop stop-color="#FFBC47" stop-opacity="0"/>
<stop offset="1" stop-color="#C86F34"/>
</linearGradient>
<radialGradient id="paint5_radial_459_350" cx="0" cy="0" r="1" gradientUnits="userSpaceOnUse" gradientTransform="translate(28.3857 7.01074) scale(47.1792 47.1792)">
<stop stop-color="#FFBC47" stop-opacity="0"/>
<stop offset="1" stop-color="#FFA754"/>
</radialGradient>
<linearGradient id="paint6_linear_459_350" x1="26.975" y1="60.2189" x2="22.5996" y2="36.6751" gradientUnits="userSpaceOnUse">
<stop offset="0.00132565" stop-color="#FFCB4B"/>
<stop offset="1" stop-color="#FFD748"/>
</linearGradient>
<radialGradient id="paint7_radial_459_350" cx="0" cy="0" r="1" gradientUnits="userSpaceOnUse" gradientTransform="translate(23.9404 36.751) scale(44.4493 44.4492)">
<stop stop-color="#FFBC47" stop-opacity="0"/>
<stop offset="1" stop-color="#FFA754"/>
</radialGradient>
<linearGradient id="paint8_linear_459_350" x1="-1.73116" y1="37.41" x2="53.482" y2="24.0755" gradientUnits="userSpaceOnUse">
<stop stop-color="#FFBC47" stop-opacity="0"/>
<stop offset="1" stop-color="#C86F34"/>
</linearGradient>
<linearGradient id="paint9_linear_459_350" x1="25.5959" y1="37.5223" x2="61.7448" y2="-15.6074" gradientUnits="userSpaceOnUse">
<stop stop-color="#FFBC47" stop-opacity="0"/>
<stop offset="1" stop-color="#C86F34"/>
</linearGradient>
<radialGradient id="paint10_radial_459_350" cx="0" cy="0" r="1" gradientUnits="userSpaceOnUse" gradientTransform="translate(21.6142 35.0863) scale(30.7192 30.7191)">
<stop stop-color="#FFBC47" stop-opacity="0"/>
<stop offset="1" stop-color="#FFA754"/>
</radialGradient>
<linearGradient id="paint11_linear_459_350" x1="38.6045" y1="33.0342" x2="47.7459" y2="51.7077" gradientUnits="userSpaceOnUse">
<stop stop-color="#FFBC47" stop-opacity="0"/>
<stop offset="1" stop-color="#C86F34"/>
</linearGradient>
<radialGradient id="paint12_radial_459_350" cx="0" cy="0" r="1" gradientUnits="userSpaceOnUse" gradientTransform="translate(35.1544 31.2345) rotate(-69.0871) scale(3.52081 5.6797)">
<stop stop-color="#FBE07A"/>
<stop offset="0.2654" stop-color="#FCDF73" stop-opacity="0.7346"/>
<stop offset="0.6548" stop-color="#FDDB5F" stop-opacity="0.3452"/>
<stop offset="1" stop-color="#FFD748" stop-opacity="0"/>
</radialGradient>
<linearGradient id="paint13_linear_459_350" x1="-55.3876" y1="-15.2149" x2="43.371" y2="49.7908" gradientUnits="userSpaceOnUse">
<stop stop-color="#FFBC47" stop-opacity="0"/>
<stop offset="1" stop-color="#C86F34"/>
</linearGradient>
</defs>
</svg>
