<svg width="58" height="58" viewBox="0 0 58 58" fill="none" xmlns="http://www.w3.org/2000/svg">
<path d="M28.9999 57.8002C44.9057 57.8002 57.7999 44.906 57.7999 29.0002C57.7999 13.0944 44.9057 0.200195 28.9999 0.200195C13.0941 0.200195 0.199951 13.0944 0.199951 29.0002C0.199951 44.906 13.0941 57.8002 28.9999 57.8002Z" fill="url(#paint0_radial_446_1412)"/>
<path opacity="0.5" d="M28.9999 57.8002C44.9057 57.8002 57.7999 44.906 57.7999 29.0002C57.7999 13.0944 44.9057 0.200195 28.9999 0.200195C13.0941 0.200195 0.199951 13.0944 0.199951 29.0002C0.199951 44.906 13.0941 57.8002 28.9999 57.8002Z" fill="url(#paint1_radial_446_1412)"/>
<path d="M28.9999 57.8002C44.9057 57.8002 57.7999 44.906 57.7999 29.0002C57.7999 13.0944 44.9057 0.200195 28.9999 0.200195C13.0941 0.200195 0.199951 13.0944 0.199951 29.0002C0.199951 44.906 13.0941 57.8002 28.9999 57.8002Z" fill="url(#paint2_radial_446_1412)"/>
<path d="M28.9999 57.8002C44.9057 57.8002 57.7999 44.906 57.7999 29.0002C57.7999 13.0944 44.9057 0.200195 28.9999 0.200195C13.0941 0.200195 0.199951 13.0944 0.199951 29.0002C0.199951 44.906 13.0941 57.8002 28.9999 57.8002Z" fill="url(#paint3_radial_446_1412)"/>
<path d="M48.8538 38.5762C48.8718 38.4142 48.8898 38.2522 48.9078 38.1082C48.8718 37.5862 48.5478 37.1002 48.0258 36.9202C47.7558 36.8122 47.4678 36.8122 47.1798 36.8842C41.2938 38.5222 35.1738 39.3682 28.9998 39.3682C22.8258 39.3682 16.7058 38.5402 10.8198 36.8842C10.5498 36.8122 10.2438 36.8122 9.9738 36.9202C9.4698 37.1182 9.1458 37.5682 9.0918 38.0902C9.1098 38.2702 9.1278 38.4502 9.1638 38.6482L9.4878 39.9982C9.5598 40.2502 9.6498 40.5202 9.7578 40.8082C11.7738 45.5242 17.0298 53.8222 29.0178 53.8222C40.9878 53.8222 46.2438 45.5062 48.2778 40.7902C48.3678 40.5382 48.4578 40.3042 48.5118 40.0702L48.8538 38.5762Z" fill="url(#paint4_radial_446_1412)"/>
<path d="M28.9999 52.5085C33.6439 52.5085 37.2079 51.1765 39.9259 49.2865C36.9379 47.9005 33.3379 47.0005 28.9999 47.0005C24.6619 47.0005 21.0439 47.9005 18.0559 49.3045C20.7919 51.1945 24.3559 52.5085 28.9999 52.5085Z" fill="url(#paint5_radial_446_1412)"/>
<path d="M48.512 40.0162L48.836 38.6302C48.872 38.4322 48.89 38.2522 48.89 38.0902C48.854 37.5682 48.512 37.1182 48.008 36.9202C47.738 36.8122 47.45 36.8122 47.162 36.8842C41.276 38.5222 35.156 39.3682 28.982 39.3682C22.808 39.3682 16.688 38.5402 10.802 36.8842C10.532 36.8122 10.226 36.8122 9.95597 36.9202C9.45197 37.1182 9.12797 37.5682 9.07397 38.0902C9.09197 38.2522 9.10997 38.4502 9.12797 38.6482L9.45197 40.0162C9.52397 40.2682 9.61397 40.5382 9.72197 40.8082C10.532 42.7162 11.882 45.2002 13.97 47.4862C12.008 45.1462 14.42 43.8682 18.758 44.3902C23.078 44.9122 28.982 44.9302 28.982 44.9302C28.982 44.9302 34.886 44.9122 39.206 44.3902C43.526 43.8682 45.956 45.1642 43.994 47.4862C46.1 45.2002 47.432 42.7162 48.242 40.8082C48.35 40.5202 48.44 40.2682 48.512 40.0162Z" fill="url(#paint6_linear_446_1412)"/>
<path d="M29 40.6822C22.772 40.6822 16.616 39.8542 10.658 38.1982L10.73 39.0082C10.874 40.5562 12.008 41.8342 13.52 42.1762C18.578 43.2922 23.762 43.8502 28.982 43.8502C34.616 43.8502 40.196 43.2022 45.632 41.9062C46.442 41.7082 47.036 41.0242 47.126 40.1962L47.324 38.2162C41.384 39.8542 35.228 40.6822 29 40.6822Z" fill="url(#paint7_radial_446_1412)"/>
<path d="M17.4082 12.3503C15.4642 13.2323 14.1862 14.9963 13.8262 16.9403C12.1162 15.9143 9.9562 15.6983 8.0122 16.5803C4.8622 18.0023 3.4762 21.7103 4.8982 24.8423C8.0302 31.7723 21.2422 33.3203 21.2422 33.3203C21.2422 33.3203 28.8022 22.3943 25.6702 15.4463C24.2662 12.3323 20.5582 10.9283 17.4082 12.3503Z" fill="url(#paint8_radial_446_1412)"/>
<path opacity="0.5" d="M20.0002 11.792C25.3642 15.356 25.4362 23.168 22.8262 26.57C19.9462 30.332 16.9042 30.548 10.1362 29.918C15.0502 32.6 21.2422 33.32 21.2422 33.32C21.2422 33.32 28.8022 22.394 25.6702 15.446C24.6442 13.178 22.3762 11.81 20.0002 11.792Z" fill="url(#paint9_radial_446_1412)"/>
<path opacity="0.5" d="M17.4082 12.3503C15.4642 13.2323 14.1862 14.9963 13.8262 16.9403C12.1162 15.9143 9.9562 15.6983 8.0122 16.5803C4.8622 18.0023 3.4762 21.7103 4.8982 24.8423C8.0302 31.7723 21.2422 33.3203 21.2422 33.3203C21.2422 33.3203 28.8022 22.3943 25.6702 15.4463C24.2662 12.3323 20.5582 10.9283 17.4082 12.3503Z" fill="url(#paint10_radial_446_1412)"/>
<path opacity="0.5" d="M17.4082 12.3503C15.4642 13.2323 14.1862 14.9963 13.8262 16.9403C12.1162 15.9143 9.9562 15.6983 8.0122 16.5803C4.8622 18.0023 3.4762 21.7103 4.8982 24.8423C8.0302 31.7723 21.2422 33.3203 21.2422 33.3203C21.2422 33.3203 28.8022 22.3943 25.6702 15.4463C24.2662 12.3323 20.5582 10.9283 17.4082 12.3503Z" fill="url(#paint11_radial_446_1412)"/>
<path opacity="0.24" d="M12.3501 17.4258C13.5201 18.5058 13.0881 20.8998 11.3601 22.7718C9.63212 24.6438 7.29212 25.2738 6.10412 24.1938C4.93412 23.1138 5.36612 20.7198 7.09412 18.8478C8.82212 16.9758 11.1621 16.3458 12.3501 17.4258Z" fill="url(#paint12_radial_446_1412)"/>
<path opacity="0.24" d="M18.8122 13.1964C20.0182 13.7184 20.3242 15.7164 19.4782 17.6604C18.6322 19.5864 16.9762 20.7204 15.7522 20.1984C14.5282 19.6764 14.2402 17.6784 15.0862 15.7344C15.9322 13.8084 17.5882 12.6744 18.8122 13.1964Z" fill="url(#paint13_radial_446_1412)"/>
<path opacity="0.32" d="M18.2002 13.8259C21.4942 13.5019 26.1382 16.4899 23.9062 23.8339C22.5742 28.2259 20.2882 31.1779 16.1662 32.2939C19.0282 33.0859 21.2602 33.3559 21.2602 33.3559C21.2602 33.3559 28.8202 22.4299 25.6882 15.4819C24.2662 12.3319 20.5582 10.9459 17.4262 12.3679C15.4822 13.2499 14.2042 15.0139 13.8442 16.9579C13.8442 16.9579 15.7882 14.0599 18.2002 13.8259Z" fill="url(#paint14_linear_446_1412)"/>
<path d="M50.4203 16.5625C48.4763 15.6805 46.2983 15.8965 44.6063 16.9405C44.2463 14.9785 42.9683 13.2325 41.0243 12.3505C37.8743 10.9465 34.1843 12.3505 32.7623 15.5005C29.6483 22.4306 37.2623 33.3386 37.2623 33.3386C37.2623 33.3386 50.4563 31.7546 53.5703 24.8066C54.9743 21.6746 53.5703 17.9665 50.4203 16.5625Z" fill="url(#paint15_radial_446_1412)"/>
<path opacity="0.5" d="M52.5622 18.1284C53.4622 24.5004 47.6482 29.7384 43.3642 30.0444C38.6302 30.3864 36.4702 28.2444 32.4382 22.7724C33.6802 28.2264 37.2442 33.3564 37.2442 33.3564C37.2442 33.3564 50.4382 31.7724 53.5522 24.8244C54.5962 22.5024 54.1282 19.9104 52.5622 18.1284Z" fill="url(#paint16_radial_446_1412)"/>
<path opacity="0.5" d="M50.4203 16.5625C48.4763 15.6805 46.2983 15.8965 44.6063 16.9405C44.2463 14.9785 42.9683 13.2325 41.0243 12.3505C37.8743 10.9465 34.1843 12.3505 32.7623 15.5005C29.6483 22.4306 37.2623 33.3386 37.2623 33.3386C37.2623 33.3386 50.4563 31.7546 53.5703 24.8066C54.9743 21.6746 53.5703 17.9665 50.4203 16.5625Z" fill="url(#paint17_radial_446_1412)"/>
<path opacity="0.5" d="M50.4203 16.5625C48.4763 15.6805 46.2983 15.8965 44.6063 16.9405C44.2463 14.9785 42.9683 13.2325 41.0243 12.3505C37.8743 10.9465 34.1843 12.3505 32.7623 15.5005C29.6483 22.4306 37.2623 33.3386 37.2623 33.3386C37.2623 33.3386 50.4563 31.7546 53.5703 24.8066C54.9743 21.6746 53.5703 17.9665 50.4203 16.5625Z" fill="url(#paint18_radial_446_1412)"/>
<path opacity="0.24" d="M43.2564 16.1308C43.2204 17.7328 41.1324 18.9928 38.5944 18.9388C36.0564 18.8848 34.0224 17.5528 34.0404 15.9508C34.0764 14.3488 36.1644 13.0888 38.7024 13.1428C41.2584 13.1968 43.2924 14.5288 43.2564 16.1308Z" fill="url(#paint19_radial_446_1412)"/>
<path opacity="0.24" d="M50.7263 18.1647C51.1403 19.4247 49.8443 20.9727 47.8463 21.6207C45.8483 22.2687 43.8863 21.7827 43.4723 20.5227C43.0583 19.2627 44.3543 17.7147 46.3523 17.0667C48.3503 16.4007 50.3123 16.9047 50.7263 18.1647Z" fill="url(#paint20_radial_446_1412)"/>
<path opacity="0.32" d="M49.8444 18.11C52.2744 20.36 53.1024 25.814 46.1364 29.018C41.9604 30.926 38.2344 31.178 34.6704 28.838C35.9664 31.502 37.2624 33.356 37.2624 33.356C37.2624 33.356 50.4564 31.772 53.5704 24.824C54.9744 21.674 53.5704 17.984 50.4204 16.562C48.4764 15.68 46.2984 15.896 44.6064 16.94C44.6064 16.922 48.0804 16.472 49.8444 18.11Z" fill="url(#paint21_linear_446_1412)"/>
<defs>
<radialGradient id="paint0_radial_446_1412" cx="0" cy="0" r="1" gradientUnits="userSpaceOnUse" gradientTransform="translate(23.3335 17.3285) scale(34.7435)">
<stop stop-color="#FFE030"/>
<stop offset="1" stop-color="#FFB92E"/>
</radialGradient>
<radialGradient id="paint1_radial_446_1412" cx="0" cy="0" r="1" gradientUnits="userSpaceOnUse" gradientTransform="translate(23.3335 17.3285) scale(27.3342)">
<stop stop-color="#FFEA5F"/>
<stop offset="1" stop-color="#FFBC47" stop-opacity="0"/>
</radialGradient>
<radialGradient id="paint2_radial_446_1412" cx="0" cy="0" r="1" gradientUnits="userSpaceOnUse" gradientTransform="translate(13.012 29.2529) rotate(32.7366) scale(15.2484 11.1297)">
<stop stop-color="#EB672A" stop-opacity="0.5"/>
<stop offset="0.4286" stop-color="#DC641B" stop-opacity="0.2846"/>
<stop offset="0.995" stop-color="#C25E00" stop-opacity="0"/>
</radialGradient>
<radialGradient id="paint3_radial_446_1412" cx="0" cy="0" r="1" gradientUnits="userSpaceOnUse" gradientTransform="translate(45.0048 29.2294) rotate(147.263) scale(15.2484 11.1297)">
<stop stop-color="#EB672A" stop-opacity="0.5"/>
<stop offset="0.4286" stop-color="#DC641B" stop-opacity="0.2846"/>
<stop offset="0.995" stop-color="#C25E00" stop-opacity="0"/>
</radialGradient>
<radialGradient id="paint4_radial_446_1412" cx="0" cy="0" r="1" gradientUnits="userSpaceOnUse" gradientTransform="translate(28.9969 45.3315) scale(15.3027 15.3027)">
<stop offset="0.00132565" stop-color="#7A4400"/>
<stop offset="1" stop-color="#643800"/>
</radialGradient>
<radialGradient id="paint5_radial_446_1412" cx="0" cy="0" r="1" gradientUnits="userSpaceOnUse" gradientTransform="translate(29.219 50.4199) scale(12.1753 3.68133)">
<stop offset="0.2479" stop-color="#FF0000"/>
<stop offset="1" stop-color="#C20000"/>
</radialGradient>
<linearGradient id="paint6_linear_446_1412" x1="48.6824" y1="42.1661" x2="9.55688" y2="42.1661" gradientUnits="userSpaceOnUse">
<stop offset="0.00132565" stop-color="#3C2200"/>
<stop offset="0.5" stop-color="#512D00"/>
<stop offset="1" stop-color="#3C2200"/>
</linearGradient>
<radialGradient id="paint7_radial_446_1412" cx="0" cy="0" r="1" gradientUnits="userSpaceOnUse" gradientTransform="translate(28.9983 41.0227) scale(33.5633 33.5633)">
<stop offset="0.00132565" stop-color="white"/>
<stop offset="1" stop-color="#A9BCBE"/>
</radialGradient>
<radialGradient id="paint8_radial_446_1412" cx="0" cy="0" r="1" gradientUnits="userSpaceOnUse" gradientTransform="translate(12.1384 21.0478) rotate(-53.7393) scale(17.8371 14.1474)">
<stop offset="0.2479" stop-color="#FF0000"/>
<stop offset="0.8639" stop-color="#C20000"/>
</radialGradient>
<radialGradient id="paint9_radial_446_1412" cx="0" cy="0" r="1" gradientUnits="userSpaceOnUse" gradientTransform="translate(12.0896 19.8688) rotate(-53.7394) scale(15.3571 12.1805)">
<stop offset="0.2479" stop-color="#FF0000"/>
<stop offset="1" stop-color="#C20000"/>
</radialGradient>
<radialGradient id="paint10_radial_446_1412" cx="0" cy="0" r="1" gradientUnits="userSpaceOnUse" gradientTransform="translate(12.1384 21.0478) rotate(-53.7393) scale(17.8371 14.1474)">
<stop stop-color="white" stop-opacity="0.25"/>
<stop offset="1" stop-color="white" stop-opacity="0"/>
</radialGradient>
<radialGradient id="paint11_radial_446_1412" cx="0" cy="0" r="1" gradientUnits="userSpaceOnUse" gradientTransform="translate(20.4669 23.9607) rotate(-50.6229) scale(13.0196 6.43262)">
<stop stop-color="#BD2719" stop-opacity="0.25"/>
<stop offset="1" stop-color="#BD2719" stop-opacity="0"/>
</radialGradient>
<radialGradient id="paint12_radial_446_1412" cx="0" cy="0" r="1" gradientUnits="userSpaceOnUse" gradientTransform="translate(9.22506 20.838) rotate(-46.0208) scale(4.62821 2.87503)">
<stop stop-color="white"/>
<stop offset="1" stop-color="white" stop-opacity="0"/>
</radialGradient>
<radialGradient id="paint13_radial_446_1412" cx="0" cy="0" r="1" gradientUnits="userSpaceOnUse" gradientTransform="translate(17.2808 16.7179) rotate(-65.0908) scale(3.83188 2.38047)">
<stop stop-color="white"/>
<stop offset="1" stop-color="white" stop-opacity="0"/>
</radialGradient>
<linearGradient id="paint14_linear_446_1412" x1="26.7521" y1="39.7827" x2="16.4959" y2="11.7392" gradientUnits="userSpaceOnUse">
<stop stop-color="#860805"/>
<stop offset="1" stop-color="#BD2719" stop-opacity="0"/>
</linearGradient>
<radialGradient id="paint15_radial_446_1412" cx="0" cy="0" r="1" gradientUnits="userSpaceOnUse" gradientTransform="translate(40.3718 18.3706) rotate(-5.26571) scale(17.837 14.1477)">
<stop offset="0.2479" stop-color="#FF0000"/>
<stop offset="0.8639" stop-color="#C20000"/>
</radialGradient>
<radialGradient id="paint16_radial_446_1412" cx="0" cy="0" r="1" gradientUnits="userSpaceOnUse" gradientTransform="translate(41.2219 17.5526) rotate(-5.26571) scale(15.357 12.1807)">
<stop offset="0.2479" stop-color="#FF0000"/>
<stop offset="1" stop-color="#C20000"/>
</radialGradient>
<radialGradient id="paint17_radial_446_1412" cx="0" cy="0" r="1" gradientUnits="userSpaceOnUse" gradientTransform="translate(40.3718 18.3706) rotate(-5.26571) scale(17.837 14.1477)">
<stop stop-color="white" stop-opacity="0.25"/>
<stop offset="1" stop-color="white" stop-opacity="0"/>
</radialGradient>
<radialGradient id="paint18_radial_446_1412" cx="0" cy="0" r="1" gradientUnits="userSpaceOnUse" gradientTransform="translate(43.7461 26.5157) rotate(-2.1516) scale(13.0199 6.43271)">
<stop stop-color="#BD2719" stop-opacity="0.25"/>
<stop offset="1" stop-color="#BD2719" stop-opacity="0"/>
</radialGradient>
<radialGradient id="paint19_radial_446_1412" cx="0" cy="0" r="1" gradientUnits="userSpaceOnUse" gradientTransform="translate(38.6578 16.0622) rotate(2.44968) scale(4.62829 2.87534)">
<stop stop-color="white"/>
<stop offset="1" stop-color="white" stop-opacity="0"/>
</radialGradient>
<radialGradient id="paint20_radial_446_1412" cx="0" cy="0" r="1" gradientUnits="userSpaceOnUse" gradientTransform="translate(47.1236 19.3296) rotate(-16.6196) scale(3.832 2.3805)">
<stop stop-color="white"/>
<stop offset="1" stop-color="white" stop-opacity="0"/>
</radialGradient>
<linearGradient id="paint21_linear_446_1412" x1="36.0905" y1="41.729" x2="50.2848" y2="15.4599" gradientUnits="userSpaceOnUse">
<stop stop-color="#860805"/>
<stop offset="1" stop-color="#BD2719" stop-opacity="0"/>
</linearGradient>
</defs>
</svg>
