<svg width="58" height="60" viewBox="0 0 58 60" fill="none" xmlns="http://www.w3.org/2000/svg">
<path d="M44.2999 16.8053C44.1199 19.3973 42.0679 20.6753 42.0679 20.6753L41.5459 20.8193C41.5459 20.8193 42.8419 18.2453 43.0219 16.7153L44.2999 16.8053Z" fill="url(#paint0_radial_446_2428)"/>
<path d="M43.7779 16.9493C43.5979 19.5413 41.5458 20.8193 41.5458 20.8193L40.7358 19.5413C40.7358 19.5413 42.8598 18.2633 43.0398 16.7153L43.7779 16.9493Z" fill="url(#paint1_radial_446_2428)"/>
<path d="M21.422 2.06392L20.198 3.57592L20.63 5.69992L19.568 5.98792L19.28 4.85392L16.094 3.95392L16.832 2.06392L19.82 1.48791L21.692 0.461914L21.422 2.06392Z" fill="url(#paint2_radial_446_2428)"/>
<path d="M20.882 2.67622L19.658 4.17022L20.09 6.31222L19.028 6.60022L18.758 5.46622L16.094 3.95422L16.976 2.44222L19.28 2.10022L21.17 1.07422L20.882 2.67622Z" fill="url(#paint3_radial_446_2428)"/>
<path d="M5.16819 10.7578L5.70819 10.3978L6.96819 10.8838L8.76819 10.2178L7.68819 13.7638L4.79019 14.6998L2.64819 16.1758L5.16819 10.7578Z" fill="url(#paint4_radial_446_2428)"/>
<path d="M2.10815 14.3576C2.64815 13.4576 5.16815 10.7576 5.16815 10.7576L6.42815 11.2436L8.22816 10.5776L7.14815 14.1236L4.26815 15.0596L2.10815 16.5356V14.3576Z" fill="url(#paint5_radial_446_2428)"/>
<path d="M54.2179 22.2596L52.0219 23.0876L50.9059 21.3596L46.4059 19.9916L39.5659 21.3056L37.3519 20.0276L35.2459 22.0076L30.0259 21.3236L25.0759 21.7736L24.6799 22.7816L23.0239 23.5916V24.6716L22.5199 23.5916L23.8159 21.8816L20.4139 19.8296L15.9859 21.3776L10.9099 20.2976L11.2339 23.3936L8.98385 21.1436C1.09985 21.5936 1.09985 24.1136 1.09985 24.1136L3.40385 34.2296L34.9039 38.0456L56.6839 31.5116L57.0799 24.4736C57.0259 23.5556 54.2179 22.2596 54.2179 22.2596Z" fill="url(#paint6_linear_446_2428)"/>
<path d="M54.2003 22.4941L51.9323 23.3761L50.7083 21.4681L46.3703 20.2081L39.5303 21.6661L37.1543 20.1901L34.9943 22.1881L30.0083 21.4861L24.9503 21.9541L24.6263 22.7641L22.9703 23.5741V25.3741L22.2323 23.8981L23.5643 22.1521L20.4143 19.9741L15.9143 21.6841L10.8743 20.5141L11.2163 23.8621L8.76825 21.4141C0.884255 21.8641 1.02826 24.4741 1.02826 24.4741L3.33225 34.5901L34.8323 38.4061L56.6123 31.8721L57.0083 24.8341C57.0263 23.9161 54.2003 22.4941 54.2003 22.4941Z" fill="url(#paint7_radial_446_2428)"/>
<path d="M41.7442 26.382C41.7442 26.382 39.9802 24.906 38.5042 26.022C38.5042 26.022 21.9982 24.402 21.8542 24.402C19.9102 24.402 18.9562 25.752 18.9562 25.752C18.9562 25.752 18.2542 24.33 16.8502 23.97C15.4282 23.592 13.9342 24.906 13.9342 24.906C13.9342 24.906 13.1782 23.538 11.4862 23.196C9.68616 22.836 8.57016 24.276 8.57016 24.276C8.57016 24.276 5.92416 22.152 4.12416 24.492C2.57616 26.508 5.60016 27.39 5.60016 27.39L10.0462 29.73L19.5862 31.08L33.1402 35.454L42.0502 36.264L50.9242 33.6L54.7402 27.66C54.7402 27.66 54.2542 25.23 52.7242 24.834C51.2482 24.456 50.2222 25.392 50.2222 25.392C50.2222 25.392 49.7002 24.564 48.3142 24.564C46.9282 24.564 45.7042 25.464 45.7042 25.464C45.7042 25.464 43.0402 24.24 41.7442 26.382Z" fill="url(#paint8_linear_446_2428)"/>
<path d="M22.4838 23.5922L22.2498 23.8982L22.9877 25.3742V23.5742V24.6542L22.4838 23.5922Z" fill="#FFCB4B"/>
<path d="M30.008 21.4862L34.994 22.1881L35.21 22.0081L30.008 21.3062L25.04 21.7561L24.968 21.9541L30.008 21.4862Z" fill="#FFCB4B"/>
<path d="M15.932 21.684L20.432 20.154L23.582 22.152L23.798 21.864L20.378 19.812L15.968 21.378L10.874 20.298L10.892 20.514L15.932 21.684Z" fill="#FFCB4B"/>
<path d="M54.2181 22.2597L52.0221 23.0877L50.9061 21.3597L46.4061 19.9917L39.5661 21.3057L37.3521 20.0277L37.1901 20.1897L39.5301 21.6297L46.4061 20.2077L50.7441 21.4677L51.9681 23.3757L54.2361 22.4937C54.2361 22.4937 56.7201 23.9157 56.7201 24.4197C56.2701 26.2737 55.4601 26.4177 55.4601 26.4177L51.7161 25.5537L47.8461 27.1737L48.5841 29.2977L45.4701 33.4197L47.4681 29.5857V29.2257L45.6681 26.8677L41.1861 28.4697L33.4461 26.2557L31.7361 25.1577L25.1481 28.6677L22.0881 26.5797L15.9861 27.1197L9.65008 26.0937L6.86008 27.2457L6.14008 25.6437C6.14008 25.6437 1.33408 25.2117 1.33408 23.9877C1.33408 23.3577 3.54808 21.5577 8.76808 21.4137L11.2161 23.8617L10.8741 20.5137L11.1621 23.3937L8.91208 21.1437C1.02808 21.5937 1.02808 24.1137 1.02808 24.1137L3.33208 34.2297L34.8321 38.0457L56.6121 31.5117L57.0081 24.4737C57.0261 23.5557 54.2181 22.2597 54.2181 22.2597Z" fill="#FFCB4B"/>
<path d="M57.0259 24.4739C56.6119 26.5799 55.4599 26.8319 55.4599 26.8319L51.6799 25.9319L48.2599 27.3719L48.7999 29.2619L45.4519 33.8159L47.4499 29.6219L45.6499 27.2639L41.1679 28.7219L33.1399 26.5619L31.6099 25.4819L24.9499 29.1539L22.0519 26.8139L16.0399 27.3719L9.64995 26.4719L6.85995 27.6239L6.13995 26.0219C6.13995 26.0219 1.04595 25.3739 1.04595 24.1499C0.487951 26.3819 0.199951 28.7039 0.199951 31.1159C0.199951 47.0279 13.0879 59.9159 28.9999 59.9159C44.9119 59.9159 57.7999 47.0279 57.7999 31.1159C57.7999 28.8299 57.5299 26.5979 57.0259 24.4739Z" fill="url(#paint9_radial_446_2428)"/>
<path opacity="0.5" d="M57.0259 24.4739C56.6119 26.5799 55.4599 26.8319 55.4599 26.8319L51.6799 25.9319L48.2599 27.3719L48.7999 29.2619L45.4519 33.8159L47.4499 29.6219L45.6499 27.2639L41.1679 28.7219L33.1399 26.5619L31.6099 25.4819L24.9499 29.1539L22.0519 26.8139L16.0399 27.3719L9.64995 26.4719L6.85995 27.6239L6.13995 26.0219C6.13995 26.0219 1.04595 25.3919 1.04595 24.1499C0.487951 26.3819 0.199951 28.7039 0.199951 31.1159C0.199951 47.0279 13.0879 59.9159 28.9999 59.9159C44.9119 59.9159 57.7999 47.0279 57.7999 31.1159C57.7999 28.8299 57.5299 26.5979 57.0259 24.4739Z" fill="url(#paint10_radial_446_2428)"/>
<path d="M19.6035 39.5399C21.1345 39.5399 22.3755 37.6621 22.3755 35.3459C22.3755 33.0296 21.1345 31.1519 19.6035 31.1519C18.0726 31.1519 16.8315 33.0296 16.8315 35.3459C16.8315 37.6621 18.0726 39.5399 19.6035 39.5399Z" fill="url(#paint11_radial_446_2428)"/>
<path d="M19.6035 32.5735C20.7915 32.5735 21.8355 33.6175 22.3755 35.1475C22.3395 32.8795 21.1155 31.0615 19.6035 31.0615C18.0915 31.0615 16.8675 32.8795 16.8315 35.1475C17.3715 33.6175 18.3975 32.5735 19.6035 32.5735Z" fill="url(#paint12_linear_446_2428)"/>
<path d="M38.396 39.5399C39.927 39.5399 41.168 37.6621 41.168 35.3459C41.168 33.0296 39.927 31.1519 38.396 31.1519C36.8651 31.1519 35.624 33.0296 35.624 35.3459C35.624 37.6621 36.8651 39.5399 38.396 39.5399Z" fill="url(#paint13_radial_446_2428)"/>
<path d="M38.396 32.6814C37.208 32.6814 36.164 33.7254 35.624 35.2554C35.66 32.9874 36.884 31.1694 38.396 31.1694C39.908 31.1694 41.132 32.9874 41.168 35.2554C40.628 33.7074 39.602 32.6814 38.396 32.6814Z" fill="url(#paint14_linear_446_2428)"/>
<path d="M22.7898 52.5533C25.5978 51.9053 27.0378 51.4553 28.9998 51.4553C30.9618 51.4553 32.4018 51.8873 35.2098 52.5533C37.8198 53.1653 39.2958 51.8873 38.9898 50.0513C37.9638 46.1633 33.5898 43.1753 28.9998 43.1753C24.5358 43.1753 20.2878 45.9293 19.0998 49.6193C18.4878 51.6893 19.9818 53.2013 22.7898 52.5533Z" fill="url(#paint15_radial_446_2428)"/>
<path d="M19.0998 50.1953C20.2878 47.1893 24.5358 44.9753 28.9998 44.9753C33.5898 44.9753 37.9638 47.4053 38.9898 50.5553C38.9898 50.5913 39.0078 50.6453 39.0258 50.6993C39.0438 50.5013 39.0258 50.2853 38.9898 50.0513C37.9638 46.1633 33.5898 43.1753 28.9998 43.1753C24.5358 43.1753 20.2878 45.9293 19.0998 49.6193C19.0098 49.9433 18.9558 50.2493 18.9558 50.5373C19.0098 50.4113 19.0638 50.3033 19.0998 50.1953Z" fill="url(#paint16_linear_446_2428)"/>
<path d="M19.0642 26.8494L22.0882 26.5794L25.1302 28.6854L31.7182 25.1754L33.4282 26.2734L40.0162 28.1454C38.5582 25.3554 37.5322 21.6654 39.0442 17.8854C41.8882 10.8294 20.3782 17.7774 20.3782 17.7774C22.3222 21.2154 20.4502 24.8694 19.0642 26.8494Z" fill="url(#paint17_linear_446_2428)"/>
<path d="M33.608 24.3294C33.698 25.7514 34.472 24.4914 34.112 20.3514C33.752 16.2114 35.876 18.4614 35.768 21.8814C35.66 25.3014 38.432 28.3974 37.748 25.8054C37.064 23.2134 37.226 17.9754 38.36 20.8014C38.45 19.8474 38.666 18.8754 39.062 17.8854C41.906 10.8294 20.396 17.7774 20.396 17.7774C20.846 18.5694 21.08 19.3794 21.17 20.1714C21.386 20.4234 21.548 20.8554 21.584 21.4134C21.674 23.4294 22.934 21.4854 22.934 20.0094C22.934 18.5334 24.104 21.0534 24.284 24.6894C24.374 26.3274 25.184 24.9054 25.094 20.3694C25.058 18.5154 26.588 20.4954 26.894 22.4574C27.2 24.4194 27.47 23.7354 28.01 20.7294C28.55 17.7234 29.846 21.3234 29.99 23.5734C30.134 25.8234 30.854 22.4934 31.232 19.8294C31.61 17.1654 33.518 22.9254 33.608 24.3294Z" fill="url(#paint18_linear_446_2428)"/>
<path d="M31.25 10.1638C34.6499 10.1638 37.406 7.95568 37.406 5.23181C37.406 2.50794 34.6499 0.299805 31.25 0.299805C27.8501 0.299805 25.094 2.50794 25.094 5.23181C25.094 7.95568 27.8501 10.1638 31.25 10.1638Z" fill="url(#paint19_radial_446_2428)"/>
<path d="M27.2 1.52353C27.47 1.32553 27.776 1.14553 28.1 1.00153C31.016 -0.384468 34.796 0.389532 36.542 2.72953C37.226 3.64753 37.496 4.69153 37.388 5.68153L34.526 5.46553C34.112 2.74753 31.43 0.263532 27.2 1.52353Z" fill="url(#paint20_radial_446_2428)"/>
<path d="M43.8325 14.2678C47.2324 14.2678 49.9885 12.0597 49.9885 9.33581C49.9885 6.61194 47.2324 4.40381 43.8325 4.40381C40.4326 4.40381 37.6765 6.61194 37.6765 9.33581C37.6765 12.0597 40.4326 14.2678 43.8325 14.2678Z" fill="url(#paint21_radial_446_2428)"/>
<path d="M35.696 13.3138C39.4637 13.3138 42.518 10.8719 42.518 7.85976C42.518 4.8476 39.4637 2.40576 35.696 2.40576C31.9283 2.40576 28.874 4.8476 28.874 7.85976C28.874 10.8719 31.9283 13.3138 35.696 13.3138Z" fill="url(#paint22_radial_446_2428)"/>
<path d="M42.7166 4.47574C43.0766 4.42174 43.4546 4.38574 43.8326 4.38574C47.2345 4.38574 49.9885 6.59974 49.9885 9.31774C49.9885 10.3977 49.5565 11.3877 48.8365 12.1977L46.5145 10.8477C47.8645 8.36374 47.1445 5.14174 42.7166 4.47574Z" fill="url(#paint23_radial_446_2428)"/>
<path d="M16.22 14.2678C19.6198 14.2678 22.376 12.0597 22.376 9.33581C22.376 6.61194 19.6198 4.40381 16.22 4.40381C12.8201 4.40381 10.064 6.61194 10.064 9.33581C10.064 12.0597 12.8201 14.2678 16.22 14.2678Z" fill="url(#paint24_radial_446_2428)"/>
<path d="M24.3559 13.3138C28.1236 13.3138 31.1779 10.8719 31.1779 7.85976C31.1779 4.8476 28.1236 2.40576 24.3559 2.40576C20.5882 2.40576 17.5339 4.8476 17.5339 7.85976C17.5339 10.8719 20.5882 13.3138 24.3559 13.3138Z" fill="url(#paint25_radial_446_2428)"/>
<path d="M17.3184 4.47574C16.9584 4.42174 16.5804 4.38574 16.2024 4.38574C12.8004 4.38574 10.0464 6.59974 10.0464 9.31774C10.0464 10.3977 10.4784 11.3877 11.1984 12.1977L13.5204 10.8477C12.1704 8.36374 12.8904 5.14174 17.3184 4.47574Z" fill="url(#paint26_radial_446_2428)"/>
<path d="M10.4243 19.3259C13.8242 19.3259 16.5803 17.1178 16.5803 14.3939C16.5803 11.67 13.8242 9.46191 10.4243 9.46191C7.02445 9.46191 4.26831 11.67 4.26831 14.3939C4.26831 17.1178 7.02445 19.3259 10.4243 19.3259Z" fill="url(#paint27_radial_446_2428)"/>
<path d="M20.5041 18.6421C23.6554 18.6421 26.2101 16.5951 26.2101 14.07C26.2101 11.545 23.6554 9.49805 20.5041 9.49805C17.3528 9.49805 14.7981 11.545 14.7981 14.07C14.7981 16.5951 17.3528 18.6421 20.5041 18.6421Z" fill="url(#paint28_radial_446_2428)"/>
<path d="M30.4584 20.0818C34.6833 20.0818 38.1084 17.3418 38.1084 13.9618C38.1084 10.5818 34.6833 7.8418 30.4584 7.8418C26.2334 7.8418 22.8083 10.5818 22.8083 13.9618C22.8083 17.3418 26.2334 20.0818 30.4584 20.0818Z" fill="url(#paint29_radial_446_2428)"/>
<path d="M30.4584 20.0818C34.6833 20.0818 38.1084 17.3418 38.1084 13.9618C38.1084 10.5818 34.6833 7.8418 30.4584 7.8418C26.2334 7.8418 22.8083 10.5818 22.8083 13.9618C22.8083 17.3418 26.2334 20.0818 30.4584 20.0818Z" fill="url(#paint30_radial_446_2428)"/>
<path d="M38.5942 19.3979C41.7455 19.3979 44.3002 17.3509 44.3002 14.8259C44.3002 12.3009 41.7455 10.2539 38.5942 10.2539C35.4428 10.2539 32.8882 12.3009 32.8882 14.8259C32.8882 17.3509 35.4428 19.3979 38.5942 19.3979Z" fill="url(#paint31_radial_446_2428)"/>
<path d="M30.4584 20.0818C34.6833 20.0818 38.1084 17.3418 38.1084 13.9618C38.1084 10.5818 34.6833 7.8418 30.4584 7.8418C26.2334 7.8418 22.8083 10.5818 22.8083 13.9618C22.8083 17.3418 26.2334 20.0818 30.4584 20.0818Z" fill="url(#paint32_radial_446_2428)"/>
<path d="M30.4584 20.0818C34.6833 20.0818 38.1084 17.3418 38.1084 13.9618C38.1084 10.5818 34.6833 7.8418 30.4584 7.8418C26.2334 7.8418 22.8083 10.5818 22.8083 13.9618C22.8083 17.3418 26.2334 20.0818 30.4584 20.0818Z" fill="url(#paint33_radial_446_2428)"/>
<path d="M47.7383 19.3259C51.1381 19.3259 53.8943 17.1178 53.8943 14.3939C53.8943 11.67 51.1381 9.46191 47.7383 9.46191C44.3384 9.46191 41.5823 11.67 41.5823 14.3939C41.5823 17.1178 44.3384 19.3259 47.7383 19.3259Z" fill="url(#paint34_radial_446_2428)"/>
<path d="M35.4084 18.6058C36.3084 19.0918 37.4064 19.3798 38.5944 19.3798C40.4304 19.3798 42.0504 18.6958 43.0944 17.6158C44.2284 18.6598 45.8844 19.3078 47.7384 19.3078C50.8704 19.3078 53.4624 17.4358 53.8404 15.0058C50.6724 20.4778 41.7084 15.3838 41.7084 15.3838C40.5024 17.0578 37.7664 15.7618 37.7664 15.7618C37.7664 15.7618 35.6424 18.3718 30.4584 18.3718C25.2744 18.3718 23.3304 16.1398 23.3304 16.1398C18.5964 17.3818 14.9244 14.9518 14.9244 14.9518C11.5404 17.0938 6.71638 17.1118 4.28638 14.1958C4.28638 14.2498 4.28638 14.3218 4.28638 14.3758C4.28638 17.0938 7.04038 19.3078 10.4424 19.3078C12.8004 19.3078 14.8344 18.2458 15.8784 16.6978C16.9044 17.8678 18.6144 18.6238 20.5224 18.6238C21.9444 18.6238 23.2584 18.1918 24.2664 17.5078C24.4464 17.7058 24.6444 17.9038 24.8604 18.0838C27.6324 20.5318 32.3124 20.7478 35.4084 18.6058Z" fill="url(#paint35_linear_446_2428)"/>
<path opacity="0.5" d="M53.8941 14.394C53.8941 12.306 52.2561 10.506 49.9701 9.80397C49.9701 9.74997 49.9881 9.69597 49.9881 9.64197C49.9881 9.62397 49.9881 9.58797 49.9881 9.56997C49.9881 9.49797 49.9881 9.42597 49.9881 9.33597C49.9881 6.61797 47.2341 4.40397 43.8321 4.40397C43.8321 4.40397 43.8321 4.40397 43.8141 4.40397C43.7241 4.40397 43.6161 4.40397 43.5261 4.40397C43.4541 4.40397 43.3821 4.40397 43.3281 4.42197C43.3101 4.42197 43.2741 4.42197 43.2561 4.42197C43.1661 4.42197 43.0761 4.43997 43.0041 4.43997C43.0041 4.43997 43.0041 4.43997 42.9861 4.43997C42.4101 4.51197 41.8701 4.63797 41.3481 4.81797C40.5021 3.80997 39.2241 3.01797 37.6581 2.63997C37.2081 2.53197 36.7581 2.45997 36.2901 2.42397C34.4721 0.317966 30.8901 -0.330034 28.1001 1.00197C28.0101 1.03797 27.9381 1.07397 27.8661 1.12797C27.8121 1.16397 27.7581 1.18197 27.7041 1.21797C27.6861 1.23597 27.6681 1.23597 27.6501 1.25397C27.5781 1.28997 27.5061 1.34397 27.4521 1.37997C27.4521 1.37997 27.4521 1.37997 27.4341 1.37997C26.8941 1.72197 26.4441 2.13597 26.0841 2.58597C23.3661 2.00997 20.3601 2.85597 18.7221 4.83597C18.2181 4.65597 17.6601 4.52997 17.0841 4.45797C17.0841 4.45797 17.0841 4.45797 17.0661 4.45797C16.9761 4.43997 16.8861 4.43997 16.8141 4.43997C16.7961 4.43997 16.7601 4.43997 16.7421 4.43997C16.6701 4.43997 16.5981 4.43997 16.5441 4.42197C16.4541 4.42197 16.3641 4.42197 16.2561 4.42197C16.2561 4.42197 16.2561 4.42197 16.2381 4.42197C12.8361 4.42197 10.0821 6.63597 10.0821 9.35397C10.0821 9.40797 10.0821 9.44397 10.0821 9.47997C7.13009 9.60597 4.73609 11.388 4.34009 13.692C4.37609 13.584 6.28409 9.35397 11.9541 9.60597C11.9541 9.60597 11.1621 9.46197 10.5141 9.46197C10.5141 9.46197 11.0901 3.53997 18.4521 5.12397C18.4521 5.12397 21.8181 1.59597 27.6861 3.08997C27.6861 3.08997 27.1641 2.80197 26.5701 2.69397C26.5701 2.69397 27.9021 0.623966 31.0341 0.623966C34.1661 0.623966 35.6781 2.40597 35.6781 2.40597C35.6781 2.40597 35.1201 2.36997 34.4181 2.49597C34.4181 2.49597 39.8181 2.13597 42.2121 6.25797C42.2121 6.25797 41.9781 5.64597 41.6901 5.26797C41.6901 5.26797 45.2361 3.91797 47.7741 5.95197C50.3121 7.98597 49.1421 9.58797 49.1421 9.58797C49.1421 9.58797 48.4221 9.42597 47.7201 9.46197C47.7201 9.46197 53.6601 10.884 53.7681 15.348C53.8401 15.024 53.8941 14.718 53.8941 14.394Z" fill="url(#paint36_linear_446_2428)"/>
<path d="M49.4118 24.0957C48.9258 23.9877 48.2418 23.3397 48.4578 22.8357C48.8898 21.9177 49.6638 19.8477 49.3938 19.0737L54.0198 17.2017L54.4518 17.3097C54.1278 18.1197 52.7778 20.2077 52.2918 20.7477C52.2918 20.7477 52.4718 21.4497 52.6338 22.4397C52.8138 23.4477 50.7258 24.0417 50.7258 24.0417L49.4118 24.0957Z" fill="url(#paint37_radial_446_2428)"/>
<path d="M8.71349 14.5916C10.0275 13.8896 13.4115 14.0336 14.6355 14.6456C15.8595 15.2576 17.4075 19.0916 17.4075 19.0916L16.9755 19.3976L10.3155 17.3636L8.28149 14.9156L8.71349 14.5916Z" fill="url(#paint38_radial_446_2428)"/>
<path d="M22.5744 24.1141L26.7504 24.9961L29.0364 21.054L28.9284 20.748L25.9044 22.3861L24.7524 23.7001H22.3584L22.5744 24.1141Z" fill="url(#paint39_radial_446_2428)"/>
<path d="M49.4117 24.096C48.9257 23.988 48.6737 23.376 48.9077 22.872C49.3397 21.954 50.0777 20.154 49.8077 19.362L54.4517 17.292C54.4517 17.292 53.4617 20.406 52.8317 21.09C52.8317 21.09 53.0117 21.792 53.1737 22.782C53.3537 23.79 51.2657 24.384 51.2657 24.384L49.4477 24.078L49.4117 24.096Z" fill="url(#paint40_radial_446_2428)"/>
<path d="M8.28163 14.9158C9.59563 14.2138 12.9796 14.3578 14.2036 14.9698C15.4276 15.5818 16.9756 19.4158 16.9756 19.4158L13.7896 20.9998L9.86563 17.6698L7.92163 19.1098L8.28163 14.9158Z" fill="url(#paint41_radial_446_2428)"/>
<path d="M24.716 26.7597L26.966 25.6617L28.568 24.2577L29.036 21.0537L26.03 22.7637L24.752 24.0417L22.574 24.1137L24.716 26.7597Z" fill="url(#paint42_radial_446_2428)"/>
<defs>
<radialGradient id="paint0_radial_446_2428" cx="0" cy="0" r="1" gradientUnits="userSpaceOnUse" gradientTransform="translate(47.8035 13.9353) rotate(74.0264) scale(12.8284 12.8296)">
<stop stop-color="#FF9D00"/>
<stop offset="1" stop-color="#FFB92E"/>
</radialGradient>
<radialGradient id="paint1_radial_446_2428" cx="0" cy="0" r="1" gradientUnits="userSpaceOnUse" gradientTransform="translate(47.1694 14.1168) rotate(74.0262) scale(12.5635 12.5648)">
<stop stop-color="#FFE030"/>
<stop offset="1" stop-color="#FFB92E"/>
</radialGradient>
<radialGradient id="paint2_radial_446_2428" cx="0" cy="0" r="1" gradientUnits="userSpaceOnUse" gradientTransform="translate(18.2632 1.788) rotate(-14.8741) scale(3.70131 3.70131)">
<stop stop-color="#FF9D00"/>
<stop offset="1" stop-color="#FFB92E"/>
</radialGradient>
<radialGradient id="paint3_radial_446_2428" cx="0" cy="0" r="1" gradientUnits="userSpaceOnUse" gradientTransform="translate(6.57143 -13.5332) rotate(-14.8726) scale(21.6195 21.6195)">
<stop stop-color="#FFE030"/>
<stop offset="1" stop-color="#FFB92E"/>
</radialGradient>
<radialGradient id="paint4_radial_446_2428" cx="0" cy="0" r="1" gradientUnits="userSpaceOnUse" gradientTransform="translate(5.97186 10.8537) scale(2.44764 2.44764)">
<stop stop-color="#FF9D00"/>
<stop offset="1" stop-color="#FFB92E"/>
</radialGradient>
<radialGradient id="paint5_radial_446_2428" cx="0" cy="0" r="1" gradientUnits="userSpaceOnUse" gradientTransform="translate(3.63182 10.6511) scale(3.07066 3.07065)">
<stop stop-color="#FFE030"/>
<stop offset="1" stop-color="#FFB92E"/>
</radialGradient>
<linearGradient id="paint6_linear_446_2428" x1="29.0391" y1="28.9282" x2="29.0391" y2="13.5704" gradientUnits="userSpaceOnUse">
<stop stop-color="#FF9214"/>
<stop offset="1" stop-color="#FFBC47"/>
</linearGradient>
<radialGradient id="paint7_radial_446_2428" cx="0" cy="0" r="1" gradientUnits="userSpaceOnUse" gradientTransform="translate(28.2915 26.866) rotate(-1.16159) scale(28.1968 12.5642)">
<stop offset="0.296" stop-color="#FF8000"/>
<stop offset="1" stop-color="#C20000"/>
</radialGradient>
<linearGradient id="paint8_linear_446_2428" x1="29.226" y1="28.1598" x2="29.226" y2="17.463" gradientUnits="userSpaceOnUse">
<stop stop-color="#E7EBEE" stop-opacity="0"/>
<stop offset="1" stop-color="#CFDCDE"/>
</linearGradient>
<radialGradient id="paint9_radial_446_2428" cx="0" cy="0" r="1" gradientUnits="userSpaceOnUse" gradientTransform="translate(23.3335 34.7799) scale(27.8782 27.8782)">
<stop stop-color="#FFE030"/>
<stop offset="1" stop-color="#FFB92E"/>
</radialGradient>
<radialGradient id="paint10_radial_446_2428" cx="0" cy="0" r="1" gradientUnits="userSpaceOnUse" gradientTransform="translate(23.3335 34.7799) scale(21.933)">
<stop stop-color="#FFEA5F"/>
<stop offset="1" stop-color="#FFBC47" stop-opacity="0"/>
</radialGradient>
<radialGradient id="paint11_radial_446_2428" cx="0" cy="0" r="1" gradientUnits="userSpaceOnUse" gradientTransform="translate(18.755 35.4502) rotate(73.8539) scale(4.06923 2.63273)">
<stop offset="0.00132565" stop-color="#7A4400"/>
<stop offset="1" stop-color="#643800"/>
</radialGradient>
<linearGradient id="paint12_linear_446_2428" x1="19.5967" y1="31.129" x2="19.5967" y2="35.0376" gradientUnits="userSpaceOnUse">
<stop offset="0.00132565" stop-color="#3C2200"/>
<stop offset="1" stop-color="#512D00"/>
</linearGradient>
<radialGradient id="paint13_radial_446_2428" cx="0" cy="0" r="1" gradientUnits="userSpaceOnUse" gradientTransform="translate(37.562 35.4509) rotate(73.8539) scale(4.06923 2.63273)">
<stop offset="0.00132565" stop-color="#7A4400"/>
<stop offset="1" stop-color="#643800"/>
</radialGradient>
<linearGradient id="paint14_linear_446_2428" x1="38.4029" y1="31.2318" x2="38.4029" y2="35.1404" gradientUnits="userSpaceOnUse">
<stop offset="0.00132565" stop-color="#3C2200"/>
<stop offset="1" stop-color="#512D00"/>
</linearGradient>
<radialGradient id="paint15_radial_446_2428" cx="0" cy="0" r="1" gradientUnits="userSpaceOnUse" gradientTransform="translate(28.1533 48.0242) scale(6.48576 4.18769)">
<stop offset="0.00132565" stop-color="#7A4400"/>
<stop offset="1" stop-color="#643800"/>
</radialGradient>
<linearGradient id="paint16_linear_446_2428" x1="18.963" y1="46.9212" x2="39.0343" y2="46.9212" gradientUnits="userSpaceOnUse">
<stop offset="0.00132565" stop-color="#3C2200"/>
<stop offset="1" stop-color="#512D00"/>
</linearGradient>
<linearGradient id="paint17_linear_446_2428" x1="29.5504" y1="19.6584" x2="29.5504" y2="31.61" gradientUnits="userSpaceOnUse">
<stop stop-color="#CBD4DB"/>
<stop offset="0.5675" stop-color="white"/>
<stop offset="0.7169" stop-color="#FCFDFD"/>
<stop offset="0.8251" stop-color="#F3F6F7"/>
<stop offset="0.92" stop-color="#E3EBEC"/>
<stop offset="1" stop-color="#CFDCDE"/>
</linearGradient>
<linearGradient id="paint18_linear_446_2428" x1="30.8097" y1="27.4059" x2="29.4298" y2="12.5859" gradientUnits="userSpaceOnUse">
<stop stop-color="#CBD4DB"/>
<stop offset="1" stop-color="#CBD4DB"/>
</linearGradient>
<radialGradient id="paint19_radial_446_2428" cx="0" cy="0" r="1" gradientUnits="userSpaceOnUse" gradientTransform="translate(31.4945 7.1686) rotate(154.566) scale(13.5763 11.9966)">
<stop stop-color="white"/>
<stop offset="0.3454" stop-color="#FCFDFD"/>
<stop offset="0.5956" stop-color="#F3F6F7"/>
<stop offset="0.815" stop-color="#E3EBEC"/>
<stop offset="1" stop-color="#CFDCDE"/>
</radialGradient>
<radialGradient id="paint20_radial_446_2428" cx="0" cy="0" r="1" gradientUnits="userSpaceOnUse" gradientTransform="translate(28.4416 3.85241) rotate(154.566) scale(8.32357 7.35508)">
<stop stop-color="#CFDCDE" stop-opacity="0"/>
<stop offset="0.8869" stop-color="#CFDCDE" stop-opacity="0.8869"/>
<stop offset="1" stop-color="#CFDCDE"/>
</radialGradient>
<radialGradient id="paint21_radial_446_2428" cx="0" cy="0" r="1" gradientUnits="userSpaceOnUse" gradientTransform="translate(51.6972 2.43101) rotate(180) scale(14.2576 11.4241)">
<stop stop-color="white"/>
<stop offset="0.3454" stop-color="#FCFDFD"/>
<stop offset="0.5956" stop-color="#F3F6F7"/>
<stop offset="0.815" stop-color="#E3EBEC"/>
<stop offset="1" stop-color="#CFDCDE"/>
</radialGradient>
<radialGradient id="paint22_radial_446_2428" cx="0" cy="0" r="1" gradientUnits="userSpaceOnUse" gradientTransform="translate(39.8893 2.13585) rotate(-166.436) scale(11.2726 9.30917)">
<stop stop-color="white"/>
<stop offset="0.3454" stop-color="#FCFDFD"/>
<stop offset="0.5956" stop-color="#F3F6F7"/>
<stop offset="0.815" stop-color="#E3EBEC"/>
<stop offset="1" stop-color="#CFDCDE"/>
</radialGradient>
<radialGradient id="paint23_radial_446_2428" cx="0" cy="0" r="1" gradientUnits="userSpaceOnUse" gradientTransform="translate(42.3313 6.93482) rotate(180) scale(8.74128 7.00406)">
<stop stop-color="#CFDCDE" stop-opacity="0"/>
<stop offset="0.8869" stop-color="#CFDCDE" stop-opacity="0.8869"/>
<stop offset="1" stop-color="#CFDCDE"/>
</radialGradient>
<radialGradient id="paint24_radial_446_2428" cx="0" cy="0" r="1" gradientUnits="userSpaceOnUse" gradientTransform="translate(17.1891 11.0351) scale(14.2576 11.4241)">
<stop stop-color="white"/>
<stop offset="0.3454" stop-color="#FCFDFD"/>
<stop offset="0.5956" stop-color="#F3F6F7"/>
<stop offset="0.815" stop-color="#E3EBEC"/>
<stop offset="1" stop-color="#CFDCDE"/>
</radialGradient>
<radialGradient id="paint25_radial_446_2428" cx="0" cy="0" r="1" gradientUnits="userSpaceOnUse" gradientTransform="translate(24.71 5.58013) rotate(27.919) scale(7.03968 6.3297)">
<stop stop-color="white"/>
<stop offset="0.3454" stop-color="#FCFDFD"/>
<stop offset="0.5956" stop-color="#F3F6F7"/>
<stop offset="0.815" stop-color="#E3EBEC"/>
<stop offset="1" stop-color="#CFDCDE"/>
</radialGradient>
<radialGradient id="paint26_radial_446_2428" cx="0" cy="0" r="1" gradientUnits="userSpaceOnUse" gradientTransform="translate(17.7012 6.93482) scale(8.74129 7.00406)">
<stop stop-color="#CFDCDE" stop-opacity="0"/>
<stop offset="0.8869" stop-color="#CFDCDE" stop-opacity="0.8869"/>
<stop offset="1" stop-color="#CFDCDE"/>
</radialGradient>
<radialGradient id="paint27_radial_446_2428" cx="0" cy="0" r="1" gradientUnits="userSpaceOnUse" gradientTransform="translate(14.4944 10.0785) scale(11.8698 9.5108)">
<stop stop-color="white"/>
<stop offset="0.3454" stop-color="#FCFDFD"/>
<stop offset="0.5956" stop-color="#F3F6F7"/>
<stop offset="0.815" stop-color="#E3EBEC"/>
<stop offset="1" stop-color="#CFDCDE"/>
</radialGradient>
<radialGradient id="paint28_radial_446_2428" cx="0" cy="0" r="1" gradientUnits="userSpaceOnUse" gradientTransform="translate(20.1583 11.7977) scale(7.67636 6.15078)">
<stop stop-color="white"/>
<stop offset="0.3454" stop-color="#FCFDFD"/>
<stop offset="0.5956" stop-color="#F3F6F7"/>
<stop offset="0.815" stop-color="#E3EBEC"/>
<stop offset="1" stop-color="#CFDCDE"/>
</radialGradient>
<radialGradient id="paint29_radial_446_2428" cx="0" cy="0" r="1" gradientUnits="userSpaceOnUse" gradientTransform="translate(24.2386 11.3818) rotate(-36.398) scale(13.8172 13.243)">
<stop stop-color="white"/>
<stop offset="0.345" stop-color="#FCFDFD"/>
<stop offset="0.5948" stop-color="#F3F6F7"/>
<stop offset="0.8139" stop-color="#E3EBEC"/>
<stop offset="0.9987" stop-color="#CFDCDE"/>
</radialGradient>
<radialGradient id="paint30_radial_446_2428" cx="0" cy="0" r="1" gradientUnits="userSpaceOnUse" gradientTransform="translate(28.4242 20.0319) rotate(-36.398) scale(12.8824 12.3471)">
<stop stop-color="#CFDCDE" stop-opacity="0"/>
<stop offset="0.8587" stop-color="#CFDCDE" stop-opacity="0.8587"/>
<stop offset="1" stop-color="#CFDCDE"/>
</radialGradient>
<radialGradient id="paint31_radial_446_2428" cx="0" cy="0" r="1" gradientUnits="userSpaceOnUse" gradientTransform="translate(39.5596 12.6026) rotate(180) scale(7.67638 6.15077)">
<stop stop-color="white"/>
<stop offset="0.3454" stop-color="#FCFDFD"/>
<stop offset="0.5956" stop-color="#F3F6F7"/>
<stop offset="0.815" stop-color="#E3EBEC"/>
<stop offset="1" stop-color="#CFDCDE"/>
</radialGradient>
<radialGradient id="paint32_radial_446_2428" cx="0" cy="0" r="1" gradientUnits="userSpaceOnUse" gradientTransform="translate(27.7661 8.77687) rotate(143.602) scale(13.8172 13.243)">
<stop stop-color="white"/>
<stop offset="0.345" stop-color="#FCFDFD"/>
<stop offset="0.5948" stop-color="#F3F6F7"/>
<stop offset="0.8139" stop-color="#E3EBEC"/>
<stop offset="0.9987" stop-color="#CFDCDE"/>
</radialGradient>
<radialGradient id="paint33_radial_446_2428" cx="0" cy="0" r="1" gradientUnits="userSpaceOnUse" gradientTransform="translate(29.3866 11.3787) rotate(143.602) scale(12.8824 12.3471)">
<stop stop-color="#CFDCDE" stop-opacity="0"/>
<stop offset="0.8587" stop-color="#CFDCDE" stop-opacity="0.8587"/>
<stop offset="1" stop-color="#CFDCDE"/>
</radialGradient>
<radialGradient id="paint34_radial_446_2428" cx="0" cy="0" r="1" gradientUnits="userSpaceOnUse" gradientTransform="translate(42.3352 12.0408) rotate(180) scale(11.8698 9.5108)">
<stop stop-color="white"/>
<stop offset="0.3454" stop-color="#FCFDFD"/>
<stop offset="0.5956" stop-color="#F3F6F7"/>
<stop offset="0.815" stop-color="#E3EBEC"/>
<stop offset="1" stop-color="#CFDCDE"/>
</radialGradient>
<linearGradient id="paint35_linear_446_2428" x1="29.057" y1="12.6904" x2="29.057" y2="20.9432" gradientUnits="userSpaceOnUse">
<stop stop-color="#E7EBEE" stop-opacity="0"/>
<stop offset="1" stop-color="#CFDCDE"/>
</linearGradient>
<linearGradient id="paint36_linear_446_2428" x1="29.1129" y1="16.0615" x2="29.1129" y2="-2.35325" gradientUnits="userSpaceOnUse">
<stop stop-color="#E7EBEE" stop-opacity="0"/>
<stop offset="1" stop-color="#CFDCDE"/>
</linearGradient>
<radialGradient id="paint37_radial_446_2428" cx="0" cy="0" r="1" gradientUnits="userSpaceOnUse" gradientTransform="translate(53.2631 11.829) scale(16.1193 16.1193)">
<stop stop-color="#FF9D00"/>
<stop offset="1" stop-color="#FFB92E"/>
</radialGradient>
<radialGradient id="paint38_radial_446_2428" cx="0" cy="0" r="1" gradientUnits="userSpaceOnUse" gradientTransform="translate(8.20548 11.6884) rotate(38.3718) scale(27.4164 27.4164)">
<stop stop-color="#FF9D00"/>
<stop offset="1" stop-color="#FFB92E"/>
</radialGradient>
<radialGradient id="paint39_radial_446_2428" cx="0" cy="0" r="1" gradientUnits="userSpaceOnUse" gradientTransform="translate(23.9241 18.4647) scale(13.5192 13.5192)">
<stop stop-color="#FF9D00"/>
<stop offset="1" stop-color="#FFB92E"/>
</radialGradient>
<radialGradient id="paint40_radial_446_2428" cx="0" cy="0" r="1" gradientUnits="userSpaceOnUse" gradientTransform="translate(53.3414 11.784) scale(16.5669 16.5669)">
<stop stop-color="#FFE030"/>
<stop offset="1" stop-color="#FFB92E"/>
</radialGradient>
<radialGradient id="paint41_radial_446_2428" cx="0" cy="0" r="1" gradientUnits="userSpaceOnUse" gradientTransform="translate(7.40387 12.7521) rotate(38.3718) scale(28.1148 28.1148)">
<stop stop-color="#FFE030"/>
<stop offset="1" stop-color="#FFB92E"/>
</radialGradient>
<radialGradient id="paint42_radial_446_2428" cx="0" cy="0" r="1" gradientUnits="userSpaceOnUse" gradientTransform="translate(24.0843 17.983) scale(16.4355 16.4355)">
<stop stop-color="#FFE030"/>
<stop offset="1" stop-color="#FFB92E"/>
</radialGradient>
</defs>
</svg>
