<svg width="58" height="58" viewBox="0 0 58 58" fill="none" xmlns="http://www.w3.org/2000/svg">
<path d="M29.0002 13.8234C18.5518 13.8234 1.00391 13.0598 1.00391 7.9428H4.78139C4.78139 7.54094 4.59386 7.27303 4.52688 7.20605C5.59851 8.19731 13.8902 10.0325 29.0002 10.0325C44.1101 10.0325 52.3885 8.18392 53.4735 7.20605C53.4065 7.27303 53.219 7.52754 53.219 7.9428H56.9965C56.9965 13.0598 39.4486 13.8234 29.0002 13.8234Z" fill="url(#paint0_radial_446_791)"/>
<path d="M29.0002 13.8234C18.5518 13.8234 1.00391 13.0598 1.00391 7.9428H4.78139C4.78139 7.54094 4.59386 7.27303 4.52688 7.20605C5.59851 8.19731 13.8902 10.0325 29.0002 10.0325C44.1101 10.0325 52.3885 8.18392 53.4735 7.20605C53.4065 7.27303 53.219 7.52754 53.219 7.9428H56.9965C56.9965 13.0598 39.4486 13.8234 29.0002 13.8234Z" fill="url(#paint1_radial_446_791)"/>
<path d="M29 57.8002C44.9058 57.8002 57.7999 44.906 57.7999 29.0002C57.7999 13.0944 44.9058 0.200195 29 0.200195C13.0942 0.200195 0.199951 13.0944 0.199951 29.0002C0.199951 44.906 13.0942 57.8002 29 57.8002Z" fill="url(#paint2_radial_446_791)"/>
<path opacity="0.5" d="M29 57.8002C44.9058 57.8002 57.7999 44.906 57.7999 29.0002C57.7999 13.0944 44.9058 0.200195 29 0.200195C13.0942 0.200195 0.199951 13.0944 0.199951 29.0002C0.199951 44.906 13.0942 57.8002 29 57.8002Z" fill="url(#paint3_radial_446_791)"/>
<path d="M41.7256 37.4259C41.4844 37.3857 41.2433 37.4526 41.0692 37.6268C37.9749 40.5336 33.2061 42.0874 29.6162 42.0874H29H28.3838C24.7938 42.0874 20.0117 40.5336 16.9308 37.6268C16.7566 37.466 16.5155 37.3857 16.2744 37.4259C16.0333 37.466 15.8993 37.7473 16.0199 37.9751C18.6588 42.5429 23.5481 45.3827 28.8526 45.3827H29.0134H29.1741C34.4787 45.3827 39.368 42.5563 42.0069 37.9751C42.114 37.7473 41.9801 37.4794 41.7256 37.4259Z" fill="#643800"/>
<path d="M41.7256 37.4259C41.4844 37.3857 41.2433 37.4526 41.0692 37.6268C37.9749 40.5336 33.2061 42.0874 29.6162 42.0874H29H28.3838C24.7938 42.0874 20.0117 40.5336 16.9308 37.6268C16.7566 37.466 16.5155 37.3857 16.2744 37.4259C16.0333 37.466 15.8993 37.7473 16.0199 37.9751C16.0467 38.0152 16.0735 38.0688 16.1002 38.109C16.3548 37.9617 16.6093 37.8277 16.8906 38.1358C19.8242 41.4311 24.1776 43.4002 28.8392 43.4002H29H29.1607C33.8491 43.4002 38.2294 41.4043 41.163 38.0688C41.4309 37.7607 41.6854 37.9081 41.9265 38.0688C41.9399 38.042 41.9667 38.0019 41.9801 37.9751C42.114 37.7473 41.9801 37.4794 41.7256 37.4259Z" fill="url(#paint4_linear_446_791)"/>
<path d="M21.3915 14.1446C21.0835 13.0328 19.6903 12.6711 17.6141 13.2471C15.8593 13.7428 12.2693 15.7789 10.5681 19.9448C10.26 20.7083 11.1039 20.8423 11.4656 20.3065C12.7114 18.4579 16.5826 15.4574 20.1056 14.868C21.5389 14.6403 21.3915 14.1446 21.3915 14.1446Z" fill="url(#paint5_linear_446_791)"/>
<path d="M21.2039 23.1061C19.208 21.8738 16.636 22.0077 14.7607 23.4142C13.8096 24.1376 12.8719 25.236 12.3227 26.9506C12.229 27.2319 12.162 27.54 12.1486 27.8481C12.1084 28.4643 12.5371 29.0135 13.2336 28.3705C18.5516 23.3473 22.2755 28.5179 22.2755 28.5179C22.9988 29.0403 23.7356 27.9553 23.5882 26.9506C23.548 26.6559 23.5079 26.3478 23.4409 26.0799C23.0122 24.6064 22.1415 23.6821 21.2039 23.1061Z" fill="url(#paint6_radial_446_791)"/>
<path d="M23.4275 26.0665C23.2399 25.4637 22.9854 24.9413 22.7041 24.5127C22.2755 23.8965 21.753 23.441 21.2038 23.1061C19.2079 21.8738 16.636 22.0077 14.7607 23.4142C13.8096 24.1376 12.8719 25.236 12.3227 26.9506C12.2691 27.1113 12.2289 27.2855 12.2021 27.4596V27.473C14.5463 23.8161 17.922 23.5616 17.922 23.5616C17.922 23.5616 21.2708 23.2803 23.5346 26.5487C23.5078 26.388 23.4676 26.2273 23.4275 26.0665Z" fill="url(#paint7_linear_446_791)"/>
<path d="M36.6085 14.1446C36.9166 13.0328 38.3097 12.6711 40.386 13.2471C42.1408 13.7428 45.7308 15.7789 47.432 19.9448C47.7401 20.7083 46.8962 20.8423 46.5345 20.3065C45.2887 18.4579 41.4175 15.4574 37.8945 14.868C36.4612 14.6403 36.6085 14.1446 36.6085 14.1446Z" fill="url(#paint8_linear_446_791)"/>
<path d="M36.7962 23.1061C38.7921 21.8738 41.364 22.0077 43.2393 23.4142C44.1904 24.1376 45.1281 25.236 45.6773 26.9506C45.771 27.2319 45.838 27.54 45.8514 27.8481C45.8916 28.4643 45.463 29.0135 44.7664 28.3705C39.4484 23.3473 35.7245 28.5179 35.7245 28.5179C35.0012 29.0403 34.2644 27.9553 34.4118 26.9506C34.452 26.6559 34.4922 26.3478 34.5591 26.0799C34.9878 24.6064 35.8585 23.6821 36.7962 23.1061Z" fill="url(#paint9_radial_446_791)"/>
<path d="M34.5723 26.0665C34.7598 25.4637 35.0143 24.9413 35.2956 24.5127C35.7243 23.8965 36.2467 23.441 36.7959 23.1061C38.7918 21.8738 41.3637 22.0077 43.239 23.4142C44.1901 24.1376 45.1278 25.236 45.677 26.9506C45.7306 27.1113 45.7708 27.2855 45.7976 27.4596V27.473C43.4534 23.8161 40.0777 23.5616 40.0777 23.5616C40.0777 23.5616 36.7289 23.2803 34.4651 26.5487C34.4919 26.388 34.5321 26.2273 34.5723 26.0665Z" fill="url(#paint10_linear_446_791)"/>
<path opacity="0.5" d="M29 8.94717C42.0069 8.94717 52.3749 13.7293 54.344 15.2966C52.0266 11.0101 48.651 7.39331 44.5654 4.76782C39.5154 3.70959 33.5276 3.45508 29 3.45508C24.4724 3.45508 18.4713 3.70959 13.4346 4.76782C9.36242 7.39331 5.9868 11.0101 3.65601 15.2966C5.62512 13.7293 15.9931 8.94717 29 8.94717Z" fill="url(#paint11_radial_446_791)"/>
<path opacity="0.5" d="M3.1604 16.2745C3.22738 16.1539 3.29435 16.0334 3.36133 15.8994C3.29435 16.02 3.22738 16.1405 3.1604 16.2745Z" fill="url(#paint12_radial_446_791)"/>
<path opacity="0.5" d="M54.6387 15.8857C54.6923 16.0197 54.7592 16.1403 54.8396 16.2608C54.7726 16.1403 54.7056 16.0197 54.6387 15.8857Z" fill="url(#paint13_radial_446_791)"/>
<path d="M53.3127 8.55903C51.7455 7.55438 43.5341 5.83978 29.0002 5.83978C14.4662 5.83978 6.24149 7.55438 4.68763 8.55903C4.43312 9.30917 1.00391 8.98768 1.00391 7.94285C1.00391 2.83922 18.5518 2.07568 29.0002 2.07568C39.4486 2.07568 56.9965 2.83922 56.9965 7.95624C56.9965 8.98768 53.5673 9.30917 53.3127 8.55903Z" fill="url(#paint14_radial_446_791)"/>
<path opacity="0.5" d="M53.3127 8.55903C51.7455 7.55438 43.5341 5.83978 29.0002 5.83978C14.4662 5.83978 6.24149 7.55438 4.68763 8.55903C2.89265 9.83159 1.00391 8.98769 1.00391 7.94285C1.00391 2.83922 18.5518 2.07568 29.0002 2.07568C39.4486 2.07568 56.9965 2.83922 56.9965 7.95624C56.9965 8.98769 55.1077 9.83159 53.3127 8.55903Z" fill="url(#paint15_radial_446_791)"/>
<defs>
<radialGradient id="paint0_radial_446_791" cx="0" cy="0" r="1" gradientUnits="userSpaceOnUse" gradientTransform="translate(29.0002 4.79662) rotate(180) scale(31.6102 8.62642)">
<stop stop-color="#AFE8FF"/>
<stop offset="0.0467788" stop-color="#8FDEFF"/>
<stop offset="0.1178" stop-color="#64D1FE"/>
<stop offset="0.1869" stop-color="#43C7FE"/>
<stop offset="0.2524" stop-color="#2BC0FD"/>
<stop offset="0.313" stop-color="#1CBCFD"/>
<stop offset="0.3638" stop-color="#17BAFD"/>
<stop offset="1" stop-color="#008DE5"/>
</radialGradient>
<radialGradient id="paint1_radial_446_791" cx="0" cy="0" r="1" gradientUnits="userSpaceOnUse" gradientTransform="translate(29.1183 14.1282) rotate(180) scale(52.8855 14.4325)">
<stop stop-color="#AFE8FF"/>
<stop offset="0.0467788" stop-color="#8FDEFF"/>
<stop offset="0.1178" stop-color="#64D1FE"/>
<stop offset="0.1869" stop-color="#43C7FE"/>
<stop offset="0.2524" stop-color="#2BC0FD"/>
<stop offset="0.313" stop-color="#1CBCFD"/>
<stop offset="0.3638" stop-color="#17BAFD"/>
<stop offset="1" stop-color="#3640FF"/>
</radialGradient>
<radialGradient id="paint2_radial_446_791" cx="0" cy="0" r="1" gradientUnits="userSpaceOnUse" gradientTransform="translate(23.3335 17.3285) scale(34.7435)">
<stop stop-color="#FFDF30"/>
<stop offset="1" stop-color="#FFB82E"/>
</radialGradient>
<radialGradient id="paint3_radial_446_791" cx="0" cy="0" r="1" gradientUnits="userSpaceOnUse" gradientTransform="translate(23.3335 17.3285) scale(27.3342)">
<stop stop-color="#FFE95F"/>
<stop offset="1" stop-color="#FFBB47" stop-opacity="0"/>
</radialGradient>
<linearGradient id="paint4_linear_446_791" x1="29" y1="39.4599" x2="29" y2="43.7594" gradientUnits="userSpaceOnUse">
<stop offset="0.00132565" stop-color="#3C2200"/>
<stop offset="1" stop-color="#512D00"/>
</linearGradient>
<linearGradient id="paint5_linear_446_791" x1="16.0613" y1="17.6471" x2="15.2429" y2="14.7247" gradientUnits="userSpaceOnUse">
<stop offset="0.00132565" stop-color="#3C2200"/>
<stop offset="1" stop-color="#7A4400"/>
</linearGradient>
<radialGradient id="paint6_radial_446_791" cx="0" cy="0" r="1" gradientUnits="userSpaceOnUse" gradientTransform="translate(17.8912 25.6453) rotate(175.474) scale(4.44318 3.15059)">
<stop offset="0.00132565" stop-color="#7A4400"/>
<stop offset="1" stop-color="#643800"/>
</radialGradient>
<linearGradient id="paint7_linear_446_791" x1="18.364" y1="20.0507" x2="18.0112" y2="24.8867" gradientUnits="userSpaceOnUse">
<stop offset="0.00132565" stop-color="#3C2200"/>
<stop offset="1" stop-color="#512D00"/>
</linearGradient>
<linearGradient id="paint8_linear_446_791" x1="41.9709" y1="17.6528" x2="42.7894" y2="14.7304" gradientUnits="userSpaceOnUse">
<stop offset="0.00132565" stop-color="#3C2200"/>
<stop offset="1" stop-color="#7A4400"/>
</linearGradient>
<radialGradient id="paint9_radial_446_791" cx="0" cy="0" r="1" gradientUnits="userSpaceOnUse" gradientTransform="translate(40.0704 25.6446) rotate(4.52559) scale(4.44318 3.15059)">
<stop offset="0.00132565" stop-color="#7A4400"/>
<stop offset="1" stop-color="#643800"/>
</radialGradient>
<linearGradient id="paint10_linear_446_791" x1="39.6063" y1="20.0523" x2="39.959" y2="24.8884" gradientUnits="userSpaceOnUse">
<stop offset="0.00132565" stop-color="#3C2200"/>
<stop offset="1" stop-color="#512D00"/>
</linearGradient>
<radialGradient id="paint11_radial_446_791" cx="0" cy="0" r="1" gradientUnits="userSpaceOnUse" gradientTransform="translate(28.7637 9.83852) rotate(90) scale(8.84958 29.2656)">
<stop stop-color="#7A4400" stop-opacity="0.5"/>
<stop offset="0.6008" stop-color="#894D00" stop-opacity="0.1981"/>
<stop offset="0.995" stop-color="#965500" stop-opacity="0"/>
</radialGradient>
<radialGradient id="paint12_radial_446_791" cx="0" cy="0" r="1" gradientUnits="userSpaceOnUse" gradientTransform="translate(29.0493 12.201) scale(8.83267 8.8329)">
<stop offset="0.0049844" stop-color="#965500" stop-opacity="0"/>
<stop offset="0.3992" stop-color="#894D00" stop-opacity="0.1981"/>
<stop offset="1" stop-color="#7A4400" stop-opacity="0.5"/>
</radialGradient>
<radialGradient id="paint13_radial_446_791" cx="0" cy="0" r="1" gradientUnits="userSpaceOnUse" gradientTransform="translate(29.05 12.2008) scale(8.83237 8.83258)">
<stop offset="0.0049844" stop-color="#965500" stop-opacity="0"/>
<stop offset="0.3992" stop-color="#894D00" stop-opacity="0.1981"/>
<stop offset="1" stop-color="#7A4400" stop-opacity="0.5"/>
</radialGradient>
<radialGradient id="paint14_radial_446_791" cx="0" cy="0" r="1" gradientUnits="userSpaceOnUse" gradientTransform="translate(28.9994 2.36629) rotate(89.6535) scale(7.45845 45.0573)">
<stop stop-color="#AFE8FF"/>
<stop offset="0.0165504" stop-color="#ABE7FF"/>
<stop offset="0.1448" stop-color="#93DFFE"/>
<stop offset="0.2639" stop-color="#85DBFD"/>
<stop offset="0.3638" stop-color="#80D9FD"/>
<stop offset="1" stop-color="#008DE5"/>
</radialGradient>
<radialGradient id="paint15_radial_446_791" cx="0" cy="0" r="1" gradientUnits="userSpaceOnUse" gradientTransform="translate(17.4833 3.51532) rotate(-1.56628) scale(13.4056 1.60396)">
<stop stop-color="white"/>
<stop offset="0.0236692" stop-color="#FCFEFF" stop-opacity="0.9763"/>
<stop offset="0.2964" stop-color="#DAF4FF" stop-opacity="0.7036"/>
<stop offset="0.5569" stop-color="#C2EEFF" stop-opacity="0.4431"/>
<stop offset="0.7977" stop-color="#B4E9FF" stop-opacity="0.2023"/>
<stop offset="1" stop-color="#AFE8FF" stop-opacity="0"/>
</radialGradient>
</defs>
</svg>
