<svg width="65" height="62" viewBox="0 0 65 62" fill="none" xmlns="http://www.w3.org/2000/svg">
<path d="M35.2631 61.287C50.6392 61.287 63.1039 48.8223 63.1039 33.4462C63.1039 18.0702 50.6392 5.60547 35.2631 5.60547C19.8871 5.60547 7.42236 18.0702 7.42236 33.4462C7.42236 48.8223 19.8871 61.287 35.2631 61.287Z" fill="url(#paint0_radial_528_52)"/>
<path opacity="0.5" d="M35.2631 61.287C50.6392 61.287 63.1039 48.8223 63.1039 33.4462C63.1039 18.0702 50.6392 5.60547 35.2631 5.60547C19.8871 5.60547 7.42236 18.0702 7.42236 33.4462C7.42236 48.8223 19.8871 61.287 35.2631 61.287Z" fill="url(#paint1_radial_528_52)"/>
<path d="M29.1904 23.2839C29.347 22.1703 28.2333 21.3177 26.1801 21.0566C24.4226 20.8304 20.4727 21.2655 17.358 24.3105C16.7838 24.8673 17.4972 25.3198 18.0193 24.9718C19.8289 23.8059 24.4226 22.6227 27.7635 23.4405C29.1207 23.7885 29.1904 23.2839 29.1904 23.2839Z" fill="url(#paint2_linear_528_52)"/>
<path d="M41.3358 23.2839C41.1792 22.1703 42.2929 21.3177 44.3461 21.0566C46.1036 20.8304 50.0535 21.2655 53.1682 24.3105C53.7424 24.8673 53.029 25.3198 52.507 24.9718C50.6973 23.8059 46.1036 22.6227 42.7627 23.4405C41.388 23.7885 41.3358 23.2839 41.3358 23.2839Z" fill="url(#paint3_linear_528_52)"/>
<path d="M35.2631 61.287C50.6392 61.287 63.1039 48.8223 63.1039 33.4462C63.1039 18.0702 50.6392 5.60547 35.2631 5.60547C19.8871 5.60547 7.42236 18.0702 7.42236 33.4462C7.42236 48.8223 19.8871 61.287 35.2631 61.287Z" fill="url(#paint4_radial_528_52)"/>
<path opacity="0.5" d="M35.2631 61.287C50.6392 61.287 63.1039 48.8223 63.1039 33.4462C63.1039 18.0702 50.6392 5.60547 35.2631 5.60547C19.8871 5.60547 7.42236 18.0702 7.42236 33.4462C7.42236 48.8223 19.8871 61.287 35.2631 61.287Z" fill="url(#paint5_radial_528_52)"/>
<path opacity="0.75" d="M35.2631 61.287C50.6392 61.287 63.1039 48.8223 63.1039 33.4462C63.1039 18.0702 50.6392 5.60547 35.2631 5.60547C19.8871 5.60547 7.42236 18.0702 7.42236 33.4462C7.42236 48.8223 19.8871 61.287 35.2631 61.287Z" fill="url(#paint6_radial_528_52)"/>
<path opacity="0.4" d="M29.6603 52.9694C33.1679 52.9694 36.0114 50.1259 36.0114 46.6183C36.0114 43.1106 33.1679 40.2671 29.6603 40.2671C26.1526 40.2671 23.3091 43.1106 23.3091 46.6183C23.3091 50.1259 26.1526 52.9694 29.6603 52.9694Z" fill="url(#paint7_radial_528_52)"/>
<path d="M35.8371 49.8545C36.8173 49.8545 37.612 48.8261 37.612 47.5576C37.612 46.2891 36.8173 45.2607 35.8371 45.2607C34.8569 45.2607 34.0623 46.2891 34.0623 47.5576C34.0623 48.8261 34.8569 49.8545 35.8371 49.8545Z" fill="url(#paint8_linear_528_52)"/>
<path d="M60.5632 38.6665C60.6676 39.6235 60.0411 41.3288 59.0493 42.4424C58.3011 43.295 57.2571 43.6256 56.213 43.4342C56.0042 43.3994 55.8128 43.3472 55.604 43.2602C54.2642 42.7034 52.9939 41.729 51.6367 41.9378L43.0235 43.1906C41.875 43.3646 40.7614 43.6604 39.6826 44.0954L35.1584 46.4445L35.4021 48.0802L40.396 49.0372C41.5618 49.159 42.7103 49.1242 43.8587 48.9676L54.6992 47.3841L57.8139 46.3749L61.8508 43.3124C62.773 42.5294 62.7556 40.8068 61.816 39.9193L60.5632 38.6665Z" fill="url(#paint9_linear_528_52)"/>
<path d="M42.3622 43.312C41.4574 43.486 40.5699 43.747 39.6999 44.1124L35.1758 46.4615L35.4194 48.0971L40.4133 49.0542C41.3356 49.1412 42.2752 49.1412 43.18 49.0542C42.7276 48.9672 42.2056 47.7839 41.9968 46.3049C41.788 44.7911 41.9446 43.5208 42.3622 43.312Z" fill="url(#paint10_linear_528_52)"/>
<path d="M60.5632 38.6665C60.6676 39.6235 60.0411 41.3288 59.0493 42.4424C58.3011 43.295 57.2571 43.6256 56.213 43.4342C56.0042 43.3994 55.8128 43.3472 55.604 43.2602C54.2642 42.7034 52.9939 41.729 51.6367 41.9378L43.0235 43.1906C41.875 43.3646 40.7614 43.6604 39.6826 44.0954L35.1584 46.4445L35.4021 48.0802L40.396 49.0372C41.5618 49.159 42.7103 49.1242 43.8587 48.9676L54.1424 47.4711L57.1701 46.8447L61.8334 43.3298C62.7556 42.5468 62.7382 40.8242 61.7986 39.9367L60.5632 38.6665Z" fill="url(#paint11_linear_528_52)"/>
<path d="M54.1599 47.4711C59.9543 46.6359 65.679 45.1742 64.4436 37.5528C63.5562 32.0195 55.1343 31.5148 54.6645 35.3952C55.2735 34.7339 56.161 33.3941 56.8048 33.3767C59.8151 33.2723 60.7373 36.735 60.7895 38.5968C60.8939 43.2602 57.031 47.0535 54.1599 47.4711Z" fill="url(#paint12_linear_528_52)"/>
<path d="M59.5713 36.1262C60.3717 36.3872 60.5805 37.6574 60.5631 38.6493C60.5631 38.6493 60.7893 39.2235 60.6327 39.4671L60.7545 39.2409C60.7545 39.2235 60.7719 38.5971 60.7719 38.5797C60.7197 36.7178 59.7627 33.2203 56.7872 33.3595C54.0727 33.4987 54.2815 37.4312 55.0298 38.5275L55.4474 39.2061L58.6665 38.6145C58.2488 36.4916 58.9275 35.9174 59.5713 36.1262Z" fill="url(#paint13_linear_528_52)"/>
<path d="M54.5774 36.874C54.7166 37.9703 55.169 39.0143 55.6388 38.9447C56.1086 38.8751 56.3 37.8137 56.213 37.1872L60.2673 37.7963C60.3543 38.3705 60.1803 39.3449 59.7453 39.4145L55.691 39.3449C54.7514 39.3275 54.5774 37.3612 54.5774 36.874Z" fill="url(#paint14_linear_528_52)"/>
<path d="M35.8722 47.4885C35.3328 51.5602 32.0441 52.4476 32.7054 51.2818C33.5754 49.6984 33.7842 48.6543 33.9756 47.2449C34.167 45.8354 34.2366 44.774 33.819 43.0166C33.4884 41.7115 36.4117 43.4168 35.8722 47.4885Z" fill="#643800"/>
<path d="M33.8014 43.0166C34.2365 44.7741 34.1494 45.8355 33.958 47.2449C33.7666 48.6544 33.5578 49.6984 32.6878 51.2818C32.4616 51.6995 32.7052 51.8561 33.1576 51.7169C33.1402 51.7169 32.7052 51.595 33.1054 51.0556C33.7144 50.2552 34.6541 49.072 34.8803 47.3841C35.1065 45.6789 34.5149 44.3042 34.132 43.3646C33.9058 42.7382 34.3583 42.7382 34.3583 42.7382C33.9754 42.4772 33.697 42.5642 33.8014 43.0166Z" fill="url(#paint15_linear_528_52)"/>
<path opacity="0.75" d="M60.5631 38.6665C60.6675 39.6235 60.0411 41.3288 59.0493 42.4424C58.3011 43.295 57.2571 43.6256 56.213 43.4342C56.0042 43.3994 55.8128 43.3472 55.604 43.2602C54.2642 42.7034 52.9939 41.729 51.6367 41.9378L43.0235 43.1906C41.875 43.3646 40.7614 43.6604 39.6826 44.0954L35.1584 46.4445L35.4021 48.0802L40.396 49.0372C41.5618 49.159 42.7103 49.1242 43.8587 48.9676L54.1424 47.4711L57.1701 46.8447L61.8334 43.3298C62.7556 42.5468 62.7382 40.8242 61.7986 39.9367L60.5631 38.6665Z" fill="url(#paint16_radial_528_52)"/>
<path opacity="0.75" d="M54.1599 47.4711C59.9543 46.6359 65.679 45.1742 64.4436 37.5528C63.5562 32.0195 55.1343 31.5148 54.6645 35.3952C55.2735 34.7339 56.161 33.3941 56.8048 33.3767C59.8151 33.2723 60.7373 36.735 60.7895 38.5968C60.8939 43.2602 57.031 47.0535 54.1599 47.4711Z" fill="url(#paint17_radial_528_52)"/>
<path d="M22.6825 10.6863C22.9435 10.5645 22.9609 10.1991 22.6999 10.0599L20.1421 8.72007L4.82964 0.768053C4.51643 0.611449 3.26359 0.0546334 1.85415 1.23787C0.357711 2.5429 0.70572 3.53473 0.810123 3.84794L8.76215 24.4327C8.93615 24.9025 9.59737 24.8851 9.77138 24.4153C11.7202 18.882 19.6027 12.1132 22.6825 10.6863Z" fill="url(#paint18_linear_528_52)"/>
<path d="M20.1595 8.72032L16.9926 7.08467C15.8442 6.56266 6.20429 13.8535 6.4479 18.3776L8.29235 23.1453C6.08249 17.4728 18.6108 7.9199 20.1595 8.72032Z" fill="url(#paint19_linear_528_52)"/>
<path d="M13.7735 5.43166L13.06 5.04885L10.6066 3.77861C9.57994 3.69161 3.83778 8.09393 3.61157 11.0694L5.14281 15.0019C4.7948 10.878 12.7294 4.87484 13.7735 5.43166Z" fill="url(#paint20_linear_528_52)"/>
<path d="M5.02107 0.889648C4.11624 1.22026 1.76718 3.01251 1.10596 4.57855L2.7068 8.73727C1.73237 6.1968 6.81332 2.36869 7.89215 2.36869L5.02107 0.889648Z" fill="url(#paint21_linear_528_52)"/>
<path opacity="0.75" d="M22.6825 10.6863C22.9435 10.5645 22.9609 10.1991 22.6999 10.0599L20.1421 8.72007L4.82964 0.768053C4.51643 0.611449 3.26359 0.0546334 1.85415 1.23787C0.357711 2.5429 0.70572 3.53473 0.810123 3.84794L8.76215 24.4327C8.93615 24.9025 9.59737 24.8851 9.77138 24.4153C11.7202 18.882 19.6027 12.1132 22.6825 10.6863Z" fill="url(#paint22_radial_528_52)"/>
<path opacity="0.75" d="M22.6825 10.6863C22.9435 10.5645 22.9609 10.1991 22.6999 10.0599L20.1421 8.72007L4.82964 0.768053C4.51643 0.611449 3.26359 0.0546334 1.85415 1.23787C0.357711 2.5429 0.70572 3.53473 0.810123 3.84794L8.76215 24.4327C8.93615 24.9025 9.59737 24.8851 9.77138 24.4153C11.7202 18.882 19.6027 12.1132 22.6825 10.6863Z" fill="url(#paint23_radial_528_52)"/>
<path opacity="0.75" d="M22.6825 10.6863C22.9435 10.5645 22.9609 10.1991 22.6999 10.0599L20.1421 8.72007L4.82964 0.768053C4.51643 0.611449 3.26359 0.0546334 1.85415 1.23787C0.357711 2.5429 0.70572 3.53473 0.810123 3.84794L8.76215 24.4327C8.93615 24.9025 9.59737 24.8851 9.77138 24.4153C11.7202 18.882 19.6027 12.1132 22.6825 10.6863Z" fill="url(#paint24_radial_528_52)"/>
<path d="M27.7287 28.9569C25.7972 27.7563 23.3089 27.8955 21.4993 29.2527C20.5771 29.9487 19.6722 31.0102 19.1328 32.6632C19.0458 32.9416 18.9762 33.2374 18.9588 33.5332C18.924 34.1248 19.3416 34.6643 20.0028 34.0378C25.1534 29.1831 28.7553 34.177 28.7553 34.177C29.4513 34.6817 30.1647 33.6376 30.0255 32.6632C29.9907 32.3848 29.9559 32.089 29.8689 31.828C29.4687 30.4185 28.6161 29.5311 27.7287 28.9569Z" fill="url(#paint25_radial_528_52)"/>
<path d="M29.8689 31.8277C29.6775 31.2361 29.4339 30.7488 29.1729 30.3312C28.7553 29.7396 28.2506 29.3046 27.7286 28.974C25.7972 27.7734 23.3089 27.9126 21.4993 29.2698C20.577 29.9658 19.6722 31.0272 19.1328 32.6803C19.0806 32.8369 19.0458 33.0109 19.011 33.1849C19.011 33.1849 19.011 33.1849 19.011 33.2023C21.2731 29.67 24.5443 29.4264 24.5443 29.4264C24.5443 29.4264 27.7808 29.148 29.9733 32.3149C29.9385 32.1409 29.9211 31.9843 29.8689 31.8277Z" fill="url(#paint26_linear_528_52)"/>
<path d="M42.7976 28.9569C44.729 27.7563 47.2173 27.8955 49.027 29.2527C49.9492 29.9487 50.854 31.0102 51.3934 32.6632C51.4804 32.9416 51.55 33.2374 51.5674 33.5332C51.6022 34.1248 51.1846 34.6643 50.5234 34.0378C45.3728 29.1831 41.7709 34.177 41.7709 34.177C41.0749 34.6817 40.3615 33.6376 40.5007 32.6632C40.5355 32.3848 40.5703 32.089 40.6573 31.828C41.0401 30.4185 41.8927 29.5311 42.7976 28.9569Z" fill="url(#paint27_radial_528_52)"/>
<path d="M40.64 31.8277C40.8315 31.2361 41.0751 30.7488 41.3361 30.3312C41.7537 29.7396 42.2583 29.3046 42.7803 28.974C44.7118 27.7734 47.2 27.9126 49.0097 29.2698C49.9319 29.9658 50.8367 31.0272 51.3762 32.6803C51.4284 32.8369 51.4632 33.0109 51.498 33.1849C51.498 33.1849 51.498 33.1849 51.498 33.2023C49.2359 29.67 45.9646 29.4264 45.9646 29.4264C45.9646 29.4264 42.7281 29.148 40.5356 32.3149C40.5704 32.1409 40.6052 31.9669 40.64 31.8277Z" fill="url(#paint28_linear_528_52)"/>
<path d="M41.7709 49.1062C41.3359 48.9844 40.8835 47.8534 40.6747 46.4613C40.4833 45.1389 40.6051 43.9905 40.9357 43.6772C40.5181 43.799 40.1005 43.9557 39.7003 44.1123L39.6481 44.1297C39.3871 44.5125 39.2479 45.4695 39.4045 46.6179C39.5611 47.7316 39.9787 48.6538 40.3267 49.0192L40.4137 49.0366C40.8661 49.0888 41.3185 49.1062 41.7709 49.1062Z" fill="url(#paint29_linear_528_52)"/>
<g opacity="0.25">
<path opacity="0.25" d="M13.1295 26.0157C14.0343 28.6257 11.7548 29.3044 12.5031 30.9922L15.0435 30.331C14.2953 28.6431 16.279 27.9993 15.4785 25.3022L13.1295 26.0157Z" fill="url(#paint30_radial_528_52)"/>
<path opacity="0.25" d="M56.126 17.5768C52.6459 19.543 51.7585 15.4887 49.4094 16.3935L50.1402 19.891C52.4719 19.0036 53.4637 22.7969 56.9438 20.8306L56.126 17.5768Z" fill="url(#paint31_radial_528_52)"/>
<path opacity="0.25" d="M27.8328 13.5396C28.2268 13.5396 28.5462 13.2202 28.5462 12.8262C28.5462 12.4322 28.2268 12.1128 27.8328 12.1128C27.4388 12.1128 27.1194 12.4322 27.1194 12.8262C27.1194 13.2202 27.4388 13.5396 27.8328 13.5396Z" fill="url(#paint32_radial_528_52)"/>
<path opacity="0.25" d="M46.1382 13.2266C46.5322 13.2266 46.8516 12.9072 46.8516 12.5132C46.8516 12.1192 46.5322 11.7998 46.1382 11.7998C45.7442 11.7998 45.4248 12.1192 45.4248 12.5132C45.4248 12.9072 45.7442 13.2266 46.1382 13.2266Z" fill="url(#paint33_radial_528_52)"/>
<path opacity="0.25" d="M59.0144 30.3487C59.4085 30.3487 59.7279 30.0293 59.7279 29.6353C59.7279 29.2413 59.4085 28.9219 59.0144 28.9219C58.6204 28.9219 58.301 29.2413 58.301 29.6353C58.301 30.0293 58.6204 30.3487 59.0144 30.3487Z" fill="url(#paint34_radial_528_52)"/>
<path opacity="0.25" d="M14.3648 40.65C14.7588 40.65 15.0782 40.3306 15.0782 39.9366C15.0782 39.5426 14.7588 39.2231 14.3648 39.2231C13.9708 39.2231 13.6514 39.5426 13.6514 39.9366C13.6514 40.3306 13.9708 40.65 14.3648 40.65Z" fill="url(#paint35_radial_528_52)"/>
<path opacity="0.25" d="M48.2784 55.3531C48.6724 55.3531 48.9918 55.0337 48.9918 54.6397C48.9918 54.2457 48.6724 53.9263 48.2784 53.9263C47.8844 53.9263 47.5649 54.2457 47.5649 54.6397C47.5649 55.0337 47.8844 55.3531 48.2784 55.3531Z" fill="url(#paint36_radial_528_52)"/>
<path opacity="0.25" d="M46.1033 37.9874C46.4973 37.9874 46.8167 37.668 46.8167 37.274C46.8167 36.88 46.4973 36.5605 46.1033 36.5605C45.7093 36.5605 45.3899 36.88 45.3899 37.274C45.3899 37.668 45.7093 37.9874 46.1033 37.9874Z" fill="url(#paint37_radial_528_52)"/>
<path opacity="0.25" d="M38.9865 13.9052C38.9169 12.7741 38.8125 11.5909 38.6733 10.3555C34.2884 13.1047 32.6179 16.4456 32.6179 16.4456L33.923 19.2645C35.2976 16.6544 37.5771 14.8448 38.9865 13.9052Z" fill="url(#paint38_radial_528_52)"/>
</g>
<path d="M12.7469 24.4854C13.6517 27.0955 11.3723 27.7741 12.1205 29.4619L14.661 28.8007C13.9127 27.1129 15.8964 26.469 15.096 23.772L12.7469 24.4854Z" fill="url(#paint39_linear_528_52)"/>
<path d="M56.1265 16.1676C52.6464 18.1338 51.759 14.0795 49.4099 14.9843L50.1407 18.4818C52.4724 17.5944 53.4642 21.3877 56.9443 19.4215L56.1265 16.1676Z" fill="url(#paint40_linear_528_52)"/>
<path d="M57.4139 12.1827C57.8079 12.1827 58.1273 11.8633 58.1273 11.4693C58.1273 11.0753 57.8079 10.7559 57.4139 10.7559C57.0198 10.7559 56.7004 11.0753 56.7004 11.4693C56.7004 11.8633 57.0198 12.1827 57.4139 12.1827Z" fill="url(#paint41_linear_528_52)"/>
<path d="M27.8333 12.4962C28.2273 12.4962 28.5467 12.1768 28.5467 11.7828C28.5467 11.3887 28.2273 11.0693 27.8333 11.0693C27.4393 11.0693 27.1199 11.3887 27.1199 11.7828C27.1199 12.1768 27.4393 12.4962 27.8333 12.4962Z" fill="url(#paint42_linear_528_52)"/>
<path d="M46.1385 12.1827C46.5325 12.1827 46.8519 11.8633 46.8519 11.4693C46.8519 11.0753 46.5325 10.7559 46.1385 10.7559C45.7445 10.7559 45.425 11.0753 45.425 11.4693C45.425 11.8633 45.7445 12.1827 46.1385 12.1827Z" fill="url(#paint43_linear_528_52)"/>
<path d="M59.0149 29.3053C59.4089 29.3053 59.7284 28.9859 59.7284 28.5918C59.7284 28.1978 59.4089 27.8784 59.0149 27.8784C58.6209 27.8784 58.3015 28.1978 58.3015 28.5918C58.3015 28.9859 58.6209 29.3053 59.0149 29.3053Z" fill="url(#paint44_linear_528_52)"/>
<path d="M14.2085 39.8326C14.6025 39.8326 14.922 39.5132 14.922 39.1192C14.922 38.7252 14.6025 38.4058 14.2085 38.4058C13.8145 38.4058 13.4951 38.7252 13.4951 39.1192C13.4951 39.5132 13.8145 39.8326 14.2085 39.8326Z" fill="url(#paint45_linear_528_52)"/>
<path d="M46.0166 37.0137C46.4107 37.0137 46.7301 36.6943 46.7301 36.3003C46.7301 35.9063 46.4107 35.5869 46.0166 35.5869C45.6226 35.5869 45.3032 35.9063 45.3032 36.3003C45.3032 36.6943 45.6226 37.0137 46.0166 37.0137Z" fill="url(#paint46_linear_528_52)"/>
<path d="M8.55351 50.0289C8.94752 50.0289 9.26693 49.7095 9.26693 49.3155C9.26693 48.9215 8.94752 48.6021 8.55351 48.6021C8.1595 48.6021 7.84009 48.9215 7.84009 49.3155C7.84009 49.7095 8.1595 50.0289 8.55351 50.0289Z" fill="url(#paint47_linear_528_52)"/>
<path d="M39.3525 11.4174C39.2829 10.2863 39.1785 9.10311 39.0392 7.86768C34.6543 10.617 32.9839 13.9578 32.9839 13.9578L34.2889 16.7767C35.6636 14.184 37.943 12.357 39.3525 11.4174Z" fill="url(#paint48_linear_528_52)"/>
<path d="M25.6058 44.965C26.006 52.6908 19.6896 54.6919 17.793 55.1269C18.7848 55.9273 19.8288 56.6581 20.9425 57.3194C24.3877 55.8751 30.0603 52.2384 28.1462 44.2168C27.2066 44.4604 26.354 44.704 25.6058 44.965Z" fill="url(#paint49_radial_528_52)"/>
<path d="M23.7961 43.6429C24.2659 52.726 15.4438 53.9092 15.4438 53.9092L16.6793 56.8151C16.6793 56.8151 29.0162 54.1876 26.3365 42.9121C25.3969 43.1383 24.5443 43.3819 23.7961 43.6429Z" fill="url(#paint50_linear_528_52)"/>
<defs>
<radialGradient id="paint0_radial_528_52" cx="0" cy="0" r="1" gradientUnits="userSpaceOnUse" gradientTransform="translate(29.7786 22.1595) scale(33.5863)">
<stop stop-color="#FFE030"/>
<stop offset="1" stop-color="#FFB92E"/>
</radialGradient>
<radialGradient id="paint1_radial_528_52" cx="0" cy="0" r="1" gradientUnits="userSpaceOnUse" gradientTransform="translate(29.7786 22.1595) scale(26.4238)">
<stop stop-color="#FFEA5F"/>
<stop offset="1" stop-color="#FFBC47" stop-opacity="0"/>
</radialGradient>
<linearGradient id="paint2_linear_528_52" x1="23.1144" y1="24.3526" x2="23.5045" y2="21.4451" gradientUnits="userSpaceOnUse">
<stop offset="0.00132565" stop-color="#3C2200"/>
<stop offset="1" stop-color="#7A4400"/>
</linearGradient>
<linearGradient id="paint3_linear_528_52" x1="47.4023" y1="24.3518" x2="47.0121" y2="21.4443" gradientUnits="userSpaceOnUse">
<stop offset="0.00132565" stop-color="#3C2200"/>
<stop offset="1" stop-color="#7A4400"/>
</linearGradient>
<radialGradient id="paint4_radial_528_52" cx="0" cy="0" r="1" gradientUnits="userSpaceOnUse" gradientTransform="translate(14.3508 15.4316) rotate(-45.5348) scale(21.362 8.7762)">
<stop stop-color="#EB672A" stop-opacity="0.5"/>
<stop offset="0.3025" stop-color="#E36521" stop-opacity="0.3422"/>
<stop offset="0.7868" stop-color="#CC600A" stop-opacity="0.0897045"/>
<stop offset="0.9589" stop-color="#C25E00" stop-opacity="0"/>
</radialGradient>
<radialGradient id="paint5_radial_528_52" cx="0" cy="0" r="1" gradientUnits="userSpaceOnUse" gradientTransform="translate(20.0771 40.3687) rotate(-2.7703) scale(11.7105 9.26593)">
<stop stop-color="#FF4C00"/>
<stop offset="0.1995" stop-color="#F94C0E" stop-opacity="0.8005"/>
<stop offset="0.7145" stop-color="#EC4A2E" stop-opacity="0.2855"/>
<stop offset="1" stop-color="#E74A3A" stop-opacity="0"/>
</radialGradient>
<radialGradient id="paint6_radial_528_52" cx="0" cy="0" r="1" gradientUnits="userSpaceOnUse" gradientTransform="translate(50.1671 48.9684) rotate(-0.40159) scale(18.6194 4.22661)">
<stop stop-color="#7A4400" stop-opacity="0.5"/>
<stop offset="0.5833" stop-color="#894D00" stop-opacity="0.2069"/>
<stop offset="0.995" stop-color="#975500" stop-opacity="0"/>
</radialGradient>
<radialGradient id="paint7_radial_528_52" cx="0" cy="0" r="1" gradientUnits="userSpaceOnUse" gradientTransform="translate(31.6766 47.8222) rotate(4.55396) scale(6.57465 4.64868)">
<stop stop-color="white" stop-opacity="0.75"/>
<stop offset="1" stop-color="white" stop-opacity="0"/>
</radialGradient>
<linearGradient id="paint8_linear_528_52" x1="34.0523" y1="47.5514" x2="37.609" y2="47.5514" gradientUnits="userSpaceOnUse">
<stop offset="0.00132565" stop-color="#3C2200"/>
<stop offset="1" stop-color="#512D00"/>
</linearGradient>
<linearGradient id="paint9_linear_528_52" x1="48.8471" y1="43.9931" x2="50.0728" y2="52.4051" gradientUnits="userSpaceOnUse">
<stop stop-color="#FF40BF"/>
<stop offset="0.8932" stop-color="#7000A3"/>
</linearGradient>
<linearGradient id="paint10_linear_528_52" x1="38.5117" y1="43.1818" x2="39.3521" y2="48.949" gradientUnits="userSpaceOnUse">
<stop offset="0.2544" stop-color="#D1F2FF"/>
<stop offset="1" stop-color="#17BBFE"/>
</linearGradient>
<linearGradient id="paint11_linear_528_52" x1="50.9675" y1="44.3882" x2="64.2132" y2="38.7031" gradientUnits="userSpaceOnUse">
<stop stop-color="#7000A3" stop-opacity="0"/>
<stop offset="0.2242" stop-color="#530078" stop-opacity="0.2242"/>
<stop offset="0.5925" stop-color="#260038" stop-opacity="0.5925"/>
<stop offset="0.8613" stop-color="#0B000F" stop-opacity="0.8613"/>
<stop offset="1"/>
</linearGradient>
<linearGradient id="paint12_linear_528_52" x1="62.3632" y1="53.236" x2="58.3443" y2="39.1276" gradientUnits="userSpaceOnUse">
<stop/>
<stop offset="0.1488" stop-color="#27002D"/>
<stop offset="0.4631" stop-color="#760086"/>
<stop offset="0.7193" stop-color="#B000C7"/>
<stop offset="0.9045" stop-color="#D300F0"/>
<stop offset="1" stop-color="#E100FF"/>
</linearGradient>
<linearGradient id="paint13_linear_528_52" x1="58.3019" y1="31.2777" x2="56.9837" y2="44.2411" gradientUnits="userSpaceOnUse">
<stop/>
<stop offset="0.1488" stop-color="#27002D"/>
<stop offset="0.4631" stop-color="#760086"/>
<stop offset="0.7193" stop-color="#B000C7"/>
<stop offset="0.9045" stop-color="#D300F0"/>
<stop offset="1" stop-color="#E100FF"/>
</linearGradient>
<linearGradient id="paint14_linear_528_52" x1="58.0009" y1="41.5191" x2="57.4467" y2="37.7158" gradientUnits="userSpaceOnUse">
<stop stop-color="#7000A3"/>
<stop offset="0.4469" stop-color="#A900D2"/>
<stop offset="0.8117" stop-color="#D200F2"/>
<stop offset="1" stop-color="#E100FF"/>
</linearGradient>
<linearGradient id="paint15_linear_528_52" x1="31.8165" y1="46.9569" x2="34.7902" y2="47.3543" gradientUnits="userSpaceOnUse">
<stop offset="0.00132565" stop-color="#3C2200"/>
<stop offset="1" stop-color="#512D00"/>
</linearGradient>
<radialGradient id="paint16_radial_528_52" cx="0" cy="0" r="1" gradientUnits="userSpaceOnUse" gradientTransform="translate(46.8447 44.4783) rotate(-8.28692) scale(10.0686 1.12283)">
<stop stop-color="white" stop-opacity="0.5"/>
<stop offset="1" stop-color="white" stop-opacity="0"/>
</radialGradient>
<radialGradient id="paint17_radial_528_52" cx="0" cy="0" r="1" gradientUnits="userSpaceOnUse" gradientTransform="translate(62.7202 36.7083) rotate(77.7176) scale(5.06655 1.13383)">
<stop stop-color="white" stop-opacity="0.5"/>
<stop offset="1" stop-color="white" stop-opacity="0"/>
</radialGradient>
<linearGradient id="paint18_linear_528_52" x1="18.4919" y1="3.99819" x2="2.36271" y2="15.3141" gradientUnits="userSpaceOnUse">
<stop offset="0.2544" stop-color="#D1F2FF"/>
<stop offset="1" stop-color="#17BBFE"/>
</linearGradient>
<linearGradient id="paint19_linear_528_52" x1="19.8898" y1="8.45066" x2="5.80024" y2="20.2299" gradientUnits="userSpaceOnUse">
<stop stop-color="#FF40BF"/>
<stop offset="0.7456" stop-color="#7000A3"/>
</linearGradient>
<linearGradient id="paint20_linear_528_52" x1="13.0808" y1="4.64553" x2="3.27967" y2="12.8396" gradientUnits="userSpaceOnUse">
<stop stop-color="#FF40BF"/>
<stop offset="0.7456" stop-color="#7000A3"/>
</linearGradient>
<linearGradient id="paint21_linear_528_52" x1="7.3101" y1="1.72918" x2="1.12926" y2="6.89652" gradientUnits="userSpaceOnUse">
<stop stop-color="#FF40BF"/>
<stop offset="0.7456" stop-color="#7000A3"/>
</linearGradient>
<radialGradient id="paint22_radial_528_52" cx="0" cy="0" r="1" gradientUnits="userSpaceOnUse" gradientTransform="translate(6.20193 12.3241) rotate(65.3021) scale(11.5534 2.84537)">
<stop stop-color="#440063" stop-opacity="0.75"/>
<stop offset="1" stop-color="#420061" stop-opacity="0"/>
</radialGradient>
<radialGradient id="paint23_radial_528_52" cx="0" cy="0" r="1" gradientUnits="userSpaceOnUse" gradientTransform="translate(11.2626 7.06644) rotate(31.2018) scale(11.5532 2.84574)">
<stop stop-color="white" stop-opacity="0.5"/>
<stop offset="1" stop-color="white" stop-opacity="0"/>
</radialGradient>
<radialGradient id="paint24_radial_528_52" cx="0" cy="0" r="1" gradientUnits="userSpaceOnUse" gradientTransform="translate(15.0005 22.0509) rotate(30.2004) scale(14.2565 14.5157)">
<stop stop-color="#440063" stop-opacity="0.75"/>
<stop offset="1" stop-color="#420061" stop-opacity="0"/>
</radialGradient>
<radialGradient id="paint25_radial_528_52" cx="0" cy="0" r="1" gradientUnits="userSpaceOnUse" gradientTransform="translate(24.5565 31.4162) rotate(175.474) scale(4.29521 3.04566)">
<stop offset="0.00132565" stop-color="#7A4400"/>
<stop offset="1" stop-color="#643800"/>
</radialGradient>
<linearGradient id="paint26_linear_528_52" x1="24.9744" y1="26.0099" x2="24.6334" y2="30.6849" gradientUnits="userSpaceOnUse">
<stop offset="0.00132565" stop-color="#3C2200"/>
<stop offset="1" stop-color="#512D00"/>
</linearGradient>
<radialGradient id="paint27_radial_528_52" cx="0" cy="0" r="1" gradientUnits="userSpaceOnUse" gradientTransform="translate(45.954 31.416) rotate(4.52558) scale(4.29521 3.04566)">
<stop offset="0.00132565" stop-color="#7A4400"/>
<stop offset="1" stop-color="#643800"/>
</radialGradient>
<linearGradient id="paint28_linear_528_52" x1="45.5367" y1="26.0098" x2="45.8777" y2="30.6849" gradientUnits="userSpaceOnUse">
<stop offset="0.00132565" stop-color="#3C2200"/>
<stop offset="1" stop-color="#512D00"/>
</linearGradient>
<linearGradient id="paint29_linear_528_52" x1="40.2219" y1="45.0985" x2="40.9139" y2="50.3873" gradientUnits="userSpaceOnUse">
<stop stop-color="#FF40BF"/>
<stop offset="0.8932" stop-color="#7000A3"/>
</linearGradient>
<radialGradient id="paint30_radial_528_52" cx="0" cy="0" r="1" gradientUnits="userSpaceOnUse" gradientTransform="translate(21.6723 15.2492) scale(62.6783 62.6784)">
<stop stop-color="#7A4400" stop-opacity="0.5"/>
<stop offset="0.5833" stop-color="#894D00" stop-opacity="0.2069"/>
<stop offset="0.995" stop-color="#975500" stop-opacity="0"/>
</radialGradient>
<radialGradient id="paint31_radial_528_52" cx="0" cy="0" r="1" gradientUnits="userSpaceOnUse" gradientTransform="translate(17.2275 9.3928) rotate(0.0419929) scale(85.28 85.2233)">
<stop stop-color="#7A4400" stop-opacity="0.5"/>
<stop offset="0.5833" stop-color="#894D00" stop-opacity="0.2069"/>
<stop offset="0.995" stop-color="#975500" stop-opacity="0"/>
</radialGradient>
<radialGradient id="paint32_radial_528_52" cx="0" cy="0" r="1" gradientUnits="userSpaceOnUse" gradientTransform="translate(24.6303 12.6176) scale(62.6784)">
<stop stop-color="#7A4400" stop-opacity="0.5"/>
<stop offset="0.5833" stop-color="#894D00" stop-opacity="0.2069"/>
<stop offset="0.995" stop-color="#975500" stop-opacity="0"/>
</radialGradient>
<radialGradient id="paint33_radial_528_52" cx="0" cy="0" r="1" gradientUnits="userSpaceOnUse" gradientTransform="translate(24.6304 12.6178) scale(62.6784 62.6784)">
<stop stop-color="#7A4400" stop-opacity="0.5"/>
<stop offset="0.5833" stop-color="#894D00" stop-opacity="0.2069"/>
<stop offset="0.995" stop-color="#975500" stop-opacity="0"/>
</radialGradient>
<radialGradient id="paint34_radial_528_52" cx="0" cy="0" r="1" gradientUnits="userSpaceOnUse" gradientTransform="translate(24.6302 12.6178) scale(62.6786 62.6783)">
<stop stop-color="#7A4400" stop-opacity="0.5"/>
<stop offset="0.5833" stop-color="#894D00" stop-opacity="0.2069"/>
<stop offset="0.995" stop-color="#975500" stop-opacity="0"/>
</radialGradient>
<radialGradient id="paint35_radial_528_52" cx="0" cy="0" r="1" gradientUnits="userSpaceOnUse" gradientTransform="translate(17.8268 13.575) scale(62.6784 62.6783)">
<stop stop-color="#7A4400" stop-opacity="0.5"/>
<stop offset="0.5833" stop-color="#894D00" stop-opacity="0.2069"/>
<stop offset="0.995" stop-color="#975500" stop-opacity="0"/>
</radialGradient>
<radialGradient id="paint36_radial_528_52" cx="0" cy="0" r="1" gradientUnits="userSpaceOnUse" gradientTransform="translate(24.6302 12.6176) scale(62.6788 62.6784)">
<stop stop-color="#7A4400" stop-opacity="0.5"/>
<stop offset="0.5833" stop-color="#894D00" stop-opacity="0.2069"/>
<stop offset="0.995" stop-color="#975500" stop-opacity="0"/>
</radialGradient>
<radialGradient id="paint37_radial_528_52" cx="0" cy="0" r="1" gradientUnits="userSpaceOnUse" gradientTransform="translate(26.8924 9.79018) scale(62.6784 62.6781)">
<stop stop-color="#7A4400" stop-opacity="0.5"/>
<stop offset="0.5833" stop-color="#894D00" stop-opacity="0.2069"/>
<stop offset="0.995" stop-color="#975500" stop-opacity="0"/>
</radialGradient>
<radialGradient id="paint38_radial_528_52" cx="0" cy="0" r="1" gradientUnits="userSpaceOnUse" gradientTransform="translate(20.79 21.8798) rotate(-28.5684) scale(86.755 86.6832)">
<stop stop-color="#7A4400" stop-opacity="0.5"/>
<stop offset="0.5833" stop-color="#894D00" stop-opacity="0.2069"/>
<stop offset="0.995" stop-color="#975500" stop-opacity="0"/>
</radialGradient>
<linearGradient id="paint39_linear_528_52" x1="14.5845" y1="28.2342" x2="12.5807" y2="24.8925" gradientUnits="userSpaceOnUse">
<stop stop-color="#FF9214"/>
<stop offset="1" stop-color="#FF4E0D"/>
</linearGradient>
<linearGradient id="paint40_linear_528_52" x1="61.1951" y1="19.0604" x2="49.5676" y2="16.8747" gradientUnits="userSpaceOnUse">
<stop stop-color="#80DAFE"/>
<stop offset="1" stop-color="#008EE6"/>
</linearGradient>
<linearGradient id="paint41_linear_528_52" x1="53.2228" y1="10.6713" x2="61.48" y2="12.2978" gradientUnits="userSpaceOnUse">
<stop stop-color="#FFCB4B"/>
<stop offset="1" stop-color="#E81CA2"/>
</linearGradient>
<linearGradient id="paint42_linear_528_52" x1="31.9979" y1="11.6925" x2="23.4188" y2="11.9033" gradientUnits="userSpaceOnUse">
<stop stop-color="#FBE07A"/>
<stop offset="1" stop-color="#E81CA2"/>
</linearGradient>
<linearGradient id="paint43_linear_528_52" x1="45.8549" y1="8.16046" x2="46.1449" y2="11.6406" gradientUnits="userSpaceOnUse">
<stop stop-color="#80DAFE"/>
<stop offset="1" stop-color="#008EE6"/>
</linearGradient>
<linearGradient id="paint44_linear_528_52" x1="60.204" y1="29.8903" x2="57.3179" y2="26.7584" gradientUnits="userSpaceOnUse">
<stop stop-color="#FFCB4B"/>
<stop offset="1" stop-color="#E81CA2"/>
</linearGradient>
<linearGradient id="paint45_linear_528_52" x1="12.7607" y1="38.8747" x2="14.7886" y2="39.2563" gradientUnits="userSpaceOnUse">
<stop offset="0.2544" stop-color="#9F00E8"/>
<stop offset="1" stop-color="#7000A3"/>
</linearGradient>
<linearGradient id="paint46_linear_528_52" x1="43.7362" y1="39.2915" x2="47.6222" y2="34.1873" gradientUnits="userSpaceOnUse">
<stop stop-color="#80DAFE"/>
<stop offset="1" stop-color="#008EE6"/>
</linearGradient>
<linearGradient id="paint47_linear_528_52" x1="7.55382" y1="48.997" x2="12.2036" y2="50.6617" gradientUnits="userSpaceOnUse">
<stop stop-color="#FF9214"/>
<stop offset="1" stop-color="#FF4E0D"/>
</linearGradient>
<linearGradient id="paint48_linear_528_52" x1="49.7196" y1="3.25116" x2="31.2015" y2="16.1933" gradientUnits="userSpaceOnUse">
<stop stop-color="#FBE07A"/>
<stop offset="1" stop-color="#E81CA2"/>
</linearGradient>
<radialGradient id="paint49_radial_528_52" cx="0" cy="0" r="1" gradientUnits="userSpaceOnUse" gradientTransform="translate(6.03307 43.0124) scale(29.6019 29.6019)">
<stop stop-color="#7A4400" stop-opacity="0.5"/>
<stop offset="0.5833" stop-color="#894D00" stop-opacity="0.2069"/>
<stop offset="0.995" stop-color="#975500" stop-opacity="0"/>
</radialGradient>
<linearGradient id="paint50_linear_528_52" x1="24.1722" y1="38.1019" x2="16.6215" y2="68.6785" gradientUnits="userSpaceOnUse">
<stop stop-color="#F78174"/>
<stop offset="0.3893" stop-color="#8800C7"/>
<stop offset="1" stop-color="#3640FF"/>
</linearGradient>
</defs>
</svg>
