<svg width="67" height="58" viewBox="0 0 67 58" fill="none" xmlns="http://www.w3.org/2000/svg">
<path d="M33.6008 57.8002C49.5066 57.8002 62.4008 44.906 62.4008 29.0002C62.4008 13.0944 49.5066 0.200195 33.6008 0.200195C17.695 0.200195 4.80078 13.0944 4.80078 29.0002C4.80078 44.906 17.695 57.8002 33.6008 57.8002Z" fill="url(#paint0_radial_446_1812)"/>
<path opacity="0.5" d="M33.6008 57.8002C49.5066 57.8002 62.4008 44.906 62.4008 29.0002C62.4008 13.0944 49.5066 0.200195 33.6008 0.200195C17.695 0.200195 4.80078 13.0944 4.80078 29.0002C4.80078 44.906 17.695 57.8002 33.6008 57.8002Z" fill="url(#paint1_radial_446_1812)"/>
<path d="M53.4549 38.5762C53.4729 38.4142 53.4909 38.2522 53.5089 38.1082C53.4729 37.5862 53.1489 37.1002 52.6269 36.9202C52.3569 36.8122 52.0689 36.8122 51.7809 36.8842C45.8949 38.5222 39.7749 39.3682 33.6009 39.3682C27.4269 39.3682 21.3069 38.5402 15.4209 36.8842C15.1509 36.8122 14.8449 36.8122 14.5749 36.9202C14.0709 37.1182 13.7469 37.5682 13.6929 38.0902C13.7109 38.2702 13.7289 38.4502 13.7649 38.6482L14.0889 39.9982C14.1609 40.2502 14.2509 40.5202 14.3589 40.8082C16.3749 45.5242 21.6309 53.8221 33.6189 53.8221C45.5889 53.8221 50.8449 45.5062 52.8789 40.7902C52.9689 40.5382 53.0589 40.3042 53.1129 40.0702L53.4549 38.5762Z" fill="url(#paint2_radial_446_1812)"/>
<path d="M33.6005 52.5085C38.2445 52.5085 41.8085 51.1765 44.5265 49.2865C41.5385 47.9005 37.9385 47.0005 33.6005 47.0005C29.2625 47.0005 25.6445 47.9005 22.6565 49.3045C25.3925 51.1945 28.9565 52.5085 33.6005 52.5085Z" fill="url(#paint3_radial_446_1812)"/>
<path d="M53.1128 40.0162L53.4368 38.6302C53.4728 38.4322 53.4908 38.2522 53.4908 38.0902C53.4548 37.5682 53.1128 37.1182 52.6088 36.9202C52.3388 36.8122 52.0508 36.8122 51.7628 36.8842C45.8768 38.5222 39.7568 39.3682 33.5828 39.3682C27.4088 39.3682 21.2888 38.5402 15.4028 36.8842C15.1328 36.8122 14.8268 36.8122 14.5568 36.9202C14.0528 37.1182 13.7288 37.5682 13.6748 38.0902C13.6928 38.2522 13.7108 38.4502 13.7288 38.6482L14.0528 40.0162C14.1248 40.2682 14.2148 40.5382 14.3228 40.8082C15.1328 42.7162 16.4828 45.2002 18.5708 47.4862C16.6088 45.1462 19.0208 43.8682 23.3588 44.3902C27.6788 44.9122 33.5828 44.9302 33.5828 44.9302C33.5828 44.9302 39.4868 44.9122 43.8068 44.3902C48.1268 43.8682 50.5568 45.1642 48.5948 47.4862C50.7008 45.2002 52.0328 42.7162 52.8428 40.8082C52.9508 40.5202 53.0408 40.2682 53.1128 40.0162Z" fill="url(#paint4_linear_446_1812)"/>
<path d="M33.6008 40.6822C27.3728 40.6822 21.2168 39.8542 15.2588 38.1982L15.3308 39.0082C15.4748 40.5562 16.6088 41.8342 18.1208 42.1762C23.1788 43.2922 28.3628 43.8502 33.5828 43.8502C39.2168 43.8502 44.7968 43.2022 50.2328 41.9062C51.0428 41.7082 51.6368 41.0242 51.7268 40.1962L51.9248 38.2162C45.9848 39.8542 39.8288 40.6822 33.6008 40.6822Z" fill="url(#paint5_radial_446_1812)"/>
<path d="M33.6008 57.8002C49.5066 57.8002 62.4008 44.906 62.4008 29.0002C62.4008 13.0944 49.5066 0.200195 33.6008 0.200195C17.695 0.200195 4.80078 13.0944 4.80078 29.0002C4.80078 44.906 17.695 57.8002 33.6008 57.8002Z" fill="url(#paint6_radial_446_1812)"/>
<path d="M33.6008 57.8002C49.5066 57.8002 62.4008 44.906 62.4008 29.0002C62.4008 13.0944 49.5066 0.200195 33.6008 0.200195C17.695 0.200195 4.80078 13.0944 4.80078 29.0002C4.80078 44.906 17.695 57.8002 33.6008 57.8002Z" fill="url(#paint7_radial_446_1812)"/>
<path opacity="0.24" d="M56.8927 25.6341C57.1627 25.5981 57.4147 25.5801 57.6667 25.5621C57.6667 25.5801 57.6487 25.6161 57.6487 25.6521L57.5767 35.3721C57.5767 36.1641 56.6767 36.5961 56.0467 36.1101L48.3787 30.1521C48.2707 30.0621 48.1267 30.0441 48.0007 30.0801L38.7307 33.0141C37.9747 33.2481 37.2907 32.5281 37.5607 31.7901L40.7647 22.9161C40.8727 22.6281 40.8187 22.3041 40.6387 22.0521L35.1487 14.3842C34.9687 14.1322 34.9327 13.8262 35.0047 13.5562L35.9227 13.6462C44.4907 13.7542 44.7247 27.1281 56.8927 25.6341Z" fill="url(#paint8_radial_446_1812)"/>
<path d="M51.7448 5.16798L45.9668 13.124C45.8948 13.232 45.7508 13.304 45.6248 13.286L35.7968 13.034C35.0048 13.016 34.5368 13.916 35.0048 14.546L40.6208 22.268C40.8008 22.52 40.8548 22.844 40.7468 23.15L37.5608 32.15C37.2908 32.906 38.0108 33.626 38.7668 33.374L48.1088 30.332C48.2348 30.296 48.3788 30.314 48.4868 30.404L56.2808 36.38C56.9108 36.866 57.8108 36.416 57.8108 35.624V25.796C57.8108 25.652 57.8828 25.526 57.9908 25.454L66.0908 19.892C66.7388 19.442 66.5948 18.434 65.8388 18.2L56.4968 15.158C56.3708 15.122 56.2628 15.014 56.2268 14.888L53.4368 5.45598C53.2208 4.69998 52.2128 4.51998 51.7448 5.16798Z" fill="url(#paint9_radial_446_1812)"/>
<path d="M60.5649 21.9804C62.6709 20.4864 65.5689 18.8844 65.1729 17.9844L65.8568 18.2004C66.6128 18.4524 66.7568 19.4424 66.1088 19.8924L58.0089 25.4544C57.9009 25.5264 57.8289 25.6524 57.8289 25.7964C57.8649 24.0684 58.4589 23.4564 60.5649 21.9804Z" fill="url(#paint10_radial_446_1812)"/>
<path d="M53.4368 5.45598L56.2268 14.87C56.2628 14.996 56.3708 15.104 56.4968 15.14L65.8568 18.182C66.6128 18.434 66.7568 19.424 66.1088 19.874L58.2428 25.292C57.9908 25.472 57.8288 25.76 57.8288 26.084V35.624C57.8288 36.416 56.9288 36.866 56.2988 36.38L48.5048 30.404C48.3968 30.314 48.2528 30.296 48.1268 30.332L38.7848 33.374C38.0288 33.626 37.3268 32.888 37.5788 32.15L40.8368 22.88C40.8908 22.754 40.8548 22.61 40.7828 22.502L35.0048 14.546C34.5368 13.898 35.0048 13.016 35.7968 13.034L45.6248 13.286C45.7688 13.286 45.8948 13.232 45.9668 13.124L51.7448 5.16798C52.2128 4.51998 53.2208 4.69998 53.4368 5.45598Z" fill="url(#paint11_radial_446_1812)"/>
<path d="M53.4368 5.45598L56.2268 14.87C56.2628 14.996 56.3708 15.104 56.4968 15.14L65.8568 18.182C66.6128 18.434 66.7568 19.424 66.1088 19.874L58.2428 25.292C57.9908 25.472 57.8288 25.76 57.8288 26.084V35.624C57.8288 36.416 56.9288 36.866 56.2988 36.38L48.5048 30.404C48.3968 30.314 48.2528 30.296 48.1268 30.332L38.7848 33.374C38.0288 33.626 37.3268 32.888 37.5788 32.15L40.8368 22.88C40.8908 22.754 40.8548 22.61 40.7828 22.502L35.0048 14.546C34.5368 13.898 35.0048 13.016 35.7968 13.034L45.6248 13.286C45.7688 13.286 45.8948 13.232 45.9668 13.124L51.7448 5.16798C52.2128 4.51998 53.2208 4.69998 53.4368 5.45598Z" fill="url(#paint12_radial_446_1812)"/>
<path opacity="0.24" d="M53.4368 5.45598L56.2268 14.87C56.2628 14.996 56.3708 15.104 56.4968 15.14L65.8568 18.182C66.6128 18.434 66.7568 19.424 66.1088 19.874L58.2428 25.292C57.9908 25.472 57.8288 25.76 57.8288 26.084V35.624C57.8288 36.416 56.9288 36.866 56.2988 36.38L48.5048 30.404C48.3968 30.314 48.2528 30.296 48.1268 30.332L38.7848 33.374C38.0288 33.626 37.3268 32.888 37.5788 32.15L40.8368 22.88C40.8908 22.754 40.8548 22.61 40.7828 22.502L35.0048 14.546C34.5368 13.898 35.0048 13.016 35.7968 13.034L45.6248 13.286C45.7688 13.286 45.8948 13.232 45.9668 13.124L51.7448 5.16798C52.2128 4.51998 53.2208 4.69998 53.4368 5.45598Z" fill="url(#paint13_radial_446_1812)"/>
<path opacity="0.24" d="M53.4368 5.45598L56.2268 14.87C56.2628 14.996 56.3708 15.104 56.4968 15.14L65.8568 18.182C66.6128 18.434 66.7568 19.424 66.1088 19.874L58.2428 25.292C57.9908 25.472 57.8288 25.76 57.8288 26.084V35.624C57.8288 36.416 56.9288 36.866 56.2988 36.38L48.5048 30.404C48.3968 30.314 48.2528 30.296 48.1268 30.332L38.7848 33.374C38.0288 33.626 37.3268 32.888 37.5788 32.15L40.8368 22.88C40.8908 22.754 40.8548 22.61 40.7828 22.502L35.0048 14.546C34.5368 13.898 35.0048 13.016 35.7968 13.034L45.6248 13.286C45.7688 13.286 45.8948 13.232 45.9668 13.124L51.7448 5.16798C52.2128 4.51998 53.2208 4.69998 53.4368 5.45598Z" fill="url(#paint14_radial_446_1812)"/>
<path d="M65.8569 18.1821L56.4969 15.1581C56.3709 15.1221 56.2629 15.0141 56.2269 14.8881L53.4369 5.45605C53.4369 5.45605 52.9689 5.87005 53.5269 7.86806C53.9049 9.16406 54.8409 12.7461 55.3809 14.6001C55.6869 15.6441 56.3889 15.7881 57.4329 16.1121L64.3449 18.2361C64.3449 18.2361 65.1189 18.4341 65.8569 18.1821Z" fill="url(#paint15_radial_446_1812)"/>
<path d="M37.5608 32.15C37.2908 32.906 38.0108 33.626 38.7668 33.374L48.1088 30.332C48.2348 30.296 48.3788 30.314 48.4868 30.404L56.2808 36.38C56.9108 36.866 57.8108 36.416 57.8108 35.624V25.796C57.8108 25.652 57.8828 25.526 57.9908 25.454L66.0908 19.892C66.7388 19.442 66.5948 18.434 65.8388 18.2L56.4968 15.158C56.3708 15.122 56.2628 15.014 56.2268 14.888L53.4368 5.45598C53.2028 4.69998 52.2128 4.51998 51.7448 5.16798L45.9668 13.124C45.8948 13.232 45.7508 13.304 45.6248 13.286L35.7968 13.034C35.0048 13.016 34.5368 13.916 35.0048 14.546L40.6208 22.268C40.8008 22.52 40.8548 22.844 40.7468 23.15L37.5608 32.15ZM38.0648 32.33L41.2508 23.33C41.4128 22.862 41.3408 22.358 41.0528 21.944L35.4368 14.24C35.2928 14.06 35.3648 13.862 35.4008 13.808C35.4368 13.736 35.5448 13.592 35.7608 13.592C35.7608 13.592 35.7608 13.592 35.7788 13.592L45.6068 13.844C45.9128 13.862 46.2188 13.7 46.3988 13.448L52.1768 5.49198C52.2848 5.34798 52.4108 5.31198 52.5008 5.31198C52.5368 5.31198 52.5548 5.31198 52.5728 5.31198C52.6448 5.32998 52.8428 5.38398 52.8968 5.59998L55.6868 15.014C55.7768 15.32 56.0108 15.554 56.2988 15.644L65.6408 18.686C65.8568 18.758 65.9108 18.938 65.9288 19.028C65.9468 19.1 65.9468 19.298 65.7488 19.424L57.6488 24.986C57.3968 25.166 57.2348 25.454 57.2348 25.778V35.606C57.2348 35.84 57.0728 35.948 57.0008 35.984C56.9288 36.02 56.7488 36.092 56.5688 35.948L48.7748 29.972C48.5228 29.774 48.1988 29.72 47.8928 29.828L38.5508 32.87C38.3348 32.942 38.1728 32.816 38.1188 32.762C38.1188 32.708 37.9928 32.546 38.0648 32.33Z" fill="url(#paint16_radial_446_1812)"/>
<path opacity="0.24" d="M10.3087 25.6341C10.0387 25.5981 9.78667 25.5801 9.53467 25.5621C9.53467 25.5801 9.55267 25.6161 9.55267 25.6521L9.62467 35.3721C9.62467 36.1641 10.5247 36.5961 11.1547 36.1101L18.8227 30.1521C18.9307 30.0621 19.0747 30.0441 19.2007 30.0801L28.4707 33.0141C29.2267 33.2481 29.9107 32.5281 29.6407 31.7901L26.4367 22.8981C26.3287 22.6101 26.3827 22.2861 26.5627 22.0341L32.0527 14.3661C32.2327 14.1141 32.2687 13.8081 32.1967 13.5381L31.2787 13.6281C22.7107 13.7541 22.4767 27.1281 10.3087 25.6341Z" fill="url(#paint17_radial_446_1812)"/>
<path d="M15.4569 5.16814L21.2349 13.1241C21.3069 13.2321 21.4509 13.3041 21.5769 13.2861L31.4049 13.0341C32.1969 13.0161 32.6649 13.9161 32.1969 14.5461L26.5809 22.2681C26.4009 22.5201 26.3469 22.8441 26.4549 23.1501L29.6409 32.1501C29.9109 32.9061 29.1909 33.6261 28.4349 33.3741L19.0929 30.3321C18.9669 30.2961 18.8229 30.3141 18.7149 30.4041L10.9209 36.3801C10.2909 36.8661 9.39086 36.4161 9.39086 35.6241V25.7961C9.39086 25.6521 9.31886 25.5261 9.21086 25.4541L1.11086 19.8921C0.46286 19.4421 0.60686 18.4341 1.36286 18.2001L10.7049 15.1581C10.8309 15.1221 10.9389 15.0141 10.9749 14.8881L13.7649 5.47414C13.9989 4.70014 14.9889 4.52014 15.4569 5.16814Z" fill="url(#paint18_radial_446_1812)"/>
<path d="M6.65486 21.9804C4.54886 20.4864 1.65086 18.8844 2.04686 17.9844L1.36286 18.2004C0.60686 18.4524 0.46286 19.4424 1.11086 19.8924L9.21086 25.4544C9.31886 25.5264 9.39086 25.6524 9.39086 25.7964C9.35486 24.0684 8.74286 23.4564 6.65486 21.9804Z" fill="url(#paint19_radial_446_1812)"/>
<path d="M27.6789 18.3624C29.1729 16.2564 31.3509 13.7724 30.6849 13.0524L31.4049 13.0344C32.1969 13.0164 32.6649 13.9164 32.1969 14.5464L26.4369 22.5024C26.3649 22.6104 26.3289 22.7544 26.3829 22.8804C25.8249 21.2424 26.1849 20.4684 27.6789 18.3624Z" fill="url(#paint20_radial_446_1812)"/>
<path d="M31.4048 13.034L21.5768 13.286C21.4328 13.286 21.3068 13.232 21.2348 13.124L15.4568 5.16797C15.4568 5.16797 15.1508 5.72597 16.3568 7.39997C17.1308 8.49797 19.2188 11.558 20.3528 13.124C20.9828 14.024 21.6848 13.916 22.7828 13.862L30.0188 13.556C30.0008 13.574 30.8108 13.502 31.4048 13.034Z" fill="url(#paint21_radial_446_1812)"/>
<path d="M13.7649 5.45598L10.9749 14.87C10.9389 14.996 10.8309 15.104 10.7049 15.14L1.36286 18.182C0.60686 18.434 0.46286 19.424 1.11086 19.874L8.97686 25.292C9.22886 25.472 9.39086 25.76 9.39086 26.084V35.624C9.39086 36.416 10.2909 36.866 10.9209 36.38L18.7149 30.404C18.8229 30.314 18.9669 30.296 19.0929 30.332L28.4349 33.374C29.1909 33.626 29.8929 32.888 29.6409 32.15L26.3649 22.88C26.3109 22.754 26.3469 22.61 26.4189 22.502L32.1969 14.546C32.6649 13.898 32.1969 13.016 31.4049 13.034L21.5769 13.286C21.4329 13.286 21.3069 13.232 21.2349 13.124L15.4569 5.16798C14.9889 4.51998 13.9989 4.69998 13.7649 5.45598Z" fill="url(#paint22_radial_446_1812)"/>
<path d="M13.7649 5.45598L10.9749 14.87C10.9389 14.996 10.8309 15.104 10.7049 15.14L1.36286 18.182C0.60686 18.434 0.46286 19.424 1.11086 19.874L8.97686 25.292C9.22886 25.472 9.39086 25.76 9.39086 26.084V35.624C9.39086 36.416 10.2909 36.866 10.9209 36.38L18.7149 30.404C18.8229 30.314 18.9669 30.296 19.0929 30.332L28.4349 33.374C29.1909 33.626 29.8929 32.888 29.6409 32.15L26.3649 22.88C26.3109 22.754 26.3469 22.61 26.4189 22.502L32.1969 14.546C32.6649 13.898 32.1969 13.016 31.4049 13.034L21.5769 13.286C21.4329 13.286 21.3069 13.232 21.2349 13.124L15.4569 5.16798C14.9889 4.51998 13.9989 4.69998 13.7649 5.45598Z" fill="url(#paint23_radial_446_1812)"/>
<path opacity="0.24" d="M13.7649 5.45598L10.9749 14.87C10.9389 14.996 10.8309 15.104 10.7049 15.14L1.36286 18.182C0.60686 18.434 0.46286 19.424 1.11086 19.874L8.97686 25.292C9.22886 25.472 9.39086 25.76 9.39086 26.084V35.624C9.39086 36.416 10.2909 36.866 10.9209 36.38L18.7149 30.404C18.8229 30.314 18.9669 30.296 19.0929 30.332L28.4349 33.374C29.1909 33.626 29.8929 32.888 29.6409 32.15L26.3649 22.88C26.3109 22.754 26.3469 22.61 26.4189 22.502L32.1969 14.546C32.6649 13.898 32.1969 13.016 31.4049 13.034L21.5769 13.286C21.4329 13.286 21.3069 13.232 21.2349 13.124L15.4569 5.16798C14.9889 4.51998 13.9989 4.69998 13.7649 5.45598Z" fill="url(#paint24_radial_446_1812)"/>
<path opacity="0.24" d="M13.7649 5.45598L10.9749 14.87C10.9389 14.996 10.8309 15.104 10.7049 15.14L1.36286 18.182C0.60686 18.434 0.46286 19.424 1.11086 19.874L8.97686 25.292C9.22886 25.472 9.39086 25.76 9.39086 26.084V35.624C9.39086 36.416 10.2909 36.866 10.9209 36.38L18.7149 30.404C18.8229 30.314 18.9669 30.296 19.0929 30.332L28.4349 33.374C29.1909 33.626 29.8929 32.888 29.6409 32.15L26.3649 22.88C26.3109 22.754 26.3469 22.61 26.4189 22.502L32.1969 14.546C32.6649 13.898 32.1969 13.016 31.4049 13.034L21.5769 13.286C21.4329 13.286 21.3069 13.232 21.2349 13.124L15.4569 5.16798C14.9889 4.51998 13.9989 4.69998 13.7649 5.45598Z" fill="url(#paint25_radial_446_1812)"/>
<path d="M1.36304 18.1821L10.705 15.1401C10.831 15.1041 10.939 14.9961 10.975 14.8701L13.765 5.45605C13.765 5.45605 14.233 5.87005 13.675 7.86806C13.297 9.16406 12.361 12.7461 11.821 14.6001C11.515 15.6441 10.813 15.7881 9.76904 16.1121L2.85704 18.2361C2.85704 18.2361 2.08304 18.4341 1.36304 18.1821Z" fill="url(#paint26_radial_446_1812)"/>
<path d="M39.5407 18.3624C38.0467 16.2564 35.8687 13.7724 36.5347 13.0524L35.8147 13.0344C35.0227 13.0164 34.5547 13.9164 35.0227 14.5464L40.8007 22.5024C40.8727 22.6104 40.9087 22.7544 40.8547 22.8804C41.3767 21.2424 41.0167 20.4684 39.5407 18.3624Z" fill="url(#paint27_radial_446_1812)"/>
<path d="M20.695 14.9601C21.865 16.9401 19.921 20.2341 16.375 22.3041C12.829 24.3741 9.01296 24.4641 7.86096 22.4841C6.70897 20.5041 8.63496 17.2101 12.181 15.1401C15.727 13.0701 19.525 12.9981 20.695 14.9601Z" fill="url(#paint28_radial_446_1812)"/>
<path d="M54.6608 13.9881C55.8308 15.9681 53.8868 19.2621 50.3408 21.3321C46.7948 23.4021 42.9788 23.4921 41.8268 21.5121C40.6748 19.5321 42.6008 16.2381 46.1468 14.1681C49.6928 12.0981 53.4908 12.0081 54.6608 13.9881Z" fill="url(#paint29_radial_446_1812)"/>
<path d="M26.4729 23.15C26.3649 22.862 26.4189 22.52 26.5989 22.268L32.1969 14.546C32.6649 13.898 32.1969 13.016 31.4049 13.034L21.5769 13.286C21.4329 13.286 21.3069 13.232 21.2349 13.124L15.4569 5.16798C14.9889 4.51998 13.9989 4.69998 13.7649 5.45598L10.9749 14.87C10.9389 14.996 10.8309 15.104 10.7049 15.14L1.36286 18.182C0.60686 18.434 0.46286 19.424 1.11086 19.874L9.21086 25.436C9.31886 25.508 9.39086 25.634 9.39086 25.778V35.606C9.39086 36.398 10.2909 36.848 10.9209 36.362L18.7149 30.386C18.8229 30.296 18.9669 30.278 19.0929 30.314L28.4349 33.356C29.1909 33.608 29.8929 32.87 29.6409 32.132L26.4729 23.15ZM29.0469 32.762C28.9929 32.816 28.8489 32.942 28.6149 32.87L19.2729 29.828C18.9669 29.738 18.6429 29.792 18.3909 29.972L10.5969 35.966C10.4169 36.11 10.2369 36.038 10.1649 36.002C10.0929 35.966 9.93086 35.858 9.93086 35.624V25.796C9.93086 25.49 9.76886 25.184 9.51686 25.004L1.41686 19.442C1.21886 19.316 1.23686 19.118 1.23686 19.046C1.25486 18.974 1.29086 18.776 1.52486 18.704L10.8669 15.662C11.1729 15.572 11.3889 15.32 11.4789 15.032L14.2689 5.61798C14.3409 5.40198 14.5209 5.34798 14.5929 5.32998C14.6109 5.32998 14.6289 5.32998 14.6649 5.32998C14.7549 5.32998 14.8989 5.36598 14.9889 5.50998L20.7669 13.466C20.9469 13.718 21.2529 13.862 21.5589 13.862L31.3869 13.61C31.3869 13.61 31.3869 13.61 31.4049 13.61C31.6209 13.61 31.7289 13.772 31.7649 13.826C31.8009 13.898 31.8729 14.078 31.7289 14.258L26.1129 21.98C25.8249 22.376 25.7529 22.898 25.9149 23.366L29.1009 32.366C29.2089 32.546 29.1009 32.708 29.0469 32.762Z" fill="url(#paint30_radial_446_1812)"/>
<defs>
<radialGradient id="paint0_radial_446_1812" cx="0" cy="0" r="1" gradientUnits="userSpaceOnUse" gradientTransform="translate(27.9379 17.3285) scale(34.7435 34.7435)">
<stop stop-color="#FFE030"/>
<stop offset="1" stop-color="#FFB92E"/>
</radialGradient>
<radialGradient id="paint1_radial_446_1812" cx="0" cy="0" r="1" gradientUnits="userSpaceOnUse" gradientTransform="translate(27.9379 17.3285) scale(27.3342 27.3342)">
<stop stop-color="#FFEA5F"/>
<stop offset="1" stop-color="#FFBC47" stop-opacity="0"/>
</radialGradient>
<radialGradient id="paint2_radial_446_1812" cx="0" cy="0" r="1" gradientUnits="userSpaceOnUse" gradientTransform="translate(33.6018 45.3319) scale(15.3027 15.3027)">
<stop offset="0.00132565" stop-color="#7A4400"/>
<stop offset="1" stop-color="#643800"/>
</radialGradient>
<radialGradient id="paint3_radial_446_1812" cx="0" cy="0" r="1" gradientUnits="userSpaceOnUse" gradientTransform="translate(33.8233 50.4195) scale(12.1753 3.68132)">
<stop offset="0.2479" stop-color="#FF0000"/>
<stop offset="1" stop-color="#C20000"/>
</radialGradient>
<linearGradient id="paint4_linear_446_1812" x1="53.2867" y1="42.1661" x2="14.1613" y2="42.1661" gradientUnits="userSpaceOnUse">
<stop offset="0.00132565" stop-color="#3C2200"/>
<stop offset="0.5" stop-color="#512D00"/>
<stop offset="1" stop-color="#3C2200"/>
</linearGradient>
<radialGradient id="paint5_radial_446_1812" cx="0" cy="0" r="1" gradientUnits="userSpaceOnUse" gradientTransform="translate(33.6029 41.023) scale(33.5633 33.5633)">
<stop offset="0.00132565" stop-color="white"/>
<stop offset="1" stop-color="#A9BCBE"/>
</radialGradient>
<radialGradient id="paint6_radial_446_1812" cx="0" cy="0" r="1" gradientUnits="userSpaceOnUse" gradientTransform="translate(60.0892 28.0002) rotate(34.2288) scale(16.3436 16.4438)">
<stop stop-color="#FF8000" stop-opacity="0.5"/>
<stop offset="0.995" stop-color="#FF8000" stop-opacity="0"/>
</radialGradient>
<radialGradient id="paint7_radial_446_1812" cx="0" cy="0" r="1" gradientUnits="userSpaceOnUse" gradientTransform="translate(7.12216 28.0055) rotate(145.771) scale(16.3436 16.4438)">
<stop stop-color="#FF8000" stop-opacity="0.5"/>
<stop offset="0.995" stop-color="#FF8000" stop-opacity="0"/>
</radialGradient>
<radialGradient id="paint8_radial_446_1812" cx="0" cy="0" r="1" gradientUnits="userSpaceOnUse" gradientTransform="translate(47.3034 23.9773) rotate(180) scale(24.2268 24.2268)">
<stop stop-color="white"/>
<stop offset="1" stop-color="white" stop-opacity="0"/>
</radialGradient>
<radialGradient id="paint9_radial_446_1812" cx="0" cy="0" r="1" gradientUnits="userSpaceOnUse" gradientTransform="translate(51.4149 16.86) rotate(-170.266) scale(15.6984 15.6984)">
<stop stop-color="#FFEA5F"/>
<stop offset="0.4904" stop-color="#FFE95D"/>
<stop offset="0.667" stop-color="#FFE756"/>
<stop offset="0.793" stop-color="#FFE34B"/>
<stop offset="0.8947" stop-color="#FEDD3A"/>
<stop offset="0.9809" stop-color="#FED524"/>
<stop offset="1" stop-color="#FED31E"/>
</radialGradient>
<radialGradient id="paint10_radial_446_1812" cx="0" cy="0" r="1" gradientUnits="userSpaceOnUse" gradientTransform="translate(61.7887 24.9309) rotate(-130.782) scale(2.90337 7.81759)">
<stop stop-color="#D86D00"/>
<stop offset="0.3292" stop-color="#DC6C0A" stop-opacity="0.6708"/>
<stop offset="0.8792" stop-color="#E86823" stop-opacity="0.1208"/>
<stop offset="1" stop-color="#EB672A" stop-opacity="0"/>
</radialGradient>
<radialGradient id="paint11_radial_446_1812" cx="0" cy="0" r="1" gradientUnits="userSpaceOnUse" gradientTransform="translate(43.679 34.5737) rotate(-16.5811) scale(8.63141 4.09023)">
<stop stop-color="#D86D00"/>
<stop offset="0.3292" stop-color="#DC6C0A" stop-opacity="0.6708"/>
<stop offset="0.8792" stop-color="#E86823" stop-opacity="0.1208"/>
<stop offset="1" stop-color="#EB672A" stop-opacity="0"/>
</radialGradient>
<radialGradient id="paint12_radial_446_1812" cx="0" cy="0" r="1" gradientUnits="userSpaceOnUse" gradientTransform="translate(46.6075 39.7834) rotate(12.5087) scale(11.4114 11.6988)">
<stop stop-color="#D86D00"/>
<stop offset="0.3292" stop-color="#DC6C0A" stop-opacity="0.6708"/>
<stop offset="0.8792" stop-color="#E86823" stop-opacity="0.1208"/>
<stop offset="1" stop-color="#EB672A" stop-opacity="0"/>
</radialGradient>
<radialGradient id="paint13_radial_446_1812" cx="0" cy="0" r="1" gradientUnits="userSpaceOnUse" gradientTransform="translate(45.0555 26.6264) rotate(31.2857) scale(12.0658 9.11994)">
<stop stop-color="#FFA754"/>
<stop offset="0.3697" stop-color="#FFB152" stop-opacity="0.6303"/>
<stop offset="0.9874" stop-color="#FFCA4B" stop-opacity="0.0126062"/>
<stop offset="1" stop-color="#FFCB4B" stop-opacity="0"/>
</radialGradient>
<radialGradient id="paint14_radial_446_1812" cx="0" cy="0" r="1" gradientUnits="userSpaceOnUse" gradientTransform="translate(51.9627 16.5532) rotate(31.2857) scale(7.26977 5.49484)">
<stop stop-color="white"/>
<stop offset="1" stop-color="white" stop-opacity="0"/>
</radialGradient>
<radialGradient id="paint15_radial_446_1812" cx="0" cy="0" r="1" gradientUnits="userSpaceOnUse" gradientTransform="translate(61.9552 9.637) rotate(56.5612) scale(11.3705 7.82521)">
<stop stop-color="#ED9900"/>
<stop offset="1" stop-color="#ED9900" stop-opacity="0"/>
</radialGradient>
<radialGradient id="paint16_radial_446_1812" cx="0" cy="0" r="1" gradientUnits="userSpaceOnUse" gradientTransform="translate(49.974 20.4891) rotate(180) scale(13.4534 13.4534)">
<stop stop-color="#A3541E" stop-opacity="0.5"/>
<stop offset="0.5109" stop-color="#A5551D" stop-opacity="0.7555"/>
<stop offset="0.695" stop-color="#AC5819" stop-opacity="0.8475"/>
<stop offset="0.8261" stop-color="#B75E12" stop-opacity="0.9131"/>
<stop offset="0.9315" stop-color="#C86609" stop-opacity="0.9657"/>
<stop offset="1" stop-color="#D86D00"/>
</radialGradient>
<radialGradient id="paint17_radial_446_1812" cx="0" cy="0" r="1" gradientUnits="userSpaceOnUse" gradientTransform="translate(19.9051 23.9772) scale(24.2268 24.2268)">
<stop stop-color="white"/>
<stop offset="1" stop-color="white" stop-opacity="0"/>
</radialGradient>
<radialGradient id="paint18_radial_446_1812" cx="0" cy="0" r="1" gradientUnits="userSpaceOnUse" gradientTransform="translate(15.7958 16.8604) rotate(-9.73431) scale(15.6984)">
<stop stop-color="#FFEA5F"/>
<stop offset="0.4904" stop-color="#FFE95D"/>
<stop offset="0.667" stop-color="#FFE756"/>
<stop offset="0.793" stop-color="#FFE34B"/>
<stop offset="0.8947" stop-color="#FEDD3A"/>
<stop offset="0.9809" stop-color="#FED524"/>
<stop offset="1" stop-color="#FED31E"/>
</radialGradient>
<radialGradient id="paint19_radial_446_1812" cx="0" cy="0" r="1" gradientUnits="userSpaceOnUse" gradientTransform="translate(5.42178 24.9296) rotate(-49.2176) scale(2.90337 7.8176)">
<stop stop-color="#D86D00"/>
<stop offset="0.3292" stop-color="#DC6C0A" stop-opacity="0.6708"/>
<stop offset="0.8792" stop-color="#E86823" stop-opacity="0.1208"/>
<stop offset="1" stop-color="#EB672A" stop-opacity="0"/>
</radialGradient>
<radialGradient id="paint20_radial_446_1812" cx="0" cy="0" r="1" gradientUnits="userSpaceOnUse" gradientTransform="translate(29.5827 21.2487) rotate(-150.251) scale(2.90351 7.81751)">
<stop stop-color="#D86D00"/>
<stop offset="0.3292" stop-color="#DC6C0A" stop-opacity="0.6708"/>
<stop offset="0.8792" stop-color="#E86823" stop-opacity="0.1208"/>
<stop offset="1" stop-color="#EB672A" stop-opacity="0"/>
</radialGradient>
<radialGradient id="paint21_radial_446_1812" cx="0" cy="0" r="1" gradientUnits="userSpaceOnUse" gradientTransform="translate(24.8824 6.2819) rotate(37.0947) scale(11.3688 7.82511)">
<stop stop-color="#ED9900"/>
<stop offset="1" stop-color="#ED9900" stop-opacity="0"/>
</radialGradient>
<radialGradient id="paint22_radial_446_1812" cx="0" cy="0" r="1" gradientUnits="userSpaceOnUse" gradientTransform="translate(23.5303 34.5691) rotate(-163.419) scale(8.63141 4.09023)">
<stop stop-color="#D86D00"/>
<stop offset="0.3292" stop-color="#DC6C0A" stop-opacity="0.6708"/>
<stop offset="0.8792" stop-color="#E86823" stop-opacity="0.1208"/>
<stop offset="1" stop-color="#EB672A" stop-opacity="0"/>
</radialGradient>
<radialGradient id="paint23_radial_446_1812" cx="0" cy="0" r="1" gradientUnits="userSpaceOnUse" gradientTransform="translate(20.604 39.7833) rotate(167.491) scale(11.4114 11.6988)">
<stop stop-color="#D86D00"/>
<stop offset="0.3292" stop-color="#DC6C0A" stop-opacity="0.6708"/>
<stop offset="0.8792" stop-color="#E86823" stop-opacity="0.1208"/>
<stop offset="1" stop-color="#EB672A" stop-opacity="0"/>
</radialGradient>
<radialGradient id="paint24_radial_446_1812" cx="0" cy="0" r="1" gradientUnits="userSpaceOnUse" gradientTransform="translate(22.1567 26.6309) rotate(148.714) scale(12.0658 9.11994)">
<stop stop-color="#FFA754"/>
<stop offset="0.3697" stop-color="#FFB152" stop-opacity="0.6303"/>
<stop offset="0.9874" stop-color="#FFCA4B" stop-opacity="0.0126062"/>
<stop offset="1" stop-color="#FFCB4B" stop-opacity="0"/>
</radialGradient>
<radialGradient id="paint25_radial_446_1812" cx="0" cy="0" r="1" gradientUnits="userSpaceOnUse" gradientTransform="translate(15.2495 16.5576) rotate(148.714) scale(7.26977 5.49484)">
<stop stop-color="white"/>
<stop offset="1" stop-color="white" stop-opacity="0"/>
</radialGradient>
<radialGradient id="paint26_radial_446_1812" cx="0" cy="0" r="1" gradientUnits="userSpaceOnUse" gradientTransform="translate(5.25759 9.63282) rotate(123.439) scale(11.3705 7.82521)">
<stop stop-color="#ED9900"/>
<stop offset="1" stop-color="#ED9900" stop-opacity="0"/>
</radialGradient>
<radialGradient id="paint27_radial_446_1812" cx="0" cy="0" r="1" gradientUnits="userSpaceOnUse" gradientTransform="translate(37.6297 21.2468) rotate(-29.7489) scale(2.90351 7.81751)">
<stop stop-color="#D86D00"/>
<stop offset="0.3292" stop-color="#DC6C0A" stop-opacity="0.6708"/>
<stop offset="0.8792" stop-color="#E86823" stop-opacity="0.1208"/>
<stop offset="1" stop-color="#EB672A" stop-opacity="0"/>
</radialGradient>
<radialGradient id="paint28_radial_446_1812" cx="0" cy="0" r="1" gradientUnits="userSpaceOnUse" gradientTransform="translate(14.278 18.684) rotate(-31.91) scale(7.49227 4.03251)">
<stop stop-color="white" stop-opacity="0.5"/>
<stop offset="0.995" stop-color="white" stop-opacity="0"/>
</radialGradient>
<radialGradient id="paint29_radial_446_1812" cx="0" cy="0" r="1" gradientUnits="userSpaceOnUse" gradientTransform="translate(48.2379 17.695) rotate(-31.91) scale(7.49227 4.03251)">
<stop stop-color="white" stop-opacity="0.5"/>
<stop offset="0.995" stop-color="white" stop-opacity="0"/>
</radialGradient>
<radialGradient id="paint30_radial_446_1812" cx="0" cy="0" r="1" gradientUnits="userSpaceOnUse" gradientTransform="translate(17.2348 20.4891) scale(13.4534 13.4534)">
<stop stop-color="#A3541E" stop-opacity="0.5"/>
<stop offset="0.5109" stop-color="#A5551D" stop-opacity="0.7555"/>
<stop offset="0.695" stop-color="#AC5819" stop-opacity="0.8475"/>
<stop offset="0.8261" stop-color="#B75E12" stop-opacity="0.9131"/>
<stop offset="0.9315" stop-color="#C86609" stop-opacity="0.9657"/>
<stop offset="1" stop-color="#D86D00"/>
</radialGradient>
</defs>
</svg>
