<svg width="58" height="58" viewBox="0 0 58 58" fill="none" xmlns="http://www.w3.org/2000/svg">
<path d="M28.9999 57.8002C44.9057 57.8002 57.7999 44.906 57.7999 29.0002C57.7999 13.0944 44.9057 0.200195 28.9999 0.200195C13.0941 0.200195 0.199951 13.0944 0.199951 29.0002C0.199951 44.906 13.0941 57.8002 28.9999 57.8002Z" fill="url(#paint0_radial_446_1951)"/>
<path opacity="0.5" d="M28.9999 57.8002C44.9057 57.8002 57.7999 44.906 57.7999 29.0002C57.7999 13.0944 44.9057 0.200195 28.9999 0.200195C13.0941 0.200195 0.199951 13.0944 0.199951 29.0002C0.199951 44.906 13.0941 57.8002 28.9999 57.8002Z" fill="url(#paint1_radial_446_1951)"/>
<path d="M19.6035 30.2239C21.1345 30.2239 22.3755 28.3462 22.3755 26.0299C22.3755 23.7137 21.1345 21.8359 19.6035 21.8359C18.0726 21.8359 16.8315 23.7137 16.8315 26.0299C16.8315 28.3462 18.0726 30.2239 19.6035 30.2239Z" fill="url(#paint2_radial_446_1951)"/>
<path d="M19.6035 23.2581C20.7915 23.2581 21.8355 24.3021 22.3755 25.8321C22.3395 23.5641 21.1155 21.7461 19.6035 21.7461C18.0915 21.7461 16.8675 23.5641 16.8315 25.8321C17.3715 24.2841 18.4155 23.2581 19.6035 23.2581Z" fill="url(#paint3_linear_446_1951)"/>
<path d="M38.4136 30.2239C39.9445 30.2239 41.1856 28.3462 41.1856 26.0299C41.1856 23.7137 39.9445 21.8359 38.4136 21.8359C36.8827 21.8359 35.6416 23.7137 35.6416 26.0299C35.6416 28.3462 36.8827 30.2239 38.4136 30.2239Z" fill="url(#paint4_radial_446_1951)"/>
<path d="M38.4136 23.3479C37.2256 23.3479 36.1816 24.3919 35.6416 25.9219C35.6776 23.6539 36.9016 21.8359 38.4136 21.8359C39.9256 21.8359 41.1496 23.6539 41.1856 25.9219C40.6456 24.3919 39.6016 23.3479 38.4136 23.3479Z" fill="url(#paint5_linear_446_1951)"/>
<path d="M35.3895 13.7364C35.4615 12.5844 36.7395 11.9364 38.8815 12.0444C40.6995 12.1524 44.6415 13.3764 47.1975 17.0664C47.6655 17.7504 46.8735 18.0564 46.3875 17.6064C44.7675 16.0764 40.3395 13.9704 36.7755 14.1504C35.3535 14.2404 35.3895 13.7364 35.3895 13.7364Z" fill="url(#paint6_linear_446_1951)"/>
<path d="M22.6099 13.7364C22.5379 12.5844 21.2599 11.9364 19.1179 12.0444C17.2999 12.1524 13.3579 13.3764 10.8019 17.0664C10.3339 17.7504 11.1259 18.0564 11.6119 17.6064C13.2319 16.0764 17.6599 13.9704 21.2239 14.1504C22.6459 14.2404 22.6099 13.7364 22.6099 13.7364Z" fill="url(#paint7_linear_446_1951)"/>
<path d="M29 48.584C31.883 48.584 34.22 46.247 34.22 43.364C34.22 40.4811 31.883 38.144 29 38.144C26.1171 38.144 23.78 40.4811 23.78 43.364C23.78 46.247 26.1171 48.584 29 48.584Z" fill="url(#paint8_radial_446_1951)"/>
<path d="M28.9997 39.764C31.2497 39.764 33.1937 41.0241 34.1837 42.8781C33.9317 40.2321 31.6997 38.144 28.9997 38.144C26.2817 38.144 24.0497 40.2141 23.8157 42.8781C24.8057 41.0241 26.7497 39.764 28.9997 39.764Z" fill="url(#paint9_linear_446_1951)"/>
<defs>
<radialGradient id="paint0_radial_446_1951" cx="0" cy="0" r="1" gradientUnits="userSpaceOnUse" gradientTransform="translate(23.3389 17.3203) scale(34.7435)">
<stop stop-color="#FFE030"/>
<stop offset="1" stop-color="#FFB92E"/>
</radialGradient>
<radialGradient id="paint1_radial_446_1951" cx="0" cy="0" r="1" gradientUnits="userSpaceOnUse" gradientTransform="translate(23.339 17.3203) scale(27.3342)">
<stop stop-color="#FFEA5F"/>
<stop offset="1" stop-color="#FFBC47" stop-opacity="0"/>
</radialGradient>
<radialGradient id="paint2_radial_446_1951" cx="0" cy="0" r="1" gradientUnits="userSpaceOnUse" gradientTransform="translate(18.753 26.1365) rotate(73.8539) scale(4.06923 2.63272)">
<stop offset="0.00132565" stop-color="#7A4400"/>
<stop offset="1" stop-color="#643800"/>
</radialGradient>
<linearGradient id="paint3_linear_446_1951" x1="19.6022" y1="21.8116" x2="19.6022" y2="25.7202" gradientUnits="userSpaceOnUse">
<stop offset="0.00132565" stop-color="#3C2200"/>
<stop offset="1" stop-color="#512D00"/>
</linearGradient>
<radialGradient id="paint4_radial_446_1951" cx="0" cy="0" r="1" gradientUnits="userSpaceOnUse" gradientTransform="translate(37.5595 26.1371) rotate(73.8539) scale(4.06923 2.63273)">
<stop offset="0.00132565" stop-color="#7A4400"/>
<stop offset="1" stop-color="#643800"/>
</radialGradient>
<linearGradient id="paint5_linear_446_1951" x1="38.4079" y1="21.9143" x2="38.4079" y2="25.8229" gradientUnits="userSpaceOnUse">
<stop offset="0.00132565" stop-color="#3C2200"/>
<stop offset="1" stop-color="#512D00"/>
</linearGradient>
<linearGradient id="paint6_linear_446_1951" x1="41.328" y1="15.9847" x2="41.4983" y2="12.9548" gradientUnits="userSpaceOnUse">
<stop offset="0.00132565" stop-color="#3C2200"/>
<stop offset="1" stop-color="#7A4400"/>
</linearGradient>
<linearGradient id="paint7_linear_446_1951" x1="16.6806" y1="15.9845" x2="16.5104" y2="12.9547" gradientUnits="userSpaceOnUse">
<stop offset="0.00132565" stop-color="#3C2200"/>
<stop offset="1" stop-color="#7A4400"/>
</linearGradient>
<radialGradient id="paint8_radial_446_1951" cx="0" cy="0" r="1" gradientUnits="userSpaceOnUse" gradientTransform="translate(28.705 43.6772) rotate(73.8529) scale(6.32413 4.09105)">
<stop offset="0.00132565" stop-color="#7A4400"/>
<stop offset="1" stop-color="#643800"/>
</radialGradient>
<linearGradient id="paint9_linear_446_1951" x1="29.0052" y1="35.6948" x2="29.0052" y2="44.1965" gradientUnits="userSpaceOnUse">
<stop offset="0.00132565" stop-color="#3C2200"/>
<stop offset="1" stop-color="#512D00"/>
</linearGradient>
</defs>
</svg>
