<svg width="58" height="58" viewBox="0 0 58 58" fill="none" xmlns="http://www.w3.org/2000/svg">
<path d="M28.9999 57.8002C44.9057 57.8002 57.7999 44.906 57.7999 29.0002C57.7999 13.0944 44.9057 0.200195 28.9999 0.200195C13.0941 0.200195 0.199951 13.0944 0.199951 29.0002C0.199951 44.906 13.0941 57.8002 28.9999 57.8002Z" fill="url(#paint0_radial_446_1463)"/>
<path opacity="0.5" d="M28.9999 57.8002C44.9057 57.8002 57.7999 44.906 57.7999 29.0002C57.7999 13.0944 44.9057 0.200195 28.9999 0.200195C13.0941 0.200195 0.199951 13.0944 0.199951 29.0002C0.199951 44.906 13.0941 57.8002 28.9999 57.8002Z" fill="url(#paint1_radial_446_1463)"/>
<path d="M22.664 14.0781C22.664 12.9261 21.422 12.2061 19.262 12.2061C17.444 12.2061 13.43 13.2141 10.676 16.7601C10.172 17.4081 10.946 17.7681 11.45 17.3541C13.142 15.9141 17.696 14.0601 21.242 14.4561C22.664 14.6001 22.664 14.0781 22.664 14.0781Z" fill="url(#paint2_linear_446_1463)"/>
<path d="M35.3359 14.0781C35.3359 12.9261 36.5779 12.2061 38.7379 12.2061C40.5559 12.2061 44.5699 13.2141 47.3239 16.7601C47.8279 17.4081 47.0539 17.7681 46.5499 17.3541C44.8579 15.9141 40.3039 14.0601 36.7579 14.4561C35.3359 14.6001 35.3359 14.0781 35.3359 14.0781Z" fill="url(#paint3_linear_446_1463)"/>
<path opacity="0.5" d="M5.65392 34.7064C5.65392 34.7064 3.15192 31.8804 2.34192 23.9965C2.28792 23.4025 1.49592 22.8805 0.919922 22.5925C1.26192 21.0985 1.71192 19.6585 2.26992 18.2545C2.88192 18.1465 3.74592 18.0025 4.91592 17.8765C9.19992 17.3905 16.2559 17.3725 19.5319 18.3625C24.0859 19.7305 25.7239 21.6385 28.4959 21.6385V23.1325C25.2559 23.1325 27.9559 28.7305 23.4919 33.6985C19.9279 37.6765 7.90392 37.7484 5.65392 34.7064Z" fill="url(#paint4_radial_446_1463)"/>
<path opacity="0.5" d="M52.3459 34.7064C52.3459 34.7064 54.8479 31.8804 55.6579 23.9965C55.7119 23.4025 56.5039 22.8805 57.0799 22.5925C56.7379 21.0985 56.2879 19.6585 55.7299 18.2545C55.1179 18.1465 54.2539 18.0025 53.0839 17.8765C48.7999 17.3905 41.7439 17.3725 38.4679 18.3625C33.9139 19.7305 32.2759 21.6385 29.5039 21.6385V23.1325C32.7439 23.1325 30.0439 28.7305 34.5079 33.6985C38.0719 37.6765 50.0959 37.7484 52.3459 34.7064Z" fill="url(#paint5_radial_446_1463)"/>
<path d="M41.3121 22.2142C41.3121 22.2142 46.3341 22.7182 47.7381 26.5162C47.8281 26.7502 47.8821 27.0022 47.8641 27.2542C47.8641 27.7582 47.3961 28.2982 46.4961 27.8122C40.9881 24.7702 37.8021 26.2102 35.4261 27.2002C34.5081 27.5962 33.6801 26.6602 33.9681 25.8322C34.0401 25.5982 34.1121 25.3462 34.2381 25.1302C36.2901 21.6742 41.3121 22.2142 41.3121 22.2142Z" fill="url(#paint6_radial_446_1463)"/>
<path d="M41.2041 23.4022C41.2041 23.4022 45.2901 23.8162 47.8461 26.9482C47.8281 26.8042 47.7921 26.6602 47.7381 26.5162C46.3341 22.7182 41.3121 22.2142 41.3121 22.2142C41.3121 22.2142 36.2901 21.6742 34.2381 25.1302C34.1661 25.2562 34.0941 25.4002 34.0581 25.5442C37.1001 22.9702 41.2041 23.4022 41.2041 23.4022Z" fill="url(#paint7_linear_446_1463)"/>
<path d="M16.688 22.2142C16.688 22.2142 11.666 22.7182 10.262 26.5162C10.172 26.7502 10.118 27.0022 10.136 27.2542C10.136 27.7582 10.604 28.2982 11.504 27.8122C17.012 24.7702 20.198 26.2102 22.574 27.2002C23.492 27.5962 24.32 26.6602 24.032 25.8322C23.96 25.5982 23.888 25.3462 23.762 25.1302C21.71 21.6742 16.688 22.2142 16.688 22.2142Z" fill="url(#paint8_radial_446_1463)"/>
<path d="M16.7958 23.4022C16.7958 23.4022 12.7098 23.8162 10.1538 26.9482C10.1718 26.8042 10.2078 26.6602 10.2618 26.5162C11.6658 22.7182 16.6878 22.2142 16.6878 22.2142C16.6878 22.2142 21.7098 21.6742 23.7618 25.1302C23.8338 25.2562 23.9058 25.4002 23.9418 25.5442C20.8998 22.9702 16.7958 23.4022 16.7958 23.4022Z" fill="url(#paint9_linear_446_1463)"/>
<path d="M41.7261 38.8641C41.4921 38.8281 41.2401 38.9001 41.0781 39.0621C37.9821 41.9601 33.2121 43.5261 29.6121 43.5261H29.0001H28.3881C24.7881 43.5261 20.0181 41.9601 16.9221 39.0621C16.7421 38.9001 16.5081 38.8281 16.2741 38.8641C16.0221 38.9181 15.8961 39.1881 16.0221 39.4041C18.6681 43.9761 23.5461 46.8021 28.8561 46.8021H29.0181H29.1801C34.4901 46.8021 39.3681 43.9761 42.0141 39.4041C42.1041 39.1881 41.9781 38.9181 41.7261 38.8641Z" fill="#643800"/>
<path d="M41.7261 38.8641C41.4921 38.8281 41.2401 38.9001 41.0781 39.0621C37.9821 41.9601 33.2121 43.5261 29.6121 43.5261H29.0001H28.3881C24.7881 43.5261 20.0181 41.9601 16.9221 39.0621C16.7421 38.9001 16.5081 38.8281 16.2741 38.8641C16.0221 38.9181 15.8961 39.1881 16.0221 39.4041C16.0401 39.4581 16.0761 39.4941 16.1121 39.5301C16.3641 39.3861 16.6341 39.2421 16.9041 39.5481C19.8381 42.8421 24.1941 44.8221 28.8561 44.8221H29.0181H29.1801C33.8781 44.8221 38.2521 42.8241 41.1861 39.4761C41.4561 39.1701 41.7081 39.3141 41.9421 39.4761C41.9601 39.4401 41.9781 39.4221 41.9961 39.3861C42.1041 39.1881 41.9781 38.9181 41.7261 38.8641Z" fill="url(#paint10_linear_446_1463)"/>
<path d="M15.0859 17.8583C11.4139 17.5883 7.11187 17.2463 6.26587 20.1083C5.41987 22.9703 5.97787 27.2903 7.93987 30.5124C9.90187 33.7344 17.6779 33.5544 20.4859 31.8444C24.2299 29.5764 24.5539 25.7423 24.6619 23.4203C24.7879 20.3423 20.7379 18.2543 15.0859 17.8583Z" fill="url(#paint11_linear_446_1463)"/>
<path d="M42.8418 17.8583C46.5138 17.5883 50.8158 17.2463 51.6618 20.1083C52.5078 22.9703 51.9498 27.2903 49.9878 30.5124C48.0258 33.7344 40.2498 33.5544 37.4418 31.8444C33.6978 29.5764 33.3738 25.7423 33.2658 23.4203C33.1398 20.3423 37.1898 18.2543 42.8418 17.8583Z" fill="url(#paint12_linear_446_1463)"/>
<path d="M56.6119 16.8322C56.6119 16.8322 55.6939 16.4722 52.5439 16.1122C48.2599 15.6262 41.2039 15.6082 37.9279 16.5982C33.3739 17.9662 31.7359 19.8742 28.9639 19.8742C26.1919 19.8742 24.5539 17.9662 19.9819 16.5802C16.7239 15.5902 9.66785 15.6082 5.36585 16.0942C2.23385 16.4542 1.29785 16.8142 1.29785 16.8142C1.29785 17.1202 1.29785 17.4802 1.31585 17.8762C1.31585 17.8762 3.25985 18.2002 3.27785 18.3802C3.27785 18.4702 1.36985 18.6502 1.36985 18.6502C1.40585 18.9742 1.45985 19.3162 1.53185 19.6762L2.28785 20.0362C2.88185 20.3062 3.27785 20.8822 3.33185 21.5302C4.14185 29.4142 6.64385 32.6002 6.64385 32.6002C8.89385 35.6242 19.4779 36.6502 23.0419 32.6722C27.5059 27.6862 25.7059 23.1862 28.9459 23.1862C32.1859 23.1862 30.3859 27.7042 34.8499 32.6722C38.4139 36.6502 48.9979 35.6242 51.2479 32.6002C51.2479 32.6002 53.7499 29.4142 54.5599 21.5302C54.6319 20.8822 55.0279 20.3062 55.6039 20.0362L56.3599 19.6762C56.4319 19.3162 56.4859 18.9742 56.5219 18.6502C56.5219 18.6502 54.7399 18.4702 54.7579 18.3802C54.7759 18.2002 56.5939 17.8762 56.5939 17.8762C56.6299 17.4802 56.6299 17.1202 56.6119 16.8322ZM20.4859 31.8262C17.6779 33.5362 9.91985 33.7162 7.93985 30.4942C5.97785 27.2902 5.41985 22.9522 6.26585 20.0902C7.11185 17.2282 11.4139 17.5882 15.0859 17.8402C20.7379 18.2542 24.7879 20.3422 24.6619 23.4022C24.5539 25.7242 24.2299 29.5582 20.4859 31.8262ZM49.9699 30.4942C48.0079 33.6982 40.2319 33.5362 37.4239 31.8262C33.6799 29.5582 33.3559 25.7242 33.2479 23.4022C33.1219 20.3422 37.1719 18.2542 42.8239 17.8402C46.4959 17.5702 50.7979 17.2282 51.6439 20.0902C52.4899 22.9702 51.9499 27.2902 49.9699 30.4942Z" fill="url(#paint13_linear_446_1463)"/>
<path d="M15.0859 17.8583C11.4139 17.5883 7.11187 17.2463 6.26587 20.1083C5.41987 22.9703 5.97787 27.2903 7.93987 30.5124C9.90187 33.7344 17.6779 33.5544 20.4859 31.8444C24.2299 29.5764 24.5539 25.7423 24.6619 23.4203C24.7879 20.3423 20.7379 18.2543 15.0859 17.8583Z" fill="url(#paint14_linear_446_1463)"/>
<path d="M20.4859 31.8264C17.6779 33.5364 9.91985 33.7164 7.93985 30.4944C6.28385 27.7944 5.63585 24.3024 5.97785 21.5664C5.97785 21.5844 5.95985 21.5844 5.95985 21.6024C5.65385 24.5544 6.19385 28.0284 7.81385 30.8904C9.81185 34.4184 17.7139 34.2204 20.5759 32.3484C23.5099 30.4224 24.2659 27.6864 24.4999 25.2744C24.2119 27.4704 23.3299 30.0984 20.4859 31.8264Z" fill="url(#paint15_linear_446_1463)"/>
<path opacity="0.75" d="M30.7459 23.1862C30.7999 22.2502 31.0159 21.3142 31.3939 20.4682L31.9879 19.1182C30.9979 19.5682 30.0619 19.8742 28.9639 19.8742C27.8659 19.8742 26.9299 19.5682 25.9399 19.1182L26.5339 20.4682C26.9119 21.3322 27.1279 22.2502 27.1819 23.1862L27.2359 24.0502C27.5959 23.4922 28.0999 23.1682 28.9639 23.1682C29.8279 23.1682 30.3319 23.4922 30.6919 24.0502L30.7459 23.1862Z" fill="url(#paint16_radial_446_1463)"/>
<path opacity="0.75" d="M6.26592 20.4863C7.11192 17.6243 11.4139 17.9843 15.0859 18.2363C20.5399 18.6323 24.4999 20.5763 24.6619 23.4743C24.6619 23.4563 24.6619 23.4203 24.6619 23.4023C24.7879 20.3423 20.7379 18.2543 15.0859 17.8403C11.4139 17.5703 7.11192 17.2283 6.26592 20.0903C5.99592 21.0263 5.86992 22.1063 5.88792 23.2583C5.90592 22.2503 6.03192 21.3143 6.26592 20.4863Z" fill="black"/>
<path d="M1.31592 17.8765C1.33392 18.1105 1.35192 18.3805 1.38792 18.6505H4.24992C4.68191 18.6505 5.02391 18.3085 5.02391 17.8765H1.31592Z" fill="url(#paint17_linear_446_1463)"/>
<path d="M42.8418 17.8583C46.5138 17.5883 50.8158 17.2463 51.6618 20.1083C52.5078 22.9703 51.9498 27.2903 49.9878 30.5124C48.0258 33.7344 40.2498 33.5544 37.4418 31.8444C33.6978 29.5764 33.3738 25.7423 33.2658 23.4203C33.1398 20.3423 37.1898 18.2543 42.8418 17.8583Z" fill="url(#paint18_linear_446_1463)"/>
<path d="M37.4239 31.8264C40.2319 33.5364 47.9899 33.7164 49.9699 30.4944C51.6259 27.7944 52.2739 24.3024 51.9319 21.5664C51.9319 21.5844 51.9499 21.5844 51.9499 21.6024C52.2559 24.5544 51.7159 28.0284 50.0959 30.8904C48.0979 34.4184 40.1959 34.2204 37.3339 32.3484C34.3999 30.4224 33.6439 27.6864 33.4099 25.2744C33.7159 27.4704 34.5799 30.0984 37.4239 31.8264Z" fill="url(#paint19_linear_446_1463)"/>
<path opacity="0.75" d="M51.6437 20.4863C50.7977 17.6243 46.4957 17.9843 42.8237 18.2363C37.3697 18.6323 33.4097 20.5763 33.2477 23.4743C33.2477 23.4563 33.2477 23.4203 33.2477 23.4023C33.1217 20.3423 37.1717 18.2543 42.8237 17.8403C46.4957 17.5703 50.7977 17.2283 51.6437 20.0903C51.9137 21.0263 52.0397 22.1063 52.0217 23.2583C52.0217 22.2503 51.8957 21.3143 51.6437 20.4863Z" fill="black"/>
<path d="M56.6121 17.8765C56.5941 18.1105 56.5761 18.3805 56.5401 18.6505H53.6781C53.2461 18.6505 52.9041 18.3085 52.9041 17.8765H56.6121Z" fill="url(#paint20_linear_446_1463)"/>
<path opacity="0.5" d="M42.8418 17.8583C46.5138 17.5883 50.8158 17.2463 51.6618 20.1083C52.5078 22.9703 51.9498 27.2903 49.9878 30.5123C48.0258 33.7344 40.2498 33.5544 37.4418 31.8444C33.6978 29.5764 33.3738 25.7423 33.2658 23.4203C33.1398 20.3423 37.1898 18.2543 42.8418 17.8583Z" fill="url(#paint21_radial_446_1463)"/>
<path opacity="0.5" d="M15.1038 18.5062C11.5758 18.2542 7.4538 17.9122 6.6438 20.6662C5.8338 23.4202 6.3738 27.5602 8.2638 30.6562C10.1538 33.7522 17.6058 33.5722 20.3058 31.9342C23.8878 29.7562 24.2118 26.0662 24.3018 23.8522C24.4098 20.9002 20.5038 18.9022 15.1038 18.5062Z" fill="url(#paint22_radial_446_1463)"/>
<path d="M26.6059 20.4682L26.0119 19.1182C24.4999 18.4342 22.8079 17.4082 20.0539 16.5802C16.7959 15.5902 9.73987 15.6082 5.43787 16.0942C2.30587 16.4542 1.36987 16.8142 1.36987 16.8142C1.36987 17.1202 1.36987 17.4802 1.38787 17.8762C8.08387 17.3002 16.1839 15.9682 25.7239 20.3602C25.9759 20.4862 26.2999 20.5222 26.6239 20.5042C26.6239 20.4862 26.6059 20.4682 26.6059 20.4682Z" fill="url(#paint23_radial_446_1463)"/>
<path d="M31.4658 20.4682L32.0598 19.1182C33.5718 18.4342 35.2638 17.4082 38.0178 16.5802C41.2758 15.5902 48.3318 15.6082 52.6338 16.0942C55.7658 16.4542 56.7018 16.8142 56.7018 16.8142C56.7198 17.1202 56.7378 17.4622 56.7198 17.8582C50.0238 17.2822 41.9238 15.9502 32.3838 20.3422C32.1318 20.4682 31.8078 20.5042 31.4838 20.4862C31.4658 20.4862 31.4658 20.4682 31.4658 20.4682Z" fill="url(#paint24_radial_446_1463)"/>
<defs>
<radialGradient id="paint0_radial_446_1463" cx="0" cy="0" r="1" gradientUnits="userSpaceOnUse" gradientTransform="translate(23.3335 17.3285) scale(34.7435)">
<stop stop-color="#FFE030"/>
<stop offset="1" stop-color="#FFB92E"/>
</radialGradient>
<radialGradient id="paint1_radial_446_1463" cx="0" cy="0" r="1" gradientUnits="userSpaceOnUse" gradientTransform="translate(23.3335 17.3285) scale(27.3342)">
<stop stop-color="#FFEA5F"/>
<stop offset="1" stop-color="#FFBC47" stop-opacity="0"/>
</radialGradient>
<linearGradient id="paint2_linear_446_1463" x1="16.5909" y1="16.0084" x2="16.5909" y2="12.9737" gradientUnits="userSpaceOnUse">
<stop offset="0.00132565" stop-color="#3C2200"/>
<stop offset="1" stop-color="#7A4400"/>
</linearGradient>
<linearGradient id="paint3_linear_446_1463" x1="41.409" y1="16.0084" x2="41.409" y2="12.9737" gradientUnits="userSpaceOnUse">
<stop offset="0.00132565" stop-color="#3C2200"/>
<stop offset="1" stop-color="#7A4400"/>
</linearGradient>
<radialGradient id="paint4_radial_446_1463" cx="0" cy="0" r="1" gradientUnits="userSpaceOnUse" gradientTransform="translate(3.81319 23.1397) rotate(180) scale(29.0706 29.0706)">
<stop stop-color="#7A4400" stop-opacity="0.5"/>
<stop offset="0.5833" stop-color="#894D00" stop-opacity="0.2069"/>
<stop offset="0.995" stop-color="#975500" stop-opacity="0"/>
</radialGradient>
<radialGradient id="paint5_radial_446_1463" cx="0" cy="0" r="1" gradientUnits="userSpaceOnUse" gradientTransform="translate(54.1867 23.1397) scale(29.0706 29.0706)">
<stop stop-color="#7A4400" stop-opacity="0.5"/>
<stop offset="0.5833" stop-color="#894D00" stop-opacity="0.2069"/>
<stop offset="0.995" stop-color="#975500" stop-opacity="0"/>
</radialGradient>
<radialGradient id="paint6_radial_446_1463" cx="0" cy="0" r="1" gradientUnits="userSpaceOnUse" gradientTransform="translate(41.0398 25.0498) rotate(5.86799) scale(5.42822 2.61894)">
<stop offset="0.00132565" stop-color="#7A4400"/>
<stop offset="1" stop-color="#643800"/>
</radialGradient>
<linearGradient id="paint7_linear_446_1463" x1="41.4873" y1="20.6286" x2="41.1487" y2="24.1193" gradientUnits="userSpaceOnUse">
<stop offset="0.00132565" stop-color="#3C2200"/>
<stop offset="1" stop-color="#512D00"/>
</linearGradient>
<radialGradient id="paint8_radial_446_1463" cx="0" cy="0" r="1" gradientUnits="userSpaceOnUse" gradientTransform="translate(17.0003 25.0491) rotate(174.132) scale(5.42821 2.61894)">
<stop offset="0.00132565" stop-color="#7A4400"/>
<stop offset="1" stop-color="#643800"/>
</radialGradient>
<linearGradient id="paint9_linear_446_1463" x1="16.5339" y1="20.6307" x2="16.8725" y2="24.1215" gradientUnits="userSpaceOnUse">
<stop offset="0.00132565" stop-color="#3C2200"/>
<stop offset="1" stop-color="#512D00"/>
</linearGradient>
<linearGradient id="paint10_linear_446_1463" x1="29.0001" y1="40.8998" x2="29.0001" y2="45.1993" gradientUnits="userSpaceOnUse">
<stop offset="0.00132565" stop-color="#3C2200"/>
<stop offset="1" stop-color="#512D00"/>
</linearGradient>
<linearGradient id="paint11_linear_446_1463" x1="15.2754" y1="49.5858" x2="15.2754" y2="22.9444" gradientUnits="userSpaceOnUse">
<stop stop-color="#8800C7"/>
<stop offset="1" stop-color="#7000A3" stop-opacity="0"/>
</linearGradient>
<linearGradient id="paint12_linear_446_1463" x1="42.6466" y1="49.5858" x2="42.6466" y2="22.9444" gradientUnits="userSpaceOnUse">
<stop stop-color="#8800C7"/>
<stop offset="1" stop-color="#7000A3" stop-opacity="0"/>
</linearGradient>
<linearGradient id="paint13_linear_446_1463" x1="28.9611" y1="26.1711" x2="28.9611" y2="6.19631" gradientUnits="userSpaceOnUse">
<stop stop-color="#242424"/>
<stop offset="1" stop-color="#8EA5A8"/>
</linearGradient>
<linearGradient id="paint14_linear_446_1463" x1="5.22664" y1="8.29766" x2="25.4067" y2="41.3195" gradientUnits="userSpaceOnUse">
<stop/>
<stop offset="1" stop-opacity="0.5"/>
</linearGradient>
<linearGradient id="paint15_linear_446_1463" x1="15.1917" y1="25.6885" x2="15.1917" y2="40.9552" gradientUnits="userSpaceOnUse">
<stop/>
<stop offset="1" stop-color="#8EA5A8"/>
</linearGradient>
<radialGradient id="paint16_radial_446_1463" cx="0" cy="0" r="1" gradientUnits="userSpaceOnUse" gradientTransform="translate(28.9272 21.0082) scale(3.40149 2.07868)">
<stop offset="0.0158651" stop-color="#8EA5A8" stop-opacity="0.25"/>
<stop offset="1" stop-color="#8EA5A8" stop-opacity="0"/>
</radialGradient>
<linearGradient id="paint17_linear_446_1463" x1="5.18208" y1="18.2538" x2="1.64957" y2="18.2538" gradientUnits="userSpaceOnUse">
<stop stop-color="white"/>
<stop offset="1" stop-color="#FFBF00"/>
</linearGradient>
<linearGradient id="paint18_linear_446_1463" x1="31.996" y1="7.40437" x2="54.783" y2="42.2608" gradientUnits="userSpaceOnUse">
<stop/>
<stop offset="1" stop-opacity="0.5"/>
</linearGradient>
<linearGradient id="paint19_linear_446_1463" x1="42.7305" y1="25.6885" x2="42.7305" y2="40.9552" gradientUnits="userSpaceOnUse">
<stop/>
<stop offset="1" stop-color="#8EA5A8"/>
</linearGradient>
<linearGradient id="paint20_linear_446_1463" x1="52.7403" y1="18.2538" x2="56.2729" y2="18.2538" gradientUnits="userSpaceOnUse">
<stop stop-color="white"/>
<stop offset="1" stop-color="#FFBF00"/>
</linearGradient>
<radialGradient id="paint21_radial_446_1463" cx="0" cy="0" r="1" gradientUnits="userSpaceOnUse" gradientTransform="translate(42.9631 22.3328) rotate(180) scale(9.94171 3.46125)">
<stop stop-color="white" stop-opacity="0.24"/>
<stop offset="1" stop-color="white" stop-opacity="0"/>
</radialGradient>
<radialGradient id="paint22_radial_446_1463" cx="0" cy="0" r="1" gradientUnits="userSpaceOnUse" gradientTransform="translate(15.5528 22.8146) scale(9.53376 3.31894)">
<stop stop-color="white" stop-opacity="0.24"/>
<stop offset="1" stop-color="white" stop-opacity="0"/>
</radialGradient>
<radialGradient id="paint23_radial_446_1463" cx="0" cy="0" r="1" gradientUnits="userSpaceOnUse" gradientTransform="translate(11.9485 49.0776) scale(56.8251 33.7883)">
<stop offset="0.9647" stop-color="#8EA5A8" stop-opacity="0"/>
<stop offset="1" stop-color="#8EA5A8"/>
</radialGradient>
<radialGradient id="paint24_radial_446_1463" cx="0" cy="0" r="1" gradientUnits="userSpaceOnUse" gradientTransform="translate(46.127 49.0777) rotate(180) scale(56.8251 33.7882)">
<stop offset="0.9647" stop-color="#8EA5A8" stop-opacity="0"/>
<stop offset="1" stop-color="#8EA5A8"/>
</radialGradient>
</defs>
</svg>
