<svg width="58" height="58" viewBox="0 0 58 58" fill="none" xmlns="http://www.w3.org/2000/svg">
<path d="M28.7058 57.212C44.4492 57.212 57.2117 44.4495 57.2117 28.7061C57.2117 12.9627 44.4492 0.200195 28.7058 0.200195C12.9625 0.200195 0.199951 12.9627 0.199951 28.7061C0.199951 44.4495 12.9625 57.212 28.7058 57.212Z" fill="url(#paint0_radial_446_961)"/>
<path opacity="0.5" d="M28.7058 57.212C44.4492 57.212 57.2117 44.4495 57.2117 28.7061C57.2117 12.9627 44.4492 0.200195 28.7058 0.200195C12.9625 0.200195 0.199951 12.9627 0.199951 28.7061C0.199951 44.4495 12.9625 57.212 28.7058 57.212Z" fill="url(#paint1_radial_446_961)"/>
<path opacity="0.5" d="M28.7058 57.212C44.4492 57.212 57.2117 44.4495 57.2117 28.7061C57.2117 12.9627 44.4492 0.200195 28.7058 0.200195C12.9625 0.200195 0.199951 12.9627 0.199951 28.7061C0.199951 44.4495 12.9625 57.212 28.7058 57.212Z" fill="url(#paint2_radial_446_961)"/>
<path opacity="0.5" d="M28.7058 57.212C44.4492 57.212 57.2117 44.4495 57.2117 28.7061C57.2117 12.9627 44.4492 0.200195 28.7058 0.200195C12.9625 0.200195 0.199951 12.9627 0.199951 28.7061C0.199951 44.4495 12.9625 57.212 28.7058 57.212Z" fill="url(#paint3_radial_446_961)"/>
<path d="M38.5039 14.4799C38.7691 13.3661 40.1215 12.9551 42.2031 13.4324C43.9665 13.8435 47.5993 15.6996 49.4688 19.7435C49.8135 20.486 48.9782 20.6583 48.5937 20.1413C47.2811 18.3779 43.3168 15.5671 39.8033 15.1428C38.3846 14.9704 38.5039 14.4799 38.5039 14.4799Z" fill="url(#paint4_linear_446_961)"/>
<path d="M41.2351 20.9894C41.2351 20.9894 45.8225 22.2622 46.5119 26.0277C46.5517 26.2663 46.565 26.505 46.5119 26.7436C46.4324 27.2209 45.9021 27.6452 45.1596 27.0353C40.5191 23.3229 37.3238 24.145 34.9638 24.6886C34.0357 24.9007 33.439 23.893 33.8235 23.1771C33.9429 22.9649 34.0224 22.7395 34.1815 22.5672C36.6476 19.6901 41.2351 20.9894 41.2351 20.9894Z" fill="url(#paint5_radial_446_961)"/>
<path d="M40.9431 22.0899C40.9431 22.0899 44.6821 23.124 46.5383 26.4519C46.5383 26.3061 46.5383 26.1735 46.5117 26.0277C45.8223 22.2622 41.2348 20.9894 41.2348 20.9894C41.2348 20.9894 36.6474 19.6901 34.1813 22.5672C34.0885 22.6733 34.0089 22.7926 33.9426 22.9119C37.2042 21.0292 40.9431 22.0899 40.9431 22.0899Z" fill="url(#paint6_linear_446_961)"/>
<path d="M18.9077 14.4799C18.6426 13.3661 17.2902 12.9551 15.2086 13.4324C13.4452 13.8435 9.81237 15.6996 7.94291 19.7435C7.59819 20.486 8.43348 20.6583 8.81798 20.1413C10.1306 18.3779 14.0949 15.5671 17.6084 15.1428C19.0271 14.9704 18.9077 14.4799 18.9077 14.4799Z" fill="url(#paint7_linear_446_961)"/>
<path d="M16.1766 20.9894C16.1766 20.9894 11.5892 22.2622 10.8997 26.0277C10.8599 26.2663 10.8467 26.505 10.8997 26.7436C10.9793 27.2209 11.5096 27.6452 12.2521 27.0353C16.8926 23.3229 20.0879 24.145 22.4479 24.6886C23.376 24.9007 23.9727 23.893 23.5882 23.1771C23.4688 22.9649 23.3893 22.7395 23.2302 22.5672C20.7641 19.6901 16.1766 20.9894 16.1766 20.9894Z" fill="url(#paint8_radial_446_961)"/>
<path d="M16.4689 22.0899C16.4689 22.0899 12.73 23.124 10.8738 26.4519C10.8738 26.3061 10.8738 26.1735 10.9003 26.0277C11.5897 22.2622 16.1772 20.9894 16.1772 20.9894C16.1772 20.9894 20.7647 19.6901 23.2308 22.5672C23.3236 22.6733 23.4031 22.7926 23.4694 22.9119C20.2078 21.0292 16.4689 22.0899 16.4689 22.0899Z" fill="url(#paint9_linear_446_961)"/>
<path d="M41.3015 37.0459C41.0628 37.0061 40.8242 37.0724 40.6518 37.2447C37.5891 40.1218 32.869 41.6598 29.3157 41.6598H28.7058H28.0959C24.5426 41.6598 19.8093 40.1218 16.7599 37.2447C16.5875 37.0856 16.3488 37.0061 16.1102 37.0459C15.8715 37.0856 15.739 37.3641 15.8583 37.5895C18.4702 42.1106 23.3096 44.9215 28.56 44.9215H28.7191H28.8782C34.1286 44.9215 38.968 42.1239 41.5799 37.5895C41.686 37.3641 41.5534 37.0989 41.3015 37.0459Z" fill="#643800"/>
<path d="M41.3015 37.0459C41.0628 37.0061 40.8242 37.0724 40.6518 37.2447C37.5891 40.1218 32.869 41.6598 29.3157 41.6598H28.7058H28.0959C24.5426 41.6598 19.8093 40.1218 16.7599 37.2447C16.5875 37.0856 16.3488 37.0061 16.1102 37.0459C15.8715 37.0856 15.739 37.3641 15.8583 37.5895C15.8848 37.6292 15.9113 37.6823 15.9378 37.722C16.1897 37.5762 16.4417 37.4436 16.7201 37.7486C19.6237 41.0102 23.9327 42.9592 28.5467 42.9592H28.7058H28.8649C33.5054 42.9592 37.841 40.9836 40.7446 37.6823C41.0098 37.3773 41.2617 37.5232 41.5003 37.6823C41.5136 37.6558 41.5401 37.616 41.5534 37.5895C41.686 37.3641 41.5534 37.0989 41.3015 37.0459Z" fill="url(#paint10_linear_446_961)"/>
<path d="M28.7058 57.212C44.4492 57.212 57.2117 44.4495 57.2117 28.7061C57.2117 12.9627 44.4492 0.200195 28.7058 0.200195C12.9625 0.200195 0.199951 12.9627 0.199951 28.7061C0.199951 44.4495 12.9625 57.212 28.7058 57.212Z" fill="url(#paint11_radial_446_961)"/>
<path d="M28.7058 57.212C44.4492 57.212 57.2117 44.4495 57.2117 28.7061C57.2117 12.9627 44.4492 0.200195 28.7058 0.200195C12.9625 0.200195 0.199951 12.9627 0.199951 28.7061C0.199951 44.4495 12.9625 57.212 28.7058 57.212Z" fill="url(#paint12_radial_446_961)"/>
<path d="M9.71959 46.3001C10.0378 46.5785 10.3427 46.9497 10.2499 47.0691C10.1571 47.1884 9.79914 47.0426 9.52071 46.8172C9.22903 46.5918 8.97711 49.3628 8.93734 49.5086C8.91082 49.6147 8.31418 50.5163 8.03575 51.3251C7.94295 51.5902 8.06227 52.3592 8.0225 52.4123C7.86339 52.6244 7.83688 52.8896 7.24024 52.5581C6.64361 52.2267 6.57731 54.5602 7.24024 54.9049C8.36722 55.4883 10.7935 58.0869 13.5248 57.7422C16.6803 57.3312 19.1729 53.6718 18.868 51.2588C18.5631 48.8457 17.7278 48.0237 17.5156 45.9951C17.33 44.2715 18.4702 43.3036 18.3642 42.4418C18.2714 41.7259 17.1842 41.6861 16.8262 41.7259C16.203 41.8054 14.7048 42.8131 14.9832 44.9079C15.0893 45.73 14.9567 46.499 14.1082 46.605C13.2596 46.7111 12.1857 45.6902 11.5095 44.8682" fill="url(#paint13_linear_446_961)"/>
<path d="M18.3642 42.4422C18.3111 42.0445 17.9664 41.8588 17.6084 41.7793C18.2051 43.1052 16.1102 43.4366 16.7068 48.1169C17.3035 52.7971 14.7578 54.5075 13.6574 54.892C12.5569 55.2765 10.5814 55.5947 8.818 53.9374C8.2744 53.4203 7.79709 53.1551 6.98832 52.7309C6.8027 53.2877 6.72315 54.6666 7.24023 54.9318C8.36721 55.5151 10.7935 58.1138 13.5248 57.7691C16.6803 57.3581 19.1729 53.6987 18.868 51.2857C18.563 48.8726 17.7278 48.0506 17.5156 46.022C17.33 44.2719 18.4702 43.304 18.3642 42.4422Z" fill="url(#paint14_linear_446_961)"/>
<path d="M7.24017 52.5715C6.64354 52.24 5.19836 51.2324 4.29677 50.7948C3.39519 50.344 2.73227 50.5031 2.41406 51.2721C2.09586 52.0544 3.70014 52.9427 4.07138 53.1946C4.6415 53.5659 6.57725 54.5868 7.24017 54.9315" fill="url(#paint15_linear_446_961)"/>
<path d="M8.93741 49.5088C8.89763 49.6546 8.42032 49.5088 7.42593 48.8724C6.6702 48.3818 4.61512 46.9499 3.47488 46.3533C2.32139 45.7566 1.51262 45.5975 1.02205 46.1941C0.531484 46.7908 1.11486 47.6128 1.98993 48.1962C3.07713 48.9254 4.29691 49.6281 5.45041 50.3043C6.36525 50.8346 8.18167 52.2003 8.02257 52.3992" fill="url(#paint16_linear_446_961)"/>
<path d="M5.4504 50.3173C6.31221 50.8211 7.96952 52.0542 8.03582 52.3724C8.20818 52.0011 7.67784 51.02 7.20053 50.715C4.45601 48.9516 1.11486 46.5121 0.836426 46.6844C0.836426 47.1883 1.32699 47.7716 1.97666 48.2092C3.06386 48.9251 4.28365 49.6411 5.4504 50.3173Z" fill="url(#paint17_linear_446_961)"/>
<path d="M11.5095 44.8683C10.8333 44.0463 8.43353 41.3548 7.86341 40.5195C7.30656 39.6842 6.53756 39.6842 6.00722 40.0555C5.47687 40.4267 5.31777 41.1692 6.49778 42.7602C7.4524 44.0596 8.36724 44.8551 9.73287 46.3003L11.4565 45.9555L11.5095 44.8683Z" fill="url(#paint18_linear_446_961)"/>
<path d="M9.52083 46.8307C9.22914 46.6053 6.57743 44.2188 5.96754 43.7415C4.8273 42.8664 3.1965 40.8379 1.97671 42.1107C1.32705 42.7869 1.8839 43.4763 2.14908 43.7415C2.41425 44.0067 5.79518 46.6584 6.11338 46.8705C6.43159 47.0827 8.97723 49.3631 8.93745 49.4957" fill="url(#paint19_linear_446_961)"/>
<path d="M9.71961 46.3002C9.98478 46.6051 10.3295 46.9233 10.2632 47.0559C11.072 46.2074 8.72522 44.497 7.65128 43.1977C6.81599 42.19 6.64363 40.7051 6.04699 40.0156C6.03373 40.0289 6.02048 40.0289 6.00722 40.0421C5.47687 40.4134 5.31777 41.1559 6.49778 42.7469C7.43914 44.0595 8.3805 44.7887 9.71961 46.3002Z" fill="url(#paint20_linear_446_961)"/>
<path d="M6.11335 46.8834C6.43156 47.0955 8.9772 49.376 8.93743 49.5086C9.53406 48.4479 6.4183 45.9553 4.81401 44.8018C3.42186 43.7942 3.02411 42.76 1.7778 42.3755C1.4596 42.9589 1.91039 43.5157 2.14904 43.7544C2.42747 44.0195 5.79515 46.6713 6.11335 46.8834Z" fill="url(#paint21_linear_446_961)"/>
<path d="M8.8977 49.5749C8.81814 49.6412 8.65904 49.6677 8.38062 49.5483C8.57949 49.6809 8.77837 49.7207 8.8977 49.5749Z" fill="url(#paint22_linear_446_961)"/>
<path d="M7.83673 52.6247C7.92954 52.5716 7.98258 52.5186 7.98258 52.4656C7.82347 52.6247 7.7837 52.8766 7.2401 52.5716C6.64346 52.2402 5.19828 51.2325 4.29669 50.795C3.89894 50.5961 3.55421 50.5166 3.24927 50.5563C3.72658 50.7287 3.55421 50.8613 4.62816 51.3651C5.21154 51.6303 7.22684 52.9561 7.83673 52.6247Z" fill="url(#paint23_linear_446_961)"/>
<path d="M5.71541 48.1567C6.59047 48.7931 8.30083 50.0659 8.85769 49.6019C8.69858 49.6814 8.19476 49.3765 7.42576 48.8859C6.67003 48.3954 4.61495 46.9634 3.47471 46.3668C2.54662 45.8895 1.83065 45.6906 1.34009 45.9558C3.01067 46.0619 4.89338 47.5468 5.71541 48.1567Z" fill="url(#paint24_linear_446_961)"/>
<path d="M6.21924 44.4171C7.53184 45.3849 9.45433 47.6124 10.2233 47.0953C10.0907 47.1483 9.78579 47.0157 9.52062 46.8169C9.22893 46.5915 6.57722 44.2049 5.96733 43.7276C5.17181 43.1177 4.15091 41.9642 3.19629 41.7256C4.2172 42.2824 5.15856 43.6348 6.21924 44.4171Z" fill="url(#paint25_linear_446_961)"/>
<path d="M13.0473 46.2871C12.4905 45.9424 11.9204 45.359 11.5094 44.8685C10.8332 44.0465 8.43337 41.355 7.86326 40.5197C7.69089 40.2678 7.50527 40.0954 7.3064 39.9761C7.57157 40.3606 7.71741 40.9042 8.31405 41.5804C9.26866 42.6676 10.6476 44.4177 11.1646 45.0276C11.6685 45.6375 12.5303 46.9501 13.0473 46.2871Z" fill="url(#paint26_linear_446_961)"/>
<path d="M17.3829 55.3958C16.9188 54.5738 16.3354 54.123 15.646 54.7064C13.7765 56.3107 11.3767 56.1648 8.11514 54.1628C5.21152 52.3729 3.75308 51.6437 2.37419 51.3652C2.21508 52.121 3.70004 52.9563 4.05802 53.1817C4.62814 53.5529 6.56389 54.5738 7.22682 54.9185C8.3538 55.5019 10.7801 58.1006 13.5114 57.7558C15.0494 57.557 16.415 56.6023 17.3829 55.3958Z" fill="url(#paint27_linear_446_961)"/>
<path d="M17.5158 45.9953C17.3302 44.2716 18.4704 43.3038 18.3643 42.442C18.3378 42.1901 18.1787 42.0177 17.9798 41.9116C18.2981 42.548 17.8207 43.211 17.1446 44.3247C16.4153 45.5312 16.4286 47.2416 17.2506 48.8591C18.0727 50.4766 17.6086 52.903 16.4816 53.8045C15.3547 54.7061 14.1349 58.1666 9.00381 55.0906C8.6856 54.8652 8.3674 54.6663 8.06245 54.5205C5.92782 53.5526 4.89366 53.1151 3.85949 52.3859C3.66061 52.24 3.06398 51.6567 2.58667 51.9881C2.98443 52.5317 3.81972 53.009 4.08489 53.1814C4.655 53.5526 6.59075 54.5735 7.25368 54.9183C7.33323 54.958 7.4393 55.0243 7.53211 55.0906C7.55863 55.1039 7.58514 55.1304 7.61166 55.1437C7.62492 55.1437 7.62492 55.1569 7.63818 55.1569C7.65144 55.1702 7.67795 55.1834 7.69121 55.1967C7.69121 55.1967 7.70447 55.1967 7.70447 55.2099C8.39392 55.6873 9.34853 56.496 10.4755 57.0927C10.5683 57.1457 10.6744 57.1987 10.7805 57.2385C10.8865 57.2915 10.9793 57.3313 11.0854 57.3711C11.8544 57.6893 12.6764 57.8749 13.5382 57.7556C16.6938 57.3446 19.1864 53.6852 18.8814 51.2722C18.55 48.8458 17.7279 48.0238 17.5158 45.9953Z" fill="url(#paint28_radial_446_961)"/>
<path d="M47.692 46.3001C47.3738 46.5785 47.0688 46.9497 47.1616 47.0691C47.2545 47.1884 47.6124 47.0426 47.8909 46.8172C48.1826 46.5918 48.4345 49.3628 48.4742 49.5086C48.5008 49.6147 49.0974 50.5163 49.3758 51.3251C49.4686 51.5902 49.3493 52.3592 49.3891 52.4123C49.5482 52.6244 49.5747 52.8896 50.1713 52.5581C50.768 52.2267 50.8343 54.5602 50.1713 54.9049C49.0444 55.4883 46.618 58.0869 43.8868 57.7422C40.7313 57.3312 38.2387 53.6718 38.5436 51.2588C38.8485 48.8457 39.6838 48.0237 39.896 45.9951C40.0816 44.2715 38.9414 43.3036 39.0474 42.4418C39.1402 41.7259 40.2274 41.6861 40.5854 41.7259C41.2086 41.8054 42.7068 42.8131 42.4283 44.9079C42.3223 45.73 42.4549 46.499 43.3034 46.605C44.152 46.7111 45.2259 45.6902 45.9021 44.8682" fill="url(#paint29_linear_446_961)"/>
<path d="M39.0474 42.4422C39.1005 42.0445 39.4452 41.8588 39.8032 41.7793C39.2065 43.1052 41.3014 43.4366 40.7047 48.1169C40.1081 52.7971 42.6537 54.5075 43.7542 54.892C44.8547 55.2765 46.8302 55.5947 48.5936 53.9374C49.1372 53.4203 49.6145 53.1551 50.4233 52.7309C50.6089 53.2877 50.6884 54.6666 50.1713 54.9318C49.0444 55.5151 46.6181 58.1138 43.8868 57.7691C40.7313 57.3581 38.2387 53.6987 38.5436 51.2857C38.8485 48.8726 39.6838 48.0506 39.896 46.022C40.0816 44.2719 38.9414 43.304 39.0474 42.4422Z" fill="url(#paint30_linear_446_961)"/>
<path d="M50.1714 52.5715C50.768 52.24 52.2132 51.2324 53.1148 50.7948C54.0164 50.344 54.6793 50.5031 54.9975 51.2721C55.3157 52.0544 53.7114 52.9427 53.3402 53.1946C52.7701 53.5659 50.8343 54.5868 50.1714 54.9315" fill="url(#paint31_linear_446_961)"/>
<path d="M48.4744 49.5088C48.5141 49.6546 48.9914 49.5088 49.9858 48.8724C50.7416 48.3818 52.7967 46.9499 53.9369 46.3533C55.0904 45.7566 55.8992 45.5975 56.3897 46.1941C56.8803 46.7908 56.2969 47.6128 55.4218 48.1962C54.3346 48.9254 53.1149 49.6281 51.9614 50.3043C51.0465 50.8346 49.2301 52.2003 49.3892 52.3992" fill="url(#paint32_linear_446_961)"/>
<path d="M51.9614 50.3173C51.0996 50.8211 49.4423 52.0542 49.376 52.3724C49.2037 52.0011 49.734 51.02 50.2113 50.715C52.9558 48.9516 56.297 46.5121 56.5754 46.6844C56.5754 47.1883 56.0848 47.7716 55.4352 48.2092C54.348 48.9251 53.1282 49.6411 51.9614 50.3173Z" fill="url(#paint33_linear_446_961)"/>
<path d="M45.9023 44.8683C46.5785 44.0463 48.9783 41.3548 49.5484 40.5195C50.1053 39.6842 50.8743 39.6842 51.4046 40.0555C51.935 40.4267 52.0941 41.1692 50.9141 42.7602C49.9595 44.0596 49.0446 44.8551 47.679 46.3003L45.9554 45.9555L45.9023 44.8683Z" fill="url(#paint34_linear_446_961)"/>
<path d="M47.8909 46.8307C48.1826 46.6053 50.8343 44.2188 51.4442 43.7415C52.5844 42.8664 54.2152 40.8379 55.435 42.1107C56.0847 42.7869 55.5278 43.4763 55.2626 43.7415C54.9975 44.0067 51.6165 46.6584 51.2983 46.8705C50.9801 47.0827 48.4345 49.3631 48.4742 49.4957" fill="url(#paint35_linear_446_961)"/>
<path d="M47.6919 46.3002C47.4267 46.6051 47.082 46.9233 47.1483 47.0559C46.3395 46.2074 48.6863 44.497 49.7602 43.1977C50.5955 42.19 50.7679 40.7051 51.3645 40.0156C51.3778 40.0289 51.391 40.0289 51.4043 40.0421C51.9346 40.4134 52.0937 41.1559 50.9137 42.7469C49.9723 44.0595 49.031 44.7887 47.6919 46.3002Z" fill="url(#paint36_linear_446_961)"/>
<path d="M51.2984 46.8834C50.9802 47.0955 48.4345 49.376 48.4743 49.5086C47.8777 48.4479 50.9934 45.9553 52.5977 44.8018C53.9899 43.7942 54.3876 42.76 55.6339 42.3755C55.9521 42.9589 55.5013 43.5157 55.2627 43.7544C54.9843 44.0195 51.6166 46.6713 51.2984 46.8834Z" fill="url(#paint37_linear_446_961)"/>
<path d="M48.5139 49.5749C48.5935 49.6412 48.7526 49.6677 49.031 49.5483C48.8321 49.6809 48.6332 49.7207 48.5139 49.5749Z" fill="url(#paint38_linear_446_961)"/>
<path d="M49.5748 52.6247C49.482 52.5716 49.429 52.5186 49.429 52.4656C49.5881 52.6247 49.6278 52.8766 50.1714 52.5716C50.7681 52.2402 52.2133 51.2325 53.1148 50.795C53.5126 50.5961 53.8573 50.5166 54.1623 50.5563C53.685 50.7287 53.8573 50.8613 52.7834 51.3651C52.2 51.6303 50.1847 52.9561 49.5748 52.6247Z" fill="url(#paint39_linear_446_961)"/>
<path d="M51.6962 48.1567C50.8212 48.7931 49.1108 50.0659 48.554 49.6019C48.7131 49.6814 49.2169 49.3765 49.9859 48.8859C50.7416 48.3954 52.7967 46.9634 53.9369 46.3668C54.865 45.8895 55.581 45.6906 56.0716 45.9558C54.401 46.0619 52.5183 47.5468 51.6962 48.1567Z" fill="url(#paint40_linear_446_961)"/>
<path d="M51.1923 44.4171C49.8797 45.3849 47.9572 47.6124 47.1882 47.0953C47.3208 47.1483 47.6258 47.0157 47.8909 46.8169C48.1826 46.5915 50.8343 44.2049 51.4442 43.7276C52.2397 43.1177 53.2607 41.9642 54.2153 41.7256C53.1944 42.2824 52.253 43.6348 51.1923 44.4171Z" fill="url(#paint41_linear_446_961)"/>
<path d="M44.3643 46.2871C44.9211 45.9424 45.4912 45.359 45.9023 44.8685C46.5784 44.0465 48.9782 41.355 49.5484 40.5197C49.7207 40.2678 49.9063 40.0954 50.1052 39.9761C49.84 40.3606 49.6942 40.9042 49.0976 41.5804C48.1429 42.6676 46.7641 44.4177 46.247 45.0276C45.7299 45.6375 44.8813 46.9501 44.3643 46.2871Z" fill="url(#paint42_linear_446_961)"/>
<path d="M40.0286 55.3958C40.4926 54.5738 41.076 54.123 41.7654 54.7064C43.6349 56.3107 46.0347 56.1648 49.2963 54.1628C52.1999 52.3729 53.6584 51.6437 55.0372 51.3652C55.1963 52.121 53.7114 52.9563 53.3534 53.1817C52.7833 53.5529 50.8475 54.5738 50.1846 54.9185C49.0576 55.5019 46.6313 58.1006 43.9001 57.7558C42.3621 57.557 40.9964 56.6023 40.0286 55.3958Z" fill="url(#paint43_linear_446_961)"/>
<path d="M39.896 45.9953C40.0817 44.2716 38.9414 43.3038 39.0475 42.442C39.074 42.1901 39.2331 42.0177 39.432 41.9116C39.1138 42.548 39.5911 43.211 40.2673 44.3247C40.9965 45.5312 40.9832 47.2416 40.1612 48.8591C39.3392 50.4766 39.8032 52.903 40.9302 53.8045C42.0572 54.7061 43.277 58.1666 48.408 55.0906C48.7262 54.8652 49.0444 54.6663 49.3494 54.5205C51.484 53.5526 52.5182 53.1151 53.5523 52.3859C53.7512 52.24 54.3479 51.6567 54.8252 51.9881C54.4274 52.5317 53.5921 53.009 53.327 53.1814C52.7568 53.5526 50.8211 54.5735 50.1582 54.9183C50.0786 54.958 49.9725 55.0243 49.8797 55.0906C49.8532 55.1039 49.8267 55.1304 49.8002 55.1437C49.7869 55.1437 49.7869 55.1569 49.7737 55.1569C49.7604 55.1702 49.7339 55.1834 49.7206 55.1967C49.7206 55.1967 49.7074 55.1967 49.7074 55.2099C49.0179 55.6873 48.0633 56.496 46.9363 57.0927C46.8435 57.1457 46.7375 57.1987 46.6314 57.2385C46.5253 57.2915 46.4325 57.3313 46.3264 57.3711C45.5574 57.6893 44.7354 57.8749 43.8736 57.7556C40.7181 57.3446 38.2255 53.6852 38.5304 51.2722C38.8619 48.8458 39.6839 48.0238 39.896 45.9953Z" fill="url(#paint44_radial_446_961)"/>
<defs>
<radialGradient id="paint0_radial_446_961" cx="0" cy="0" r="1" gradientUnits="userSpaceOnUse" gradientTransform="translate(23.0972 17.1536) scale(34.3887)">
<stop stop-color="#FFDF30"/>
<stop offset="1" stop-color="#FFB82E"/>
</radialGradient>
<radialGradient id="paint1_radial_446_961" cx="0" cy="0" r="1" gradientUnits="userSpaceOnUse" gradientTransform="translate(23.0972 17.1536) scale(27.0551)">
<stop stop-color="#FFE95F"/>
<stop offset="1" stop-color="#FFBB47" stop-opacity="0"/>
</radialGradient>
<radialGradient id="paint2_radial_446_961" cx="0" cy="0" r="1" gradientUnits="userSpaceOnUse" gradientTransform="translate(13.1756 35.7976) rotate(-2.7703) scale(11.9903 9.4873)">
<stop stop-color="#FF4C00"/>
<stop offset="0.1542" stop-color="#FF4C00"/>
<stop offset="0.1795" stop-color="#FF4C00"/>
<stop offset="0.3996" stop-color="#FA4C0B" stop-opacity="0.7318"/>
<stop offset="0.7799" stop-color="#EE4B27" stop-opacity="0.2683"/>
<stop offset="1" stop-color="#E64A3A" stop-opacity="0"/>
</radialGradient>
<radialGradient id="paint3_radial_446_961" cx="0" cy="0" r="1" gradientUnits="userSpaceOnUse" gradientTransform="translate(44.2192 35.7976) rotate(-177.23) scale(11.9903 9.4873)">
<stop stop-color="#FF4C00"/>
<stop offset="0.1542" stop-color="#FF4C00"/>
<stop offset="0.1795" stop-color="#FF4C00"/>
<stop offset="0.3996" stop-color="#FA4C0B" stop-opacity="0.7318"/>
<stop offset="0.7799" stop-color="#EE4B27" stop-opacity="0.2683"/>
<stop offset="1" stop-color="#E64A3A" stop-opacity="0"/>
</radialGradient>
<linearGradient id="paint4_linear_446_961" x1="43.922" y1="17.7028" x2="44.6018" y2="14.777" gradientUnits="userSpaceOnUse">
<stop offset="0.00132565" stop-color="#3C2200"/>
<stop offset="1" stop-color="#7A4400"/>
</linearGradient>
<radialGradient id="paint5_radial_446_961" cx="0" cy="0" r="1" gradientUnits="userSpaceOnUse" gradientTransform="translate(40.5209 23.5909) rotate(15.68) scale(5.12307 2.47147)">
<stop offset="0.00132565" stop-color="#7A4400"/>
<stop offset="1" stop-color="#643800"/>
</radialGradient>
<linearGradient id="paint6_linear_446_961" x1="41.6484" y1="19.5534" x2="40.772" y2="22.7452" gradientUnits="userSpaceOnUse">
<stop offset="0.00132565" stop-color="#3C2200"/>
<stop offset="1" stop-color="#512D00"/>
</linearGradient>
<linearGradient id="paint7_linear_446_961" x1="13.4888" y1="17.6878" x2="12.809" y2="14.7619" gradientUnits="userSpaceOnUse">
<stop offset="0.00132565" stop-color="#3C2200"/>
<stop offset="1" stop-color="#7A4400"/>
</linearGradient>
<radialGradient id="paint8_radial_446_961" cx="0" cy="0" r="1" gradientUnits="userSpaceOnUse" gradientTransform="translate(16.87 23.6036) rotate(164.32) scale(5.12308 2.47147)">
<stop offset="0.00132565" stop-color="#7A4400"/>
<stop offset="1" stop-color="#643800"/>
</radialGradient>
<linearGradient id="paint9_linear_446_961" x1="15.7457" y1="19.5374" x2="16.6222" y2="22.7292" gradientUnits="userSpaceOnUse">
<stop offset="0.00132565" stop-color="#3C2200"/>
<stop offset="1" stop-color="#512D00"/>
</linearGradient>
<linearGradient id="paint10_linear_446_961" x1="28.7058" y1="39.0592" x2="28.7058" y2="43.3147" gradientUnits="userSpaceOnUse">
<stop offset="0.00132565" stop-color="#3C2200"/>
<stop offset="1" stop-color="#512D00"/>
</linearGradient>
<radialGradient id="paint11_radial_446_961" cx="0" cy="0" r="1" gradientUnits="userSpaceOnUse" gradientTransform="translate(9.35259 48.893) rotate(-177.23) scale(11.9903 9.4873)">
<stop stop-color="#7A4400" stop-opacity="0.5"/>
<stop offset="0.6008" stop-color="#894D00" stop-opacity="0.1981"/>
<stop offset="0.995" stop-color="#965500" stop-opacity="0"/>
</radialGradient>
<radialGradient id="paint12_radial_446_961" cx="0" cy="0" r="1" gradientUnits="userSpaceOnUse" gradientTransform="translate(48.0513 48.893) rotate(-2.7703) scale(11.9903 9.4873)">
<stop stop-color="#7A4400" stop-opacity="0.5"/>
<stop offset="0.6008" stop-color="#894D00" stop-opacity="0.1981"/>
<stop offset="0.995" stop-color="#965500" stop-opacity="0"/>
</radialGradient>
<linearGradient id="paint13_linear_446_961" x1="18.1443" y1="57.7946" x2="14.7605" y2="52.0401" gradientUnits="userSpaceOnUse">
<stop offset="0.00132565" stop-color="#FFCB4B"/>
<stop offset="1" stop-color="#FFD748"/>
</linearGradient>
<linearGradient id="paint14_linear_446_961" x1="18.1376" y1="53.5123" x2="12.0822" y2="47.9278" gradientUnits="userSpaceOnUse">
<stop offset="0.00132565" stop-color="#FFCB4B"/>
<stop offset="1" stop-color="#FFD748"/>
</linearGradient>
<linearGradient id="paint15_linear_446_961" x1="3.15669" y1="51.4258" x2="6.46381" y2="53.2608" gradientUnits="userSpaceOnUse">
<stop offset="0.00132565" stop-color="#FFCB4B"/>
<stop offset="1" stop-color="#FFD748"/>
</linearGradient>
<linearGradient id="paint16_linear_446_961" x1="0.804277" y1="45.1101" x2="7.23091" y2="50.3074" gradientUnits="userSpaceOnUse">
<stop offset="0.00132565" stop-color="#FFCB4B"/>
<stop offset="1" stop-color="#FFD748"/>
</linearGradient>
<linearGradient id="paint17_linear_446_961" x1="6.41815" y1="47.1218" x2="3.54785" y2="50.6202" gradientUnits="userSpaceOnUse">
<stop stop-color="#FFBC47" stop-opacity="0"/>
<stop offset="1" stop-color="#FFA754"/>
</linearGradient>
<linearGradient id="paint18_linear_446_961" x1="6.81708" y1="41.2241" x2="10.7847" y2="45.9839" gradientUnits="userSpaceOnUse">
<stop offset="0.00132565" stop-color="#FFCB4B"/>
<stop offset="1" stop-color="#FFD748"/>
</linearGradient>
<linearGradient id="paint19_linear_446_961" x1="3.40089" y1="42.7564" x2="8.59788" y2="48.1656" gradientUnits="userSpaceOnUse">
<stop offset="0.00132565" stop-color="#FFCB4B"/>
<stop offset="1" stop-color="#FFD748"/>
</linearGradient>
<linearGradient id="paint20_linear_446_961" x1="9.3503" y1="42.1163" x2="6.08038" y2="45.9337" gradientUnits="userSpaceOnUse">
<stop stop-color="#FFBC47" stop-opacity="0"/>
<stop offset="1" stop-color="#FFA754"/>
</linearGradient>
<linearGradient id="paint21_linear_446_961" x1="6.62075" y1="44.7511" x2="2.49463" y2="48.6683" gradientUnits="userSpaceOnUse">
<stop stop-color="#FFBC47" stop-opacity="0"/>
<stop offset="1" stop-color="#FFA754"/>
</linearGradient>
<linearGradient id="paint22_linear_446_961" x1="9.87831" y1="48.3879" x2="6.38634" y2="51.7028" gradientUnits="userSpaceOnUse">
<stop stop-color="#FFBC47" stop-opacity="0"/>
<stop offset="1" stop-color="#FFA754"/>
</linearGradient>
<linearGradient id="paint23_linear_446_961" x1="3.21727" y1="50.0332" x2="7.9084" y2="52.9379" gradientUnits="userSpaceOnUse">
<stop stop-color="#FFBC47" stop-opacity="0"/>
<stop offset="1" stop-color="#FFBC47"/>
</linearGradient>
<linearGradient id="paint24_linear_446_961" x1="2.99948" y1="45.3349" x2="7.19972" y2="50.223" gradientUnits="userSpaceOnUse">
<stop stop-color="#FFBC47" stop-opacity="0"/>
<stop offset="1" stop-color="#FFBC47"/>
</linearGradient>
<linearGradient id="paint25_linear_446_961" x1="5.76718" y1="45.36" x2="6.93282" y2="44.2045" gradientUnits="userSpaceOnUse">
<stop stop-color="#FFBC47" stop-opacity="0"/>
<stop offset="1" stop-color="#FFA754"/>
</linearGradient>
<linearGradient id="paint26_linear_446_961" x1="11.6385" y1="47.3484" x2="9.47161" y2="41.1243" gradientUnits="userSpaceOnUse">
<stop stop-color="#FFBC47" stop-opacity="0"/>
<stop offset="1" stop-color="#FFBC47"/>
</linearGradient>
<linearGradient id="paint27_linear_446_961" x1="9.17855" y1="54.2284" x2="7.32672" y2="56.4298" gradientUnits="userSpaceOnUse">
<stop offset="0.3118" stop-color="#FFBC47" stop-opacity="0"/>
<stop offset="1" stop-color="#FF8900"/>
</linearGradient>
<radialGradient id="paint28_radial_446_961" cx="0" cy="0" r="1" gradientUnits="userSpaceOnUse" gradientTransform="translate(9.67714 47.6594) rotate(40.8044) scale(13.516 12.2693)">
<stop offset="0.6134" stop-color="#FFBC47" stop-opacity="0"/>
<stop offset="1" stop-color="#FF8900"/>
</radialGradient>
<linearGradient id="paint29_linear_446_961" x1="39.2597" y1="57.7922" x2="42.6435" y2="52.0377" gradientUnits="userSpaceOnUse">
<stop offset="0.00132565" stop-color="#FFCB4B"/>
<stop offset="1" stop-color="#FFD748"/>
</linearGradient>
<linearGradient id="paint30_linear_446_961" x1="39.2664" y1="53.51" x2="45.3218" y2="47.9254" gradientUnits="userSpaceOnUse">
<stop offset="0.00132565" stop-color="#FFCB4B"/>
<stop offset="1" stop-color="#FFD748"/>
</linearGradient>
<linearGradient id="paint31_linear_446_961" x1="54.2473" y1="51.4234" x2="50.9402" y2="53.2584" gradientUnits="userSpaceOnUse">
<stop offset="0.00132565" stop-color="#FFCB4B"/>
<stop offset="1" stop-color="#FFD748"/>
</linearGradient>
<linearGradient id="paint32_linear_446_961" x1="56.5999" y1="45.1078" x2="50.1733" y2="50.305" gradientUnits="userSpaceOnUse">
<stop offset="0.00132565" stop-color="#FFCB4B"/>
<stop offset="1" stop-color="#FFD748"/>
</linearGradient>
<linearGradient id="paint33_linear_446_961" x1="50.9861" y1="47.1194" x2="53.8564" y2="50.6178" gradientUnits="userSpaceOnUse">
<stop stop-color="#FFBC47" stop-opacity="0"/>
<stop offset="1" stop-color="#FFA754"/>
</linearGradient>
<linearGradient id="paint34_linear_446_961" x1="50.5872" y1="41.2218" x2="46.6196" y2="45.9815" gradientUnits="userSpaceOnUse">
<stop offset="0.00132565" stop-color="#FFCB4B"/>
<stop offset="1" stop-color="#FFD748"/>
</linearGradient>
<linearGradient id="paint35_linear_446_961" x1="54.0032" y1="42.754" x2="48.8063" y2="48.1632" gradientUnits="userSpaceOnUse">
<stop offset="0.00132565" stop-color="#FFCB4B"/>
<stop offset="1" stop-color="#FFD748"/>
</linearGradient>
<linearGradient id="paint36_linear_446_961" x1="48.0536" y1="42.1139" x2="51.3235" y2="45.9314" gradientUnits="userSpaceOnUse">
<stop stop-color="#FFBC47" stop-opacity="0"/>
<stop offset="1" stop-color="#FFA754"/>
</linearGradient>
<linearGradient id="paint37_linear_446_961" x1="50.7834" y1="44.7487" x2="54.9095" y2="48.6659" gradientUnits="userSpaceOnUse">
<stop stop-color="#FFBC47" stop-opacity="0"/>
<stop offset="1" stop-color="#FFA754"/>
</linearGradient>
<linearGradient id="paint38_linear_446_961" x1="47.5257" y1="48.3855" x2="51.0177" y2="51.7005" gradientUnits="userSpaceOnUse">
<stop stop-color="#FFBC47" stop-opacity="0"/>
<stop offset="1" stop-color="#FFA754"/>
</linearGradient>
<linearGradient id="paint39_linear_446_961" x1="54.1867" y1="50.0308" x2="49.4956" y2="52.9355" gradientUnits="userSpaceOnUse">
<stop stop-color="#FFBC47" stop-opacity="0"/>
<stop offset="1" stop-color="#FFBC47"/>
</linearGradient>
<linearGradient id="paint40_linear_446_961" x1="54.4046" y1="45.3325" x2="50.2043" y2="50.2206" gradientUnits="userSpaceOnUse">
<stop stop-color="#FFBC47" stop-opacity="0"/>
<stop offset="1" stop-color="#FFBC47"/>
</linearGradient>
<linearGradient id="paint41_linear_446_961" x1="51.6368" y1="45.3576" x2="50.4712" y2="44.2021" gradientUnits="userSpaceOnUse">
<stop stop-color="#FFBC47" stop-opacity="0"/>
<stop offset="1" stop-color="#FFA754"/>
</linearGradient>
<linearGradient id="paint42_linear_446_961" x1="45.7655" y1="47.346" x2="47.9324" y2="41.1219" gradientUnits="userSpaceOnUse">
<stop stop-color="#FFBC47" stop-opacity="0"/>
<stop offset="1" stop-color="#FFBC47"/>
</linearGradient>
<linearGradient id="paint43_linear_446_961" x1="48.2253" y1="54.226" x2="50.0771" y2="56.4275" gradientUnits="userSpaceOnUse">
<stop offset="0.3118" stop-color="#FFBC47" stop-opacity="0"/>
<stop offset="1" stop-color="#FF8900"/>
</linearGradient>
<radialGradient id="paint44_radial_446_961" cx="0" cy="0" r="1" gradientUnits="userSpaceOnUse" gradientTransform="translate(47.7062 47.6357) rotate(139.196) scale(13.516 12.2693)">
<stop offset="0.6134" stop-color="#FFBC47" stop-opacity="0"/>
<stop offset="1" stop-color="#FF8900"/>
</radialGradient>
</defs>
</svg>
