<svg width="62" height="62" viewBox="0 0 62 62" fill="none" xmlns="http://www.w3.org/2000/svg">
<path d="M18.7617 47.876C16.8601 49.6276 17.2507 57.9556 17.4204 59.9952C17.6294 62.5595 4.73299 61.6877 4.96969 59.8769C5.13933 58.5947 4.7251 48.807 4.7251 48.3415" fill="url(#paint0_linear_458_725)"/>
<path d="M18.8683 47.7774C18.8289 47.809 18.7855 47.8405 18.746 47.8721L17.8584 47.6709C17.3258 48.1285 16.8721 48.6493 16.6275 49.2844C15.8306 49.7144 14.9706 49.7933 14.3355 50.1129C11.6804 51.4463 16.9037 50.2904 16.7696 52.192C16.3198 54.7286 16.9984 59.9914 17.4244 59.9914C17.2548 57.9518 16.8642 49.6198 18.7658 47.8721C18.7973 47.8445 18.8328 47.8129 18.8683 47.7774Z" fill="url(#paint1_linear_458_725)"/>
<path d="M4.96969 59.8804C4.89474 60.4564 6.15716 60.9377 7.90483 61.2415C6.75287 59.8015 6.89489 51.5958 7.29729 50.6134C7.63262 49.7968 6.94618 48.2306 6.07037 47.0747L4.7251 48.3411C4.7251 48.8105 5.13539 58.5983 4.96969 59.8804Z" fill="url(#paint2_linear_458_725)"/>
<path d="M5.873 49.4462C5.47455 49.2489 5.09976 49.0162 4.73682 48.7637C4.80388 50.7204 5.11949 58.7289 4.96958 59.8848C4.93407 60.1689 5.23784 60.4293 5.77832 60.6581C5.95979 58.9104 5.15894 53.6161 5.43904 52.8705C6.19649 50.8625 7.62856 50.8901 7.32084 50.0971C6.91055 50.0261 6.36613 49.8131 5.873 49.4462Z" fill="url(#paint3_linear_458_725)"/>
<path d="M4.96969 59.8806C5.13933 58.5985 4.7251 48.8107 4.7251 48.3452C7.24206 51.6551 13.7909 50.6925 16.9075 49.1342C17.3454 48.9133 17.7044 48.7792 18.0082 48.7082C16.9785 50.1166 17.2783 58.2868 17.4164 59.999C17.6294 62.5633 4.73299 61.6875 4.96969 59.8806Z" fill="url(#paint4_linear_458_725)"/>
<path d="M30.2535 33.772C30.8097 32.123 27.2355 29.9532 24.0321 33.0067C23.6612 33.3894 23.2943 33.8273 22.9432 34.3283C22.0872 35.5552 20.9273 36.5494 19.7674 35.5513C18.6076 34.5532 18.6037 30.9592 18.8048 29.0379L14.6822 28.5566C14.7375 29.322 14.7611 30.904 14.485 30.9237C14.2088 30.9434 13.984 30.2806 13.9366 29.6258C13.8893 28.9748 9.84558 31.9691 9.60493 32.0875C9.42346 32.1782 8.23599 31.7048 6.81182 32.3242C6.33841 32.5293 4.69726 34.3638 4.57891 34.3756C4.57891 34.3756 4.68937 31.8547 4.61441 30.6239C4.53551 29.389 0.290611 33.9101 0.519425 35.2357C0.909988 37.5001 0.266941 44.98 4.03449 48.2307C8.39774 51.9943 16.3628 50.9292 19.2428 47.5916C22.1227 44.2541 22.7578 41.4215 24.9434 38.4351C26.7936 35.9103 29.4408 35.1094 30.2535 33.772Z" fill="url(#paint5_linear_458_725)"/>
<path d="M4.61457 30.6241C4.53567 29.3932 4.53567 26.0636 4.33053 24.2528C4.12538 22.442 3.23774 21.5741 1.7465 21.8581C0.255264 22.1461 0.460408 25.4639 0.460408 26.2687C0.460408 27.4996 0.29077 33.9103 0.519584 35.2358" fill="url(#paint6_linear_458_725)"/>
<path d="M9.60513 32.088C8.95419 32.1551 9.08438 31.0189 9.01731 28.8885C8.96602 27.2592 8.93841 22.821 8.83584 20.4816C8.7096 17.578 8.14939 16.8008 6.75284 16.6785C5.35628 16.5562 4.73296 18.2684 4.76452 20.1778C4.79214 21.7914 4.94599 24.3399 5.19059 27.5236C5.33656 29.429 5.05251 34.3406 4.5791 34.3762" fill="url(#paint7_linear_458_725)"/>
<path d="M18.809 29.0343C19.0102 27.1091 18.9352 20.3551 19.0496 18.5443C19.1641 16.7335 18.0713 15.8735 16.8996 15.8143C15.7279 15.7512 14.8718 16.5797 14.7929 20.1736C14.7456 22.442 14.4891 24.5053 14.6864 28.553L17.4243 31.1685L18.809 29.0343Z" fill="url(#paint8_linear_458_725)"/>
<path d="M13.9367 29.6261C13.8893 28.9752 13.9603 22.6315 13.9367 21.2428C13.8933 18.3313 14.3706 13.9878 11.759 13.7353C10.0784 13.5736 9.71939 15.1319 9.64443 15.8183C9.56947 16.5048 9.72728 24.2687 9.77856 24.9709C9.82985 25.6731 9.84958 31.9655 9.60498 32.0839" fill="url(#paint9_linear_458_725)"/>
<path d="M15.495 16.528C15.0768 17.1908 14.8322 18.3822 14.7967 20.1732C14.7493 22.4417 14.5205 24.5089 14.6902 28.5526C14.7217 29.3179 14.7691 30.8999 14.4929 30.9196C16.0039 29.9057 15.2188 23.9605 15.1833 21.2069C15.136 18.2836 15.8066 16.0309 15.495 16.528Z" fill="url(#paint10_linear_458_725)"/>
<path d="M9.77856 24.9746C9.82985 25.6769 9.84958 31.9693 9.60498 32.0876C9.60498 32.0876 10.5952 30.983 10.4453 28.9473C10.1376 24.7734 10.0192 20.3234 10.2678 17.9603C10.5005 15.7313 10.0981 14.4137 9.93242 14.7451C9.76673 15.0764 9.67205 15.5577 9.64049 15.8181C9.56947 16.5046 9.72728 24.2724 9.77856 24.9746Z" fill="url(#paint11_linear_458_725)"/>
<path d="M4.76452 20.1777C4.79214 21.7913 4.94599 24.3398 5.19059 27.5235C5.33656 29.4289 5.05251 34.3406 4.5791 34.3761C7.0645 34.4076 4.50415 19.3059 5.84942 16.9033C5.08407 17.4241 4.74085 18.7457 4.76452 20.1777Z" fill="url(#paint12_linear_458_725)"/>
<path d="M4.07394 34.3596C4.25541 34.4228 4.49606 34.4228 4.57891 34.3715C4.57891 34.3715 4.68148 31.7519 4.61441 30.6197C4.53551 29.3888 4.53551 26.0592 4.33037 24.2484C4.23963 23.4515 4.01871 22.84 3.67154 22.4258C3.87668 23.3095 3.5019 23.1832 3.78595 25.3254C3.93981 26.4734 2.88252 33.9454 4.07394 34.3596Z" fill="url(#paint13_linear_458_725)"/>
<path d="M8.48465 25.6772C8.63456 27.6379 8.10987 31.8946 9.39202 32.084C9.09613 31.9656 9.06852 30.5454 9.01723 28.8885C8.96595 27.2592 8.95411 22.8209 8.83576 20.4815C8.70952 18.0001 8.41364 17.3255 7.51416 16.8521C9.07641 19.4597 8.11381 20.8602 8.48465 25.6772Z" fill="url(#paint14_linear_458_725)"/>
<path d="M13.2542 22.363C13.345 25.3061 12.7769 30.4938 14.4022 30.9041C14.1655 30.8015 13.9801 30.2098 13.9367 29.6259C13.8894 28.975 13.9604 22.6313 13.9367 21.2426C13.9091 19.4358 14.134 16.5756 13.3805 14.9463C13.7789 17.0056 13.1793 19.9763 13.2542 22.363Z" fill="url(#paint15_linear_458_725)"/>
<path d="M18.9155 33.7285C18.7103 32.545 18.6867 30.2016 18.809 29.0378C19.0102 27.1126 18.9352 20.3587 19.0496 18.5479C19.0851 17.9956 19.0062 17.534 18.8484 17.1553C18.8011 17.9956 18.4066 18.9345 18.5052 20.5638C18.6669 23.1794 18.2764 27.3533 18.1462 28.7893C18.0121 30.2214 17.4203 33.8351 18.9155 33.7285Z" fill="url(#paint16_linear_458_725)"/>
<path d="M11.8932 50.5943C12.4298 48.9807 12.343 47.6355 10.7176 47.4264C6.29123 46.8504 2.788 43.4655 1.55714 36.6603C0.460408 30.5888 0.57087 25.1328 1.56503 21.9136C0.271044 22.4185 0.460408 25.4957 0.460408 26.2689C0.460408 27.4998 0.29077 33.9105 0.519584 35.2361C0.910147 37.5006 0.263154 44.9804 4.03465 48.2312C6.14132 50.0499 9.08829 50.7402 11.8932 50.5943Z" fill="url(#paint17_linear_458_725)"/>
<path d="M0.811481 29.7796C0.819371 29.756 0.823316 29.7441 0.823316 29.7441C2.14886 38.9125 3.04045 43.974 7.77848 49.5563C8.4452 50.3414 7.02497 50.298 5.87301 49.4458C5.21419 49.1184 4.59481 48.716 4.03461 48.2347C0.267061 44.98 0.910108 37.5002 0.519546 35.2357C0.401193 34.5374 0.890383 31.3971 0.811481 29.7796Z" fill="url(#paint18_radial_458_725)"/>
<path d="M21.8979 39.6623C22.5725 40.475 20.3041 43.8954 18.5841 45.3314C16.864 46.7674 14.9191 47.2684 14.2445 46.4557C13.5699 45.643 15.1006 43.6074 16.4379 41.8124C18.7458 38.7076 21.2233 38.8496 21.8979 39.6623Z" fill="url(#paint19_radial_458_725)"/>
<path opacity="0.75" d="M2.72088 38.8927C1.97132 39.7922 4.24763 44.9839 6.49632 46.2936C8.74501 47.6034 11.5579 47.201 12.1062 46.1595C12.6546 45.122 10.3191 43.5045 8.40968 41.7174C5.1116 38.6284 3.47045 37.9893 2.72088 38.8927Z" fill="url(#paint20_radial_458_725)"/>
<path d="M4.579 34.3759C4.579 34.3759 4.68157 31.7563 4.6145 30.6241C4.5356 29.3932 4.5356 26.0636 4.33046 24.2528C4.23972 23.4559 4.0188 22.8444 3.67163 22.4302C3.87677 23.3139 4.20027 25.0221 4.15293 28.5924C3.99118 34.869 4.49615 34.4232 4.579 34.3759Z" fill="url(#paint21_linear_458_725)"/>
<path d="M30.2536 33.7723C30.3483 33.4922 30.3167 33.1964 30.1944 32.9162C29.7802 34.0564 28.5454 35.1373 26.4821 35.7409C24.0283 36.4589 21.7244 39.4454 20.5369 42.5067C19.3494 45.5681 15.5109 47.8957 12.9308 47.4538C10.3507 47.012 4.21612 49.5645 2.1489 38.9128C2.1489 38.9088 2.1489 38.9088 2.1489 38.9049C2.07 38.1987 1.95954 37.5399 1.77806 36.956C0.507749 32.9162 1.352 27.4286 1.44668 25.1405C1.46246 24.6908 1.78201 23.2114 0.795739 22.8208C0.361781 23.9451 0.456463 25.7086 0.460408 26.2688C0.460408 27.4997 0.29077 33.9104 0.519584 35.236C0.551145 35.4095 0.559035 35.9342 0.57876 36.1512C0.582705 36.2064 0.590595 36.2656 0.594541 36.3248C0.594541 36.3406 0.598486 36.3564 0.598486 36.3721C0.602431 36.4076 0.602431 36.4471 0.606376 36.4865C0.606376 36.4944 0.606376 36.5023 0.606376 36.5142C0.705003 38.0212 0.499859 45.075 4.03465 48.235C8.32689 52.0775 16.363 50.9334 19.2429 47.5959C22.1228 44.2583 22.758 41.4258 24.9435 38.4394C26.7938 35.9106 29.4409 35.1097 30.2536 33.7723Z" fill="url(#paint22_radial_458_725)"/>
<path d="M24.0323 33.0029C23.6615 33.3856 23.2946 33.8235 22.9435 34.3245C22.0874 35.5514 20.9276 36.5456 19.7677 35.5475C19.3101 35.1529 19.0458 34.4941 18.9116 33.7248C19.0024 37.7291 21.0656 36.9361 22.4267 35.5435C23.7877 34.1509 24.845 31.772 27.8393 31.7523C28.3798 31.7483 28.9084 31.8667 29.299 31.9535C28.0958 31.2276 25.997 31.1329 24.0323 33.0029Z" fill="url(#paint23_radial_458_725)"/>
<path d="M19.2467 47.5917C22.1266 44.2542 22.7618 41.4216 24.9473 38.4352C26.7976 35.9104 29.4447 35.1056 30.2574 33.7682C30.3521 33.4881 30.3205 33.1922 30.1982 32.9121C29.784 34.0522 28.1823 34.4152 26.4859 35.7368C24.036 37.6462 21.7281 40.3249 20.5407 43.3902C19.3532 46.4516 15.5146 47.8916 12.9346 47.4537L19.2467 47.5917Z" fill="url(#paint24_linear_458_725)"/>
<path d="M43.2405 47.8765C45.142 49.6281 44.7514 57.9561 44.5818 59.9957C44.3727 62.56 57.2692 61.6882 57.0325 59.8774C56.8628 58.5952 57.277 48.8075 57.277 48.342" fill="url(#paint25_linear_458_725)"/>
<path d="M43.134 47.7779C43.1735 47.8095 43.2169 47.841 43.2563 47.8726L44.144 47.6714C44.6766 48.129 45.1302 48.6498 45.3748 49.2849C46.1717 49.7149 47.0318 49.7938 47.6669 50.1134C50.322 51.4468 45.0987 50.2909 45.2328 52.1924C45.6826 54.7291 45.004 59.9919 44.5779 59.9919C44.7476 57.9523 45.1381 49.6203 43.2366 47.8726C43.2011 47.845 43.1695 47.8134 43.134 47.7779Z" fill="url(#paint26_linear_458_725)"/>
<path d="M57.0325 59.8814C57.1075 60.4574 55.8451 60.9387 54.0974 61.2424C55.2494 59.8025 55.1074 51.5967 54.705 50.6144C54.3696 49.7978 55.0561 48.2316 55.9319 47.0757L57.2771 48.3421C57.2771 48.8115 56.8629 58.5992 57.0325 59.8814Z" fill="url(#paint27_linear_458_725)"/>
<path d="M56.1292 49.4462C56.5276 49.2489 56.9024 49.0162 57.2654 48.7637C57.1983 50.7204 56.8827 58.7289 57.0326 59.8848C57.0681 60.1689 56.7643 60.4293 56.2239 60.6581C56.0424 58.9104 56.8432 53.6161 56.5631 52.8705C55.8057 50.8625 54.3736 50.8901 54.6813 50.0971C55.0877 50.0261 55.6321 49.8131 56.1292 49.4462Z" fill="url(#paint28_linear_458_725)"/>
<path d="M57.0329 59.8806C56.8632 58.5985 57.2775 48.8107 57.2775 48.3452C54.7605 51.6551 48.2117 50.6925 45.0951 49.1342C44.6572 48.9133 44.2982 48.7792 43.9944 48.7082C45.024 50.1166 44.7242 58.2868 44.5861 59.999C44.3692 62.5633 57.2696 61.6875 57.0329 59.8806Z" fill="url(#paint29_linear_458_725)"/>
<path d="M31.7488 33.772C31.1925 32.123 34.7668 29.9532 37.9702 33.0067C38.341 33.3894 38.7079 33.8273 39.059 34.3283C39.9151 35.5552 41.075 36.5494 42.2348 35.5513C43.3947 34.5532 43.3986 30.9592 43.1974 29.0379L47.32 28.5566C47.2648 29.322 47.2411 30.904 47.5173 30.9237C47.7934 30.9434 48.0183 30.2806 48.0656 29.6258C48.113 28.9748 52.1567 31.9691 52.3973 32.0875C52.5788 32.1782 53.7663 31.7048 55.1904 32.3242C55.6639 32.5293 57.305 34.3638 57.4234 34.3756C57.4234 34.3756 57.3129 31.8547 57.3878 30.6239C57.4668 29.393 61.7077 33.9141 61.4789 35.2357C61.0883 37.5001 61.7314 44.98 57.9638 48.2307C53.6006 51.9943 45.6355 50.9292 42.7556 47.5916C39.8757 44.2541 39.2405 41.4215 37.0549 38.4351C35.2086 35.9103 32.5575 35.1094 31.7488 33.772Z" fill="url(#paint30_linear_458_725)"/>
<path d="M57.3877 30.6241C57.4666 29.3932 57.4666 26.0636 57.6717 24.2528C57.8769 22.442 58.7645 21.5741 60.2558 21.8581C61.747 22.1461 61.5419 25.4639 61.5419 26.2687C61.5419 27.4996 61.7115 33.9143 61.4827 35.2359" fill="url(#paint31_linear_458_725)"/>
<path d="M52.3933 32.088C53.0442 32.1551 52.9141 31.0189 52.9811 28.8885C53.0324 27.2592 53.06 22.821 53.1626 20.4816C53.2888 17.578 53.849 16.8008 55.2456 16.6785C56.6422 16.5562 57.2655 18.2684 57.2339 20.1778C57.2063 21.7914 57.0524 24.3399 56.8079 27.5236C56.6619 29.429 56.9459 34.3406 57.4193 34.3761" fill="url(#paint32_linear_458_725)"/>
<path d="M43.1932 29.0343C42.992 27.1091 43.067 20.3551 42.9526 18.5443C42.8382 16.7335 43.931 15.8735 45.1027 15.8143C46.2744 15.7512 47.1304 16.5797 47.2093 20.1736C47.2567 22.442 47.5131 24.5053 47.3159 28.553L44.578 31.1685L43.1932 29.0343Z" fill="url(#paint33_linear_458_725)"/>
<path d="M48.0616 29.6261C48.1089 28.9752 48.0379 22.6315 48.0616 21.2428C48.105 18.3313 47.6276 13.9878 50.2393 13.7353C51.9199 13.5736 52.2789 15.1319 52.3538 15.8183C52.4288 16.5048 52.271 24.2687 52.2197 24.9709C52.1684 25.6731 52.1487 31.9655 52.3933 32.0839" fill="url(#paint34_linear_458_725)"/>
<path d="M46.5074 16.528C46.9255 17.1908 47.1701 18.3822 47.2056 20.1732C47.253 22.4417 47.4818 24.5089 47.3122 28.5526C47.2806 29.3179 47.2333 30.8999 47.5094 30.9196C45.9984 29.9057 46.7835 23.9605 46.819 21.2069C46.8624 18.2836 46.1918 16.0309 46.5074 16.528Z" fill="url(#paint35_linear_458_725)"/>
<path d="M52.2198 24.9746C52.1685 25.6769 52.1488 31.9693 52.3934 32.0876C52.3934 32.0876 51.4031 30.983 51.5531 28.9473C51.8608 24.7734 51.9791 20.3234 51.7306 17.9603C51.4978 15.7313 51.9002 14.4137 52.0659 14.7451C52.2316 15.0764 52.3263 15.5577 52.3578 15.8181C52.4328 16.5046 52.275 24.2724 52.2198 24.9746Z" fill="url(#paint36_linear_458_725)"/>
<path d="M57.2338 20.1777C57.2062 21.7913 57.0524 24.3398 56.8078 27.5235C56.6618 29.4289 56.9458 34.3406 57.4192 34.3761C54.9338 34.4076 57.4942 19.3059 56.1489 16.9033C56.9143 17.4241 57.2614 18.7457 57.2338 20.1777Z" fill="url(#paint37_linear_458_725)"/>
<path d="M57.9243 34.3596C57.7428 34.4228 57.5022 34.4228 57.4193 34.3715C57.4193 34.3715 57.3168 31.7519 57.3838 30.6197C57.4627 29.3888 57.4627 26.0592 57.6679 24.2484C57.7586 23.4515 57.9795 22.84 58.3267 22.4258C58.1216 23.3095 58.4963 23.1832 58.2123 25.3254C58.0624 26.4734 59.1157 33.9454 57.9243 34.3596Z" fill="url(#paint38_linear_458_725)"/>
<path d="M53.5138 25.6772C53.3639 27.6379 53.8886 31.8946 52.6064 32.084C52.9023 31.9656 52.9299 30.5454 52.9812 28.8885C53.0325 27.2592 53.0443 22.8209 53.1627 20.4815C53.2889 18.0001 53.5848 17.3255 54.4843 16.8521C52.922 19.4597 53.8846 20.8602 53.5138 25.6772Z" fill="url(#paint39_linear_458_725)"/>
<path d="M48.7481 22.363C48.6574 25.3061 49.2255 30.4938 47.6001 30.9041C47.8368 30.8015 48.0222 30.2098 48.0656 29.6259C48.113 28.975 48.0419 22.6313 48.0656 21.2426C48.0932 19.4358 47.8684 16.5756 48.6219 14.9463C48.2195 17.0056 48.8231 19.9763 48.7481 22.363Z" fill="url(#paint40_linear_458_725)"/>
<path d="M43.0869 33.7285C43.0869 33.7285 43.0829 33.7285 43.0869 33.7285C43.292 32.545 43.3157 30.2016 43.1934 29.0378C42.9922 27.1126 43.0671 20.3587 42.9527 18.5479C42.9172 17.9956 42.9961 17.534 43.1539 17.1553C43.2013 17.9956 43.5958 18.9345 43.4972 20.5638C43.3354 23.1794 43.726 27.3533 43.8562 28.7893C43.9864 30.2214 44.5821 33.835 43.0869 33.7285Z" fill="url(#paint41_linear_458_725)"/>
<path d="M50.1052 50.5943C49.5687 48.9807 49.6555 47.6355 51.2808 47.4264C55.7072 46.8504 59.2105 43.4655 60.4413 36.6603C61.538 30.5888 61.4276 25.1328 60.4334 21.9136C61.7314 22.4225 61.542 25.4996 61.542 26.2689C61.542 27.4998 61.7116 33.9145 61.4828 35.2361C61.0923 37.5006 61.7392 44.9804 57.9678 48.2312C55.8571 50.0499 52.9141 50.7402 50.1052 50.5943Z" fill="url(#paint42_linear_458_725)"/>
<path d="M61.1909 29.7796C61.183 29.756 61.1791 29.7441 61.1791 29.7441C59.8535 38.9125 58.958 43.974 54.2239 49.5524C53.5572 50.3374 54.9774 50.294 56.1294 49.4419C56.7882 49.1145 57.4076 48.7121 57.9678 48.2308C61.7393 44.9761 61.0923 37.5002 61.4829 35.2357C61.6012 34.5374 61.112 31.3971 61.1909 29.7796Z" fill="url(#paint43_radial_458_725)"/>
<path d="M40.1004 39.6623C39.4258 40.475 41.6942 43.8954 43.4142 45.3314C45.1343 46.7634 47.0792 47.2684 47.7538 46.4557C48.4284 45.643 46.8977 43.6074 45.5604 41.8124C43.2564 38.7076 40.775 38.8496 40.1004 39.6623Z" fill="url(#paint44_radial_458_725)"/>
<path opacity="0.75" d="M59.2813 38.8927C60.0309 39.7922 57.7546 44.9839 55.5059 46.2936C53.2612 47.5995 50.4444 47.201 49.896 46.1595C49.3476 45.122 51.6831 43.5045 53.5925 41.7174C56.8867 38.6284 58.5318 37.9893 59.2813 38.8927Z" fill="url(#paint45_radial_458_725)"/>
<path d="M57.4193 34.3759C57.4193 34.3759 57.3168 31.7563 57.3838 30.6241C57.4627 29.3932 57.4627 26.0636 57.6679 24.2528C57.7586 23.4559 57.9795 22.8444 58.3267 22.4302C58.1216 23.3139 57.7981 25.0221 57.8454 28.5924C58.0111 34.869 57.5022 34.4232 57.4193 34.3759Z" fill="url(#paint46_linear_458_725)"/>
<path d="M31.7487 33.7723C31.654 33.4922 31.6855 33.1963 31.8078 32.9162C32.2221 34.0563 33.4569 35.1373 35.5201 35.7409C37.974 36.4589 40.2779 39.4453 41.4654 42.5067C42.6528 45.5681 46.4914 47.8957 49.0715 47.4538C51.6516 47.012 57.7862 49.5644 59.8534 38.9167C59.8534 38.9127 59.8534 38.9127 59.8534 38.9088C59.9323 38.2026 60.0427 37.5438 60.2242 36.9599C61.4906 32.9202 60.6463 27.4326 60.5516 25.1444C60.5359 24.6947 60.2163 23.2153 61.2026 22.8247C61.6365 23.9491 61.5419 25.7125 61.5379 26.2727C61.5379 27.5036 61.7076 33.9143 61.4787 35.2399C61.4472 35.4134 61.4393 35.9381 61.4196 36.1551C61.4156 36.2103 61.4077 36.2695 61.4038 36.3287C61.4038 36.3445 61.3998 36.3603 61.3998 36.376C61.3959 36.4115 61.3959 36.451 61.392 36.4904C61.392 36.4983 61.392 36.5062 61.392 36.5181C61.2933 38.0251 61.4985 45.0789 57.9637 48.2389C53.6714 52.0814 45.6353 50.9373 42.7554 47.5998C39.8755 44.2622 39.2404 41.4297 37.0548 38.4433C35.2085 35.9105 32.5574 35.1097 31.7487 33.7723Z" fill="url(#paint47_radial_458_725)"/>
<path d="M37.9661 33.0029C38.337 33.3856 38.7039 33.8235 39.055 34.3245C39.9111 35.5514 41.0709 36.5456 42.2308 35.5475C42.6884 35.1529 42.9527 34.4941 43.0868 33.7248C42.9961 37.7291 40.9328 36.9361 39.5718 35.5435C38.2107 34.1509 37.1535 31.772 34.1591 31.7523C33.6187 31.7483 33.09 31.8667 32.6995 31.9535C33.9027 31.2276 36.0015 31.1329 37.9661 33.0029Z" fill="url(#paint48_radial_458_725)"/>
<path d="M42.7555 47.5917C39.8755 44.2542 39.2404 41.4216 37.0548 38.4352C35.2046 35.9104 32.5574 35.1056 31.7447 33.7682C31.6501 33.4881 31.6816 33.1922 31.8039 32.9121C32.2182 34.0522 33.8199 34.4152 35.5162 35.7368C37.9661 37.6462 40.274 40.3249 41.4615 43.3902C42.6489 46.4516 46.4875 47.8916 49.0676 47.4537L42.7555 47.5917Z" fill="url(#paint49_linear_458_725)"/>
<path d="M26.6518 0.807653C26.6637 0.693246 26.6203 0.578839 26.5335 0.499937C26.4467 0.421036 26.3283 0.38553 26.2179 0.405255L24.5728 0.689301C24.4663 0.709026 24.3716 0.772147 24.3164 0.866829C24.2611 0.961511 24.2532 1.07197 24.2809 1.17849C25.5985 5.63643 26.4585 7.67998 26.4585 7.6563C26.6795 5.59697 26.6479 0.847104 26.6518 0.807653Z" fill="#975500"/>
<path d="M16.5801 6.77275C16.5407 6.67806 16.4618 6.60311 16.3671 6.56366C16.2685 6.52815 16.1619 6.5321 16.0712 6.57944L14.576 7.32506C14.4577 7.38423 14.3788 7.50653 14.3709 7.64066C14.363 7.7748 14.4458 7.88131 14.5445 7.97599C17.4125 10.6705 17.8781 11.9171 17.9096 11.9092C18.0714 11.8658 18.0201 10.2799 16.5801 6.77275Z" fill="#975500"/>
<path d="M35.3466 0.807653C35.3348 0.693246 35.3782 0.578839 35.465 0.499937C35.5518 0.421036 35.6701 0.38553 35.7806 0.405255L37.4257 0.689301C37.5322 0.709026 37.6269 0.772147 37.6821 0.866829C37.7374 0.961511 37.7452 1.07197 37.7176 1.17849C36.4 5.63643 35.54 7.67998 35.54 7.6563C35.319 5.59697 35.3506 0.847104 35.3466 0.807653Z" fill="#975500"/>
<path d="M45.4224 6.77275C45.4619 6.67806 45.5408 6.60311 45.6355 6.56366C45.7341 6.52815 45.8406 6.5321 45.9314 6.57944L47.4265 7.32506C47.5449 7.38423 47.6238 7.50653 47.6317 7.64066C47.6396 7.7748 47.5567 7.88131 47.4581 7.97599C44.59 10.6705 44.1245 11.9171 44.093 11.9092C43.9273 11.8658 43.9785 10.2799 45.4224 6.77275Z" fill="#975500"/>
<defs>
<linearGradient id="paint0_linear_458_725" x1="11.7137" y1="48.8505" x2="11.4878" y2="54.4768" gradientUnits="userSpaceOnUse">
<stop offset="0.00132565" stop-color="#FFCB4B"/>
<stop offset="1" stop-color="#FFD748"/>
</linearGradient>
<linearGradient id="paint1_linear_458_725" x1="10.3733" y1="58.4167" x2="32.2285" y2="44.6364" gradientUnits="userSpaceOnUse">
<stop stop-color="#FFBC47" stop-opacity="0"/>
<stop offset="1" stop-color="#C86F34"/>
</linearGradient>
<linearGradient id="paint2_linear_458_725" x1="5.49772" y1="59.1807" x2="7.73838" y2="47.1371" gradientUnits="userSpaceOnUse">
<stop offset="0.00132565" stop-color="#FFCB4B"/>
<stop offset="1" stop-color="#FFD748"/>
</linearGradient>
<linearGradient id="paint3_linear_458_725" x1="3.61658" y1="43.7373" x2="8.51763" y2="65.617" gradientUnits="userSpaceOnUse">
<stop stop-color="#FFBC47" stop-opacity="0"/>
<stop offset="1" stop-color="#C86F34"/>
</linearGradient>
<linearGradient id="paint4_linear_458_725" x1="10.6566" y1="54.688" x2="-2.67026" y2="63.5034" gradientUnits="userSpaceOnUse">
<stop stop-color="#C86F34" stop-opacity="0"/>
<stop offset="1" stop-color="#C86F34"/>
</linearGradient>
<linearGradient id="paint5_linear_458_725" x1="8.39456" y1="54.367" x2="13.3596" y2="40.1467" gradientUnits="userSpaceOnUse">
<stop offset="0.00132565" stop-color="#FFCB4B"/>
<stop offset="1" stop-color="#FFD748"/>
</linearGradient>
<linearGradient id="paint6_linear_458_725" x1="1.04754" y1="23.62" x2="2.83635" y2="31.4664" gradientUnits="userSpaceOnUse">
<stop offset="0.00132565" stop-color="#FFCB4B"/>
<stop offset="1" stop-color="#FFD748"/>
</linearGradient>
<linearGradient id="paint7_linear_458_725" x1="6.17115" y1="15.0717" x2="6.95793" y2="30.582" gradientUnits="userSpaceOnUse">
<stop offset="0.00132565" stop-color="#FFCB4B"/>
<stop offset="1" stop-color="#FFD748"/>
</linearGradient>
<linearGradient id="paint8_linear_458_725" x1="17.6098" y1="18.6163" x2="15.9196" y2="30.1739" gradientUnits="userSpaceOnUse">
<stop offset="0.00132565" stop-color="#FFCB4B"/>
<stop offset="1" stop-color="#FFD748"/>
</linearGradient>
<linearGradient id="paint9_linear_458_725" x1="12.263" y1="16.4114" x2="11.2459" y2="30.0026" gradientUnits="userSpaceOnUse">
<stop offset="0.00132565" stop-color="#FFCB4B"/>
<stop offset="1" stop-color="#FFD748"/>
</linearGradient>
<linearGradient id="paint10_linear_458_725" x1="17.0705" y1="23.6169" x2="14.1364" y2="23.7212" gradientUnits="userSpaceOnUse">
<stop stop-color="#FFBC47" stop-opacity="0"/>
<stop offset="1" stop-color="#E68E43"/>
</linearGradient>
<linearGradient id="paint11_linear_458_725" x1="13.7278" y1="23.3067" x2="8.67708" y2="23.4156" gradientUnits="userSpaceOnUse">
<stop stop-color="#FFBC47" stop-opacity="0"/>
<stop offset="1" stop-color="#E68E43"/>
</linearGradient>
<linearGradient id="paint12_linear_458_725" x1="8.87798" y1="25.434" x2="4.30329" y2="25.6907" gradientUnits="userSpaceOnUse">
<stop offset="0.3118" stop-color="#FFBC47" stop-opacity="0"/>
<stop offset="1" stop-color="#FF8900"/>
</linearGradient>
<linearGradient id="paint13_linear_458_725" x1="2.63103" y1="28.5832" x2="5.30738" y2="28.272" gradientUnits="userSpaceOnUse">
<stop stop-color="#FFBC47" stop-opacity="0"/>
<stop offset="1" stop-color="#E68E43"/>
</linearGradient>
<linearGradient id="paint14_linear_458_725" x1="9.21177" y1="8.16291" x2="8.18251" y2="30.2452" gradientUnits="userSpaceOnUse">
<stop stop-color="#FFBC47" stop-opacity="0"/>
<stop offset="1" stop-color="#E68E43"/>
</linearGradient>
<linearGradient id="paint15_linear_458_725" x1="11.7682" y1="22.8" x2="14.0069" y2="22.9324" gradientUnits="userSpaceOnUse">
<stop stop-color="#FFBC47" stop-opacity="0"/>
<stop offset="1" stop-color="#E68E43"/>
</linearGradient>
<linearGradient id="paint16_linear_458_725" x1="14.9192" y1="32.6062" x2="20.7893" y2="21.9891" gradientUnits="userSpaceOnUse">
<stop stop-color="#FFBC47" stop-opacity="0"/>
<stop offset="1" stop-color="#FFBC47"/>
</linearGradient>
<linearGradient id="paint17_linear_458_725" x1="4.05628" y1="36.7824" x2="-0.709888" y2="37.7251" gradientUnits="userSpaceOnUse">
<stop offset="0.3118" stop-color="#FFBC47" stop-opacity="0"/>
<stop offset="1" stop-color="#FF8900"/>
</linearGradient>
<radialGradient id="paint18_radial_458_725" cx="0" cy="0" r="1" gradientUnits="userSpaceOnUse" gradientTransform="translate(4.92806 45.0694) rotate(-13.0366) scale(12.6973 32.2273)">
<stop stop-color="#FFBC47" stop-opacity="0"/>
<stop offset="1" stop-color="#FF8900"/>
</radialGradient>
<radialGradient id="paint19_radial_458_725" cx="0" cy="0" r="1" gradientUnits="userSpaceOnUse" gradientTransform="translate(18.0365 42.9496) rotate(-39.768) scale(5.08309 2.35934)">
<stop stop-color="#FBE07A"/>
<stop offset="1" stop-color="#FFD748" stop-opacity="0"/>
</radialGradient>
<radialGradient id="paint20_radial_458_725" cx="0" cy="0" r="1" gradientUnits="userSpaceOnUse" gradientTransform="translate(7.15917 43.3739) rotate(-138.968) scale(6.54157 2.98511)">
<stop stop-color="#FBE07A"/>
<stop offset="0.2654" stop-color="#FCDF73" stop-opacity="0.7346"/>
<stop offset="0.6548" stop-color="#FDDB5F" stop-opacity="0.3452"/>
<stop offset="1" stop-color="#FFD748" stop-opacity="0"/>
</radialGradient>
<linearGradient id="paint21_linear_458_725" x1="3.19295" y1="27.9488" x2="6.05601" y2="29.4426" gradientUnits="userSpaceOnUse">
<stop stop-color="#FFBC47" stop-opacity="0"/>
<stop offset="1" stop-color="#E68E43"/>
</linearGradient>
<radialGradient id="paint22_radial_458_725" cx="0" cy="0" r="1" gradientUnits="userSpaceOnUse" gradientTransform="translate(10.9882 37.7757) scale(31.5346 31.5346)">
<stop offset="0.5212" stop-color="#FFBC47" stop-opacity="0"/>
<stop offset="1" stop-color="#FF8900"/>
</radialGradient>
<radialGradient id="paint23_radial_458_725" cx="0" cy="0" r="1" gradientUnits="userSpaceOnUse" gradientTransform="translate(22.5378 27.752) scale(15.6376 15.6376)">
<stop stop-color="#FFBC47" stop-opacity="0"/>
<stop offset="1" stop-color="#FFA754"/>
</radialGradient>
<linearGradient id="paint24_linear_458_725" x1="18.8989" y1="39.7186" x2="40.9812" y2="43.5695" gradientUnits="userSpaceOnUse">
<stop stop-color="#C86F34" stop-opacity="0"/>
<stop offset="1" stop-color="#C86F34"/>
</linearGradient>
<linearGradient id="paint25_linear_458_725" x1="50.2869" y1="48.851" x2="50.5128" y2="54.4773" gradientUnits="userSpaceOnUse">
<stop offset="0.00132565" stop-color="#FFCB4B"/>
<stop offset="1" stop-color="#FFD748"/>
</linearGradient>
<linearGradient id="paint26_linear_458_725" x1="51.6271" y1="58.4172" x2="29.7719" y2="44.6369" gradientUnits="userSpaceOnUse">
<stop stop-color="#FFBC47" stop-opacity="0"/>
<stop offset="1" stop-color="#C86F34"/>
</linearGradient>
<linearGradient id="paint27_linear_458_725" x1="56.5025" y1="59.1816" x2="54.2618" y2="47.1381" gradientUnits="userSpaceOnUse">
<stop offset="0.00132565" stop-color="#FFCB4B"/>
<stop offset="1" stop-color="#FFD748"/>
</linearGradient>
<linearGradient id="paint28_linear_458_725" x1="58.3836" y1="43.7373" x2="53.4825" y2="65.617" gradientUnits="userSpaceOnUse">
<stop stop-color="#FFBC47" stop-opacity="0"/>
<stop offset="1" stop-color="#C86F34"/>
</linearGradient>
<linearGradient id="paint29_linear_458_725" x1="51.3444" y1="54.688" x2="64.6712" y2="63.5034" gradientUnits="userSpaceOnUse">
<stop stop-color="#C86F34" stop-opacity="0"/>
<stop offset="1" stop-color="#C86F34"/>
</linearGradient>
<linearGradient id="paint30_linear_458_725" x1="53.6057" y1="54.367" x2="48.6406" y2="40.1467" gradientUnits="userSpaceOnUse">
<stop offset="0.00132565" stop-color="#FFCB4B"/>
<stop offset="1" stop-color="#FFD748"/>
</linearGradient>
<linearGradient id="paint31_linear_458_725" x1="60.9507" y1="23.6215" x2="59.1619" y2="31.4679" gradientUnits="userSpaceOnUse">
<stop offset="0.00132565" stop-color="#FFCB4B"/>
<stop offset="1" stop-color="#FFD748"/>
</linearGradient>
<linearGradient id="paint32_linear_458_725" x1="55.8272" y1="15.0732" x2="55.0404" y2="30.5834" gradientUnits="userSpaceOnUse">
<stop offset="0.00132565" stop-color="#FFCB4B"/>
<stop offset="1" stop-color="#FFD748"/>
</linearGradient>
<linearGradient id="paint33_linear_458_725" x1="44.3885" y1="18.6178" x2="46.0786" y2="30.1754" gradientUnits="userSpaceOnUse">
<stop offset="0.00132565" stop-color="#FFCB4B"/>
<stop offset="1" stop-color="#FFD748"/>
</linearGradient>
<linearGradient id="paint34_linear_458_725" x1="49.7352" y1="16.4129" x2="50.7523" y2="30.0041" gradientUnits="userSpaceOnUse">
<stop offset="0.00132565" stop-color="#FFCB4B"/>
<stop offset="1" stop-color="#FFD748"/>
</linearGradient>
<linearGradient id="paint35_linear_458_725" x1="44.9278" y1="23.6184" x2="47.8619" y2="23.7226" gradientUnits="userSpaceOnUse">
<stop stop-color="#FFBC47" stop-opacity="0"/>
<stop offset="1" stop-color="#E68E43"/>
</linearGradient>
<linearGradient id="paint36_linear_458_725" x1="48.2704" y1="23.3082" x2="53.3212" y2="23.4171" gradientUnits="userSpaceOnUse">
<stop stop-color="#FFBC47" stop-opacity="0"/>
<stop offset="1" stop-color="#E68E43"/>
</linearGradient>
<linearGradient id="paint37_linear_458_725" x1="53.1223" y1="25.434" x2="57.697" y2="25.6907" gradientUnits="userSpaceOnUse">
<stop offset="0.3118" stop-color="#FFBC47" stop-opacity="0"/>
<stop offset="1" stop-color="#FF8900"/>
</linearGradient>
<linearGradient id="paint38_linear_458_725" x1="59.3691" y1="28.5832" x2="56.6928" y2="28.272" gradientUnits="userSpaceOnUse">
<stop stop-color="#FFBC47" stop-opacity="0"/>
<stop offset="1" stop-color="#E68E43"/>
</linearGradient>
<linearGradient id="paint39_linear_458_725" x1="52.7886" y1="8.16291" x2="53.8179" y2="30.2452" gradientUnits="userSpaceOnUse">
<stop stop-color="#FFBC47" stop-opacity="0"/>
<stop offset="1" stop-color="#E68E43"/>
</linearGradient>
<linearGradient id="paint40_linear_458_725" x1="50.2301" y1="22.8015" x2="47.9914" y2="22.9339" gradientUnits="userSpaceOnUse">
<stop stop-color="#FFBC47" stop-opacity="0"/>
<stop offset="1" stop-color="#E68E43"/>
</linearGradient>
<linearGradient id="paint41_linear_458_725" x1="47.0792" y1="32.6077" x2="41.2091" y2="21.9906" gradientUnits="userSpaceOnUse">
<stop stop-color="#FFBC47" stop-opacity="0"/>
<stop offset="1" stop-color="#FFBC47"/>
</linearGradient>
<linearGradient id="paint42_linear_458_725" x1="57.9421" y1="36.7839" x2="62.7083" y2="37.7266" gradientUnits="userSpaceOnUse">
<stop offset="0.3118" stop-color="#FFBC47" stop-opacity="0"/>
<stop offset="1" stop-color="#FF8900"/>
</linearGradient>
<radialGradient id="paint43_radial_458_725" cx="0" cy="0" r="1" gradientUnits="userSpaceOnUse" gradientTransform="translate(57.091 45.063) rotate(-166.963) scale(12.6973 32.2273)">
<stop stop-color="#FFBC47" stop-opacity="0"/>
<stop offset="1" stop-color="#FF8900"/>
</radialGradient>
<radialGradient id="paint44_radial_458_725" cx="0" cy="0" r="1" gradientUnits="userSpaceOnUse" gradientTransform="translate(43.9764 42.9408) rotate(-140.232) scale(5.08309 2.35934)">
<stop stop-color="#FBE07A"/>
<stop offset="1" stop-color="#FFD748" stop-opacity="0"/>
</radialGradient>
<radialGradient id="paint45_radial_458_725" cx="0" cy="0" r="1" gradientUnits="userSpaceOnUse" gradientTransform="translate(54.8305 43.3616) rotate(-41.0323) scale(6.54157 2.9851)">
<stop stop-color="#FBE07A"/>
<stop offset="0.2654" stop-color="#FCDF73" stop-opacity="0.7346"/>
<stop offset="0.6548" stop-color="#FDDB5F" stop-opacity="0.3452"/>
<stop offset="1" stop-color="#FFD748" stop-opacity="0"/>
</radialGradient>
<linearGradient id="paint46_linear_458_725" x1="58.8073" y1="27.9488" x2="55.9442" y2="29.4426" gradientUnits="userSpaceOnUse">
<stop stop-color="#FFBC47" stop-opacity="0"/>
<stop offset="1" stop-color="#E68E43"/>
</linearGradient>
<radialGradient id="paint47_radial_458_725" cx="0" cy="0" r="1" gradientUnits="userSpaceOnUse" gradientTransform="translate(50.9887 37.7757) rotate(180) scale(31.5346)">
<stop offset="0.5212" stop-color="#FFBC47" stop-opacity="0"/>
<stop offset="1" stop-color="#FF8900"/>
</radialGradient>
<radialGradient id="paint48_radial_458_725" cx="0" cy="0" r="1" gradientUnits="userSpaceOnUse" gradientTransform="translate(39.4393 27.752) rotate(180) scale(15.6376)">
<stop stop-color="#FFBC47" stop-opacity="0"/>
<stop offset="1" stop-color="#FFA754"/>
</radialGradient>
<linearGradient id="paint49_linear_458_725" x1="43.1012" y1="39.7186" x2="21.0189" y2="43.5695" gradientUnits="userSpaceOnUse">
<stop stop-color="#C86F34" stop-opacity="0"/>
<stop offset="1" stop-color="#C86F34"/>
</linearGradient>
</defs>
</svg>
