<svg width="60" height="62" viewBox="0 0 60 62" fill="none" xmlns="http://www.w3.org/2000/svg">
<path d="M47.4859 36.583C47.6771 40.2314 53.8472 44.62 56.2225 46.2754C59.2039 48.3579 46.6277 61.6133 44.8747 59.726C43.6301 58.3879 35.8534 52.7059 35.345 52.2829" fill="url(#paint0_linear_458_797)"/>
<path d="M44.8747 59.726C45.436 60.3279 47.0955 59.3843 49.003 57.7574C46.4 57.7126 40.8399 52.8522 40.1363 51.5303C39.5506 50.4281 37.2241 49.7651 35.1782 49.6797L35.345 52.2868C35.8534 52.7058 43.6301 58.3878 44.8747 59.726Z" fill="url(#paint1_linear_458_797)"/>
<path d="M44.8747 59.7259C43.6301 58.3877 35.8534 52.7057 35.345 52.2827C41.2182 52.5227 46.0705 44.5304 47.1849 39.7269C47.3395 39.0517 47.5185 38.5392 47.7137 38.1406C48.3197 40.5281 54.2336 44.8802 56.2266 46.2712C59.2039 48.3577 46.6318 61.6131 44.8747 59.7259Z" fill="url(#paint2_linear_458_797)"/>
<path d="M29.7402 14.7862C27.4299 13.9402 24.6398 17.3771 28.8372 22.0138C29.366 22.5507 29.968 23.0835 30.6675 23.596C32.3677 24.8487 35.5198 27.7813 35.5198 27.7813C35.2921 28.2165 28.3858 22.0423 26.4741 20.09L22.2319 24.1451C23.1145 24.7755 24.8594 26.1747 24.6316 26.496C24.4039 26.8173 24.0215 25.9184 23.2691 25.3856C22.5166 24.8487 22.1343 31.9503 22.0448 32.3204C21.9757 32.601 20.788 32.7109 20.182 34.8177C19.9786 35.5214 20.4992 38.9623 20.3976 39.0966C20.3976 39.0966 17.9246 36.2169 16.5133 35.1879C15.1019 34.1629 15.4761 42.4846 17.042 43.5584C19.5963 45.3155 27.6618 54.105 34.6006 52.9336C42.6295 51.5751 48.6491 41.9437 47.612 35.798C46.5748 29.6522 41.1612 25.1497 37.0248 21.9569C33.5228 19.2562 31.603 15.982 29.7402 14.7862Z" fill="url(#paint3_linear_458_797)"/>
<path d="M16.5173 35.1876C15.106 34.1626 11.6406 31.0267 9.48494 29.6154C7.32926 28.204 5.58032 28.3911 4.54722 30.2743C3.51412 32.1574 7.31299 34.9232 8.19154 35.6472C9.53375 36.7576 15.4639 42.3501 17.0461 43.5622" fill="url(#paint4_linear_458_797)"/>
<path d="M22.0447 32.3207C21.8006 32.6787 20.8042 31.1697 18.4248 29.3231C16.6067 27.9118 11.7462 23.9421 9.10655 21.945C5.83236 19.468 4.48201 19.3745 3.08692 20.7817C1.69183 22.189 2.99744 24.4139 5.10838 26.0977C6.88986 27.5213 9.80206 29.6485 13.4911 32.2516C15.6997 33.8094 20.792 38.5437 20.3974 39.0928" fill="url(#paint5_linear_458_797)"/>
<path d="M26.4742 20.09C24.5625 18.1376 16.8753 12.2563 15.0043 10.5033C13.1333 8.75027 11.2176 9.16107 10.091 10.3813C8.96435 11.6015 9.09857 13.2813 12.9381 16.6002C15.3622 18.6949 17.6481 20.7123 22.2319 24.141L27.5479 23.5146L26.4742 20.09Z" fill="url(#paint6_linear_458_797)"/>
<path d="M23.269 25.3816C22.5166 24.8488 15.6753 19.057 14.142 17.8246C10.9328 15.2499 6.63369 10.8125 4.00621 13.4319C2.3142 15.1198 3.68896 16.9135 4.3682 17.6131C5.04744 18.3126 13.6457 25.1417 14.4551 25.7152C15.2645 26.2886 22.1342 31.9422 22.0448 32.3164" fill="url(#paint7_linear_458_797)"/>
<path d="M9.59896 12.5531C9.94061 13.6066 11.0185 14.9447 12.9382 16.6042C15.3623 18.6988 17.6726 20.6837 22.232 24.145C23.0984 24.7998 24.8595 26.1746 24.6318 26.4959C24.888 23.9335 17.4448 19.5611 14.4106 17.1207C11.1893 14.5258 9.33865 11.7641 9.59896 12.5531Z" fill="url(#paint8_linear_458_797)"/>
<path d="M14.4552 25.7193C15.2646 26.2969 22.1343 31.9464 22.0449 32.3205C22.0449 32.3205 21.7357 30.2503 19.3848 28.5786C14.5651 25.1539 9.61513 21.2696 7.26422 18.8659C5.04753 16.6004 3.24977 15.852 3.46127 16.3319C3.67277 16.8119 4.10798 17.3488 4.36829 17.6172C5.04753 18.3168 13.6458 25.1417 14.4552 25.7193Z" fill="url(#paint9_linear_458_797)"/>
<path d="M5.10837 26.1016C6.88985 27.5252 9.80205 29.6524 13.4911 32.2555C15.6997 33.8133 20.7919 38.5476 20.3974 39.0967C22.671 36.4204 3.92071 25.5973 2.52155 21.9692C2.39547 23.2708 3.52618 24.8367 5.10837 26.1016Z" fill="url(#paint10_linear_458_797)"/>
<path d="M19.9298 39.6377C20.1657 39.4953 20.3772 39.235 20.4016 39.1008C20.4016 39.1008 17.8148 36.1357 16.5173 35.1921C15.106 34.1631 11.6406 31.0272 9.48493 29.6158C8.53725 28.9976 7.67091 28.6844 6.90625 28.6925C8.05323 29.266 7.57736 29.5589 10.1642 31.1817C11.5511 32.0481 18.4005 40.5569 19.9298 39.6377Z" fill="url(#paint11_linear_458_797)"/>
<path d="M14.4472 27.0085C16.7208 28.611 20.6824 33.5488 22.045 32.3204C21.6504 32.536 20.2757 30.7586 18.4251 29.3228C16.607 27.9115 11.7831 23.897 9.10683 21.9447C6.34919 19.9314 5.29168 19.5613 3.96167 20.1103C8.21202 20.757 8.87092 23.0673 14.4472 27.0085Z" fill="url(#paint12_linear_458_797)"/>
<path d="M14.7439 19.5854C18.0303 22.1356 23.8059 27.2075 24.6316 26.4957C24.3062 26.6584 23.9442 25.8653 23.269 25.3854C22.5166 24.8485 15.6753 19.0566 14.142 17.8242C12.149 16.2258 9.23677 13.4031 6.78418 12.7563C9.38726 14.1799 12.0798 17.5151 14.7439 19.5854Z" fill="url(#paint13_linear_458_797)"/>
<path d="M20.3975 39.0967C20.3975 39.0967 17.8107 36.1317 16.5133 35.188C15.106 34.1631 11.6406 31.0272 9.48493 29.6158C8.53724 28.9976 7.67091 28.6844 6.90625 28.6925C8.05323 29.266 10.2048 30.4537 14.0525 33.7238C20.7392 39.5604 20.3772 39.231 20.3975 39.0967Z" fill="url(#paint14_linear_458_797)"/>
<path d="M29.7402 14.7862C29.3456 14.6438 28.9308 14.6804 28.5281 14.839C30.1225 15.4654 31.8023 16.7547 32.5792 19.6914C33.5634 23.4048 41.1124 26.012 43.2355 29.8108C45.501 33.8619 44.5737 40.1378 41.7672 42.5497C38.9648 44.9616 36.2153 53.9382 22.7525 46.5926C22.7484 46.5926 22.7444 46.5885 22.7444 46.5885C21.9065 46.0354 19.4051 44.1481 18.7055 43.6397C15.0409 40.9756 10.2618 35.7247 7.85393 33.5609C7.38212 33.1379 6.05618 31.4581 4.74243 32.178C5.57623 33.6667 7.58549 35.1512 8.19152 35.6515C9.53373 36.7619 16.4929 43.1842 16.7451 43.3591C18.6486 44.6769 27.7146 54.0927 34.6006 52.9376C42.6336 51.5913 48.6491 41.9477 47.612 35.802C46.5748 29.6563 41.1612 25.1538 37.0247 21.9609C33.5228 19.2561 31.603 15.982 29.7402 14.7862Z" fill="url(#paint15_radial_458_797)"/>
<path d="M56.2224 46.2755C54.0708 44.7746 48.8117 41.0246 47.7054 37.6202C47.7298 36.9898 47.7135 36.3756 47.6159 35.7981C46.5788 29.6523 41.1652 25.1498 37.0287 21.957C33.5267 19.2563 31.6029 15.9821 29.7441 14.7863C27.4339 13.9403 24.6437 17.3772 28.8412 22.0139C29.3699 22.5508 29.9719 23.0836 30.6715 23.5961C32.3716 24.8488 35.5238 27.7814 35.5238 27.7814C35.296 28.2166 28.3897 22.0424 26.4781 20.0901C24.5664 18.1378 16.8792 12.2564 15.0082 10.5034C13.1373 8.74633 11.2216 9.1612 10.0949 10.3814C8.96826 11.6016 9.10248 13.2814 12.942 16.6003C15.3662 18.695 17.652 20.7124 22.2359 24.1411C23.1185 24.7716 24.8633 26.1707 24.6356 26.492C24.4078 26.8093 24.0255 25.9145 23.273 25.3817C22.5165 24.8488 15.6753 19.057 14.1419 17.8246C10.9328 15.25 6.63362 10.8125 4.00613 13.4319C2.31413 15.1198 3.68888 16.9135 4.36812 17.6131C5.04737 18.3127 13.6457 25.1417 14.4551 25.7152C15.2645 26.2927 22.1342 31.9422 22.0447 32.3164C21.8006 32.6744 20.8042 31.1654 18.4248 29.3188C16.6067 27.9075 11.7462 23.9378 9.10655 21.9407C5.83236 19.4637 4.48201 19.3702 3.08692 20.7775C1.69183 22.1848 2.99744 24.4096 5.10838 26.0934C6.89393 27.517 9.80206 29.6442 13.4911 32.2473C15.5614 33.7075 20.1615 37.9578 20.4096 38.938C20.4096 38.9421 20.4096 38.9421 20.4096 38.9462C20.4259 39.0072 20.4218 39.0601 20.3974 39.0926C20.3974 39.0926 17.9245 36.2129 16.5131 35.1839C15.1058 34.163 11.6405 31.0271 9.48481 29.6157C7.32913 28.2044 5.58018 28.3915 4.54709 30.2746C3.51399 32.1578 7.31286 34.9236 8.1914 35.6476C9.53362 36.758 15.4638 42.3505 17.046 43.5626C19.6002 45.3197 27.6657 54.1091 34.6046 52.9337C35.0154 52.8645 35.4221 52.7588 35.8207 52.649C37.6225 54.0075 43.7764 58.5466 44.8746 59.7261C46.6316 61.6133 59.2037 48.3579 56.2224 46.2755Z" fill="url(#paint16_linear_458_797)"/>
<path d="M22.2036 40.7034C22.1873 40.7197 21.2844 39.8615 21.0891 39.6662C20.9874 39.5645 13.0684 30.8035 11.7302 29.7989C11.7302 29.7989 11.8604 29.9047 11.9092 29.8152C11.9458 29.746 11.8278 29.6118 11.8278 29.6118C13.0643 30.5392 18.0915 34.7122 21.3372 39.0805C21.6585 39.5117 22.289 40.618 22.2036 40.7034Z" fill="#975500"/>
<path d="M24.4933 34.0696C24.4933 34.0696 24.4892 34.0696 24.4933 34.0696C23.9402 34.3625 13.4872 23.0716 10.9695 21.1071C10.9695 21.1071 11.2176 21.221 11.3071 21.103C11.3843 20.9892 11.2379 20.7451 11.2379 20.7451C13.7881 22.734 24.7007 33.6955 24.4933 34.0696Z" fill="#975500"/>
<path d="M27.6334 28.4811C27.4707 28.5787 26.9583 28.0255 26.8606 27.9157C25.0507 25.878 22.9845 23.9948 20.6173 21.6399C18.6853 19.7201 16.8266 17.7962 15.6267 16.4703C15.6267 16.4703 15.7691 16.6208 15.8382 16.5761C15.948 16.4784 15.7528 16.2832 15.7528 16.2832C16.9405 17.601 19.0636 19.35 20.9874 21.2657C23.3627 23.6247 25.3273 25.5282 27.1494 27.5741C27.243 27.6798 27.731 28.3794 27.6334 28.4811Z" fill="#975500"/>
<path d="M51.5084 38.4297C51.3538 42.1025 57.1213 47.0809 59.3421 48.964C62.1322 51.3312 48.283 63.4193 46.7049 61.3653C45.5823 59.9051 38.3303 53.4788 37.8625 53.011" fill="url(#paint17_linear_458_797)"/>
<path d="M46.7091 61.3655C47.2134 62.0204 48.9664 61.2354 51.0285 59.7834C48.4255 59.4905 43.3128 54.1013 42.7353 52.7062C42.2513 51.547 39.9858 50.6644 37.944 50.3838L37.8667 53.0113C38.3344 53.4831 45.5865 59.9094 46.7091 61.3655Z" fill="url(#paint18_linear_458_797)"/>
<path d="M46.709 61.365C45.5865 59.9048 38.3344 53.4784 37.8667 53.0107C43.7236 53.8038 49.3447 46.259 50.9106 41.5531C51.1302 40.8942 51.3539 40.3939 51.5898 40.0156C51.9722 42.4642 57.4834 47.3815 59.3462 48.9637C62.1364 51.3309 48.2872 63.423 46.709 61.365Z" fill="url(#paint19_linear_458_797)"/>
<path d="M35.7882 14.9204C33.5553 13.8548 30.4356 17.0354 34.202 22.0748C34.6819 22.6646 35.2351 23.2543 35.8859 23.8319C37.4721 25.2473 40.3477 28.4849 40.3477 28.4849C40.0793 28.8998 33.7424 22.0626 32.0097 19.9273L27.3811 23.5879C28.2068 24.3037 29.8215 25.8696 29.5652 26.1665C29.309 26.4635 29.008 25.532 28.3044 24.926C27.6007 24.32 26.5473 31.393 26.4253 31.7591C26.3317 32.0316 25.1319 32.0316 24.3225 34.0856C24.054 34.7689 24.2493 38.2668 24.1354 38.3929C24.1354 38.3929 21.9309 35.2733 20.6171 34.1141C19.2993 32.9508 18.8885 41.3254 20.3568 42.5497C22.7484 44.5508 30.0004 54.1171 37.0613 53.5965C45.2325 52.9946 52.1714 43.9122 51.7118 37.6608C51.2522 31.4052 46.2575 26.3862 42.4098 22.7988C39.156 19.7564 37.5413 16.2952 35.7882 14.9204Z" fill="url(#paint20_linear_458_797)"/>
<path d="M20.6171 34.1142C19.2993 32.951 16.1268 29.4815 14.1013 27.8668C12.0758 26.2521 10.3065 26.2724 9.09442 28.062C7.88236 29.8476 11.425 32.9794 12.2385 33.7848C13.479 35.0212 18.8926 41.1832 20.3609 42.5458" fill="url(#paint21_linear_458_797)"/>
<path d="M26.4295 31.7591C26.1529 32.0967 25.2947 30.4901 23.0861 28.4158C21.3982 26.8295 16.9038 22.3961 14.4512 20.1469C11.4048 17.3567 10.0626 17.1371 8.53327 18.4142C7.00395 19.6914 8.09806 22.0423 10.0544 23.9295C11.7058 25.5239 14.4227 27.9318 17.8678 30.8846C19.934 32.6539 24.587 37.8764 24.1396 38.3888" fill="url(#paint22_linear_458_797)"/>
<path d="M32.0137 19.9272C30.2851 17.7918 23.1388 11.1784 21.4305 9.24233C19.7223 7.30629 17.7618 7.54219 16.5213 8.65664C15.2807 9.77108 15.2523 11.4672 18.7868 15.1562C21.0197 17.4868 23.1185 19.7197 27.3851 23.5878L32.7661 23.4617L32.0137 19.9272Z" fill="url(#paint23_linear_458_797)"/>
<path d="M28.3085 24.9256C27.6048 24.3196 21.3005 17.8729 19.8769 16.4941C16.9078 13.6144 13.0194 8.76211 10.1398 11.1374C8.28506 12.6667 9.49306 14.5946 10.1072 15.3634C10.7214 16.1321 18.6893 23.7786 19.4458 24.4335C20.2064 25.0883 26.5514 31.3967 26.4294 31.7587" fill="url(#paint24_linear_458_797)"/>
<path d="M15.826 10.7881C16.07 11.8782 17.0258 13.318 18.7911 15.1605C21.02 17.487 23.1512 19.6956 27.3894 23.592C28.1947 24.3323 29.8298 25.8738 29.5735 26.1707C30.0738 23.6286 23.0292 18.5445 20.2228 15.8153C17.2333 12.9113 15.643 9.9706 15.826 10.7881Z" fill="url(#paint25_linear_458_797)"/>
<path d="M19.4499 24.4338C20.2064 25.0886 26.5514 31.397 26.4294 31.759C26.4294 31.759 26.3155 29.6562 24.1192 27.7568C19.6166 23.8684 15.0206 19.5123 12.8934 16.8848C10.8882 14.4078 9.15957 13.4886 9.32633 13.9889C9.49309 14.4892 9.87949 15.0708 10.1154 15.3637C10.7214 16.1283 18.6893 23.7789 19.4499 24.4338Z" fill="url(#paint26_linear_458_797)"/>
<path d="M10.0503 23.9295C11.7017 25.5239 14.4186 27.9317 17.8636 30.8846C19.9298 32.6539 24.5829 37.8763 24.1355 38.3888C26.6653 35.9199 8.90741 23.3113 7.84584 19.5449C7.6018 20.8383 8.58203 22.5141 10.0503 23.9295Z" fill="url(#paint27_linear_458_797)"/>
<path d="M23.6148 38.8891C23.8629 38.7712 24.1029 38.5271 24.1354 38.3929C24.1354 38.3929 21.8252 35.1797 20.6172 34.11C19.2994 32.9508 16.1269 29.4814 14.1013 27.8667C13.2106 27.1549 12.3727 26.7645 11.604 26.6953C12.7022 27.3786 12.1938 27.6267 14.6342 29.4977C15.9398 30.4983 22.0001 39.666 23.6148 38.8891Z" fill="url(#paint28_linear_458_797)"/>
<path d="M19.3198 25.7196C21.4429 27.5418 24.9449 32.8578 26.4295 31.7596C26.0146 31.9385 24.8066 30.0269 23.0861 28.4162C21.3982 26.83 16.9445 22.3519 14.4512 20.1474C11.8766 17.8738 10.8516 17.3979 9.46875 17.8249C13.6622 18.8743 14.1014 21.2496 19.3198 25.7196Z" fill="url(#paint29_linear_458_797)"/>
<path d="M20.3161 18.3126C23.3707 21.1801 28.6745 26.8011 29.5693 26.1666C29.2276 26.3008 28.9388 25.467 28.3084 24.9261C27.6048 24.32 21.3004 17.8733 19.8769 16.4945C18.0344 14.7049 15.3784 11.6056 12.9868 10.7271C15.4597 12.3947 17.8432 15.9902 20.3161 18.3126Z" fill="url(#paint30_linear_458_797)"/>
<path d="M24.1395 38.3929C24.1395 38.3929 21.8292 35.1797 20.6212 34.11C19.2994 32.9508 16.1269 29.4814 14.1013 27.8667C13.2106 27.1549 12.3727 26.7645 11.604 26.6953C12.7022 27.3786 14.744 28.7696 18.2866 32.4099C24.4364 38.8891 24.1029 38.5271 24.1395 38.3929Z" fill="url(#paint31_linear_458_797)"/>
<path d="M35.7884 14.9205C35.4101 14.7374 34.9871 14.7374 34.5682 14.8595C36.1056 15.6363 37.6675 17.0883 38.1718 20.1022C38.8104 23.9174 46.1234 27.2404 47.8927 31.2426C49.78 35.5174 48.2588 41.7119 45.2205 43.8635C42.1822 46.0151 38.5826 54.7476 25.795 46.1209C25.7909 46.1209 25.7909 46.1168 25.7868 46.1168C24.9978 45.4864 22.6713 43.3551 22.0164 42.7816C18.5958 39.7677 14.3048 34.0572 12.0963 31.6615C11.661 31.1938 10.4937 29.3838 9.11084 29.9817C9.80635 31.5517 11.6773 33.2275 12.2386 33.7847C13.4791 35.0212 19.8445 42.1105 20.0804 42.3098C21.8619 43.8106 30.0535 54.0969 37.0615 53.5925C45.2327 53.0028 52.1715 43.9082 51.7119 37.6568C51.2523 31.4012 46.2577 26.3822 42.41 22.7948C39.1561 19.7565 37.5414 16.2952 35.7884 14.9205Z" fill="url(#paint32_radial_458_797)"/>
<path d="M24.3266 38.5803C24.3103 38.5966 23.4074 37.7384 23.2122 37.5432C23.1105 37.4415 15.1914 28.6805 13.8533 27.6759C13.8533 27.6759 13.9834 27.7816 14.0322 27.6921C14.0688 27.623 13.9509 27.4888 13.9509 27.4888C15.1874 28.4161 20.2146 32.5892 23.4603 36.9575C23.7816 37.3886 24.408 38.4949 24.3266 38.5803Z" fill="#975500"/>
<path d="M26.6166 31.9466C26.6125 31.9466 26.6125 31.9507 26.6166 31.9466C26.0635 32.2395 15.6104 20.9486 13.0928 18.9841C13.0928 18.9841 13.3409 19.0979 13.4304 18.98C13.5076 18.8661 13.3612 18.6221 13.3612 18.6221C15.9114 20.611 26.824 31.5724 26.6166 31.9466Z" fill="#975500"/>
<path d="M29.7565 26.358C29.5938 26.4557 29.0813 25.9025 28.9837 25.7927C27.1697 23.755 25.1075 21.8759 22.7363 19.5168C20.8043 17.597 18.9455 15.6732 17.7498 14.3473C17.7498 14.3473 17.8921 14.4977 17.9613 14.453C18.0711 14.3554 17.8758 14.1602 17.8758 14.1602C19.0635 15.478 21.1866 17.2269 23.1105 19.1426C25.4858 21.5057 27.4503 23.4052 29.2725 25.451C29.366 25.5568 29.8541 26.2564 29.7565 26.358Z" fill="#975500"/>
<path d="M47.0302 61.56C47.1115 61.4257 41.824 56.0731 39.4975 53.9663L38.5742 53.1284C38.4807 53.0471 38.3587 53.0105 38.2366 53.0308C37.838 53.104 37.4354 53.1691 37.0327 53.1975C31.5784 53.6002 25.9818 47.7514 22.6385 44.2535C21.7843 43.3628 21.1132 42.6591 20.6292 42.2565C19.7873 41.4755 17.6031 39.0636 15.6752 36.9323C14.2639 35.3746 13.0477 34.0283 12.5231 33.5036L12.2505 33.2392C8.19949 29.7739 9.17972 27.9436 9.09837 28.0615C7.88224 29.8471 11.4249 32.9789 12.2383 33.7842C13.4789 35.0207 18.8925 41.1827 20.3567 42.5452C22.7483 44.5464 30.0003 54.1127 37.0612 53.5921C37.4801 53.5595 37.895 53.4945 38.3058 53.4212C39.9856 54.9506 45.7205 60.0794 46.7089 61.3647C46.7861 61.4664 46.9 61.5233 47.0302 61.56Z" fill="#975500"/>
<path d="M6.90188 0.708664C6.86934 0.602914 6.788 0.513433 6.68225 0.476827C6.5765 0.436154 6.45854 0.448356 6.365 0.509366L4.99024 1.36757C4.90076 1.42451 4.83975 1.51399 4.82348 1.61974C4.80721 1.72549 4.83975 1.82718 4.90483 1.91259C7.72755 5.43489 9.24872 6.96013 9.24466 6.93573C8.68743 5.00782 6.91408 0.749337 6.90188 0.708664Z" fill="#975500"/>
<path d="M1.98865 6.8585C1.9195 6.78529 1.82189 6.74868 1.7202 6.75275C1.61852 6.75681 1.52497 6.80155 1.45989 6.87477L0.390189 8.09496C0.304775 8.19258 0.276304 8.33087 0.321044 8.45289C0.365785 8.57491 0.475603 8.64405 0.597622 8.68879C4.16873 10.0554 5.20996 10.7469 5.23437 10.7265C5.35639 10.6126 4.57139 9.47785 1.98865 6.8585Z" fill="#975500"/>
<path d="M12.9093 0.839343C12.9012 0.73766 12.9296 0.640044 12.9988 0.562765C13.0639 0.489554 13.1615 0.444813 13.2591 0.440746L14.882 0.400073C15.0121 0.396005 15.1341 0.46515 15.2033 0.574967C15.2724 0.688852 15.248 0.814939 15.2073 0.941026C13.9749 4.56094 13.9302 5.81774 13.8977 5.82181C13.7309 5.85028 13.2754 4.504 12.9093 0.839343Z" fill="#975500"/>
<path d="M41.2463 6.84205C41.3196 6.75663 41.348 6.64275 41.3277 6.53293C41.3033 6.42311 41.2301 6.32956 41.1325 6.28076L39.6723 5.56898C39.5787 5.52423 39.4649 5.52017 39.3713 5.56084C39.2737 5.60151 39.2046 5.68693 39.1679 5.78454C37.6712 10.043 37.1831 12.1418 37.1994 12.1255C38.5416 10.6328 41.2179 6.87458 41.2463 6.84205Z" fill="#975500"/>
<path d="M33.5024 6.03729C33.5268 5.93967 33.5064 5.83799 33.4495 5.75257C33.3926 5.66716 33.3071 5.61022 33.2055 5.59395L31.607 5.33364C31.4768 5.3133 31.3467 5.36211 31.2653 5.46379C31.184 5.56548 31.1881 5.69563 31.2125 5.82579C31.9405 9.57992 31.9039 10.8286 31.9364 10.8367C32.0991 10.8855 32.6442 9.62059 33.5024 6.03729Z" fill="#975500"/>
<path d="M44.3905 12.1224C44.4719 12.0614 44.5736 12.037 44.6712 12.0533C44.7688 12.0695 44.8583 12.1265 44.9152 12.2119L45.806 13.5663C45.8792 13.6761 45.8873 13.8144 45.8263 13.9324C45.7653 14.0503 45.6473 14.0991 45.5172 14.1276C41.7956 14.998 40.7015 15.6244 40.6811 15.6C40.5713 15.4698 41.4743 14.3676 44.3905 12.1224Z" fill="#975500"/>
<defs>
<linearGradient id="paint0_linear_458_797" x1="41.913" y1="44.867" x2="46.5727" y2="49.0508" gradientUnits="userSpaceOnUse">
<stop offset="0.00132565" stop-color="#FFCB4B"/>
<stop offset="1" stop-color="#FFD748"/>
</linearGradient>
<linearGradient id="paint1_linear_458_797" x1="45.1999" y1="58.6426" x2="36.5022" y2="48.2184" gradientUnits="userSpaceOnUse">
<stop offset="0.00132565" stop-color="#FFCB4B"/>
<stop offset="1" stop-color="#FFD748"/>
</linearGradient>
<linearGradient id="paint2_linear_458_797" x1="45.9848" y1="50.0699" x2="43.8027" y2="70.367" gradientUnits="userSpaceOnUse">
<stop stop-color="#C86F34" stop-opacity="0"/>
<stop offset="1" stop-color="#C86F34"/>
</linearGradient>
<linearGradient id="paint3_linear_458_797" x1="42.5407" y1="55.7522" x2="30.7794" y2="36.2808" gradientUnits="userSpaceOnUse">
<stop offset="0.00132565" stop-color="#FFCB4B"/>
<stop offset="1" stop-color="#FFD748"/>
</linearGradient>
<linearGradient id="paint4_linear_458_797" x1="5.66232" y1="32.7244" x2="15.3055" y2="37.5904" gradientUnits="userSpaceOnUse">
<stop offset="0.00132565" stop-color="#FFCB4B"/>
<stop offset="1" stop-color="#FFD748"/>
</linearGradient>
<linearGradient id="paint5_linear_458_797" x1="0.740131" y1="20.0705" x2="18.3354" y2="33.1927" gradientUnits="userSpaceOnUse">
<stop offset="0.00132565" stop-color="#FFCB4B"/>
<stop offset="1" stop-color="#FFD748"/>
</linearGradient>
<linearGradient id="paint6_linear_458_797" x1="13.8962" y1="12.0485" x2="24.9996" y2="24.3535" gradientUnits="userSpaceOnUse">
<stop offset="0.00132565" stop-color="#FFCB4B"/>
<stop offset="1" stop-color="#FFD748"/>
</linearGradient>
<linearGradient id="paint7_linear_458_797" x1="7.37292" y1="15.2973" x2="21.2531" y2="28.6538" gradientUnits="userSpaceOnUse">
<stop offset="0.00132565" stop-color="#FFCB4B"/>
<stop offset="1" stop-color="#FFD748"/>
</linearGradient>
<linearGradient id="paint8_linear_458_797" x1="18.6675" y1="17.4303" x2="16.4328" y2="20.3338" gradientUnits="userSpaceOnUse">
<stop stop-color="#FFBC47" stop-opacity="0"/>
<stop offset="1" stop-color="#E68E43"/>
</linearGradient>
<linearGradient id="paint9_linear_458_797" x1="16.2004" y1="19.9172" x2="11.767" y2="25.5142" gradientUnits="userSpaceOnUse">
<stop stop-color="#FFBC47" stop-opacity="0"/>
<stop offset="1" stop-color="#E68E43"/>
</linearGradient>
<linearGradient id="paint10_linear_458_797" x1="14.5416" y1="26.3559" x2="10.6978" y2="31.5679" gradientUnits="userSpaceOnUse">
<stop offset="0.3118" stop-color="#FFBC47" stop-opacity="0"/>
<stop offset="1" stop-color="#FF8900"/>
</linearGradient>
<linearGradient id="paint11_linear_458_797" x1="12.28" y1="36.0318" x2="14.8696" y2="32.0424" gradientUnits="userSpaceOnUse">
<stop stop-color="#FFBC47" stop-opacity="0"/>
<stop offset="1" stop-color="#E68E43"/>
</linearGradient>
<linearGradient id="paint12_linear_458_797" x1="-4.22623" y1="10.5375" x2="19.1136" y2="31.7667" gradientUnits="userSpaceOnUse">
<stop stop-color="#FFBC47" stop-opacity="0"/>
<stop offset="1" stop-color="#E68E43"/>
</linearGradient>
<linearGradient id="paint13_linear_458_797" x1="14.1354" y1="21.314" x2="15.7942" y2="19.5354" gradientUnits="userSpaceOnUse">
<stop stop-color="#FFBC47" stop-opacity="0"/>
<stop offset="1" stop-color="#E68E43"/>
</linearGradient>
<linearGradient id="paint14_linear_458_797" x1="12.3969" y1="34.4445" x2="16.3454" y2="32.7825" gradientUnits="userSpaceOnUse">
<stop stop-color="#FFBC47" stop-opacity="0"/>
<stop offset="1" stop-color="#E68E43"/>
</linearGradient>
<radialGradient id="paint15_radial_458_797" cx="0" cy="0" r="1" gradientUnits="userSpaceOnUse" gradientTransform="translate(29.8903 36.803) rotate(-50.3837) scale(44.0538)">
<stop stop-color="#FFBC47" stop-opacity="0"/>
<stop offset="1" stop-color="#FF8900"/>
</radialGradient>
<linearGradient id="paint16_linear_458_797" x1="2.00375" y1="-4.58182" x2="26.0194" y2="32.3117" gradientUnits="userSpaceOnUse">
<stop stop-color="#FFBC47" stop-opacity="0"/>
<stop offset="1" stop-color="#C86F34"/>
</linearGradient>
<linearGradient id="paint17_linear_458_797" x1="45.1449" y1="46.2188" x2="49.4176" y2="50.849" gradientUnits="userSpaceOnUse">
<stop offset="0.00132565" stop-color="#FFCB4B"/>
<stop offset="1" stop-color="#FFD748"/>
</linearGradient>
<linearGradient id="paint18_linear_458_797" x1="47.1321" y1="60.3164" x2="39.4035" y2="49.0548" gradientUnits="userSpaceOnUse">
<stop offset="0.00132565" stop-color="#FFCB4B"/>
<stop offset="1" stop-color="#FFD748"/>
</linearGradient>
<linearGradient id="paint19_linear_458_797" x1="48.7326" y1="51.8141" x2="44.6323" y2="71.9386" gradientUnits="userSpaceOnUse">
<stop stop-color="#C86F34" stop-opacity="0"/>
<stop offset="1" stop-color="#C86F34"/>
</linearGradient>
<linearGradient id="paint20_linear_458_797" x1="44.7412" y1="57.1701" x2="34.7974" y2="36.5573" gradientUnits="userSpaceOnUse">
<stop offset="0.00132565" stop-color="#FFCB4B"/>
<stop offset="1" stop-color="#FFD748"/>
</linearGradient>
<linearGradient id="paint21_linear_458_797" x1="9.97865" y1="30.619" x2="19.1787" y2="36.4031" gradientUnits="userSpaceOnUse">
<stop offset="0.00132565" stop-color="#FFCB4B"/>
<stop offset="1" stop-color="#FFD748"/>
</linearGradient>
<linearGradient id="paint22_linear_458_797" x1="6.24264" y1="17.4787" x2="22.6291" y2="32.2831" gradientUnits="userSpaceOnUse">
<stop offset="0.00132565" stop-color="#FFCB4B"/>
<stop offset="1" stop-color="#FFD748"/>
</linearGradient>
<linearGradient id="paint23_linear_458_797" x1="20.1774" y1="10.6848" x2="30.1383" y2="24.058" gradientUnits="userSpaceOnUse">
<stop offset="0.00132565" stop-color="#FFCB4B"/>
<stop offset="1" stop-color="#FFD748"/>
</linearGradient>
<linearGradient id="paint24_linear_458_797" x1="13.3368" y1="13.3232" x2="25.9799" y2="28.0118" gradientUnits="userSpaceOnUse">
<stop offset="0.00132565" stop-color="#FFCB4B"/>
<stop offset="1" stop-color="#FFD748"/>
</linearGradient>
<linearGradient id="paint25_linear_458_797" x1="24.4489" y1="16.5261" x2="21.9365" y2="19.2236" gradientUnits="userSpaceOnUse">
<stop stop-color="#FFBC47" stop-opacity="0"/>
<stop offset="1" stop-color="#E68E43"/>
</linearGradient>
<linearGradient id="paint26_linear_458_797" x1="22.1978" y1="16.4268" x2="11.32" y2="32.5226" gradientUnits="userSpaceOnUse">
<stop stop-color="#FFBC47" stop-opacity="0"/>
<stop offset="1" stop-color="#E68E43"/>
</linearGradient>
<linearGradient id="paint27_linear_458_797" x1="18.0848" y1="25.8006" x2="15.299" y2="30.0456" gradientUnits="userSpaceOnUse">
<stop offset="0.3118" stop-color="#FFBC47" stop-opacity="0"/>
<stop offset="1" stop-color="#FF8900"/>
</linearGradient>
<linearGradient id="paint28_linear_458_797" x1="16.5078" y1="34.2143" x2="20.0232" y2="29.9693" gradientUnits="userSpaceOnUse">
<stop stop-color="#FFBC47" stop-opacity="0"/>
<stop offset="1" stop-color="#E68E43"/>
</linearGradient>
<linearGradient id="paint29_linear_458_797" x1="16.7607" y1="26.3255" x2="20.6078" y2="21.3509" gradientUnits="userSpaceOnUse">
<stop stop-color="#FFBC47" stop-opacity="0"/>
<stop offset="1" stop-color="#E68E43"/>
</linearGradient>
<linearGradient id="paint30_linear_458_797" x1="20.0292" y1="19.8525" x2="23.5668" y2="15.8728" gradientUnits="userSpaceOnUse">
<stop stop-color="#FFBC47" stop-opacity="0"/>
<stop offset="1" stop-color="#E68E43"/>
</linearGradient>
<linearGradient id="paint31_linear_458_797" x1="16.558" y1="32.9838" x2="20.6698" y2="31.6915" gradientUnits="userSpaceOnUse">
<stop stop-color="#FFBC47" stop-opacity="0"/>
<stop offset="1" stop-color="#E68E43"/>
</linearGradient>
<radialGradient id="paint32_radial_458_797" cx="0" cy="0" r="1" gradientUnits="userSpaceOnUse" gradientTransform="translate(33.8683 36.9776) rotate(-45) scale(44.3272 44.3237)">
<stop stop-color="#FFBC47" stop-opacity="0"/>
<stop offset="1" stop-color="#FF8900"/>
</radialGradient>
</defs>
</svg>
