<svg width="39" height="62" viewBox="0 0 39 62" fill="none" xmlns="http://www.w3.org/2000/svg">
<path d="M26.7548 22.7392C26.5915 23.4827 26.1717 24.0046 25.676 24.0046C25.1833 24.0046 24.7372 23.4681 24.571 22.7334L15.6929 25.3808L16.5705 32.4395L18.2819 33.6933L26.3845 33.0664L29.099 25.0076L28.6383 22.6284L26.7548 22.7392Z" fill="url(#paint0_linear_459_96)"/>
<path d="M26.1306 25.4628C26.2152 25.1188 26.3027 24.7485 26.3931 24.3491C27.8859 17.8472 30.3467 4.6452 30.9764 2.9658C31.6441 1.18434 32.9241 0.0151747 35.5977 0.516664C38.2713 1.01815 39.1052 3.74719 38.1576 7.03019C37.2101 10.3132 34.9271 22.9 34.9271 27.186C34.9271 31.472 36.5424 39.936 36.5424 39.936L24.5154 35.4809L26.1306 25.4628Z" fill="url(#paint1_linear_459_96)"/>
<path d="M0.464499 40.8867C0.464499 42.9335 1.46747 43.8519 1.96896 44.1843C2.13515 44.2951 2.24595 44.3388 2.24595 44.3388L11.5993 51.1031L28.7199 47.5956L28.1951 36.764C18.9555 35.5803 10.6109 31.1339 1.0243 30.3525C-0.0253286 33.7872 0.464499 38.4988 0.464499 40.8867Z" fill="url(#paint2_linear_459_96)"/>
<path d="M22.3958 28.888C22.3958 28.888 3.33336 25.5467 1.57815 28.9726C1.35948 29.3983 1.17871 29.8618 1.0271 30.3517C10.6137 31.1331 18.9583 35.5794 28.1979 36.7631L27.9705 32.0602L22.3958 28.888Z" fill="url(#paint3_linear_459_96)"/>
<path d="M14.7745 0.796344C11.4886 2.1317 11.8239 5.36223 13.1038 8.81434C14.3838 12.2664 16.8912 27.4103 16.8912 27.4103H25.6877C25.6877 27.4103 25.4049 26.2148 24.9588 24.3488C23.6409 18.8325 20.9061 7.47315 19.8972 3.96855C18.7281 -0.0929246 14.7745 0.796344 14.7745 0.796344Z" fill="url(#paint4_linear_459_96)"/>
<path d="M18.696 41.2076C22.915 40.7644 25.5886 44.2136 25.9239 46.0096L27.303 45.5081L26.6761 38.6185L22.2065 35.7378L16.2352 34.2334L10.1795 31.0611L9.02488 27.4428C8.99281 27.4428 8.70416 27.4399 8.67209 27.437L2.86415 28.0318C2.23729 28.2651 1.78536 28.5712 1.57835 28.9736C0.805709 30.478 0.511227 32.4373 0.40918 34.3908C1.31594 36.2131 3.35397 37.1607 5.1296 37.1607C7.21719 37.1607 8.47091 35.5745 9.22314 34.2363C9.22314 34.2363 9.36018 36.6592 12.7161 37.5776C12.7132 37.5747 15.2089 41.5749 18.696 41.2076Z" fill="url(#paint5_linear_459_96)"/>
<path d="M19.5328 32.3959C18.7806 30.0576 19.25 31.7691 18.7368 27.1332C18.1683 22.0017 16.5414 19.7829 15.2731 12.4326C14.4683 7.77049 12.5499 4.63327 13.859 1.2832C11.576 2.81974 11.9551 5.72371 13.1009 8.81137C14.0718 11.4296 15.7483 20.7742 16.5005 25.1331L15.69 25.3751L16.5676 32.4338L18.2791 33.6876L19.32 33.6059C19.5911 33.3202 19.7048 32.9295 19.5328 32.3959Z" fill="url(#paint6_radial_459_96)"/>
<path d="M36.0093 36.8863C35.5399 34.0319 34.9276 29.8276 34.9276 27.1889C34.9276 22.9 37.2106 10.319 38.1582 7.03313C38.6713 5.24876 38.6422 3.64516 38.0969 2.4585C37.4526 7.23722 34.6711 14.0248 34.4845 20.3692C34.1346 32.3 31.5134 32.0609 29.7407 33.0639C32.1461 34.0523 34.4174 35.2681 36.0093 36.8863Z" fill="url(#paint7_linear_459_96)"/>
<path d="M34.0613 0.432129C32.4111 0.566248 31.4985 1.57506 30.9766 2.96873C30.8308 3.35651 30.5888 4.35949 30.2827 5.75025C29.3643 9.92544 27.8773 17.6081 26.7548 22.7455C26.6352 23.282 26.2416 24.008 25.6789 24.005C25.6789 24.005 25.6818 24.005 25.6789 24.005C25.1862 24.005 24.7401 23.4686 24.5739 22.7338C23.1656 16.8588 20.8185 7.16141 19.9001 3.97171C19.2528 1.72376 17.7571 0.994846 16.5471 0.787836C20.4133 1.54882 21.9148 21.1477 25.641 25.6932C25.641 25.6932 28.4313 25.6028 30.4926 8.28685C31.1166 2.98331 33.1517 0.592489 34.0613 0.432129Z" fill="url(#paint8_radial_459_96)"/>
<path d="M5.0801 36.3205C2.6193 36.3205 0.584187 34.3175 0.243058 30.5563C0.210986 30.1977 -0.488764 22.7891 3.72141 22.7891C7.62253 22.7891 8.72755 24.2935 8.98121 29.3026C9.23487 34.3116 7.62545 36.3205 5.0801 36.3205Z" fill="url(#paint9_linear_459_96)"/>
<path d="M14.4012 36.9069C11.3631 36.9069 9.84403 35.5744 9.42418 31.7725C9.00141 27.9705 7.1733 21.1216 12.7509 20.7543C18.0953 20.4044 18.1973 23.7107 18.1973 29.2242C18.1973 34.7377 17.0165 36.9069 14.4012 36.9069Z" fill="url(#paint10_linear_459_96)"/>
<path d="M14.2292 31.645C11.9084 32.8142 10.3485 32.8375 9.35718 31.2426C9.3805 31.4234 9.40383 31.6042 9.42424 31.7704C9.84701 35.5724 11.3661 36.9048 14.4012 36.9048C16.5384 36.9048 17.7163 35.4528 18.0778 31.9191C17.4772 30.8928 15.5966 30.9569 14.2292 31.645Z" fill="url(#paint11_linear_459_96)"/>
<path d="M4.99543 31.4782C2.92533 31.4782 1.21094 30.1924 0.925209 27.7782C1.04183 28.7666 0.167141 22.7925 3.8525 22.7925C7.13551 22.7925 8.0656 23.7576 8.27844 26.9735C8.49419 30.1924 7.13842 31.4782 4.99543 31.4782Z" fill="url(#paint12_linear_459_96)"/>
<path d="M13.9786 31.2275C11.4857 31.2275 10.3661 29.9155 9.94336 27.2243C9.72468 25.8394 8.31061 21.0082 12.8852 20.7487C17.2704 20.4979 17.2733 23.7051 17.3636 26.4254C17.4949 30.3411 16.1245 31.2275 13.9786 31.2275Z" fill="url(#paint13_linear_459_96)"/>
<path d="M12.5876 36.6802C13.1212 36.8289 13.716 36.9076 14.4012 36.9076C17.0165 36.9076 18.1973 34.7354 18.1973 29.2249C18.1973 23.9126 18.0894 20.6588 13.2932 20.7433C15.1796 21.8687 16.7162 24.4287 16.7162 29.0587C16.7191 35.6422 15.2409 36.6685 12.5876 36.6802Z" fill="url(#paint14_linear_459_96)"/>
<path d="M12.7132 34.8746C12.7132 32.6471 14.2876 32.5771 18.5036 32.201C21.5184 31.9328 24.7956 31.1426 28.9707 32.7579C33.7349 34.6006 38.2133 37.2684 38.2687 42.0558C38.3183 46.3418 34.9828 61.5993 20.3959 61.5993C5.80894 61.5993 0.907762 53.8029 0.46167 40.8867L25.921 46.0094C25.921 46.0094 26.4633 41.4581 23.3465 40.1082C22.017 39.5309 19.1713 39.9974 17.2761 39.9974C15.3868 39.9974 12.7132 37.8807 12.7132 34.8746Z" fill="url(#paint15_linear_459_96)"/>
<path d="M30.8108 51.9403C24.6296 56.4508 25.1311 58.9554 19.3698 58.9554C13.6085 58.9554 9.89109 55.9056 7.25827 53.2757C4.62837 50.6458 2.4154 46.2607 1.32787 42.9194C1.07129 42.1321 0.770985 41.4732 0.464844 40.9134C0.916767 53.8151 5.81794 61.5998 20.3961 61.5998C34.983 61.5998 38.3185 46.3423 38.269 42.0563C38.2485 40.1816 37.5401 38.6363 36.4117 37.333C36.7353 43.4588 35.8869 48.2346 30.8108 51.9403Z" fill="url(#paint16_radial_459_96)"/>
<path d="M5.10041 33.9828C2.5988 33.9828 0.528696 31.9914 0.100098 28.2798C0.117591 29.0262 0.172986 29.7988 0.242961 30.5598C0.581174 34.3181 2.61921 36.324 5.08 36.324C7.46791 36.324 9.01319 34.5251 8.98695 30.172C8.47672 32.8428 7.0568 33.9828 5.10041 33.9828Z" fill="url(#paint17_linear_459_96)"/>
<path d="M8.98111 29.3051C8.73911 24.5322 7.72156 22.9432 4.25195 22.8032C6.07131 23.1006 9.5934 30.1127 4.7447 36.2851C4.85841 36.2939 4.96629 36.3201 5.08 36.3201C7.62535 36.3201 9.23477 34.3171 8.98111 29.3051Z" fill="url(#paint18_linear_459_96)"/>
<path d="M27.4137 41.5573C27.303 38.8836 24.017 36.2129 21.288 36.4899C18.9322 36.729 14.6666 37.0497 12.7598 35.3062C13.0047 38.076 15.4801 40.0003 17.279 40.0003C19.1712 40.0003 22.0169 39.5367 23.3493 40.1111C26.4662 41.4611 25.9239 46.0124 25.9239 46.0124C25.9239 46.0124 27.5245 44.228 27.4137 41.5573Z" fill="url(#paint19_radial_459_96)"/>
<path d="M38.2715 42.0558C38.2161 37.2684 33.7377 34.6006 28.9736 32.7579C24.7984 31.1426 21.5212 31.9328 18.5064 32.201C15.2905 32.4867 13.6198 32.6034 13.0046 33.6268C16.967 32.6471 20.6786 32.2477 25.2561 32.7725C31.2215 33.4547 35.7291 37.1284 36.5484 39.942C37.356 42.7206 37.2394 47.8959 37.2365 48.0183C38.0033 45.5284 38.2861 43.3183 38.2715 42.0558Z" fill="url(#paint20_linear_459_96)"/>
<path d="M25.9239 46.0093C25.9968 44.9276 25.9093 43.8197 25.5624 42.7934C25.23 41.7758 24.5769 40.8166 23.6118 40.3384C22.6759 39.8107 21.5271 39.9127 20.46 39.9332C19.3754 39.9769 18.2937 40.1052 17.1916 40.0993C14.9261 39.9011 13.0806 37.9709 12.6694 35.79C12.5674 35.2419 12.5382 34.6763 12.652 34.1106C12.7715 33.5421 13.2059 33.0231 13.7395 32.8103C14.7949 32.3613 15.9029 32.3088 16.9817 32.1805C19.1567 32.0464 21.2997 31.6557 23.501 31.644C25.6994 31.6119 27.892 32.1222 29.8863 33.0114C31.8893 33.8628 33.869 34.8658 35.5193 36.3207C37.1666 37.7552 38.3066 39.8544 38.2716 42.0587C38.2541 39.8515 37.0733 37.8135 35.4172 36.4373C33.7757 35.0174 31.8077 34.0377 29.8075 33.2068C27.8162 32.3379 25.6732 31.8598 23.5069 31.9064C21.3493 31.9356 19.1859 32.3467 17.0167 32.4954C15.9466 32.612 14.8299 32.6674 13.8678 33.0727C13.3838 33.2709 13.0456 33.6733 12.9289 34.1719C12.824 34.6733 12.8415 35.2215 12.9348 35.7405C13.2963 37.8077 15.0836 39.6912 17.2033 39.8865C18.2791 39.9011 19.3696 39.7845 20.4571 39.7495C21.5301 39.7407 22.6963 39.6358 23.6905 40.2043C24.6848 40.7291 25.3291 41.735 25.6411 42.773C25.9618 43.8168 26.0231 44.9305 25.9239 46.0093Z" fill="#975500"/>
<path d="M8.82363 27.4336C9.02481 29.0255 9.22599 30.6466 8.97816 32.2619C8.86737 33.0637 8.67202 33.8713 8.27841 34.6031C7.90229 35.3408 7.24627 35.9531 6.45322 36.2563C4.85254 36.7811 2.99528 36.2913 1.90192 35.0405C0.761907 33.8247 0.33622 32.1482 0.24292 30.5592C0.458677 32.1365 0.957249 33.7459 2.05644 34.8947C3.12356 36.0668 4.89044 36.4662 6.34534 35.956C7.85856 35.4458 8.54665 33.7663 8.76824 32.2327C9.02481 30.6525 8.90235 29.0401 8.82363 27.4336Z" fill="#975500"/>
<path d="M13.203 36.8043C12.6898 36.9734 12.2204 36.7431 11.7918 36.5244C11.3574 36.297 10.9696 35.9821 10.6518 35.6118C10.0075 34.8683 9.66924 33.9324 9.46807 33.0082C9.28438 32.0664 9.25813 31.1363 9.12693 30.2092C9.01322 29.282 8.91118 28.3461 8.87036 27.4102C8.9899 28.3402 9.15026 29.2587 9.30479 30.1829C9.48264 31.1014 9.56136 32.0489 9.78004 32.9353C9.98705 33.8275 10.3223 34.7051 10.92 35.3757C11.2145 35.711 11.5702 35.988 11.9668 36.192C12.3633 36.4107 12.7977 36.4632 13.203 36.8043Z" fill="#975500"/>
<path d="M15.2671 20.9316C15.7802 21.0628 16.2846 21.2757 16.7074 21.6168C17.1302 21.9609 17.4305 22.4361 17.6463 22.9289C18.0836 23.926 18.2031 25.0135 18.2964 26.0748C18.346 27.1419 18.3518 28.2062 18.3256 29.2674C18.3168 29.7952 18.3285 30.3287 18.3023 30.8623C18.2819 31.1276 18.2819 31.3988 18.2206 31.667C18.1711 31.9003 18.0486 32.2939 17.725 32.2676C17.9903 32.1743 17.9816 31.8711 18.0399 31.6349C18.0719 31.3813 18.1011 31.1189 18.1011 30.8565C18.1069 30.3287 18.0778 29.801 18.0661 29.2674C18.0369 28.2062 18.0486 27.1449 17.9757 26.0923C17.9174 25.0456 17.8474 23.9756 17.4626 23.0047C17.1214 22.0163 16.2846 21.2553 15.2671 20.9316Z" fill="#975500"/>
<path d="M18.6958 41.2069C15.2058 41.5743 12.7129 37.574 12.7129 37.574C9.35703 36.6556 9.22 34.2327 9.22 34.2327C8.46777 35.5681 7.21695 37.1571 5.12644 37.1571C3.35082 37.1571 1.3128 36.2095 0.406035 34.3872C0.426445 33.982 0.464345 33.5767 0.505164 33.1772H0.490586C0.376876 34.2794 0.35064 35.399 0.356471 36.4748C2.1525 38.5333 4.96608 38.8248 6.76503 38.2942C7.25194 38.1513 9.52614 36.434 11.2784 38.1601C13.1823 40.029 15.3953 42.4198 19.1944 42.3353C22.9935 42.2507 25.9266 46.0089 25.9266 46.0089C25.5884 44.2129 22.9147 40.7637 18.6958 41.2069Z" fill="url(#paint21_linear_459_96)"/>
<path opacity="0.75" d="M3.15274 41.3264C1.81446 42.9388 5.8876 52.2251 9.90535 54.5663C13.926 56.9047 18.9613 56.1874 19.9439 54.3301C20.9264 52.4729 16.7483 49.5806 13.3283 46.3821C7.42997 40.8599 4.49101 39.717 3.15274 41.3264Z" fill="url(#paint22_radial_459_96)"/>
<path opacity="0.75" d="M35.9128 42.5168C36.6243 41.5576 33.0643 35.6126 30.2215 34.009C27.3788 32.4054 21.7837 33.3588 21.3288 34.4842C20.874 35.6097 26.265 36.878 28.8016 38.9977C33.1751 42.6568 35.1985 43.4761 35.9128 42.5168Z" fill="url(#paint23_radial_459_96)"/>
<path opacity="0.75" d="M13.2526 3.91011C13.0543 3.18995 14.5005 1.9508 15.448 1.70297C16.3956 1.45514 17.3257 1.83709 17.524 2.55725C17.7222 3.27742 16.7805 3.94801 15.9583 4.54863C14.5384 5.58368 13.4508 4.63027 13.2526 3.91011Z" fill="url(#paint24_radial_459_96)"/>
<path opacity="0.75" d="M33.0558 1.45152C33.2978 0.699288 35.1113 0.990852 35.9918 1.63521C36.8723 2.27956 37.3855 3.41374 37.1406 4.16598C36.8957 4.91821 35.7906 4.62082 34.8168 4.37007C33.1345 3.93856 32.8108 2.20667 33.0558 1.45152Z" fill="url(#paint25_radial_459_96)"/>
<defs>
<linearGradient id="paint0_linear_459_96" x1="22.3946" y1="41.5832" x2="22.3946" y2="23.5425" gradientUnits="userSpaceOnUse">
<stop offset="0.00132565" stop-color="#FFBA47"/>
<stop offset="1" stop-color="#FFD748"/>
</linearGradient>
<linearGradient id="paint1_linear_459_96" x1="31.526" y1="41.5836" x2="31.526" y2="23.5429" gradientUnits="userSpaceOnUse">
<stop offset="0.00132565" stop-color="#FFBA47"/>
<stop offset="1" stop-color="#FFD748"/>
</linearGradient>
<linearGradient id="paint2_linear_459_96" x1="1.42141" y1="40.7287" x2="36.7438" y2="40.7287" gradientUnits="userSpaceOnUse">
<stop offset="0.00132565" stop-color="#FFCB4B"/>
<stop offset="1" stop-color="#FFD748"/>
</linearGradient>
<linearGradient id="paint3_linear_459_96" x1="14.6119" y1="41.5829" x2="14.6119" y2="23.5422" gradientUnits="userSpaceOnUse">
<stop offset="0.00132565" stop-color="#FFBA47"/>
<stop offset="1" stop-color="#FFD748"/>
</linearGradient>
<linearGradient id="paint4_linear_459_96" x1="18.9375" y1="41.5834" x2="18.9375" y2="23.5427" gradientUnits="userSpaceOnUse">
<stop offset="0.00132565" stop-color="#FFBA47"/>
<stop offset="1" stop-color="#FFD748"/>
</linearGradient>
<linearGradient id="paint5_linear_459_96" x1="11.769" y1="57.3978" x2="15.6109" y2="24.825" gradientUnits="userSpaceOnUse">
<stop stop-color="#A1541E" stop-opacity="0"/>
<stop offset="1" stop-color="#C86F34"/>
</linearGradient>
<radialGradient id="paint6_radial_459_96" cx="0" cy="0" r="1" gradientUnits="userSpaceOnUse" gradientTransform="translate(25.7536 -5.85608) scale(57.0481 57.0481)">
<stop offset="0.1388" stop-color="#FFBC47" stop-opacity="0"/>
<stop offset="1" stop-color="#FF8900"/>
</radialGradient>
<linearGradient id="paint7_linear_459_96" x1="-0.337592" y1="5.79016" x2="71.0442" y2="32.2939" gradientUnits="userSpaceOnUse">
<stop stop-color="#FFBC47" stop-opacity="0"/>
<stop offset="1" stop-color="#FFBC47"/>
</linearGradient>
<radialGradient id="paint8_radial_459_96" cx="0" cy="0" r="1" gradientUnits="userSpaceOnUse" gradientTransform="translate(26.0875 -6.30786) rotate(90) scale(45.3647 17.1524)">
<stop offset="0.1388" stop-color="#FFBC47" stop-opacity="0"/>
<stop offset="1" stop-color="#FF8900"/>
</radialGradient>
<linearGradient id="paint9_linear_459_96" x1="4.59443" y1="28.3873" x2="4.59443" y2="43.861" gradientUnits="userSpaceOnUse">
<stop offset="0.00132565" stop-color="#FFCB4B"/>
<stop offset="1" stop-color="#FFD748"/>
</linearGradient>
<linearGradient id="paint10_linear_459_96" x1="13.4983" y1="28.3876" x2="13.4983" y2="43.8614" gradientUnits="userSpaceOnUse">
<stop offset="0.00132565" stop-color="#FFCB4B"/>
<stop offset="1" stop-color="#FFD748"/>
</linearGradient>
<linearGradient id="paint11_linear_459_96" x1="13.7164" y1="28.0024" x2="13.7164" y2="48.5068" gradientUnits="userSpaceOnUse">
<stop stop-color="#FFBC47" stop-opacity="0"/>
<stop offset="1" stop-color="#C86F34"/>
</linearGradient>
<linearGradient id="paint12_linear_459_96" x1="4.60701" y1="30.6428" x2="4.60701" y2="18.7642" gradientUnits="userSpaceOnUse">
<stop offset="0.00132565" stop-color="#FFCB4B"/>
<stop offset="1" stop-color="#FFD748"/>
</linearGradient>
<linearGradient id="paint13_linear_459_96" x1="13.4688" y1="30.6429" x2="13.4688" y2="18.7642" gradientUnits="userSpaceOnUse">
<stop offset="0.00132565" stop-color="#FFCB4B"/>
<stop offset="1" stop-color="#FFD748"/>
</linearGradient>
<linearGradient id="paint14_linear_459_96" x1="7.51057" y1="25.1047" x2="45.6631" y2="46.7785" gradientUnits="userSpaceOnUse">
<stop stop-color="#FFBC47" stop-opacity="0"/>
<stop offset="1" stop-color="#C86F34"/>
</linearGradient>
<linearGradient id="paint15_linear_459_96" x1="1.4215" y1="46.6861" x2="36.7439" y2="46.6861" gradientUnits="userSpaceOnUse">
<stop offset="0.00132565" stop-color="#FFCB4B"/>
<stop offset="1" stop-color="#FFD748"/>
</linearGradient>
<radialGradient id="paint16_radial_459_96" cx="0" cy="0" r="1" gradientUnits="userSpaceOnUse" gradientTransform="translate(18.7382 9.67955) scale(63.3161 63.3161)">
<stop offset="0.6134" stop-color="#FFBC47" stop-opacity="0"/>
<stop offset="1" stop-color="#FF8900"/>
</radialGradient>
<linearGradient id="paint17_linear_459_96" x1="4.46127" y1="27.9961" x2="5.51981" y2="45.5456" gradientUnits="userSpaceOnUse">
<stop stop-color="#FFBC47" stop-opacity="0"/>
<stop offset="1" stop-color="#C86F34"/>
</linearGradient>
<linearGradient id="paint18_linear_459_96" x1="-4.81707" y1="23.1125" x2="54.0624" y2="60.4999" gradientUnits="userSpaceOnUse">
<stop stop-color="#FFBC47" stop-opacity="0"/>
<stop offset="1" stop-color="#C86F34"/>
</linearGradient>
<radialGradient id="paint19_radial_459_96" cx="0" cy="0" r="1" gradientUnits="userSpaceOnUse" gradientTransform="translate(23.5413 32.9717) scale(41.2633 17.6689)">
<stop stop-color="#FFBC47" stop-opacity="0"/>
<stop offset="1" stop-color="#FFA754"/>
</radialGradient>
<linearGradient id="paint20_linear_459_96" x1="27.6267" y1="28.6688" x2="21.836" y2="57.5111" gradientUnits="userSpaceOnUse">
<stop stop-color="#FFBC47" stop-opacity="0"/>
<stop offset="1" stop-color="#FFBC47"/>
</linearGradient>
<linearGradient id="paint21_linear_459_96" x1="10.6565" y1="47.3736" x2="18.758" y2="22.6517" gradientUnits="userSpaceOnUse">
<stop stop-color="#FFBC47" stop-opacity="0"/>
<stop offset="1" stop-color="#C86F34"/>
</linearGradient>
<radialGradient id="paint22_radial_459_96" cx="0" cy="0" r="1" gradientUnits="userSpaceOnUse" gradientTransform="translate(11.1001 49.3327) rotate(-138.967) scale(11.7044 5.34084)">
<stop stop-color="#FBE07A"/>
<stop offset="0.2654" stop-color="#FCDF73" stop-opacity="0.7346"/>
<stop offset="0.6548" stop-color="#FDDB5F" stop-opacity="0.3452"/>
<stop offset="1" stop-color="#FFD748" stop-opacity="0"/>
</radialGradient>
<radialGradient id="paint23_radial_459_96" cx="0" cy="0" r="1" gradientUnits="userSpaceOnUse" gradientTransform="translate(29.0737 36.7357) rotate(38.2129) scale(9.02489 3.32303)">
<stop stop-color="#FBE07A"/>
<stop offset="0.2654" stop-color="#FCDF73" stop-opacity="0.7346"/>
<stop offset="0.6548" stop-color="#FDDB5F" stop-opacity="0.3452"/>
<stop offset="1" stop-color="#FFD748" stop-opacity="0"/>
</radialGradient>
<radialGradient id="paint24_radial_459_96" cx="0" cy="0" r="1" gradientUnits="userSpaceOnUse" gradientTransform="translate(15.3935 3.35664) rotate(165.356) scale(2.22594 1.30651)">
<stop stop-color="#FBE07A"/>
<stop offset="0.2654" stop-color="#FCDF73" stop-opacity="0.7346"/>
<stop offset="0.6548" stop-color="#FDDB5F" stop-opacity="0.3452"/>
<stop offset="1" stop-color="#FFD748" stop-opacity="0"/>
</radialGradient>
<radialGradient id="paint25_radial_459_96" cx="0" cy="0" r="1" gradientUnits="userSpaceOnUse" gradientTransform="translate(35.0388 2.87756) rotate(-143.703) scale(2.47352 1.31473)">
<stop stop-color="#FBE07A"/>
<stop offset="0.2654" stop-color="#FCDF73" stop-opacity="0.7346"/>
<stop offset="0.6548" stop-color="#FDDB5F" stop-opacity="0.3452"/>
<stop offset="1" stop-color="#FFD748" stop-opacity="0"/>
</radialGradient>
</defs>
</svg>
