<svg width="56" height="62" viewBox="0 0 56 62" fill="none" xmlns="http://www.w3.org/2000/svg">
<path d="M53.57 32.0695C52.1006 30.8013 46.7043 29.434 42.4216 34.3959C40.757 36.3259 39.3955 35.6729 38.5034 34.7808C37.9116 34.189 36.3227 28.5856 37.2469 25.4166L29.3899 25.0405C29.2442 26.3437 28.1742 27.9588 27.7049 27.9938C27.2326 28.0288 26.8507 26.8947 26.7661 25.781C26.6845 24.6674 19.7867 29.7809 19.3698 29.985C19.0958 30.1191 16.3612 30.2561 14.1193 31.1453C9.00571 30.02 4.8105 29.2736 3.42862 29.1599C2.34701 32.7254 2.21582 37.6174 2.21582 40.0955C2.65604 52.9989 7.3527 60.9549 21.0374 61.538C21.4543 61.5584 21.8683 61.5817 22.2823 61.5817C22.4135 61.5817 22.5301 61.5963 22.6613 61.5963C24.3026 61.5963 25.7953 61.3952 27.1714 61.0511C30.766 60.2669 33.9146 58.6576 35.8213 56.4478C40.7395 50.7482 40.9319 47.1448 45.165 42.4598C48.748 38.4949 53.3543 39.1013 55.1006 37.081C56.5699 35.3784 54.398 32.7837 53.57 32.0695Z" fill="url(#paint0_linear_459_369)"/>
<path d="M55.1007 37.0773C55.8996 36.1532 55.6197 34.9637 55.0687 33.955C53.2495 38.0423 48.1622 33.8996 38.626 44.9517C29.0899 56.0039 19.8773 53.6687 16.7374 51.9195C13.5976 50.1702 11.4198 45.5115 9.96214 38.1764C9.51318 35.9258 8.67938 33.2961 7.60653 30.6577C6.06721 31.5906 3.37049 36.2581 4.19846 37.8703C5.99141 41.36 3.43172 51.9807 9.86593 57.5345C17.3118 63.9599 30.909 62.1407 35.8273 56.4412C40.7455 50.7417 40.9379 47.1383 45.171 42.4533C48.7482 38.4913 53.3574 39.1006 55.1007 37.0773Z" fill="url(#paint1_linear_459_369)"/>
<path d="M28.521 26.3933C28.5385 26.0435 28.556 25.6674 28.5706 25.2621C28.8213 18.6676 28.7834 5.37935 29.0837 3.63013C29.4014 1.77596 30.4218 0.40282 33.0835 0.399905C35.7453 0.39699 37.0455 2.89546 36.7336 6.26271C36.4216 9.62996 37.0951 22.2156 37.2992 26.4516C37.614 33.0141 38.6752 43.1887 38.6752 43.1887L28.7921 36.4338L28.521 26.3933Z" fill="url(#paint2_linear_459_369)"/>
<path d="M29.9991 15.2595C29.8096 8.47257 29.5793 3.79049 30.5093 1.09961C29.6901 1.67977 29.2644 2.57187 29.0837 3.63307C28.7834 5.38229 28.8213 18.6676 28.5706 25.2651C28.556 25.6674 28.5385 26.0464 28.521 26.3962L28.6172 29.9063L29.0924 30.9967C29.0895 30.9938 30.2527 24.3992 29.9991 15.2595Z" fill="url(#paint3_linear_459_369)"/>
<path d="M3.05823 9.60035C-0.69676 10.3379 -0.0787006 14.0988 0.647225 17.6759C1.42563 21.5067 3.57133 36.0427 3.57133 36.0427L12.3466 36.5879C12.3466 36.5879 12.574 35.2789 12.2416 33.4072C11.2592 27.8739 8.86855 16.5593 7.97645 13.0551C6.81322 8.4721 3.05823 9.60035 3.05823 9.60035Z" fill="url(#paint4_linear_459_369)"/>
<path d="M12.2445 33.4077C11.262 27.8743 8.87144 16.5598 7.97934 13.0555C7.33796 10.5366 5.91817 9.74656 4.7666 9.54248C7.6878 11.7815 8.93266 23.236 10.5245 28.1221C11.8655 32.2415 12.2708 33.9441 12.3845 34.498C12.3553 34.1598 12.3145 33.8012 12.2445 33.4077Z" fill="url(#paint5_linear_459_369)"/>
<path d="M2.21582 40.0917C2.21582 42.217 3.24495 43.1703 3.75805 43.5143C3.93006 43.628 4.04376 43.6746 4.04376 43.6746L13.6382 50.6978L31.2033 47.0565L29.3229 31.0832C26.6903 30.7421 24.2793 30.503 21.9587 30.3193C21.845 30.3106 20.5068 26.4477 20.396 26.4419C20.2765 26.4332 19.7459 30.0162 19.6293 30.0074C13.8802 29.5759 10.2535 29.7188 3.42862 29.1561C2.34701 32.7216 2.21582 37.6136 2.21582 40.0917Z" fill="url(#paint6_linear_459_369)"/>
<path opacity="0.75" d="M1.93291 14.4018C1.0583 14.2152 1.38482 12.4689 2.12532 11.5914C2.86874 10.7139 4.18066 10.157 5.05527 10.3436C5.92988 10.5302 5.59169 11.6031 5.30598 12.5476C4.8162 14.1773 2.81043 14.5884 1.93291 14.4018Z" fill="url(#paint7_radial_459_369)"/>
<path opacity="0.75" d="M31.5708 1.54777C31.8506 0.6994 33.5532 1.2125 34.3433 2.04629C35.1333 2.88009 35.5444 4.24448 35.2645 5.09577C34.9847 5.94414 33.9526 5.49226 33.0459 5.10452C31.4804 4.4369 31.2909 2.39614 31.5708 1.54777Z" fill="url(#paint8_radial_459_369)"/>
<path opacity="0.75" d="M4.97085 40.5499C3.59772 42.2233 7.77544 51.8644 11.8978 54.2929C16.0201 56.7214 21.189 55.9751 22.1948 54.0451C23.2036 52.1151 18.915 49.1152 15.4108 45.7946C9.3614 40.063 6.3469 38.8764 4.97085 40.5499Z" fill="url(#paint9_radial_459_369)"/>
<path d="M4.52186 45.8124C1.82515 41.0633 4.10496 32.8623 3.59769 31.2531C3.09042 29.6438 3.25951 23.5536 1.90386 18.0523C1.08173 14.7113 0.787275 12.3586 1.38492 10.3091C-0.460501 11.7347 0.058435 14.7638 0.650254 17.6733C1.14587 20.1105 2.19248 26.8654 2.88926 31.4688C2.3091 34.6174 2.2158 38.1158 2.2158 40.0925C2.62687 52.165 6.76669 59.9053 18.501 61.3338C11.303 60.0948 7.04365 50.2583 4.52186 45.8124Z" fill="url(#paint10_linear_459_369)"/>
<path d="M21.2012 61.543C20.8718 61.4935 20.484 61.4643 20.0146 61.4643C19.554 61.4643 19.108 61.4177 18.6707 61.3535C19.4782 61.4439 20.3208 61.508 21.2012 61.543Z" fill="url(#paint11_linear_459_369)"/>
<path d="M55.0684 33.958C54.6049 33.1126 53.9489 32.3954 53.5699 32.0689C52.1006 30.8007 46.7042 29.4334 42.4216 34.3953C40.7569 36.3253 38.0077 36.2116 37.6724 32.2234C37.515 30.2176 37.378 28.2089 37.2964 26.4539C37.0923 22.2149 36.4188 9.63222 36.7308 6.26497C36.9349 4.07553 36.4451 2.26801 35.3518 1.26221C36.2818 4.19215 35.9028 8.53895 36.1739 20.0838C36.3314 26.827 36.3926 29.2322 36.7133 32.2613C37.6695 40.6663 41.2554 38.3457 43.8093 36.2233C46.3631 34.098 48.6051 30.2876 53.3629 33.1009C54.9868 34.0542 55.0976 34.4303 55.0684 33.958Z" fill="url(#paint12_radial_459_369)"/>
<path d="M25.6961 38.1651C29.7689 38.063 30.3461 34.0602 29.5152 25.7485L29.3345 23.9556L20.6438 30.7309L12.1834 32.0078L10.9968 27.4511C10.9648 27.4511 11.0289 27.4511 10.9968 27.4511C10.9968 27.4511 9.30009 40.4857 17.2678 39.684C17.2678 39.684 16.8859 39.7568 17.2678 39.684C20.9441 38.9872 20.9032 33.9349 20.9032 33.9349C20.9032 33.9349 22.1743 38.2554 25.6961 38.1651Z" fill="url(#paint13_linear_459_369)"/>
<path d="M16.746 39.2434C13.6295 39.2434 12.0727 37.7653 11.6383 33.5555C11.2068 29.3457 9.33224 21.7862 15.0522 21.3547C20.1891 20.9669 20.6409 24.6286 20.6409 30.7334C20.6409 36.8382 19.4311 39.2434 16.746 39.2434Z" fill="url(#paint14_linear_459_369)"/>
<path d="M16.338 32.7456C13.959 34.2179 12.3585 34.247 11.3381 32.2384C11.3615 32.4658 11.3877 32.6931 11.4052 32.906C11.8367 37.693 13.3964 39.3723 16.5129 39.3723C18.7053 39.3723 19.9151 37.5443 20.2825 33.0926C19.6703 31.8011 17.7403 31.8798 16.338 32.7456Z" fill="url(#paint15_linear_459_369)"/>
<path d="M16.3143 34.5472C13.7576 34.5472 12.606 32.8942 12.1745 29.5036C11.953 27.7602 10.4982 21.6788 15.1919 21.3494C19.6903 21.0345 19.6933 25.0723 19.7865 28.4978C19.9207 33.4306 18.5154 34.5472 16.3143 34.5472Z" fill="url(#paint16_linear_459_369)"/>
<path d="M14.8887 38.9933C15.4368 39.1566 16.0461 39.244 16.7487 39.244C19.4308 39.244 20.6436 36.8388 20.6436 30.7341C20.6436 24.8509 20.285 21.2212 15.6146 21.3408C17.5475 22.5885 19.1276 25.4223 19.1276 30.5504C19.1247 37.8417 17.6087 38.9787 14.8887 38.9933Z" fill="url(#paint17_linear_459_369)"/>
<path d="M17.6352 21.583C18.3466 21.8017 18.9821 22.2652 19.4078 22.8833C19.8393 23.4984 20.1046 24.2127 20.2737 24.9386C20.6031 26.3992 20.6731 27.8948 20.7168 29.3787C20.7314 30.8655 20.813 32.3494 20.6906 33.845C20.5419 35.3202 20.2503 36.8624 19.3174 38.1073C18.4078 39.428 16.5828 39.7545 15.1455 39.3609C14.3992 39.1831 13.6937 38.8041 13.1572 38.2502C12.6092 37.705 12.2477 37.014 11.9794 36.3114C11.4576 34.8917 11.306 33.3815 11.2244 31.9034C11.1252 30.4224 10.9853 28.9414 10.994 27.4516C11.2244 28.9239 11.306 30.4049 11.4284 31.8859C11.5305 33.364 11.7025 34.8479 12.2272 36.2152C12.7229 37.5767 13.7753 38.7749 15.2155 39.0694C16.6003 39.428 18.2271 39.1248 19.0638 37.912C19.95 36.7721 20.2707 35.2677 20.4311 33.8217C20.571 32.3582 20.5156 30.8626 20.5185 29.3845C20.4981 27.9035 20.4457 26.4138 20.1425 24.9677C19.9967 24.2447 19.7547 23.5363 19.3495 22.9182C18.9559 22.3031 18.3408 21.825 17.6352 21.583Z" fill="#975500"/>
<path d="M25.7894 37.506C22.8128 37.3894 20.9294 35.4507 20.874 31.3021C20.8274 27.8037 19.1481 20.1304 24.6203 19.9468C29.8679 19.7689 29.8767 23.3548 29.7222 29.3284C29.5706 35.2991 28.352 37.608 25.7894 37.506Z" fill="url(#paint18_linear_459_369)"/>
<path d="M25.5618 31.0572C23.2528 32.3983 21.7223 32.3691 20.801 30.3809C20.8185 30.6024 20.836 30.824 20.8506 31.031C21.145 35.6956 22.5911 37.3836 25.5676 37.5002C27.6609 37.5818 29.1361 35.8996 29.5996 31.5907C29.0428 30.3109 26.9233 30.2672 25.5618 31.0572Z" fill="url(#paint19_linear_459_369)"/>
<path d="M25.3494 31.399C22.9092 31.3028 21.9967 31.0638 21.6673 27.7548C21.4982 26.0552 20.2621 20.0933 24.7517 19.9475C29.0577 19.8076 28.9586 23.7287 28.9615 27.061C28.9674 31.8568 27.4514 31.4807 25.3494 31.399Z" fill="url(#paint20_linear_459_369)"/>
<path d="M24.0198 37.1936C24.5387 37.3744 25.1189 37.4823 25.7894 37.5085C28.352 37.6076 29.5706 35.3016 29.7222 29.3309C29.8709 23.576 29.8534 20.0484 25.1538 19.958C26.9701 21.2495 28.4045 24.0803 28.2762 29.0948C28.0955 36.2228 26.6203 37.2811 24.0198 37.1936Z" fill="url(#paint21_linear_459_369)"/>
<path d="M27.0837 20.2651C27.7513 20.5013 28.3839 20.8978 28.8183 21.4779C29.2585 22.0523 29.4947 22.7519 29.6375 23.4516C29.897 24.8656 29.8708 26.2999 29.8678 27.7226C29.8474 29.1453 29.8329 30.571 29.6929 31.9966C29.5355 33.4076 29.3314 34.8682 28.5909 36.1539C28.2207 36.7865 27.6113 37.3229 26.8825 37.5241C26.1508 37.7369 25.4102 37.6465 24.7018 37.5212C23.9905 37.3783 23.2937 37.0839 22.731 36.6116C22.1625 36.1422 21.7486 35.5154 21.4774 34.8478C20.9381 33.5009 20.8185 32.0432 20.7748 30.6293L20.6086 26.3641L20.9206 30.6205C20.9964 32.0345 21.1276 33.4659 21.6698 34.7662C22.1829 36.081 23.3695 37.0431 24.7543 37.2617C25.4365 37.3754 26.1595 37.4454 26.8009 37.2471C27.451 37.0576 27.9816 36.5854 28.3198 35.9906C29.0253 34.8041 29.2614 33.3639 29.4305 31.9732C29.5909 30.568 29.623 29.1453 29.6609 27.7256C29.6871 26.3087 29.7221 24.8772 29.4918 23.4866C29.3781 22.7957 29.1711 22.1047 28.7629 21.5304C28.3519 20.9444 27.7425 20.5275 27.0837 20.2651Z" fill="#975500"/>
<path d="M29.8182 28.6C29.8182 28.6 29.7745 28.5913 29.7482 28.5854C30.1506 34.973 29.273 38.075 25.693 38.1653C22.1712 38.2528 20.9001 33.9381 20.9001 33.9381C20.9001 33.9381 20.9409 38.9904 17.2647 39.6872C17.2647 39.6872 17.2034 39.6988 17.1568 39.7076C17.0897 39.7192 17.1043 39.7163 17.1568 39.7076C17.183 39.7017 17.2005 39.6988 17.2647 39.6872C14.3435 39.9816 12.7313 38.4102 11.8479 36.3083C12.7254 38.7659 14.3347 40.1303 16.5183 40.1303C19.8243 40.1303 20.6231 37.2499 21.2995 37.2499C21.9759 37.2499 24.6464 39.244 26.0399 39.244C30.6637 39.244 29.9873 31.7428 29.8182 28.6Z" fill="url(#paint22_linear_459_369)"/>
<defs>
<linearGradient id="paint0_linear_459_369" x1="4.13135" y1="43.3159" x2="39.8272" y2="43.3159" gradientUnits="userSpaceOnUse">
<stop offset="0.00132565" stop-color="#FFCB4B"/>
<stop offset="1" stop-color="#FFD748"/>
</linearGradient>
<linearGradient id="paint1_linear_459_369" x1="29.493" y1="59.3012" x2="29.8737" y2="32.6025" gradientUnits="userSpaceOnUse">
<stop offset="0.00132565" stop-color="#FFCB4B"/>
<stop offset="1" stop-color="#FFD748"/>
</linearGradient>
<linearGradient id="paint2_linear_459_369" x1="41.6606" y1="68.4586" x2="36.1629" y2="38.739" gradientUnits="userSpaceOnUse">
<stop offset="0.00132565" stop-color="#FFBA47"/>
<stop offset="1" stop-color="#FFD748"/>
</linearGradient>
<linearGradient id="paint3_linear_459_369" x1="29.5145" y1="-4.52592" x2="29.5145" y2="45.5937" gradientUnits="userSpaceOnUse">
<stop stop-color="#FFBC47" stop-opacity="0"/>
<stop offset="1" stop-color="#FFBC47"/>
</linearGradient>
<linearGradient id="paint4_linear_459_369" x1="5.39918" y1="30.2312" x2="7.5148" y2="16.3527" gradientUnits="userSpaceOnUse">
<stop offset="0.00132565" stop-color="#FFCB4B"/>
<stop offset="1" stop-color="#FFD748"/>
</linearGradient>
<linearGradient id="paint5_linear_459_369" x1="7.10403" y1="8.41682" x2="9.21966" y2="27.9652" gradientUnits="userSpaceOnUse">
<stop stop-color="#FFBC47" stop-opacity="0"/>
<stop offset="1" stop-color="#FFBC47"/>
</linearGradient>
<linearGradient id="paint6_linear_459_369" x1="3.31017" y1="38.57" x2="39.3993" y2="38.57" gradientUnits="userSpaceOnUse">
<stop offset="0.00132565" stop-color="#FFCB4B"/>
<stop offset="1" stop-color="#FFD748"/>
</linearGradient>
<radialGradient id="paint7_radial_459_369" cx="0" cy="0" r="1" gradientUnits="userSpaceOnUse" gradientTransform="translate(3.58513 12.3966) rotate(130.273) scale(2.60698 1.38006)">
<stop stop-color="#FBE07A"/>
<stop offset="0.2654" stop-color="#FCDF73" stop-opacity="0.7346"/>
<stop offset="0.6548" stop-color="#FDDB5F" stop-opacity="0.3452"/>
<stop offset="1" stop-color="#FFD748" stop-opacity="0"/>
</radialGradient>
<radialGradient id="paint8_radial_459_369" cx="0" cy="0" r="1" gradientUnits="userSpaceOnUse" gradientTransform="translate(33.3772 3.35736) rotate(-133.437) scale(2.60762 1.38036)">
<stop stop-color="#FBE07A"/>
<stop offset="0.2654" stop-color="#FCDF73" stop-opacity="0.7346"/>
<stop offset="0.6548" stop-color="#FDDB5F" stop-opacity="0.3452"/>
<stop offset="1" stop-color="#FFD748" stop-opacity="0"/>
</radialGradient>
<radialGradient id="paint9_radial_459_369" cx="0" cy="0" r="1" gradientUnits="userSpaceOnUse" gradientTransform="translate(13.122 48.8515) rotate(-138.629) scale(12.0693 5.5155)">
<stop stop-color="#FBE07A"/>
<stop offset="0.2654" stop-color="#FCDF73" stop-opacity="0.7346"/>
<stop offset="0.6548" stop-color="#FDDB5F" stop-opacity="0.3452"/>
<stop offset="1" stop-color="#FFD748" stop-opacity="0"/>
</radialGradient>
<linearGradient id="paint10_linear_459_369" x1="30.8354" y1="35.542" x2="-91.2471" y2="37.1745" gradientUnits="userSpaceOnUse">
<stop stop-color="#FFBC47" stop-opacity="0"/>
<stop offset="1" stop-color="#C86F34"/>
</linearGradient>
<linearGradient id="paint11_linear_459_369" x1="33.9994" y1="6.74814" x2="-4.16646" y2="155.18" gradientUnits="userSpaceOnUse">
<stop stop-color="#FFBC47" stop-opacity="0"/>
<stop offset="1" stop-color="#C86F34"/>
</linearGradient>
<radialGradient id="paint12_radial_459_369" cx="0" cy="0" r="1" gradientUnits="userSpaceOnUse" gradientTransform="translate(52.2032 5.58007) scale(62.9177 62.9177)">
<stop stop-color="#FFBC47" stop-opacity="0"/>
<stop offset="1" stop-color="#FFA754"/>
</radialGradient>
<linearGradient id="paint13_linear_459_369" x1="17.6375" y1="53.5249" x2="21.6499" y2="19.5063" gradientUnits="userSpaceOnUse">
<stop stop-color="#A1541E" stop-opacity="0"/>
<stop offset="1" stop-color="#C86F34"/>
</linearGradient>
<linearGradient id="paint14_linear_459_369" x1="15.8213" y1="29.8085" x2="15.8213" y2="46.9467" gradientUnits="userSpaceOnUse">
<stop offset="0.00132565" stop-color="#FFCB4B"/>
<stop offset="1" stop-color="#FFD748"/>
</linearGradient>
<linearGradient id="paint15_linear_459_369" x1="15.8103" y1="28.159" x2="15.8103" y2="53.9785" gradientUnits="userSpaceOnUse">
<stop stop-color="#FFBC47" stop-opacity="0"/>
<stop offset="1" stop-color="#C86F34"/>
</linearGradient>
<linearGradient id="paint16_linear_459_369" x1="15.7904" y1="33.8099" x2="15.7904" y2="18.8521" gradientUnits="userSpaceOnUse">
<stop offset="0.00132565" stop-color="#FFCB4B"/>
<stop offset="1" stop-color="#FFD748"/>
</linearGradient>
<linearGradient id="paint17_linear_459_369" x1="9.23973" y1="26.2646" x2="50.5077" y2="49.7082" gradientUnits="userSpaceOnUse">
<stop stop-color="#FFBC47" stop-opacity="0"/>
<stop offset="1" stop-color="#C86F34"/>
</linearGradient>
<linearGradient id="paint18_linear_459_369" x1="25.1366" y1="28.2474" x2="24.6031" y2="45.0122" gradientUnits="userSpaceOnUse">
<stop offset="0.00132565" stop-color="#FFCB4B"/>
<stop offset="1" stop-color="#FFD748"/>
</linearGradient>
<linearGradient id="paint19_linear_459_369" x1="25.3374" y1="26.639" x2="24.543" y2="51.6018" gradientUnits="userSpaceOnUse">
<stop stop-color="#FFBC47" stop-opacity="0"/>
<stop offset="1" stop-color="#C86F34"/>
</linearGradient>
<linearGradient id="paint20_linear_459_369" x1="25.0183" y1="30.76" x2="25.4305" y2="17.8061" gradientUnits="userSpaceOnUse">
<stop offset="0.00132565" stop-color="#FFCB4B"/>
<stop offset="1" stop-color="#FFD748"/>
</linearGradient>
<linearGradient id="paint21_linear_459_369" x1="18.5786" y1="24.566" x2="58.5414" y2="49.8182" gradientUnits="userSpaceOnUse">
<stop stop-color="#FFBC47" stop-opacity="0"/>
<stop offset="1" stop-color="#C86F34"/>
</linearGradient>
<linearGradient id="paint22_linear_459_369" x1="17.4618" y1="58.5179" x2="27.7619" y2="-12.0846" gradientUnits="userSpaceOnUse">
<stop stop-color="#FFBC47" stop-opacity="0"/>
<stop offset="1" stop-color="#C86F34"/>
</linearGradient>
</defs>
</svg>
