<svg width="53" height="58" viewBox="0 0 53 58" fill="none" xmlns="http://www.w3.org/2000/svg">
<path d="M26.8135 0.200195C24.5836 0.200195 23.7358 1.985 23.9084 5.44271C24.023 7.72207 24.7907 14.0766 21.5736 17.2968C18.5733 20.2986 17.7006 20.032 14.282 23.9083C10.8646 27.7832 8.0162 26.9861 4.02865 26.6435C-0.980635 26.2139 0.725948 54.0248 4.25647 53.5427C6.7625 53.2001 12.4594 52.5163 13.3707 52.5163C14.282 52.5163 20.5311 57.3595 26.0168 57.4176C34.9018 57.5101 39.802 55.9353 39.802 55.9353L42.406 50.0255L43.2773 32.0062L39.1171 23.3377C39.1171 23.3377 33.5349 24.2495 31.9401 21.7422C30.3454 19.2349 33.1938 16.1571 33.1938 8.97641C33.1938 1.79574 27.9526 0.200195 26.8135 0.200195Z" fill="url(#paint0_linear_464_172)"/>
<path d="M40.1127 55.883L39.7744 54.6493C38.7734 54.543 37.4852 54.9989 35.7261 54.985C27.3244 54.9201 19.2926 52.5068 15.8463 49.7771C13.5888 47.9895 12.5989 45.6107 11.0041 46.2945C9.03657 47.1386 3.45427 48.4509 1.40112 45.8511C1.97551 50.2993 3.00001 53.7141 4.25648 53.5428C6.7625 53.2002 12.4594 52.5164 13.3707 52.5164C14.282 52.5164 20.3572 57.2326 26.0168 57.4177C33.3388 57.6567 39.8421 56.3955 39.8421 56.3955L40.1127 55.883Z" fill="url(#paint1_linear_464_172)"/>
<path d="M7.5867 28.3993C10.8908 29.3111 12.9895 27.8026 14.6781 25.7498C16.3557 23.7108 17.811 21.9025 22.0264 19.1672C26.2417 16.432 25.7005 8.90873 25.3581 6.40144C25.0157 3.89414 25.2435 0.200195 26.8134 0.200195C24.5835 0.200195 23.7357 1.985 23.9083 5.44272C24.0229 7.72208 24.7906 14.0767 21.5735 17.2968C18.5732 20.2986 17.7005 20.032 14.2819 23.9083C10.8646 27.7832 8.01611 26.9861 4.02856 26.6435C4.02995 27.5083 4.28262 27.4876 7.5867 28.3993Z" fill="url(#paint2_linear_464_172)"/>
<path d="M31.9402 21.7422C30.3454 19.2349 33.1939 16.1571 33.1939 8.97641C33.1939 1.79574 27.954 0.200195 26.8135 0.200195C26.5139 0.200195 26.2474 0.23335 26.0085 0.296895C30.6561 0.588377 33.4548 6.45254 31.8532 12.4991C30.5539 17.4059 29.9063 21.3402 32.0285 23.6472C33.401 25.1405 36.1307 24.8863 39.1186 23.3377C39.1172 23.3377 33.5349 24.2495 31.9402 21.7422Z" fill="url(#paint3_linear_464_172)"/>
<path d="M32.2535 24.3008C29.5197 25.2125 22.6146 27.3579 17.3844 32.1031C4.12942 44.1284 26.7596 45.6356 31.4334 55.9203C32.3267 57.8861 37.5486 45.6107 37.5486 45.6107L39.2373 42.7677L34.3578 29.7671L32.2535 24.3008Z" fill="url(#paint4_linear_464_172)"/>
<path d="M32.6553 25.3423C29.9214 26.254 18.7527 33.4126 18.7527 36.9477C18.7527 47.1496 26.4875 42.1142 30.6684 54.152C31.2469 55.8194 33.2918 57.2216 33.2918 57.2216C34.9859 55.8387 37.55 45.6106 37.55 45.6106L39.2386 42.7677L34.3591 29.767L32.6553 25.3423Z" fill="url(#paint5_linear_464_172)"/>
<path d="M38.9652 56.6105L44.1982 50.6248L45.3511 25.6195L32.2521 24.2988C29.2448 25.9179 28.8969 28.1323 30.0139 31.6881C30.4834 33.1842 28.5738 33.6124 28.4509 37.9709C28.3653 40.992 30.3425 41.0059 30.3425 41.9038C30.3425 42.8017 29.3581 42.7216 29.0308 45.3228C28.5641 49.0444 31.6791 49.1162 31.6791 49.9119C31.6791 50.7077 29.949 51.1801 30.0553 54.2137C30.1906 58.061 23.0495 57.2833 18.2211 53.7827C16.2384 52.3447 14.5083 52.1968 13.158 52.5229C13.2422 52.5187 13.314 52.5159 13.3678 52.5159C14.2791 52.5159 20.3999 57.4173 26.0139 57.4173C32.5793 57.4173 37.1191 57.0332 38.9652 56.6105Z" fill="url(#paint6_linear_464_172)"/>
<path d="M40.1692 25.9487C36.125 25.9487 33.9034 29.9024 35.4416 32.9401C36.9797 35.9779 32.5931 39.9993 33.0488 41.9788C33.5044 43.9584 34.3025 48.9689 34.9279 49.7977C35.5548 50.6266 33.902 52.5067 33.902 52.5067L39.0287 53.1339L43.8129 51.0231L43.6417 36.5498L44.154 27.4876L40.1692 25.9487Z" fill="url(#paint7_linear_464_172)"/>
<path d="M14.282 23.908C12.0618 26.4249 10.0818 26.9706 7.87402 26.9499C8.51054 27.9777 8.95375 29.1008 8.90819 30.199C8.78807 33.0779 9.42182 36.6268 9.90646 32.9357C10.2751 30.1244 12.1805 26.6501 14.4725 23.6938C14.4104 23.7643 14.3483 23.8334 14.282 23.908Z" fill="url(#paint8_linear_464_172)"/>
<path d="M43.2331 23.2245C38.4516 23.0422 29.8552 22.7714 29.6632 27.7833C29.5252 31.4178 32.1016 32.61 36.0864 32.762C40.0712 32.9139 42.0636 32.9899 43.7136 33.0521C45.3636 33.1142 50.5551 33.0838 50.6062 28.695C50.6697 23.2121 43.2331 23.2245 43.2331 23.2245Z" fill="url(#paint9_linear_464_172)"/>
<path d="M35.3683 41.3419C34.087 41.3046 30.2803 42.2647 29.9241 44.6836C29.6438 46.5858 30.6145 49.0434 33.9268 49.6236C38.1229 50.3585 45.1149 50.7439 47.7272 49.7659C48.8939 49.3293 49.9115 48.1068 49.9654 46.2543C50.0192 44.4017 48.644 41.9055 45.6547 41.8185C42.6655 41.7328 41.108 41.7784 39.4042 41.5767C37.3552 41.3363 36.3928 41.3723 35.3683 41.3419Z" fill="url(#paint10_linear_464_172)"/>
<path d="M34.0334 49.7964C32.5808 49.7964 30.7859 51.0784 30.7859 53.2154C30.7859 55.3525 31.3409 56.9343 34.46 57.5324C37.5791 58.1306 42.5773 57.6181 44.4565 57.0199C45.9215 56.553 46.4641 55.1826 46.4641 52.9171C46.4641 50.6515 45.0557 50.255 43.5176 50.255C41.9795 50.255 40.1127 50.5355 39.0468 50.4802C36.0699 50.3227 35.4859 49.7964 34.0334 49.7964Z" fill="url(#paint11_linear_464_172)"/>
<path d="M42.8259 24.2359C38.6506 24.0771 31.1435 23.8353 30.993 27.7972C30.884 30.6706 33.1373 31.621 36.6168 31.7536C40.0962 31.8862 49.2504 32.0534 49.2808 28.5846C49.3181 24.2497 42.8259 24.2359 42.8259 24.2359Z" fill="url(#paint12_linear_464_172)"/>
<path d="M35.7537 42.3641C34.6381 42.3324 31.5149 42.5976 31.2153 44.9088C31.0123 46.4725 31.8228 48.4812 34.7072 48.9605C38.362 49.5683 44.4482 49.8944 46.7223 49.0973C47.7371 48.7409 48.6222 47.7421 48.665 46.2239C48.7091 44.7057 47.3105 42.8449 44.7092 42.7689C42.1079 42.6929 40.723 42.9347 39.2387 42.7662C37.4548 42.5658 36.6457 42.389 35.7537 42.3641Z" fill="url(#paint13_linear_464_172)"/>
<path d="M34.6546 50.5752C33.3981 50.5752 31.8462 51.6071 31.8462 53.3284C31.8462 55.0497 32.3267 56.3233 35.0246 56.8041C37.7226 57.2848 42.0457 56.8732 43.6722 56.391C44.9383 56.0153 45.4091 54.9115 45.4091 53.0866C45.4091 51.2618 44.1899 50.944 42.8589 50.944C41.5279 50.944 39.9138 51.1706 38.9915 51.125C36.415 50.9993 35.9097 50.5752 34.6546 50.5752Z" fill="url(#paint14_linear_464_172)"/>
<path d="M33.8884 27.7994C33.992 25.0697 36.168 23.7615 38.9171 23.1592C34.5291 23.2614 29.8042 24.082 29.662 27.7828C29.524 31.4174 32.1004 32.6096 36.0852 32.7615C36.5243 32.7781 36.9371 32.7947 37.3292 32.8085C35.0924 32.1537 33.7794 30.6769 33.8884 27.7994Z" fill="url(#paint15_linear_464_172)"/>
<path d="M34.2638 23.6528C31.7108 24.2109 29.753 25.4183 29.6632 27.782C29.5486 30.8032 31.3118 32.1362 34.1989 32.588C28.3419 30.2492 30.4433 24.4886 34.2638 23.6528Z" fill="url(#paint16_linear_464_172)"/>
<path d="M27.4652 52.37C26.79 53.9213 23.577 54.0194 20.2881 52.5869C16.9992 51.1557 14.8812 48.7369 15.5563 47.1841C16.2315 45.6328 19.4445 45.5347 22.7334 46.9672C26.0209 48.3998 28.1403 50.8187 27.4652 52.37Z" fill="url(#paint17_radial_464_172)"/>
<path d="M46.8148 28.5319C46.7817 30.629 43.9788 31.6236 40.9122 31.8101C38.4048 31.962 35.6212 30.1869 35.693 28.1382C35.7648 26.0896 36.1293 24.2744 41.3402 24.4553C44.4109 24.5617 46.8466 26.4833 46.8148 28.5319Z" fill="url(#paint18_radial_464_172)"/>
<path d="M47.3712 46.9656C47.3532 49.8694 44.1624 49.3126 41.0958 49.5143C37.2076 49.7713 34.6298 48.5598 34.6284 46.5097C34.6257 44.4597 36.1044 42.9663 41.3194 42.9581C44.3916 42.9539 47.3933 43.2357 47.3712 46.9656Z" fill="url(#paint19_radial_464_172)"/>
<path d="M44.56 54.2874C44.5448 56.763 41.6453 57.1 38.8977 57.1014C36.15 57.1042 33.1676 55.6468 33.1663 53.8993C33.1649 52.1517 34.4862 50.8781 39.149 50.8711C41.8952 50.867 44.5794 51.1074 44.56 54.2874Z" fill="url(#paint20_radial_464_172)"/>
<path d="M33.4892 45.2724C33.9255 41.9666 36.4606 42.16 39.367 41.8174C36.0215 41.5674 34.6173 41.5314 34.6173 41.5314C34.3052 41.501 33.9559 41.4997 33.5928 41.537C32.5061 41.776 31.2745 42.2705 30.5427 43.1988C30.2942 43.5525 30.0926 43.9697 29.9601 44.4642C29.9463 44.536 29.9325 44.6093 29.9242 44.6839C29.6881 46.593 30.6145 49.0437 33.9269 49.6239C34.4047 49.7081 34.9197 49.7869 35.4595 49.8601C35.7177 49.8933 35.9994 49.9278 36.3018 49.9665C36.3832 49.9761 36.4647 49.9858 36.5475 49.9955C34.7195 49.1321 33.1675 47.7023 33.4892 45.2724Z" fill="url(#paint21_linear_464_172)"/>
<path d="M34.2984 41.5106C34.0734 41.5037 33.8345 41.512 33.5901 41.5369C32.4938 41.7786 31.2512 42.2801 30.5235 43.2236C30.2833 43.5717 30.09 43.9834 29.9602 44.4655C29.9464 44.5374 29.9367 44.6092 29.9243 44.6838C29.5888 46.5639 30.5194 48.7798 33.4134 49.5133C28.4759 46.7891 30.5829 41.5134 34.2984 41.5106Z" fill="url(#paint22_linear_464_172)"/>
<path d="M37.173 50.3005C35.7136 50.0864 35.1143 49.7949 34.0346 49.7949C32.5821 49.7949 30.7871 51.0769 30.7871 53.214C30.7871 53.9903 30.8617 54.6921 31.1033 55.3013C31.3491 55.8041 31.7067 56.2752 32.1968 56.6731C32.7353 57.0488 33.4671 57.3403 34.4599 57.5309C35.1268 57.6594 35.8806 57.7354 36.6704 57.7727C35.1461 56.8872 32.5641 56.4106 33.1054 53.446C33.7032 50.1721 35.657 50.6141 37.173 50.3005Z" fill="url(#paint23_linear_464_172)"/>
<path d="M33.9697 49.7974C32.5296 49.8347 30.7871 51.1097 30.7871 53.215C30.7871 55.1725 31.2552 56.6644 33.7322 57.3607C29.8634 54.8741 31.1047 50.6787 33.9697 49.7974Z" fill="url(#paint24_linear_464_172)"/>
<path d="M50.6063 28.6946C50.6118 28.2028 50.5566 27.7566 50.453 27.3491C50.8383 29.0621 49.3126 30.764 45.2684 31.5901C42.5884 32.1372 35.4707 32.821 30.5457 30.8649C31.6088 32.1496 33.5653 32.6635 36.0865 32.7602C40.0713 32.9122 42.0637 32.9882 43.7137 33.0503C45.3637 33.1152 50.5538 33.0835 50.6063 28.6946Z" fill="url(#paint25_linear_464_172)"/>
<path d="M49.9654 46.1382C49.9599 44.2981 48.5806 41.9041 45.6534 41.8198C42.6641 41.7342 41.1067 41.7797 39.4028 41.5781C37.3552 41.3363 36.3928 41.3722 35.3683 41.3432C34.5937 41.3211 32.6828 41.5546 31.3835 42.3627C32.8444 42.8697 35.2247 43.6323 38.5744 43.4181C46.6006 42.9015 48.8843 43.8726 49.9654 46.1382Z" fill="url(#paint26_linear_464_172)"/>
<path d="M33.6467 33.0507C31.9388 33.0161 29.2256 34.0218 29.1552 37.5707C29.0848 41.1182 32.1873 41.9636 33.5542 41.9912C34.9212 42.0189 39.6999 42.3449 45.5942 42.4623C51.4885 42.5797 52.2783 39.4149 52.3114 37.7572C52.3446 36.0981 51.2938 33.099 47.7481 33.0272C37.4962 32.8213 33.6467 33.0507 33.6467 33.0507Z" fill="url(#paint27_linear_464_172)"/>
<path d="M34.5636 34.0798C33.0779 34.0508 30.7224 34.8216 30.6686 37.5582C30.6133 40.2962 33.3127 40.9538 34.5001 40.9773C35.6889 41.0008 39.8435 41.2619 44.9674 41.3641C50.0913 41.4663 50.772 39.0267 50.7968 37.7461C50.8231 36.4669 50.6463 34.1516 47.5632 34.0895C38.6533 33.9127 34.5636 34.0798 34.5636 34.0798Z" fill="url(#paint28_linear_464_172)"/>
<path d="M32.8211 37.2277C32.9923 33.5849 35.5342 33.5739 38.4033 32.9453C35.0482 32.966 33.6467 33.0489 33.6467 33.0489C31.9388 33.0144 29.2256 34.0201 29.1552 37.569C29.0848 41.1165 32.1873 41.9619 33.5542 41.9895C34.0472 41.9992 34.9847 42.0475 36.2549 42.1111C34.3606 41.3306 32.6954 39.9077 32.8211 37.2277Z" fill="url(#paint29_linear_464_172)"/>
<path d="M49.3097 37.6053C49.4284 40.5063 46.2072 41.052 43.1378 41.1984C40.0685 41.3449 36.6567 39.7935 36.5587 37.7463C36.4606 35.699 37.8676 34.138 43.0757 33.8852C46.1451 33.7374 49.1578 33.8783 49.3097 37.6053Z" fill="url(#paint30_radial_464_172)"/>
<path d="M33.3278 33.0562C31.6212 33.1473 29.2215 34.2359 29.1553 37.5693C29.0876 40.9427 31.8877 41.8724 33.3389 41.9788C27.7234 39.7119 29.564 33.3905 33.3278 33.0562Z" fill="url(#paint31_linear_464_172)"/>
<path d="M52.3018 37.3979C51.5618 42.6473 37.6896 41.6859 30.1936 40.5586C31.2057 41.643 32.7107 41.9718 33.5543 41.9898C34.9212 42.0174 39.6999 42.3434 45.5943 42.4608C51.4886 42.5783 52.2784 39.4134 52.3115 37.7557C52.3129 37.6425 52.3101 37.5223 52.3018 37.3979Z" fill="url(#paint32_linear_464_172)"/>
<path d="M45.3526 49.0873C42.6657 49.2061 35.5563 50.0902 30.373 47.3122C30.9516 48.3869 32.0713 49.3001 33.9257 49.6247C38.1217 50.3596 45.1137 50.745 47.7261 49.767C48.8928 49.3304 49.9104 48.1079 49.9642 46.2554C49.7917 47.8661 48.2577 48.9588 45.3526 49.0873Z" fill="url(#paint33_linear_464_172)"/>
<path d="M46.2582 54.9214C44.4977 56.2614 41.4546 57.0529 37.0639 56.3111C34.3521 55.8525 32.4937 55.6964 31.2717 55.6632C31.7605 56.5473 32.7035 57.1966 34.4598 57.5337C37.5789 58.1318 42.5771 57.6193 44.4563 57.0211C45.4215 56.7117 45.9848 56.0099 46.2582 54.9214Z" fill="url(#paint34_linear_464_172)"/>
<path d="M31.363 51.2925C34.616 50.1072 36.2108 51.8658 39.6916 51.8658C43.3064 51.8658 45.0295 50.4056 46.3136 51.7939C45.9104 50.5134 44.7561 50.255 43.5176 50.255C41.9795 50.255 40.1127 50.5355 39.0454 50.4802C36.0686 50.3241 35.4859 49.7964 34.0334 49.7964C33.0931 49.7964 32.0106 50.3338 31.363 51.2925Z" fill="url(#paint35_linear_464_172)"/>
<path d="M4.25777 53.5428C6.76379 53.2002 12.4607 52.5164 13.372 52.5164C5.10968 46.608 8.7838 34.0411 11.8311 27.6852C12.2591 26.7928 12.5228 26.0606 12.665 25.439C9.916 27.536 7.3727 26.9309 4.02857 26.6436C-0.980724 26.2139 0.727239 54.0249 4.25777 53.5428Z" fill="url(#paint36_linear_464_172)"/>
<path d="M9.46741 47.8329C8.61274 46.6932 9.35281 49.1439 10.0377 50.9108C10.6189 52.4138 6.16056 51.5255 2.74878 51.8944C3.19476 52.9954 3.70424 53.6184 4.25792 53.5424C6.76394 53.1998 12.4608 52.516 13.3721 52.516C12.0867 51.4233 10.3207 48.9726 9.46741 47.8329Z" fill="url(#paint37_linear_464_172)"/>
<path d="M13.3707 52.5181C12.6624 51.9144 11.8077 50.8977 11.0387 49.9155C11.0387 49.9155 6.89094 52.0387 2.4436 51.04C2.95585 52.6645 3.57166 53.637 4.2565 53.5431C6.76391 53.2019 12.4594 52.5181 13.3707 52.5181Z" fill="url(#paint38_linear_464_172)"/>
<path d="M29.0823 10.901C27.4586 11.2519 26.1428 9.00846 25.3999 6.39065C24.7924 4.24944 25.6181 1.5225 27.2128 1.21582C28.8076 0.907765 30.2794 0.893947 31.1589 5.43194C31.6753 8.10501 30.6702 10.5584 29.0823 10.901Z" fill="url(#paint39_radial_464_172)"/>
<path d="M33.9699 49.7974C33.0765 49.8914 32.2674 50.3707 31.711 51.0297C31.1463 51.6941 30.8826 52.5617 30.9405 53.4334C30.9461 54.3106 31.0786 55.2071 31.5757 55.9172C32.0686 56.6341 32.897 57.061 33.7324 57.3608C32.8708 57.166 31.9692 56.8096 31.392 56.0539C30.8066 55.3066 30.6713 54.3327 30.6423 53.4389C30.6036 52.5244 30.895 51.5518 31.5398 50.8777C32.1653 50.1967 33.0683 49.7795 33.9699 49.7974Z" fill="#804B24"/>
<path d="M32.5366 41.8457C31.9484 42.1013 31.4057 42.4508 30.957 42.8859C30.5 43.3155 30.257 43.904 30.0899 44.5008L30.0913 44.4911C29.8759 45.5797 30.0581 46.7387 30.6974 47.6436C31.3215 48.5608 32.335 49.1604 33.4119 49.5113C32.3032 49.2971 31.1862 48.757 30.4848 47.7941C30.1382 47.3203 29.898 46.7663 29.782 46.1875C29.6646 45.6087 29.7185 45.0037 29.8262 44.4386L29.8289 44.429C30.0043 43.8018 30.3163 43.1733 30.8313 42.7492C31.3243 42.3113 31.929 42.0419 32.5366 41.8457Z" fill="#804B24"/>
<path d="M33.3277 33.0547C32.2714 33.1749 31.2497 33.6142 30.522 34.3532C29.7916 35.0923 29.3968 36.1104 29.3332 37.1478C29.2269 38.1811 29.394 39.26 29.9849 40.1179C30.5676 40.9785 31.5203 41.556 32.5393 41.8543C31.4955 41.6637 30.4572 41.1484 29.7972 40.2519C29.1234 39.3623 28.9453 38.1977 29.035 37.123C29.1234 36.0427 29.5473 34.9403 30.3619 34.1902C31.1682 33.4318 32.2631 33.0657 33.3277 33.0547Z" fill="#804B24"/>
<path d="M34.264 23.6528C33.1346 23.9623 32.0121 24.3891 31.1215 25.1227C30.224 25.8521 29.738 26.978 29.8126 28.1315C29.7974 29.2767 30.1716 30.4454 31.0414 31.2038C31.8988 31.9718 33.0559 32.3448 34.1978 32.588C33.0393 32.4512 31.834 32.1611 30.8909 31.3764C29.9258 30.6028 29.5157 29.3209 29.5143 28.1342C29.4522 26.9282 29.9948 25.6656 30.9779 24.9445C31.9417 24.2054 33.1111 23.8573 34.264 23.6528Z" fill="#804B24"/>
<path d="M30.3743 47.311C31.1516 48.6579 32.6456 49.3555 34.1216 49.5545C35.6238 49.7865 37.1371 49.9454 38.6545 50.0421C40.1692 50.1706 41.6893 50.2507 43.2095 50.2452C43.9689 50.2355 44.7297 50.2162 45.485 50.1416C46.2402 50.0808 47.0024 50.0034 47.7286 49.7644C46.2913 50.3046 44.7325 50.3902 43.2137 50.4441C41.6866 50.4828 40.1581 50.44 38.6338 50.3405C37.1122 50.2093 35.5948 50.0172 34.0898 49.7506C33.3332 49.6263 32.5793 49.3914 31.9165 48.9881C31.2566 48.5806 30.7153 47.9935 30.3743 47.311Z" fill="#804B24"/>
<path d="M30.1936 40.5586C30.7763 41.1388 31.526 41.5215 32.3089 41.7162C33.0876 41.9497 33.9064 41.8986 34.7293 41.9359L39.6433 42.0782L44.5546 42.3199C46.1838 42.4194 47.8421 42.4415 49.4037 41.9069C47.8821 42.5562 46.1728 42.6087 44.5504 42.5189L39.6364 42.3766L34.7252 42.1334C33.9174 42.0782 33.0683 42.1169 32.2688 41.8558C31.4791 41.6085 30.7404 41.1733 30.1936 40.5586Z" fill="#804B24"/>
<path d="M47.7479 33.0257C46.5729 33.0285 45.3965 33.0616 44.2215 33.0506L40.6965 33.0575L37.1729 33.1058C35.9993 33.1127 34.8229 33.1196 33.6534 33.1666H33.6438C32.4881 33.1473 31.291 33.5424 30.4584 34.3698C29.6093 35.189 29.2089 36.3812 29.155 37.5692C29.1647 36.9738 29.2282 36.3729 29.4105 35.7968C29.5955 35.2222 29.9117 34.6848 30.3411 34.2524C31.1971 33.3724 32.4315 32.9359 33.6493 32.9331H33.6396C35.9938 32.7909 38.3452 32.7895 40.6965 32.8268C43.0493 32.853 45.3993 32.8972 47.7479 33.0257Z" fill="#804B24"/>
<defs>
<linearGradient id="paint0_linear_464_172" x1="39.3021" y1="28.3349" x2="22.164" y2="29.0226" gradientUnits="userSpaceOnUse">
<stop offset="0.00132565" stop-color="#FFCB4B"/>
<stop offset="1" stop-color="#FFD748"/>
</linearGradient>
<linearGradient id="paint1_linear_464_172" x1="20.8038" y1="52.0998" x2="20.4592" y2="43.0875" gradientUnits="userSpaceOnUse">
<stop offset="0.00132565" stop-color="#FFCB4B"/>
<stop offset="1" stop-color="#FFD748"/>
</linearGradient>
<linearGradient id="paint2_linear_464_172" x1="18.6067" y1="18.1726" x2="31.5173" y2="36.6314" gradientUnits="userSpaceOnUse">
<stop offset="0.00132565" stop-color="#FFCB4B"/>
<stop offset="1" stop-color="#FFD748"/>
</linearGradient>
<linearGradient id="paint3_linear_464_172" x1="9.26382" y1="10.8182" x2="42.3302" y2="13.2948" gradientUnits="userSpaceOnUse">
<stop offset="0.3118" stop-color="#FFBC47" stop-opacity="0"/>
<stop offset="1" stop-color="#FF8900"/>
</linearGradient>
<linearGradient id="paint4_linear_464_172" x1="8.63413" y1="40.2176" x2="52.0559" y2="40.2176" gradientUnits="userSpaceOnUse">
<stop stop-color="#FFBC47" stop-opacity="0"/>
<stop offset="1" stop-color="#FFA754"/>
</linearGradient>
<linearGradient id="paint5_linear_464_172" x1="1.63256" y1="40.2829" x2="87.4169" y2="43.0156" gradientUnits="userSpaceOnUse">
<stop stop-color="#FFBC47" stop-opacity="0"/>
<stop offset="1" stop-color="#C86F34"/>
</linearGradient>
<linearGradient id="paint6_linear_464_172" x1="15.2629" y1="51.4927" x2="29.4497" y2="43.805" gradientUnits="userSpaceOnUse">
<stop stop-color="#FFBC47" stop-opacity="0"/>
<stop offset="1" stop-color="#C86F34"/>
</linearGradient>
<linearGradient id="paint7_linear_464_172" x1="31.5144" y1="40.5781" x2="43.3443" y2="39.0246" gradientUnits="userSpaceOnUse">
<stop stop-color="#643800" stop-opacity="0"/>
<stop offset="1" stop-color="#643800"/>
</linearGradient>
<linearGradient id="paint8_linear_464_172" x1="10.5192" y1="14.4609" x2="13.0851" y2="56.9474" gradientUnits="userSpaceOnUse">
<stop stop-color="#FFBC47" stop-opacity="0"/>
<stop offset="1" stop-color="#FFA754"/>
</linearGradient>
<linearGradient id="paint9_linear_464_172" x1="49.7956" y1="28.1055" x2="33.0087" y2="28.1055" gradientUnits="userSpaceOnUse">
<stop offset="0.00132565" stop-color="#FFBC47"/>
<stop offset="1" stop-color="#FFD748"/>
</linearGradient>
<linearGradient id="paint10_linear_464_172" x1="49.7954" y1="45.8466" x2="32.9992" y2="45.8466" gradientUnits="userSpaceOnUse">
<stop offset="0.00132565" stop-color="#FFBC47"/>
<stop offset="1" stop-color="#FFD748"/>
</linearGradient>
<linearGradient id="paint11_linear_464_172" x1="49.7957" y1="53.7975" x2="33.0088" y2="53.7975" gradientUnits="userSpaceOnUse">
<stop offset="0.00132565" stop-color="#FFBC47"/>
<stop offset="1" stop-color="#FFD748"/>
</linearGradient>
<linearGradient id="paint12_linear_464_172" x1="30.7457" y1="28.1889" x2="39.4894" y2="27.9896" gradientUnits="userSpaceOnUse">
<stop offset="0.00132565" stop-color="#FFCB4B"/>
<stop offset="1" stop-color="#FFD748"/>
</linearGradient>
<linearGradient id="paint13_linear_464_172" x1="46.0362" y1="45.9656" x2="37.1235" y2="45.9656" gradientUnits="userSpaceOnUse">
<stop offset="0.00132565" stop-color="#FFCB4B"/>
<stop offset="1" stop-color="#FFD748"/>
</linearGradient>
<linearGradient id="paint14_linear_464_172" x1="46.0362" y1="53.7972" x2="37.1234" y2="53.7972" gradientUnits="userSpaceOnUse">
<stop offset="0.00132565" stop-color="#FFCB4B"/>
<stop offset="1" stop-color="#FFD748"/>
</linearGradient>
<linearGradient id="paint15_linear_464_172" x1="35.1566" y1="27.9836" x2="30.4011" y2="27.9836" gradientUnits="userSpaceOnUse">
<stop offset="0.00132565" stop-color="#FBA23B" stop-opacity="0"/>
<stop offset="1" stop-color="#FBA23B"/>
</linearGradient>
<linearGradient id="paint16_linear_464_172" x1="34.302" y1="28.1207" x2="28.833" y2="28.1207" gradientUnits="userSpaceOnUse">
<stop offset="0.00132565" stop-color="#FFBC47"/>
<stop offset="1" stop-color="#E89043"/>
</linearGradient>
<radialGradient id="paint17_radial_464_172" cx="0" cy="0" r="1" gradientUnits="userSpaceOnUse" gradientTransform="translate(21.0628 48.5819) rotate(23.5251) scale(6.67627 3.09971)">
<stop stop-color="#FBE07A"/>
<stop offset="1" stop-color="#FFD748" stop-opacity="0"/>
</radialGradient>
<radialGradient id="paint18_radial_464_172" cx="0" cy="0" r="1" gradientUnits="userSpaceOnUse" gradientTransform="translate(41.262 28.1472) rotate(2.02718) scale(5.71235 3.74919)">
<stop stop-color="#FBE07A"/>
<stop offset="1" stop-color="#FFD748"/>
</radialGradient>
<radialGradient id="paint19_radial_464_172" cx="0" cy="0" r="1" gradientUnits="userSpaceOnUse" gradientTransform="translate(40.9854 46.5547) rotate(-0.0544055) scale(6.1347 3.30707)">
<stop stop-color="#FBE07A"/>
<stop offset="1" stop-color="#FFD748" stop-opacity="0"/>
</radialGradient>
<radialGradient id="paint20_radial_464_172" cx="0" cy="0" r="1" gradientUnits="userSpaceOnUse" gradientTransform="translate(38.863 53.9903) rotate(-0.0539601) scale(5.61681 3.51542)">
<stop stop-color="#FBE07A"/>
<stop offset="1" stop-color="#FFD748" stop-opacity="0"/>
</radialGradient>
<linearGradient id="paint21_linear_464_172" x1="35.7261" y1="45.7518" x2="28.8337" y2="45.7518" gradientUnits="userSpaceOnUse">
<stop offset="0.00132565" stop-color="#FBA23B" stop-opacity="0"/>
<stop offset="1" stop-color="#FBA23B"/>
</linearGradient>
<linearGradient id="paint22_linear_464_172" x1="34.2612" y1="45.5108" x2="30.5486" y2="45.5108" gradientUnits="userSpaceOnUse">
<stop offset="0.00132565" stop-color="#FFBC47"/>
<stop offset="1" stop-color="#FBA23B"/>
</linearGradient>
<linearGradient id="paint23_linear_464_172" x1="35.4783" y1="53.8426" x2="27.418" y2="52.3623" gradientUnits="userSpaceOnUse">
<stop offset="0.00132565" stop-color="#FBA23B" stop-opacity="0"/>
<stop offset="1" stop-color="#FBA23B"/>
</linearGradient>
<linearGradient id="paint24_linear_464_172" x1="34.6449" y1="53.5789" x2="31.2379" y2="53.5789" gradientUnits="userSpaceOnUse">
<stop offset="0.00132565" stop-color="#FFBC47"/>
<stop offset="1" stop-color="#FBA23B"/>
</linearGradient>
<linearGradient id="paint25_linear_464_172" x1="40.076" y1="27.0482" x2="42.2427" y2="37.5341" gradientUnits="userSpaceOnUse">
<stop stop-color="#FFBC47" stop-opacity="0"/>
<stop offset="1" stop-color="#C86F34"/>
</linearGradient>
<linearGradient id="paint26_linear_464_172" x1="41.7218" y1="47.766" x2="39.3578" y2="39.2369" gradientUnits="userSpaceOnUse">
<stop stop-color="#FFBC47" stop-opacity="0"/>
<stop offset="1" stop-color="#C86F34"/>
</linearGradient>
<linearGradient id="paint27_linear_464_172" x1="49.7957" y1="37.7025" x2="33.0088" y2="37.7025" gradientUnits="userSpaceOnUse">
<stop offset="0.00132565" stop-color="#FFBC47"/>
<stop offset="1" stop-color="#FFD748"/>
</linearGradient>
<linearGradient id="paint28_linear_464_172" x1="32.3316" y1="37.2341" x2="45.1907" y2="37.7038" gradientUnits="userSpaceOnUse">
<stop offset="0.00132565" stop-color="#FFCB4B"/>
<stop offset="0.7382" stop-color="#FFD748"/>
<stop offset="1" stop-color="#FFCB4B"/>
</linearGradient>
<linearGradient id="paint29_linear_464_172" x1="37.3496" y1="37.5287" x2="27.7424" y2="37.5287" gradientUnits="userSpaceOnUse">
<stop offset="0.00132565" stop-color="#FBA23B" stop-opacity="0"/>
<stop offset="1" stop-color="#FBA23B"/>
</linearGradient>
<radialGradient id="paint30_radial_464_172" cx="0" cy="0" r="1" gradientUnits="userSpaceOnUse" gradientTransform="translate(42.9278 37.5482) rotate(-2.73606) scale(6.28155 4.12298)">
<stop stop-color="#FBE07A"/>
<stop offset="1" stop-color="#FFD748" stop-opacity="0"/>
</radialGradient>
<linearGradient id="paint31_linear_464_172" x1="32.884" y1="37.5173" x2="29.8507" y2="37.5173" gradientUnits="userSpaceOnUse">
<stop offset="0.00132565" stop-color="#FFBC47"/>
<stop offset="1" stop-color="#FBA23B"/>
</linearGradient>
<linearGradient id="paint32_linear_464_172" x1="40.8727" y1="36.5925" x2="42.6972" y2="48.1897" gradientUnits="userSpaceOnUse">
<stop stop-color="#FFBC47" stop-opacity="0"/>
<stop offset="1" stop-color="#C86F34"/>
</linearGradient>
<linearGradient id="paint33_linear_464_172" x1="39.6082" y1="45.5641" x2="44.283" y2="55.7066" gradientUnits="userSpaceOnUse">
<stop stop-color="#FFBC47" stop-opacity="0"/>
<stop offset="1" stop-color="#C86F34"/>
</linearGradient>
<linearGradient id="paint34_linear_464_172" x1="38.6771" y1="54.4624" x2="39.3613" y2="60.8737" gradientUnits="userSpaceOnUse">
<stop stop-color="#FFBC47" stop-opacity="0"/>
<stop offset="1" stop-color="#C86F34"/>
</linearGradient>
<linearGradient id="paint35_linear_464_172" x1="38.8386" y1="53.4897" x2="38.8386" y2="48.8519" gradientUnits="userSpaceOnUse">
<stop stop-color="#FFBC47" stop-opacity="0"/>
<stop offset="1" stop-color="#C86F34"/>
</linearGradient>
<linearGradient id="paint36_linear_464_172" x1="7.52738" y1="40.686" x2="-7.00806" y2="62.6491" gradientUnits="userSpaceOnUse">
<stop stop-color="#C86F34" stop-opacity="0"/>
<stop offset="1" stop-color="#C86F34"/>
</linearGradient>
<linearGradient id="paint37_linear_464_172" x1="6.56792" y1="45.5435" x2="8.96263" y2="56.2287" gradientUnits="userSpaceOnUse">
<stop stop-color="#FFBC47" stop-opacity="0"/>
<stop offset="1" stop-color="#C86F34"/>
</linearGradient>
<linearGradient id="paint38_linear_464_172" x1="8.01799" y1="47.5489" x2="7.67589" y2="60.628" gradientUnits="userSpaceOnUse">
<stop stop-color="#FFBC47" stop-opacity="0"/>
<stop offset="1" stop-color="#C86F34"/>
</linearGradient>
<radialGradient id="paint39_radial_464_172" cx="0" cy="0" r="1" gradientUnits="userSpaceOnUse" gradientTransform="translate(28.3007 6.02954) rotate(79.0714) scale(6.02306 3.53329)">
<stop stop-color="#FBE07A"/>
<stop offset="1" stop-color="#FFD748" stop-opacity="0"/>
</radialGradient>
</defs>
</svg>
