<svg width="750" height="750" viewBox="0 0 750 750" fill="none" xmlns="http://www.w3.org/2000/svg">
<rect width="750" height="750" rx="31" fill="#FFB846"/>
<rect x="38" y="38" width="154" height="152" rx="18" fill="black" fill-opacity="0.357"/>
<rect x="38" y="212" width="154" height="152" rx="18" fill="#EEE4DA"/>
<rect x="38.5" y="212.5" width="153" height="151" rx="17.5" stroke="black" stroke-opacity="0.5"/>
<rect x="38" y="388" width="154" height="152" rx="18" fill="black" fill-opacity="0.357"/>
<rect x="38" y="559" width="154" height="152" rx="18" fill="#EEE4DA"/>
<rect x="38.5" y="559.5" width="153" height="151" rx="17.5" stroke="black" stroke-opacity="0.5"/>
<rect x="212" y="38" width="154" height="152" rx="18" fill="black" fill-opacity="0.357"/>
<rect x="212" y="209" width="154" height="152" rx="18" fill="black" fill-opacity="0.357"/>
<rect x="212" y="385" width="154" height="152" rx="18" fill="#EDE0C8"/>
<rect x="212.5" y="385.5" width="153" height="151" rx="17.5" stroke="black" stroke-opacity="0.5"/>
<rect x="212" y="560" width="154" height="152" rx="18" fill="black" fill-opacity="0.357"/>
<rect x="558" y="38" width="154" height="152" rx="18" fill="black" fill-opacity="0.357"/>
<rect x="558" y="209" width="154" height="152" rx="18" fill="#FF8A00"/>
<rect x="558.5" y="209.5" width="153" height="151" rx="17.5" stroke="black" stroke-opacity="0.5"/>
<rect x="557" y="385" width="154" height="152" rx="18" fill="#FF8A00"/>
<rect x="557.5" y="385.5" width="153" height="151" rx="17.5" stroke="black" stroke-opacity="0.5"/>
<rect x="557" y="559" width="154" height="152" rx="18" fill="#FF8A00"/>
<rect x="557.5" y="559.5" width="153" height="151" rx="17.5" stroke="black" stroke-opacity="0.5"/>
<rect x="384" y="38" width="154" height="152" rx="18" fill="black" fill-opacity="0.357"/>
<rect x="384" y="209" width="154" height="152" rx="18" fill="black" fill-opacity="0.357"/>
<rect x="384" y="385" width="154" height="152" rx="18" fill="black" fill-opacity="0.357"/>
<path d="M100.817 309V305.032L116.817 288.328C118.907 286.152 120.465 284.083 121.489 282.12C122.555 280.115 123.089 278.045 123.089 275.912C123.089 273.309 122.278 271.347 120.657 270.024C119.035 268.659 116.689 267.976 113.617 267.976C111.227 267.976 109.009 268.403 106.961 269.256C104.955 270.067 103.014 271.368 101.137 273.16L99.2165 269C100.923 267.293 103.099 265.928 105.745 264.904C108.39 263.837 111.185 263.304 114.128 263.304C118.694 263.304 122.214 264.371 124.689 266.504C127.163 268.595 128.401 271.581 128.401 275.464C128.401 278.323 127.697 281.053 126.289 283.656C124.923 286.216 122.918 288.861 120.273 291.592L106.129 305.928V304.456H130.321V309H100.817Z" fill="black"/>
<rect x="384" y="560" width="154" height="152" rx="18" fill="black" fill-opacity="0.357"/>
<path d="M99.3165 659V655.032L115.317 638.328C117.407 636.152 118.965 634.083 119.989 632.12C121.055 630.115 121.589 628.045 121.589 625.912C121.589 623.309 120.778 621.347 119.157 620.024C117.535 618.659 115.189 617.976 112.117 617.976C109.727 617.976 107.509 618.403 105.461 619.256C103.455 620.067 101.514 621.368 99.6365 623.16L97.7165 619C99.4232 617.293 101.599 615.928 104.245 614.904C106.89 613.837 109.685 613.304 112.628 613.304C117.194 613.304 120.714 614.371 123.189 616.504C125.663 618.595 126.901 621.581 126.901 625.464C126.901 628.323 126.197 631.053 124.789 633.656C123.423 636.216 121.418 638.861 118.773 641.592L104.629 655.928V654.456H128.821V659H99.3165Z" fill="black"/>
<path d="M294.017 478V468.208H272.513V464.368L294.849 432.88H299.201V463.92H306.113V468.208H299.201V478H294.017ZM294.017 463.92V439.152H295.425L276.865 465.264V463.92H294.017Z" fill="black"/>
<mask id="path-27-inside-1_406_36" fill="white">
<path fill-rule="evenodd" clip-rule="evenodd" d="M535 344.158L604 287L535 229.842V257H192V317H535V344.158Z"/>
</mask>
<path fill-rule="evenodd" clip-rule="evenodd" d="M535 344.158L604 287L535 229.842V257H192V317H535V344.158Z" fill="url(#paint0_linear_406_36)"/>
<path d="M604 287L604.638 287.77L605.568 287L604.638 286.23L604 287ZM535 344.158H534V346.285L535.638 344.928L535 344.158ZM535 229.842L535.638 229.072L534 227.715V229.842H535ZM535 257V258H536V257H535ZM192 257V256H191V257H192ZM192 317H191V318H192V317ZM535 317H536V316H535V317ZM603.362 286.23L534.362 343.388L535.638 344.928L604.638 287.77L603.362 286.23ZM534.362 230.612L603.362 287.77L604.638 286.23L535.638 229.072L534.362 230.612ZM536 257V229.842H534V257H536ZM192 258H535V256H192V258ZM193 317V257H191V317H193ZM535 316H192V318H535V316ZM536 344.158V317H534V344.158H536Z" fill="white" fill-opacity="0.6666" mask="url(#path-27-inside-1_406_36)"/>
<mask id="path-29-inside-2_406_36" fill="white">
<path fill-rule="evenodd" clip-rule="evenodd" d="M535 692.315L604 635.158L535 578V605.158H192V665.158H535V692.315Z"/>
</mask>
<path fill-rule="evenodd" clip-rule="evenodd" d="M535 692.315L604 635.158L535 578V605.158H192V665.158H535V692.315Z" fill="url(#paint1_linear_406_36)"/>
<path d="M604 635.158L604.638 635.928L605.568 635.158L604.638 634.388L604 635.158ZM535 692.315H534V694.442L535.638 693.085L535 692.315ZM535 578L535.638 577.23L534 575.873V578H535ZM535 605.158V606.158H536V605.158H535ZM192 605.158V604.158H191V605.158H192ZM192 665.158H191V666.158H192V665.158ZM535 665.158H536V664.158H535V665.158ZM603.362 634.388L534.362 691.545L535.638 693.085L604.638 635.928L603.362 634.388ZM534.362 578.77L603.362 635.928L604.638 634.388L535.638 577.23L534.362 578.77ZM536 605.158V578H534V605.158H536ZM192 606.158H535V604.158H192V606.158ZM193 665.158V605.158H191V665.158H193ZM535 664.158H192V666.158H535V664.158ZM536 692.315V665.158H534V692.315H536Z" fill="white" fill-opacity="0.6666" mask="url(#path-29-inside-2_406_36)"/>
<mask id="path-31-inside-3_406_36" fill="white">
<path fill-rule="evenodd" clip-rule="evenodd" d="M532 518.315L601 461.158L532 404V431.158H366V491.158H532V518.315Z"/>
</mask>
<path fill-rule="evenodd" clip-rule="evenodd" d="M532 518.315L601 461.158L532 404V431.158H366V491.158H532V518.315Z" fill="url(#paint2_linear_406_36)"/>
<path d="M601 461.158L601.638 461.928L602.568 461.158L601.638 460.388L601 461.158ZM532 518.315H531V520.442L532.638 519.085L532 518.315ZM532 404L532.638 403.23L531 401.873V404H532ZM532 431.158V432.158H533V431.158H532ZM366 431.158V430.158H365V431.158H366ZM366 491.158H365V492.158H366V491.158ZM532 491.158H533V490.158H532V491.158ZM600.362 460.388L531.362 517.545L532.638 519.085L601.638 461.928L600.362 460.388ZM531.362 404.77L600.362 461.928L601.638 460.388L532.638 403.23L531.362 404.77ZM533 431.158V404H531V431.158H533ZM366 432.158H532V430.158H366V432.158ZM367 491.158V431.158H365V491.158H367ZM532 490.158H366V492.158H532V490.158ZM533 518.315V491.158H531V518.315H533Z" fill="white" fill-opacity="0.6666" mask="url(#path-31-inside-3_406_36)"/>
<defs>
<linearGradient id="paint0_linear_406_36" x1="604" y1="287" x2="140" y2="287" gradientUnits="userSpaceOnUse">
<stop stop-color="#0029FF"/>
<stop offset="0.711458" stop-color="#FF4C00" stop-opacity="0.95"/>
<stop offset="1" stop-color="#FF4C00" stop-opacity="0"/>
</linearGradient>
<linearGradient id="paint1_linear_406_36" x1="604" y1="635.158" x2="140" y2="635.158" gradientUnits="userSpaceOnUse">
<stop stop-color="#0029FF"/>
<stop offset="0.711458" stop-color="#FF4C00" stop-opacity="0.95"/>
<stop offset="1" stop-color="#FF4C00" stop-opacity="0"/>
</linearGradient>
<linearGradient id="paint2_linear_406_36" x1="689" y1="471.631" x2="225" y2="471.631" gradientUnits="userSpaceOnUse">
<stop stop-color="#0029FF"/>
<stop offset="0.711458" stop-color="#FF4C00" stop-opacity="0.95"/>
<stop offset="1" stop-color="#FF4C00" stop-opacity="0"/>
</linearGradient>
</defs>
</svg>
