<svg width="750" height="750" viewBox="0 0 750 750" fill="none" xmlns="http://www.w3.org/2000/svg">
<rect width="750" height="750" rx="31" fill="#FFB846"/>
<rect x="38" y="38" width="154" height="152" rx="18" fill="black" fill-opacity="0.357"/>
<rect x="38" y="212" width="154" height="152" rx="18" fill="black" fill-opacity="0.357"/>
<rect x="38" y="388" width="154" height="152" rx="18" fill="black" fill-opacity="0.357"/>
<rect x="38" y="559" width="154" height="152" rx="18" fill="black" fill-opacity="0.357"/>
<rect x="212" y="38" width="154" height="152" rx="18" fill="black" fill-opacity="0.357"/>
<rect x="212" y="385" width="154" height="152" rx="18" fill="black" fill-opacity="0.357"/>
<rect x="558" y="38" width="154" height="152" rx="18" fill="black" fill-opacity="0.357"/>
<rect x="558" y="209" width="154" height="152" rx="18" fill="#F2B179"/>
<rect x="558.5" y="209.5" width="153" height="151" rx="17.5" stroke="black" stroke-opacity="0.5"/>
<rect x="557" y="385" width="154" height="152" rx="18" fill="black" fill-opacity="0.357"/>
<rect x="557" y="559" width="154" height="152" rx="18" fill="#EDCF72"/>
<rect x="557.5" y="559.5" width="153" height="151" rx="17.5" stroke="black" stroke-opacity="0.5"/>
<rect x="384" y="38" width="154" height="152" rx="18" fill="black" fill-opacity="0.357"/>
<rect x="384" y="385" width="154" height="152" rx="18" fill="black" fill-opacity="0.357"/>
<mask id="path-16-inside-1_406_41" fill="white">
<path fill-rule="evenodd" clip-rule="evenodd" d="M568 248.315L637 199.158L568 150V172.395H357C340.431 172.395 327 185.827 327 202.395V224.395H568V248.315Z"/>
</mask>
<path fill-rule="evenodd" clip-rule="evenodd" d="M568 248.315L637 199.158L568 150V172.395H357C340.431 172.395 327 185.827 327 202.395V224.395H568V248.315Z" fill="url(#paint0_linear_406_41)"/>
<path d="M637 199.158L637.58 199.972L638.723 199.158L637.58 198.343L637 199.158ZM568 248.315H567V250.256L568.58 249.13L568 248.315ZM568 150L568.58 149.186L567 148.06V150H568ZM568 172.395V173.395H569V172.395H568ZM327 224.395H326V225.395H327V224.395ZM568 224.395H569V223.395H568V224.395ZM636.42 198.343L567.42 247.501L568.58 249.13L637.58 199.972L636.42 198.343ZM567.42 150.814L636.42 199.972L637.58 198.343L568.58 149.186L567.42 150.814ZM569 172.395V150H567V172.395H569ZM357 173.395H568V171.395H357V173.395ZM328 202.395C328 186.379 340.984 173.395 357 173.395V171.395C339.879 171.395 326 185.274 326 202.395H328ZM328 224.395V202.395H326V224.395H328ZM568 223.395H327V225.395H568V223.395ZM569 248.315V224.395H567V248.315H569Z" fill="white" fill-opacity="0.6666" mask="url(#path-16-inside-1_406_41)"/>
<mask id="path-18-inside-2_406_41" fill="white">
<path fill-rule="evenodd" clip-rule="evenodd" d="M568 599.315L637 550.158L568 501V523.395H357C340.431 523.395 327 536.827 327 553.395V575.395H568V599.315Z"/>
</mask>
<path fill-rule="evenodd" clip-rule="evenodd" d="M568 599.315L637 550.158L568 501V523.395H357C340.431 523.395 327 536.827 327 553.395V575.395H568V599.315Z" fill="url(#paint1_linear_406_41)"/>
<path d="M637 550.158L637.58 550.972L638.723 550.158L637.58 549.343L637 550.158ZM568 599.315H567V601.256L568.58 600.13L568 599.315ZM568 501L568.58 500.186L567 499.06V501H568ZM568 523.395V524.395H569V523.395H568ZM327 575.395H326V576.395H327V575.395ZM568 575.395H569V574.395H568V575.395ZM636.42 549.343L567.42 598.501L568.58 600.13L637.58 550.972L636.42 549.343ZM567.42 501.814L636.42 550.972L637.58 549.343L568.58 500.186L567.42 501.814ZM569 523.395V501H567V523.395H569ZM357 524.395H568V522.395H357V524.395ZM328 553.395C328 537.379 340.984 524.395 357 524.395V522.395C339.879 522.395 326 536.274 326 553.395H328ZM328 575.395V553.395H326V575.395H328ZM568 574.395H327V576.395H568V574.395ZM569 599.315V575.395H567V599.315H569Z" fill="white" fill-opacity="0.6666" mask="url(#path-18-inside-2_406_41)"/>
<rect x="212" y="209" width="154" height="152" rx="18" fill="#EDE0C8"/>
<rect x="212.5" y="209.5" width="153" height="151" rx="17.5" stroke="black" stroke-opacity="0.5"/>
<rect x="212" y="560" width="154" height="152" rx="18" fill="#F65E3B"/>
<rect x="212.5" y="560.5" width="153" height="151" rx="17.5" stroke="black" stroke-opacity="0.5"/>
<rect x="384" y="209" width="154" height="152" rx="18" fill="#EDE0C8"/>
<rect x="384.5" y="209.5" width="153" height="151" rx="17.5" stroke="black" stroke-opacity="0.5"/>
<rect x="384" y="560" width="154" height="152" rx="18" fill="#F65E3B"/>
<rect x="384.5" y="560.5" width="153" height="151" rx="17.5" stroke="black" stroke-opacity="0.5"/>
<path d="M294.017 312V302.208H272.513V298.368L294.849 266.88H299.201V297.92H306.113V302.208H299.201V312H294.017ZM294.017 297.92V273.152H295.425L276.865 299.264V297.92H294.017Z" fill="black"/>
<path d="M466.017 312V302.208H444.513V298.368L466.849 266.88H471.201V297.92H478.113V302.208H471.201V312H466.017ZM466.017 297.92V273.152H467.425L448.865 299.264V297.92H466.017Z" fill="black"/>
<path d="M634.513 312.576C629.35 312.576 625.361 311.488 622.545 309.312C619.729 307.093 618.321 304 618.321 300.032C618.321 296.917 619.281 294.336 621.201 292.288C623.121 290.197 625.659 288.939 628.817 288.512V289.472C625.958 288.875 623.675 287.573 621.969 285.568C620.262 283.52 619.409 281.109 619.409 278.336C619.409 274.539 620.753 271.595 623.441 269.504C626.129 267.371 629.819 266.304 634.513 266.304C639.249 266.304 642.961 267.371 645.649 269.504C648.337 271.595 649.681 274.539 649.681 278.336C649.681 281.109 648.87 283.52 647.249 285.568C645.67 287.616 643.451 288.896 640.593 289.408V288.512C643.707 288.939 646.182 290.197 648.017 292.288C649.851 294.336 650.769 296.917 650.769 300.032C650.769 304 649.361 307.093 646.545 309.312C643.729 311.488 639.718 312.576 634.513 312.576ZM634.513 308.224C638.267 308.224 641.062 307.52 642.897 306.112C644.774 304.704 645.713 302.571 645.713 299.712C645.713 296.896 644.774 294.805 642.897 293.44C641.062 292.032 638.267 291.328 634.513 291.328C630.758 291.328 627.942 292.032 626.065 293.44C624.23 294.805 623.312 296.896 623.312 299.712C623.312 302.571 624.251 304.704 626.129 306.112C628.006 307.52 630.801 308.224 634.513 308.224ZM634.513 286.976C637.755 286.976 640.23 286.251 641.937 284.8C643.686 283.349 644.561 281.344 644.561 278.784C644.561 276.224 643.686 274.24 641.937 272.832C640.23 271.381 637.755 270.656 634.513 270.656C631.27 270.656 628.774 271.381 627.025 272.832C625.318 274.24 624.465 276.224 624.465 278.784C624.465 281.344 625.318 283.349 627.025 284.8C628.774 286.251 631.27 286.976 634.513 286.976Z" fill="black"/>
<path d="M270.797 663.576C265.336 663.576 261.112 661.656 258.125 657.816C255.181 653.933 253.709 648.515 253.709 641.56C253.709 636.355 254.456 631.96 255.949 628.376C257.442 624.749 259.576 621.997 262.349 620.12C265.122 618.243 268.472 617.304 272.397 617.304C274.744 617.304 277.112 617.795 279.501 618.776C281.89 619.715 283.853 621.037 285.389 622.744L283.469 626.84C281.848 625.176 280.077 623.96 278.157 623.192C276.237 622.381 274.296 621.976 272.333 621.976C267.981 621.976 264.632 623.533 262.285 626.648C259.981 629.72 258.829 634.349 258.829 640.536V646.488H258.253C258.552 644.056 259.277 641.965 260.429 640.216C261.624 638.424 263.181 637.059 265.101 636.12C267.021 635.181 269.154 634.712 271.501 634.712C274.232 634.712 276.642 635.309 278.733 636.504C280.824 637.699 282.466 639.384 283.661 641.56C284.856 643.693 285.453 646.147 285.453 648.92C285.453 651.736 284.834 654.253 283.597 656.472C282.36 658.691 280.632 660.44 278.413 661.72C276.194 662.957 273.656 663.576 270.797 663.576ZM270.413 659.096C272.376 659.096 274.104 658.691 275.597 657.88C277.133 657.027 278.306 655.853 279.117 654.36C279.97 652.824 280.397 651.075 280.397 649.112C280.397 647.149 279.97 645.421 279.117 643.928C278.306 642.435 277.133 641.261 275.597 640.408C274.104 639.555 272.376 639.128 270.413 639.128C268.45 639.128 266.722 639.555 265.229 640.408C263.736 641.261 262.562 642.435 261.709 643.928C260.898 645.421 260.493 647.149 260.493 649.112C260.493 651.075 260.898 652.824 261.709 654.36C262.562 655.853 263.736 657.027 265.229 657.88C266.722 658.691 268.45 659.096 270.413 659.096ZM313.204 663V653.208H291.7V649.368L314.036 617.88H318.388V648.92H325.3V653.208H318.388V663H313.204ZM313.204 648.92V624.152H314.612L296.052 650.264V648.92H313.204Z" fill="black"/>
<path d="M442.797 660.576C437.336 660.576 433.112 658.656 430.125 654.816C427.181 650.933 425.709 645.515 425.709 638.56C425.709 633.355 426.456 628.96 427.949 625.376C429.442 621.749 431.576 618.997 434.349 617.12C437.122 615.243 440.472 614.304 444.397 614.304C446.744 614.304 449.112 614.795 451.501 615.776C453.89 616.715 455.853 618.037 457.389 619.744L455.469 623.84C453.848 622.176 452.077 620.96 450.157 620.192C448.237 619.381 446.296 618.976 444.333 618.976C439.981 618.976 436.632 620.533 434.285 623.648C431.981 626.72 430.829 631.349 430.829 637.536V643.488H430.253C430.552 641.056 431.277 638.965 432.429 637.216C433.624 635.424 435.181 634.059 437.101 633.12C439.021 632.181 441.154 631.712 443.501 631.712C446.232 631.712 448.642 632.309 450.733 633.504C452.824 634.699 454.466 636.384 455.661 638.56C456.856 640.693 457.453 643.147 457.453 645.92C457.453 648.736 456.834 651.253 455.597 653.472C454.36 655.691 452.632 657.44 450.413 658.72C448.194 659.957 445.656 660.576 442.797 660.576ZM442.413 656.096C444.376 656.096 446.104 655.691 447.597 654.88C449.133 654.027 450.306 652.853 451.117 651.36C451.97 649.824 452.397 648.075 452.397 646.112C452.397 644.149 451.97 642.421 451.117 640.928C450.306 639.435 449.133 638.261 447.597 637.408C446.104 636.555 444.376 636.128 442.413 636.128C440.45 636.128 438.722 636.555 437.229 637.408C435.736 638.261 434.562 639.435 433.709 640.928C432.898 642.421 432.493 644.149 432.493 646.112C432.493 648.075 432.898 649.824 433.709 651.36C434.562 652.853 435.736 654.027 437.229 654.88C438.722 655.691 440.45 656.096 442.413 656.096ZM485.204 660V650.208H463.7V646.368L486.036 614.88H490.388V645.92H497.3V650.208H490.388V660H485.204ZM485.204 645.92V621.152H486.612L468.052 647.264V645.92H485.204Z" fill="black"/>
<path d="M588.655 658V653.74H598.615V619.96H601.255L589.615 627.22V622.24L599.995 615.7H603.595V653.74H612.955V658H588.655ZM622.172 658V654.28L637.172 638.62C639.132 636.58 640.592 634.64 641.552 632.8C642.552 630.92 643.052 628.98 643.052 626.98C643.052 624.54 642.292 622.7 640.772 621.46C639.252 620.18 637.052 619.54 634.172 619.54C631.932 619.54 629.852 619.94 627.932 620.74C626.052 621.5 624.232 622.72 622.472 624.4L620.672 620.5C622.272 618.9 624.312 617.62 626.792 616.66C629.272 615.66 631.892 615.16 634.652 615.16C638.932 615.16 642.232 616.16 644.552 618.16C646.872 620.12 648.032 622.92 648.032 626.56C648.032 629.24 647.372 631.8 646.052 634.24C644.772 636.64 642.892 639.12 640.412 641.68L627.152 655.12V653.74H649.832V658H622.172ZM670.988 658.54C666.148 658.54 662.408 657.52 659.768 655.48C657.128 653.4 655.808 650.5 655.808 646.78C655.808 643.86 656.708 641.44 658.508 639.52C660.308 637.56 662.688 636.38 665.648 635.98V636.88C662.968 636.32 660.828 635.1 659.228 633.22C657.628 631.3 656.828 629.04 656.828 626.44C656.828 622.88 658.088 620.12 660.608 618.16C663.128 616.16 666.588 615.16 670.988 615.16C675.428 615.16 678.908 616.16 681.428 618.16C683.948 620.12 685.208 622.88 685.208 626.44C685.208 629.04 684.448 631.3 682.928 633.22C681.448 635.14 679.368 636.34 676.688 636.82V635.98C679.608 636.38 681.928 637.56 683.648 639.52C685.368 641.44 686.228 643.86 686.228 646.78C686.228 650.5 684.908 653.4 682.268 655.48C679.628 657.52 675.868 658.54 670.988 658.54ZM670.988 654.46C674.508 654.46 677.128 653.8 678.848 652.48C680.608 651.16 681.488 649.16 681.488 646.48C681.488 643.84 680.608 641.88 678.848 640.6C677.128 639.28 674.508 638.62 670.988 638.62C667.468 638.62 664.828 639.28 663.068 640.6C661.348 641.88 660.488 643.84 660.488 646.48C660.488 649.16 661.368 651.16 663.128 652.48C664.888 653.8 667.508 654.46 670.988 654.46ZM670.988 634.54C674.028 634.54 676.348 633.86 677.948 632.5C679.588 631.14 680.408 629.26 680.408 626.86C680.408 624.46 679.588 622.6 677.948 621.28C676.348 619.92 674.028 619.24 670.988 619.24C667.948 619.24 665.608 619.92 663.968 621.28C662.368 622.6 661.568 624.46 661.568 626.86C661.568 629.26 662.368 631.14 663.968 632.5C665.608 633.86 667.948 634.54 670.988 634.54Z" fill="black"/>
<path d="M348.77 290.032L348.258 280.112C350.733 280.027 353.826 279.941 357.538 279.856C361.293 279.771 365.261 279.707 369.442 279.664C369.485 275.611 369.527 271.835 369.57 268.336C369.655 264.837 369.741 261.915 369.826 259.568H380.066C379.981 260.336 379.895 261.637 379.81 263.472C379.767 265.264 379.725 267.397 379.682 269.872C379.682 272.304 379.682 274.949 379.682 277.808C379.682 278.405 379.682 278.981 379.682 279.536C381.389 279.536 383.053 279.536 384.674 279.536C387.959 279.536 391.074 279.557 394.018 279.6C396.962 279.6 399.415 279.643 401.378 279.728V289.584C400.439 289.584 398.989 289.563 397.026 289.52C395.063 289.477 393.122 289.456 391.202 289.456C389.41 289.456 387.554 289.456 385.634 289.456C383.714 289.456 381.751 289.477 379.746 289.52C379.789 292.848 379.831 296.005 379.874 298.992C379.917 301.979 379.959 304.581 380.002 306.8C380.087 309.019 380.151 310.619 380.194 311.6L369.954 311.792C369.783 308.848 369.655 305.456 369.57 301.616C369.527 297.733 369.485 293.744 369.442 289.648C365.602 289.691 361.89 289.755 358.306 289.84C354.765 289.883 351.586 289.947 348.77 290.032Z" fill="black"/>
<path d="M348.77 638.032L348.258 628.112C350.733 628.027 353.826 627.941 357.538 627.856C361.293 627.771 365.261 627.707 369.442 627.664C369.485 623.611 369.527 619.835 369.57 616.336C369.655 612.837 369.741 609.915 369.826 607.568H380.066C379.981 608.336 379.895 609.637 379.81 611.472C379.767 613.264 379.725 615.397 379.682 617.872C379.682 620.304 379.682 622.949 379.682 625.808C379.682 626.405 379.682 626.981 379.682 627.536C381.389 627.536 383.053 627.536 384.674 627.536C387.959 627.536 391.074 627.557 394.018 627.6C396.962 627.6 399.415 627.643 401.378 627.728V637.584C400.439 637.584 398.989 637.563 397.026 637.52C395.063 637.477 393.122 637.456 391.202 637.456C389.41 637.456 387.554 637.456 385.634 637.456C383.714 637.456 381.751 637.477 379.746 637.52C379.789 640.848 379.831 644.005 379.874 646.992C379.917 649.979 379.959 652.581 380.002 654.8C380.087 657.019 380.151 658.619 380.194 659.6L369.954 659.792C369.783 656.848 369.655 653.456 369.57 649.616C369.527 645.733 369.485 641.744 369.442 637.648C365.602 637.691 361.89 637.755 358.306 637.84C354.765 637.883 351.586 637.947 348.77 638.032Z" fill="black"/>
<path d="M522.392 280.944L522.2 270.64C527.533 270.469 533.272 270.341 539.416 270.256C545.56 270.128 551.576 270.064 557.464 270.064C563.309 270.064 568.685 270.128 573.592 270.256L573.528 280.496C571.181 280.496 568.92 280.496 566.744 280.496C564.568 280.453 562.392 280.432 560.216 280.432C554.115 280.432 547.992 280.496 541.848 280.624C535.747 280.709 529.261 280.816 522.392 280.944ZM522.584 299.44L522.392 289.136C525.123 289.051 528.216 288.987 531.672 288.944C535.171 288.901 538.819 288.859 542.616 288.816C546.456 288.773 550.275 288.752 554.072 288.752C557.869 288.709 561.432 288.688 564.76 288.688C566.424 288.688 568.024 288.709 569.56 288.752C571.096 288.752 572.504 288.752 573.784 288.752L573.656 298.992C571.779 298.992 569.88 298.992 567.96 298.992C566.04 298.949 564.141 298.928 562.264 298.928C555.395 298.928 548.589 298.992 541.848 299.12C535.107 299.248 528.685 299.355 522.584 299.44Z" fill="black"/>
<path d="M522.392 634.944L522.2 624.64C527.533 624.469 533.272 624.341 539.416 624.256C545.56 624.128 551.576 624.064 557.464 624.064C563.309 624.064 568.685 624.128 573.592 624.256L573.528 634.496C571.181 634.496 568.92 634.496 566.744 634.496C564.568 634.453 562.392 634.432 560.216 634.432C554.115 634.432 547.992 634.496 541.848 634.624C535.747 634.709 529.261 634.816 522.392 634.944ZM522.584 653.44L522.392 643.136C525.123 643.051 528.216 642.987 531.672 642.944C535.171 642.901 538.819 642.859 542.616 642.816C546.456 642.773 550.275 642.752 554.072 642.752C557.869 642.709 561.432 642.688 564.76 642.688C566.424 642.688 568.024 642.709 569.56 642.752C571.096 642.752 572.504 642.752 573.784 642.752L573.656 652.992C571.779 652.992 569.88 652.992 567.96 652.992C566.04 652.949 564.141 652.928 562.264 652.928C555.395 652.928 548.589 652.992 541.848 653.12C535.107 653.248 528.685 653.355 522.584 653.44Z" fill="black"/>
<defs>
<linearGradient id="paint0_linear_406_41" x1="762" y1="208.425" x2="298" y2="208.425" gradientUnits="userSpaceOnUse">
<stop stop-color="#0029FF"/>
<stop offset="0.0001" stop-color="#0029FF"/>
<stop offset="0.711458" stop-color="#FF2E00" stop-opacity="0.95"/>
<stop offset="1" stop-color="#FFD600" stop-opacity="0"/>
</linearGradient>
<linearGradient id="paint1_linear_406_41" x1="762" y1="559.425" x2="298" y2="559.425" gradientUnits="userSpaceOnUse">
<stop stop-color="#0029FF"/>
<stop offset="0.0001" stop-color="#0029FF"/>
<stop offset="0.711458" stop-color="#FF2E00" stop-opacity="0.95"/>
<stop offset="1" stop-color="#FFD600" stop-opacity="0"/>
</linearGradient>
</defs>
</svg>
