<svg width="750" height="750" viewBox="0 0 750 750" fill="none" xmlns="http://www.w3.org/2000/svg">
<rect width="750" height="750" rx="31" fill="#FFB846"/>
<rect x="38" y="38" width="154" height="152" rx="18" fill="#EEE4DA"/>
<rect x="38.5" y="38.5" width="153" height="151" rx="17.5" stroke="black" stroke-opacity="0.5"/>
<rect x="38" y="212" width="154" height="152" rx="18" fill="#F2B179"/>
<rect x="38.5" y="212.5" width="153" height="151" rx="17.5" stroke="black" stroke-opacity="0.5"/>
<rect x="38" y="388" width="154" height="152" rx="18" fill="#F67C5F"/>
<rect x="38.5" y="388.5" width="153" height="151" rx="17.5" stroke="black" stroke-opacity="0.5"/>
<rect x="38" y="559" width="154" height="152" rx="18" fill="#EDCF72"/>
<rect x="38.5" y="559.5" width="153" height="151" rx="17.5" stroke="black" stroke-opacity="0.5"/>
<rect x="212" y="38" width="154" height="152" rx="18" fill="#EDE0C8"/>
<rect x="212.5" y="38.5" width="153" height="151" rx="17.5" stroke="black" stroke-opacity="0.5"/>
<rect x="212" y="209" width="154" height="152" rx="18" fill="#F59563"/>
<rect x="212.5" y="209.5" width="153" height="151" rx="17.5" stroke="black" stroke-opacity="0.5"/>
<rect x="212" y="385" width="154" height="152" rx="18" fill="#EDC53F"/>
<rect x="212.5" y="385.5" width="153" height="151" rx="17.5" stroke="black" stroke-opacity="0.5"/>
<rect x="212" y="560" width="154" height="152" rx="18" fill="#F65E3B"/>
<rect x="212.5" y="560.5" width="153" height="151" rx="17.5" stroke="black" stroke-opacity="0.5"/>
<rect x="558" y="38" width="154" height="152" rx="18" fill="black" fill-opacity="0.357"/>
<rect x="558" y="209" width="154" height="152" rx="18" fill="#F2B179"/>
<rect x="558.5" y="209.5" width="153" height="151" rx="17.5" stroke="black" stroke-opacity="0.5"/>
<rect x="557" y="385" width="154" height="152" rx="18" fill="#EDCC61"/>
<rect x="557.5" y="385.5" width="153" height="151" rx="17.5" stroke="black" stroke-opacity="0.5"/>
<rect x="557" y="559" width="154" height="152" rx="18" fill="black" fill-opacity="0.357"/>
<rect x="384" y="38" width="154" height="152" rx="18" fill="#F2B179"/>
<rect x="384.5" y="38.5" width="153" height="151" rx="17.5" stroke="black" stroke-opacity="0.5"/>
<rect x="384" y="209" width="154" height="152" rx="18" fill="#F67C5F"/>
<rect x="384.5" y="209.5" width="153" height="151" rx="17.5" stroke="black" stroke-opacity="0.5"/>
<rect x="384" y="385" width="154" height="152" rx="18" fill="#EDC22E"/>
<rect x="384.5" y="385.5" width="153" height="151" rx="17.5" stroke="black" stroke-opacity="0.5"/>
<rect x="384" y="560" width="154" height="152" rx="18" fill="#F2B179"/>
<rect x="384.5" y="560.5" width="153" height="151" rx="17.5" stroke="black" stroke-opacity="0.5"/>
<path d="M634.513 312.576C629.35 312.576 625.361 311.488 622.545 309.312C619.729 307.093 618.321 304 618.321 300.032C618.321 296.917 619.281 294.336 621.201 292.288C623.121 290.197 625.659 288.939 628.817 288.512V289.472C625.958 288.875 623.675 287.573 621.969 285.568C620.262 283.52 619.409 281.109 619.409 278.336C619.409 274.539 620.753 271.595 623.441 269.504C626.129 267.371 629.819 266.304 634.513 266.304C639.249 266.304 642.961 267.371 645.649 269.504C648.337 271.595 649.681 274.539 649.681 278.336C649.681 281.109 648.87 283.52 647.249 285.568C645.67 287.616 643.451 288.896 640.593 289.408V288.512C643.707 288.939 646.182 290.197 648.017 292.288C649.851 294.336 650.769 296.917 650.769 300.032C650.769 304 649.361 307.093 646.545 309.312C643.729 311.488 639.718 312.576 634.513 312.576ZM634.513 308.224C638.267 308.224 641.062 307.52 642.897 306.112C644.774 304.704 645.713 302.571 645.713 299.712C645.713 296.896 644.774 294.805 642.897 293.44C641.062 292.032 638.267 291.328 634.513 291.328C630.758 291.328 627.942 292.032 626.065 293.44C624.23 294.805 623.312 296.896 623.312 299.712C623.312 302.571 624.251 304.704 626.129 306.112C628.006 307.52 630.801 308.224 634.513 308.224ZM634.513 286.976C637.755 286.976 640.23 286.251 641.937 284.8C643.686 283.349 644.561 281.344 644.561 278.784C644.561 276.224 643.686 274.24 641.937 272.832C640.23 271.381 637.755 270.656 634.513 270.656C631.27 270.656 628.774 271.381 627.025 272.832C625.318 274.24 624.465 276.224 624.465 278.784C624.465 281.344 625.318 283.349 627.025 284.8C628.774 286.251 631.27 286.976 634.513 286.976Z" fill="black"/>
<path d="M581.942 485V481.032L597.942 464.328C600.032 462.152 601.59 460.083 602.614 458.12C603.68 456.115 604.214 454.045 604.214 451.912C604.214 449.309 603.403 447.347 601.782 446.024C600.16 444.659 597.814 443.976 594.742 443.976C592.352 443.976 590.134 444.403 588.086 445.256C586.08 446.067 584.139 447.368 582.262 449.16L580.342 445C582.048 443.293 584.224 441.928 586.87 440.904C589.515 439.837 592.31 439.304 595.253 439.304C599.819 439.304 603.339 440.371 605.814 442.504C608.288 444.595 609.526 447.581 609.526 451.464C609.526 454.323 608.822 457.053 607.414 459.656C606.048 462.216 604.043 464.861 601.398 467.592L587.254 481.928V480.456H611.446V485H581.942ZM634.845 485.576C632.882 485.576 630.962 485.363 629.085 484.936C627.207 484.509 625.437 483.891 623.773 483.08C622.151 482.269 620.722 481.288 619.485 480.136L621.469 476.04C623.559 477.704 625.693 478.941 627.869 479.752C630.045 480.52 632.37 480.904 634.845 480.904C638.087 480.904 640.626 480.029 642.461 478.28C644.295 476.531 645.213 474.227 645.213 471.368C645.213 468.424 644.338 466.013 642.589 464.136C640.839 462.259 638.407 461.32 635.293 461.32C633.074 461.32 631.09 461.768 629.341 462.664C627.591 463.517 626.077 464.861 624.797 466.696H620.957V439.88H647.708V444.36H626.077V462.344H624.669C625.821 460.552 627.399 459.187 629.405 458.248C631.453 457.267 633.757 456.776 636.317 456.776C639.218 456.776 641.714 457.373 643.805 458.568C645.938 459.763 647.581 461.427 648.733 463.56C649.885 465.693 650.461 468.189 650.461 471.048C650.461 473.907 649.821 476.445 648.541 478.664C647.303 480.84 645.511 482.547 643.165 483.784C640.861 484.979 638.087 485.576 634.845 485.576ZM673.86 485.576C668.398 485.576 664.174 483.656 661.188 479.816C658.244 475.933 656.772 470.515 656.772 463.56C656.772 458.355 657.518 453.96 659.012 450.376C660.505 446.749 662.638 443.997 665.412 442.12C668.185 440.243 671.534 439.304 675.46 439.304C677.806 439.304 680.174 439.795 682.564 440.776C684.953 441.715 686.916 443.037 688.451 444.744L686.532 448.84C684.91 447.176 683.14 445.96 681.22 445.192C679.3 444.381 677.358 443.976 675.396 443.976C671.044 443.976 667.694 445.533 665.348 448.648C663.044 451.72 661.892 456.349 661.892 462.536V468.488H661.316C661.614 466.056 662.34 463.965 663.492 462.216C664.686 460.424 666.244 459.059 668.164 458.12C670.084 457.181 672.217 456.712 674.564 456.712C677.294 456.712 679.705 457.309 681.796 458.504C683.886 459.699 685.529 461.384 686.724 463.56C687.918 465.693 688.516 468.147 688.516 470.92C688.516 473.736 687.897 476.253 686.66 478.472C685.422 480.691 683.694 482.44 681.476 483.72C679.257 484.957 676.718 485.576 673.86 485.576ZM673.476 481.096C675.438 481.096 677.166 480.691 678.66 479.88C680.196 479.027 681.369 477.853 682.18 476.36C683.033 474.824 683.46 473.075 683.46 471.112C683.46 469.149 683.033 467.421 682.18 465.928C681.369 464.435 680.196 463.261 678.66 462.408C677.166 461.555 675.438 461.128 673.476 461.128C671.513 461.128 669.785 461.555 668.292 462.408C666.798 463.261 665.625 464.435 664.772 465.928C663.961 467.421 663.556 469.149 663.556 471.112C663.556 473.075 663.961 474.824 664.772 476.36C665.625 477.853 666.798 479.027 668.292 479.88C669.785 480.691 671.513 481.096 673.476 481.096Z" fill="black"/>
<path d="M442.069 312.576C439.04 312.576 436.138 312.107 433.365 311.168C430.592 310.229 428.266 308.885 426.389 307.136L428.373 303.04C430.464 304.747 432.618 305.984 434.837 306.752C437.056 307.52 439.445 307.904 442.005 307.904C445.376 307.904 447.936 307.2 449.685 305.792C451.434 304.341 452.309 302.229 452.309 299.456C452.309 296.811 451.413 294.805 449.621 293.44C447.829 292.032 445.205 291.328 441.749 291.328H434.965V286.912H441.301C444.288 286.912 446.656 286.144 448.405 284.608C450.154 283.072 451.029 280.981 451.029 278.336C451.029 275.947 450.218 274.133 448.597 272.896C447.018 271.616 444.736 270.976 441.749 270.976C436.885 270.976 432.682 272.704 429.141 276.16L427.157 272C428.906 270.208 431.104 268.821 433.749 267.84C436.394 266.816 439.168 266.304 442.069 266.304C446.506 266.304 449.984 267.328 452.501 269.376C455.018 271.424 456.277 274.261 456.277 277.888C456.277 280.661 455.488 283.051 453.909 285.056C452.33 287.019 450.197 288.363 447.509 289.088V288.384C450.709 288.896 453.184 290.176 454.933 292.224C456.682 294.229 457.557 296.768 457.557 299.84C457.557 303.765 456.17 306.88 453.397 309.184C450.666 311.445 446.89 312.576 442.069 312.576ZM467.004 312V308.032L483.004 291.328C485.095 289.152 486.652 287.083 487.676 285.12C488.743 283.115 489.276 281.045 489.276 278.912C489.276 276.309 488.465 274.347 486.844 273.024C485.223 271.659 482.876 270.976 479.804 270.976C477.415 270.976 475.196 271.403 473.148 272.256C471.143 273.067 469.201 274.368 467.324 276.16L465.404 272C467.111 270.293 469.287 268.928 471.932 267.904C474.577 266.837 477.372 266.304 480.316 266.304C484.881 266.304 488.401 267.371 490.876 269.504C493.351 271.595 494.588 274.581 494.588 278.464C494.588 281.323 493.884 284.053 492.476 286.656C491.111 289.216 489.105 291.861 486.46 294.592L472.316 308.928V307.456H496.508V312H467.004Z" fill="black"/>
<path d="M461.513 138.576C456.35 138.576 452.361 137.488 449.545 135.312C446.729 133.093 445.321 130 445.321 126.032C445.321 122.917 446.281 120.336 448.201 118.288C450.121 116.197 452.659 114.939 455.817 114.512V115.472C452.958 114.875 450.675 113.573 448.969 111.568C447.262 109.52 446.409 107.109 446.409 104.336C446.409 100.539 447.753 97.5947 450.441 95.504C453.129 93.3707 456.819 92.304 461.513 92.304C466.249 92.304 469.961 93.3707 472.649 95.504C475.337 97.5947 476.681 100.539 476.681 104.336C476.681 107.109 475.87 109.52 474.249 111.568C472.67 113.616 470.451 114.896 467.593 115.408V114.512C470.707 114.939 473.182 116.197 475.017 118.288C476.851 120.336 477.769 122.917 477.769 126.032C477.769 130 476.361 133.093 473.545 135.312C470.729 137.488 466.718 138.576 461.513 138.576ZM461.513 134.224C465.267 134.224 468.062 133.52 469.897 132.112C471.774 130.704 472.713 128.571 472.713 125.712C472.713 122.896 471.774 120.805 469.897 119.44C468.062 118.032 465.267 117.328 461.513 117.328C457.758 117.328 454.942 118.032 453.065 119.44C451.23 120.805 450.312 122.896 450.312 125.712C450.312 128.571 451.251 130.704 453.129 132.112C455.006 133.52 457.801 134.224 461.513 134.224ZM461.513 112.976C464.755 112.976 467.23 112.251 468.937 110.8C470.686 109.349 471.561 107.344 471.561 104.784C471.561 102.224 470.686 100.24 468.937 98.832C467.23 97.3813 464.755 96.656 461.513 96.656C458.27 96.656 455.774 97.3813 454.025 98.832C452.318 100.24 451.465 102.224 451.465 104.784C451.465 107.344 452.318 109.349 454.025 110.8C455.774 112.251 458.27 112.976 461.513 112.976Z" fill="black"/>
<path d="M405.339 479V475.9L417.839 462.85C419.472 461.15 420.689 459.533 421.489 458C422.322 456.433 422.739 454.817 422.739 453.15C422.739 451.117 422.106 449.583 420.839 448.55C419.572 447.483 417.739 446.95 415.339 446.95C413.472 446.95 411.739 447.283 410.139 447.95C408.572 448.583 407.056 449.6 405.589 451L404.089 447.75C405.422 446.417 407.122 445.35 409.189 444.55C411.256 443.717 413.439 443.3 415.739 443.3C419.306 443.3 422.056 444.133 423.989 445.8C425.922 447.433 426.889 449.767 426.889 452.8C426.889 455.033 426.339 457.167 425.239 459.2C424.172 461.2 422.606 463.267 420.539 465.4L409.489 476.6V475.45H428.389V479H405.339ZM446.02 479.45C442.02 479.45 438.953 477.9 436.82 474.8C434.686 471.7 433.62 467.217 433.62 461.35C433.62 455.45 434.686 450.967 436.82 447.9C438.953 444.833 442.02 443.3 446.02 443.3C450.053 443.3 453.12 444.833 455.22 447.9C457.353 450.967 458.42 455.433 458.42 461.3C458.42 467.2 457.353 471.7 455.22 474.8C453.086 477.9 450.02 479.45 446.02 479.45ZM446.02 475.85C448.82 475.85 450.903 474.667 452.27 472.3C453.636 469.933 454.32 466.267 454.32 461.3C454.32 456.3 453.636 452.65 452.27 450.35C450.903 448.017 448.82 446.85 446.02 446.85C443.253 446.85 441.17 448.017 439.77 450.35C438.403 452.683 437.72 456.333 437.72 461.3C437.72 466.267 438.403 469.933 439.77 472.3C441.17 474.667 443.253 475.85 446.02 475.85ZM480.3 479V471.35H463.5V468.35L480.95 443.75H484.35V468H489.75V471.35H484.35V479H480.3ZM480.3 468V448.65H481.4L466.9 469.05V468H480.3ZM505.98 479.45C501.947 479.45 498.83 478.6 496.63 476.9C494.43 475.167 493.33 472.75 493.33 469.65C493.33 467.217 494.08 465.2 495.58 463.6C497.08 461.967 499.064 460.983 501.53 460.65V461.4C499.297 460.933 497.514 459.917 496.18 458.35C494.847 456.75 494.18 454.867 494.18 452.7C494.18 449.733 495.23 447.433 497.33 445.8C499.43 444.133 502.314 443.3 505.98 443.3C509.68 443.3 512.58 444.133 514.68 445.8C516.78 447.433 517.83 449.733 517.83 452.7C517.83 454.867 517.197 456.75 515.93 458.35C514.697 459.95 512.964 460.95 510.73 461.35V460.65C513.164 460.983 515.097 461.967 516.53 463.6C517.964 465.2 518.68 467.217 518.68 469.65C518.68 472.75 517.58 475.167 515.38 476.9C513.18 478.6 510.047 479.45 505.98 479.45ZM505.98 476.05C508.914 476.05 511.097 475.5 512.53 474.4C513.997 473.3 514.73 471.633 514.73 469.4C514.73 467.2 513.997 465.567 512.53 464.5C511.097 463.4 508.914 462.85 505.98 462.85C503.047 462.85 500.847 463.4 499.38 464.5C497.947 465.567 497.23 467.2 497.23 469.4C497.23 471.633 497.964 473.3 499.43 474.4C500.897 475.5 503.08 476.05 505.98 476.05ZM505.98 459.45C508.514 459.45 510.447 458.883 511.78 457.75C513.147 456.617 513.83 455.05 513.83 453.05C513.83 451.05 513.147 449.5 511.78 448.4C510.447 447.267 508.514 446.7 505.98 446.7C503.447 446.7 501.497 447.267 500.13 448.4C498.797 449.5 498.13 451.05 498.13 453.05C498.13 455.05 498.797 456.617 500.13 457.75C501.497 458.883 503.447 459.45 505.98 459.45Z" fill="black"/>
<path d="M461.513 656.576C456.35 656.576 452.361 655.488 449.545 653.312C446.729 651.093 445.321 648 445.321 644.032C445.321 640.917 446.281 638.336 448.201 636.288C450.121 634.197 452.659 632.939 455.817 632.512V633.472C452.958 632.875 450.675 631.573 448.969 629.568C447.262 627.52 446.409 625.109 446.409 622.336C446.409 618.539 447.753 615.595 450.441 613.504C453.129 611.371 456.819 610.304 461.513 610.304C466.249 610.304 469.961 611.371 472.649 613.504C475.337 615.595 476.681 618.539 476.681 622.336C476.681 625.109 475.87 627.52 474.249 629.568C472.67 631.616 470.451 632.896 467.593 633.408V632.512C470.707 632.939 473.182 634.197 475.017 636.288C476.851 638.336 477.769 640.917 477.769 644.032C477.769 648 476.361 651.093 473.545 653.312C470.729 655.488 466.718 656.576 461.513 656.576ZM461.513 652.224C465.267 652.224 468.062 651.52 469.897 650.112C471.774 648.704 472.713 646.571 472.713 643.712C472.713 640.896 471.774 638.805 469.897 637.44C468.062 636.032 465.267 635.328 461.513 635.328C457.758 635.328 454.942 636.032 453.065 637.44C451.23 638.805 450.312 640.896 450.312 643.712C450.312 646.571 451.251 648.704 453.129 650.112C455.006 651.52 457.801 652.224 461.513 652.224ZM461.513 630.976C464.755 630.976 467.23 630.251 468.937 628.8C470.686 627.349 471.561 625.344 471.561 622.784C471.561 620.224 470.686 618.24 468.937 616.832C467.23 615.381 464.755 614.656 461.513 614.656C458.27 614.656 455.774 615.381 454.025 616.832C452.318 618.24 451.465 620.224 451.465 622.784C451.465 625.344 452.318 627.349 454.025 628.8C455.774 630.251 458.27 630.976 461.513 630.976Z" fill="black"/>
<path d="M257.253 312V307.456H267.877V271.424H270.693L258.277 279.168V273.856L269.349 266.88H273.189V307.456H283.173V312H257.253ZM308.172 312.576C302.711 312.576 298.487 310.656 295.5 306.816C292.556 302.933 291.084 297.515 291.084 290.56C291.084 285.355 291.831 280.96 293.324 277.376C294.817 273.749 296.951 270.997 299.724 269.12C302.497 267.243 305.847 266.304 309.772 266.304C312.119 266.304 314.487 266.795 316.876 267.776C319.265 268.715 321.228 270.037 322.764 271.744L320.844 275.84C319.223 274.176 317.452 272.96 315.532 272.192C313.612 271.381 311.671 270.976 309.708 270.976C305.356 270.976 302.007 272.533 299.66 275.648C297.356 278.72 296.204 283.349 296.204 289.536V295.488H295.628C295.927 293.056 296.652 290.965 297.804 289.216C298.999 287.424 300.556 286.059 302.476 285.12C304.396 284.181 306.529 283.712 308.876 283.712C311.607 283.712 314.017 284.309 316.108 285.504C318.199 286.699 319.841 288.384 321.036 290.56C322.231 292.693 322.828 295.147 322.828 297.92C322.828 300.736 322.209 303.253 320.972 305.472C319.735 307.691 318.007 309.44 315.788 310.72C313.569 311.957 311.031 312.576 308.172 312.576ZM307.788 308.096C309.751 308.096 311.479 307.691 312.972 306.88C314.508 306.027 315.681 304.853 316.492 303.36C317.345 301.824 317.772 300.075 317.772 298.112C317.772 296.149 317.345 294.421 316.492 292.928C315.681 291.435 314.508 290.261 312.972 289.408C311.479 288.555 309.751 288.128 307.788 288.128C305.825 288.128 304.097 288.555 302.604 289.408C301.111 290.261 299.937 291.435 299.084 292.928C298.273 294.421 297.868 296.149 297.868 298.112C297.868 300.075 298.273 301.824 299.084 303.36C299.937 304.853 301.111 306.027 302.604 306.88C304.097 307.691 305.825 308.096 307.788 308.096Z" fill="black"/>
<path d="M293.017 138V128.208H271.513V124.368L293.849 92.88H298.201V123.92H305.113V128.208H298.201V138H293.017ZM293.017 123.92V99.152H294.425L275.865 125.264V123.92H293.017Z" fill="black"/>
<path d="M234.389 479V475.45H242.689V447.3H244.889L235.189 453.35V449.2L243.839 443.75H246.839V475.45H254.639V479H234.389ZM273.02 479.45C269.02 479.45 265.953 477.9 263.82 474.8C261.686 471.7 260.62 467.217 260.62 461.35C260.62 455.45 261.686 450.967 263.82 447.9C265.953 444.833 269.02 443.3 273.02 443.3C277.053 443.3 280.12 444.833 282.22 447.9C284.353 450.967 285.42 455.433 285.42 461.3C285.42 467.2 284.353 471.7 282.22 474.8C280.086 477.9 277.02 479.45 273.02 479.45ZM273.02 475.85C275.82 475.85 277.903 474.667 279.27 472.3C280.636 469.933 281.32 466.267 281.32 461.3C281.32 456.3 280.636 452.65 279.27 450.35C277.903 448.017 275.82 446.85 273.02 446.85C270.253 446.85 268.17 448.017 266.77 450.35C265.403 452.683 264.72 456.333 264.72 461.3C264.72 466.267 265.403 469.933 266.77 472.3C268.17 474.667 270.253 475.85 273.02 475.85ZM292.3 479V475.9L304.8 462.85C306.433 461.15 307.65 459.533 308.45 458C309.283 456.433 309.7 454.817 309.7 453.15C309.7 451.117 309.067 449.583 307.8 448.55C306.533 447.483 304.7 446.95 302.3 446.95C300.433 446.95 298.7 447.283 297.1 447.95C295.533 448.583 294.017 449.6 292.55 451L291.05 447.75C292.383 446.417 294.083 445.35 296.15 444.55C298.217 443.717 300.4 443.3 302.7 443.3C306.267 443.3 309.017 444.133 310.95 445.8C312.883 447.433 313.85 449.767 313.85 452.8C313.85 455.033 313.3 457.167 312.2 459.2C311.133 461.2 309.567 463.267 307.5 465.4L296.45 476.6V475.45H315.35V479H292.3ZM337.28 479V471.35H320.48V468.35L337.93 443.75H341.33V468H346.73V471.35H341.33V479H337.28ZM337.28 468V448.65H338.38L323.88 469.05V468H337.28Z" fill="black"/>
<path d="M269.797 656.576C264.336 656.576 260.112 654.656 257.125 650.816C254.181 646.933 252.709 641.515 252.709 634.56C252.709 629.355 253.456 624.96 254.949 621.376C256.442 617.749 258.576 614.997 261.349 613.12C264.122 611.243 267.472 610.304 271.397 610.304C273.744 610.304 276.112 610.795 278.501 611.776C280.89 612.715 282.853 614.037 284.389 615.744L282.469 619.84C280.848 618.176 279.077 616.96 277.157 616.192C275.237 615.381 273.296 614.976 271.333 614.976C266.981 614.976 263.632 616.533 261.285 619.648C258.981 622.72 257.829 627.349 257.829 633.536V639.488H257.253C257.552 637.056 258.277 634.965 259.429 633.216C260.624 631.424 262.181 630.059 264.101 629.12C266.021 628.181 268.154 627.712 270.501 627.712C273.232 627.712 275.642 628.309 277.733 629.504C279.824 630.699 281.466 632.384 282.661 634.56C283.856 636.693 284.453 639.147 284.453 641.92C284.453 644.736 283.834 647.253 282.597 649.472C281.36 651.691 279.632 653.44 277.413 654.72C275.194 655.957 272.656 656.576 269.797 656.576ZM269.413 652.096C271.376 652.096 273.104 651.691 274.597 650.88C276.133 650.027 277.306 648.853 278.117 647.36C278.97 645.824 279.397 644.075 279.397 642.112C279.397 640.149 278.97 638.421 278.117 636.928C277.306 635.435 276.133 634.261 274.597 633.408C273.104 632.555 271.376 632.128 269.413 632.128C267.45 632.128 265.722 632.555 264.229 633.408C262.736 634.261 261.562 635.435 260.709 636.928C259.898 638.421 259.493 640.149 259.493 642.112C259.493 644.075 259.898 645.824 260.709 647.36C261.562 648.853 262.736 650.027 264.229 650.88C265.722 651.691 267.45 652.096 269.413 652.096ZM312.204 656V646.208H290.7V642.368L313.036 610.88H317.388V641.92H324.3V646.208H317.388V656H312.204ZM312.204 641.92V617.152H313.612L295.052 643.264V641.92H312.204Z" fill="black"/>
<path d="M114.513 312.576C109.35 312.576 105.361 311.488 102.545 309.312C99.7285 307.093 98.3205 304 98.3205 300.032C98.3205 296.917 99.2805 294.336 101.201 292.288C103.121 290.197 105.659 288.939 108.817 288.512V289.472C105.958 288.875 103.675 287.573 101.969 285.568C100.262 283.52 99.4085 281.109 99.4085 278.336C99.4085 274.539 100.753 271.595 103.441 269.504C106.129 267.371 109.819 266.304 114.513 266.304C119.249 266.304 122.961 267.371 125.649 269.504C128.337 271.595 129.681 274.539 129.681 278.336C129.681 281.109 128.87 283.52 127.249 285.568C125.67 287.616 123.451 288.896 120.593 289.408V288.512C123.707 288.939 126.182 290.197 128.017 292.288C129.851 294.336 130.769 296.917 130.769 300.032C130.769 304 129.361 307.093 126.545 309.312C123.729 311.488 119.718 312.576 114.513 312.576ZM114.513 308.224C118.267 308.224 121.062 307.52 122.897 306.112C124.774 304.704 125.713 302.571 125.713 299.712C125.713 296.896 124.774 294.805 122.897 293.44C121.062 292.032 118.267 291.328 114.513 291.328C110.758 291.328 107.942 292.032 106.065 293.44C104.23 294.805 103.312 296.896 103.312 299.712C103.312 302.571 104.251 304.704 106.129 306.112C108.006 307.52 110.801 308.224 114.513 308.224ZM114.513 286.976C117.755 286.976 120.23 286.251 121.937 284.8C123.686 283.349 124.561 281.344 124.561 278.784C124.561 276.224 123.686 274.24 121.937 272.832C120.23 271.381 117.755 270.656 114.513 270.656C111.27 270.656 108.774 271.381 107.025 272.832C105.318 274.24 104.465 276.224 104.465 278.784C104.465 281.344 105.318 283.349 107.025 284.8C108.774 286.251 111.27 286.976 114.513 286.976Z" fill="black"/>
<path d="M100.817 138V134.032L116.817 117.328C118.907 115.152 120.465 113.083 121.489 111.12C122.555 109.115 123.089 107.045 123.089 104.912C123.089 102.309 122.278 100.347 120.657 99.024C119.035 97.6587 116.689 96.976 113.617 96.976C111.227 96.976 109.009 97.4027 106.961 98.256C104.955 99.0667 103.014 100.368 101.137 102.16L99.2165 98C100.923 96.2933 103.099 94.928 105.745 93.904C108.39 92.8373 111.185 92.304 114.128 92.304C118.694 92.304 122.214 93.3707 124.689 95.504C127.163 97.5947 128.401 100.581 128.401 104.464C128.401 107.323 127.697 110.053 126.289 112.656C124.923 115.216 122.918 117.861 120.273 120.592L106.129 134.928V133.456H130.321V138H100.817Z" fill="black"/>
<path d="M95.069 485.576C92.0397 485.576 89.1383 485.107 86.365 484.168C83.5917 483.229 81.2663 481.885 79.389 480.136L81.373 476.04C83.4637 477.747 85.6183 478.984 87.837 479.752C90.0557 480.52 92.445 480.904 95.005 480.904C98.3757 480.904 100.936 480.2 102.685 478.792C104.434 477.341 105.309 475.229 105.309 472.456C105.309 469.811 104.413 467.805 102.621 466.44C100.829 465.032 98.205 464.328 94.749 464.328H87.965V459.912H94.301C97.2877 459.912 99.6557 459.144 101.405 457.608C103.154 456.072 104.029 453.981 104.029 451.336C104.029 448.947 103.218 447.133 101.597 445.896C100.018 444.616 97.7357 443.976 94.749 443.976C89.885 443.976 85.6823 445.704 82.141 449.16L80.157 445C81.9063 443.208 84.1037 441.821 86.749 440.84C89.3943 439.816 92.1677 439.304 95.069 439.304C99.5063 439.304 102.984 440.328 105.501 442.376C108.018 444.424 109.277 447.261 109.277 450.888C109.277 453.661 108.488 456.051 106.909 458.056C105.33 460.019 103.197 461.363 100.509 462.088V461.384C103.709 461.896 106.184 463.176 107.933 465.224C109.682 467.229 110.557 469.768 110.557 472.84C110.557 476.765 109.17 479.88 106.397 482.184C103.666 484.445 99.8903 485.576 95.069 485.576ZM120.004 485V481.032L136.004 464.328C138.095 462.152 139.652 460.083 140.676 458.12C141.743 456.115 142.276 454.045 142.276 451.912C142.276 449.309 141.465 447.347 139.844 446.024C138.223 444.659 135.876 443.976 132.804 443.976C130.415 443.976 128.196 444.403 126.148 445.256C124.143 446.067 122.201 447.368 120.324 449.16L118.404 445C120.111 443.293 122.287 441.928 124.932 440.904C127.577 439.837 130.372 439.304 133.316 439.304C137.881 439.304 141.401 440.371 143.876 442.504C146.351 444.595 147.588 447.581 147.588 451.464C147.588 454.323 146.884 457.053 145.476 459.656C144.111 462.216 142.105 464.861 139.46 467.592L125.316 481.928V480.456H149.508V485H120.004Z" fill="black"/>
<path d="M68.6552 658V653.74H78.6152V619.96H81.2552L69.6152 627.22V622.24L79.9952 615.7H83.5952V653.74H92.9552V658H68.6552ZM102.172 658V654.28L117.172 638.62C119.132 636.58 120.592 634.64 121.552 632.8C122.552 630.92 123.052 628.98 123.052 626.98C123.052 624.54 122.292 622.7 120.772 621.46C119.252 620.18 117.052 619.54 114.172 619.54C111.932 619.54 109.852 619.94 107.932 620.74C106.052 621.5 104.232 622.72 102.472 624.4L100.672 620.5C102.272 618.9 104.312 617.62 106.792 616.66C109.272 615.66 111.892 615.16 114.652 615.16C118.932 615.16 122.232 616.16 124.552 618.16C126.872 620.12 128.032 622.92 128.032 626.56C128.032 629.24 127.372 631.8 126.052 634.24C124.772 636.64 122.892 639.12 120.412 641.68L107.152 655.12V653.74H129.832V658H102.172ZM150.988 658.54C146.148 658.54 142.408 657.52 139.768 655.48C137.128 653.4 135.808 650.5 135.808 646.78C135.808 643.86 136.708 641.44 138.508 639.52C140.308 637.56 142.688 636.38 145.648 635.98V636.88C142.968 636.32 140.828 635.1 139.228 633.22C137.628 631.3 136.828 629.04 136.828 626.44C136.828 622.88 138.088 620.12 140.608 618.16C143.128 616.16 146.588 615.16 150.988 615.16C155.428 615.16 158.908 616.16 161.428 618.16C163.948 620.12 165.208 622.88 165.208 626.44C165.208 629.04 164.448 631.3 162.928 633.22C161.448 635.14 159.368 636.34 156.688 636.82V635.98C159.608 636.38 161.928 637.56 163.648 639.52C165.368 641.44 166.228 643.86 166.228 646.78C166.228 650.5 164.908 653.4 162.268 655.48C159.628 657.52 155.868 658.54 150.988 658.54ZM150.988 654.46C154.508 654.46 157.128 653.8 158.848 652.48C160.608 651.16 161.488 649.16 161.488 646.48C161.488 643.84 160.608 641.88 158.848 640.6C157.128 639.28 154.508 638.62 150.988 638.62C147.468 638.62 144.828 639.28 143.068 640.6C141.348 641.88 140.488 643.84 140.488 646.48C140.488 649.16 141.368 651.16 143.128 652.48C144.888 653.8 147.508 654.46 150.988 654.46ZM150.988 634.54C154.028 634.54 156.348 633.86 157.948 632.5C159.588 631.14 160.408 629.26 160.408 626.86C160.408 624.46 159.588 622.6 157.948 621.28C156.348 619.92 154.028 619.24 150.988 619.24C147.948 619.24 145.608 619.92 143.968 621.28C142.368 622.6 141.568 624.46 141.568 626.86C141.568 629.26 142.368 631.14 143.968 632.5C145.608 633.86 147.948 634.54 150.988 634.54Z" fill="black"/>
</svg>
