<svg width="30" height="30" viewBox="0 0 30 30" fill="none" xmlns="http://www.w3.org/2000/svg">
<path fill-rule="evenodd" clip-rule="evenodd" d="M15 0.9375C8.61437 0.9375 3.4375 6.11437 3.4375 12.5C3.4375 16.1781 5.15625 19.455 7.83 21.5719C7.94625 21.9862 8.05937 22.3675 8.15875 22.6894C8.4525 23.6481 9.26813 24.3825 10.3163 24.4919C11.2244 24.5863 12.7256 24.6875 15 24.6875C17.275 24.6875 18.7756 24.5863 19.6837 24.4919C20.7319 24.3825 21.5469 23.6481 21.8412 22.6894C21.9406 22.3675 22.0538 21.9862 22.17 21.5719C24.8438 19.455 26.5625 16.1781 26.5625 12.5C26.5625 6.11437 21.3856 0.9375 15 0.9375ZM15 6.5625C16.409 6.5625 17.7602 7.12221 18.7565 8.1185C19.7528 9.11478 20.3125 10.466 20.3125 11.875C20.3125 12.1236 20.4113 12.3621 20.5871 12.5379C20.7629 12.7137 21.0014 12.8125 21.25 12.8125C21.4986 12.8125 21.7371 12.7137 21.9129 12.5379C22.0887 12.3621 22.1875 12.1236 22.1875 11.875C22.1875 7.90563 18.9694 4.6875 15 4.6875C14.7514 4.6875 14.5129 4.78627 14.3371 4.96209C14.1613 5.1379 14.0625 5.37636 14.0625 5.625C14.0625 5.87364 14.1613 6.1121 14.3371 6.28791C14.5129 6.46373 14.7514 6.5625 15 6.5625ZM10.1538 26.0456C9.98596 26.0281 9.8194 26.0003 9.655 25.9625C9.68875 26.1513 9.72187 26.3287 9.75312 26.4937C9.96875 27.6456 10.8194 28.6719 12.1113 28.8675C12.8131 28.9737 13.7687 29.0625 15 29.0625C16.1706 29.0625 17.1387 28.9819 17.8825 28.8844C19.3675 28.6894 20.3375 27.4625 20.4844 26.1094L20.5044 25.9219C20.2925 25.98 20.0731 26.0219 19.8456 26.0456C18.8756 26.1469 17.32 26.25 15 26.25C12.68 26.25 11.1244 26.1469 10.1538 26.0456Z" fill="white"/>
</svg>
