<svg xmlns="http://www.w3.org/2000/svg" viewBox="0 0 1606.61 610.14"><defs><style>.cls-1{fill:#fe9002;}.cls-2{fill:#fefefd;}.cls-3{fill:#fff;}</style></defs><title>khalis logo</title><g id="wave_sanford_Image" data-name="wave sanford Image"><path class="cls-1" d="M445,413c35.12-1.73,69.31-8.68,103-18.35,46.71-13.39,91.3-32.37,135.55-52.15,16.58-7.42,34.29-10.71,51.62-15.31,62.11-16.47,124.46-32,187.51-44.57,56.19-11.2,112.7-20.23,169.75-25.87,30.33-3,60.73-5,91.17-6.47,1.47-.07,3.42.81,4.38-1.28h93c2.93,2.57,6.57,1.52,9.86,1.66,48.65,2.17,97,7,144.64,17.4,34.29,7.5,67.78,17.31,98.66,34.56,11.4,6.37,22,13.8,31,23.3,1.86,2,4.14,3.72,4.83,6.54-1.48,1-2.46.09-3.48-.37-42.74-19.18-87.77-30.16-133.88-37.18a801.29,801.29,0,0,0-162.46-7.71c-38.15,2-75.82,7.65-113.46,14.05-32.16,5.47-64.53,9.72-96.54,16.14C999.1,329.63,939,346,878.91,362.33c-34.22,9.31-68.33,19.1-103.37,25-6.07,1-12.21,1.91-18.39,1.25-1.9-.2-4.22-.25-5-2.55s.78-3.85,2.12-5.27c6.35-6.74,14.25-11.45,22-16.37,5.34-3.4,11-6.35,15.86-10.41,2-1.64,5.09-3.28,4.1-6.22s-4.5-2.5-7-2.6c-8-.3-16,.84-23.86,2.06a679.3,679.3,0,0,0-69.47,14.24c-11.83,3.12-23,8.7-34.45,13.31-40.94,16.51-81.94,32.85-124.64,44.41C520.94,423.49,505,427,489,430.16L445,430Z" transform="translate(-137.86 -33.66)"/><path class="cls-2" d="M505,430l44,.16V431c-13.68,0-27.36,0-41-.06C507,430.93,505.37,432.15,505,430Z" transform="translate(-137.86 -33.66)"/></g><g id="KHAL_S" data-name="KHAL  S"><path class="cls-3" d="M219.79,369.36q0,25.63,5.6,35.78,7.63,14,31.55,17.4l1.52,3.38-2.54,3.39h-114l-2.54-3.39,1.53-3.38q22.89-3.37,30.53-17.89,5.6-10.62,5.6-35.29V183.73q0-25.12-6.11-35.77-7.63-14-31.55-17.41l-1.53-3.38,2.55-3.38h114l2.55,3.38-1.53,3.38q-22.89,3.39-30.53,17.89-5.1,9.67-5.09,35.29v89.92q24.93-7.26,63.1-42.54,30.53-28,49.87-58,19.85-23.21,19.84-30.46,0-7.72-14.24-12.09l-1-3.38,2-3.38h114l2,3.38-1,3.38q-32.07,3.88-55,17.41-19.35,11.6-43.25,37.22-43.77,46.89-90.07,80.25,39.69,0,81.42,38.67,21.36,19.83,60,69.61,32.57,42.06,75.82,48.83l1,3.38-2,3.39h-117l-2-4.84a20.27,20.27,0,0,0,3-11.11q0-8.22-5.09-19.82-18.31-42.06-60-77.84a226.64,226.64,0,0,0-42.75-28,43.86,43.86,0,0,0-15.77-3.39,22,22,0,0,0-6.62,1A45.46,45.46,0,0,0,219.79,292Z" transform="translate(-137.86 -33.66)"/><path class="cls-3" d="M534.24,245q0-18.12-3.43-25.74-5.35-11.59-21-14.14l-1.15-2.54,1.91-2.53H593l1.9,2.53-1.14,2.54q-17.56,2.55-23.28,13-4.2,7.62-4.2,26.83v59.1H723.92V245q0-19.2-5-27.19-6.11-10.51-24.81-12.69l-1.52-2.54,2.29-2.53h86.25l1.91,2.53-1.15,2.54q-16.41,2.55-22.13,13.78Q756,226.52,756,245V384.23q0,18.5,4.2,26.47,5.72,10.88,22.9,13.41l1.14,2.54-1.91,2.54H696.06l-2.29-2.54,1.53-2.54q17.93-2.53,24-13.05,4.57-7.62,4.58-26.83V315.34H566.3v68.89q0,19.22,4.58,27.19,6.11,10.53,24,12.69l1.15,2.54-2.29,2.54H511.72l-1.9-2.54,1.14-2.54q15.26-2.53,20.23-14.5,3-7.25,3-25.38Z" transform="translate(-137.86 -33.66)"/><path class="cls-3" d="M1078.77,424.11l.77,2.54-1.53,2.54H987.18l-1.53-2.53.76-2.54q24.42-1.81,25.19-10.87l.38-4.71q.38-6.87-4.29-17.74L977.51,323H890.35l-26.42,58.38q-7.27,15.95-7.28,23.92,0,15.58,27.1,18.85l.76,2.54L883,429.19H807.42l-1.53-2.54.77-2.54q23.26-4.71,40.83-42.42L928,209.11,929.55,199l1.91-3.26a31.76,31.76,0,0,1,8-1.09h2.29a53.18,53.18,0,0,1,10.68,1.09l5.34,9.42,85.49,187.09Q1057,422.66,1078.77,424.11ZM973.13,310.63,934.4,227.69l-38.71,82.94Z" transform="translate(-137.86 -33.66)"/><path class="cls-3" d="M1164.76,245V387.13q0,16.68,5.34,22.84,6.11,7.62,22.9,7.62h32.82q56.48,0,80.15-31.91l5.34-7.25a3.83,3.83,0,0,1,1.91-.73l1.52.37a2.62,2.62,0,0,1,2.29,2.17l-22.9,48.59-192.35.36-2.29-2.54,1.53-2.54q19.08-2.17,26-12.33,5.73-8.32,5.73-27.55V245q0-19.2-3.82-26.46-5.73-10.87-22.9-13.42l-1.14-2.54,1.91-2.53h90.45l2.29,2.53-1.53,2.54q-19.85,2.17-26.53,11.06T1164.76,245Z" transform="translate(-137.86 -33.66)"/><path class="cls-3" d="M1744.47,366q0,33.78-32.44,52.65Q1684.55,435,1647.15,435q-38.16,0-81.29-17.77l-4.2,2.18h-3.43l1.53-48.22a7.89,7.89,0,0,1,3.43-.73,4.14,4.14,0,0,1,3.44,1.45q4.57,25.38,29.38,40.25,22.52,13.41,51.14,13.41,25.95,0,44.66-10.87,21.75-13.06,21.75-36.26,0-34.81-64.5-54.75-84.72-26.1-84.72-68.89,0-30.45,29.38-46.77,24.42-13.77,58.4-13.78,35.87,0,71.36,15.23l3.82-1.81h3.43l-1.9,40.24a4.83,4.83,0,0,1-2.68,1.82q-1.14,0-2.67-1.83-6.49-21.55-30.15-34a95.66,95.66,0,0,0-46.18-11.33q-21.75,0-36.25,9.81-16,10.89-16,30.86,0,32.33,72.51,54.11Q1744.47,320.24,1744.47,366Z" transform="translate(-137.86 -33.66)"/></g><g id="Ç_Image" data-name="Ç Image"><path class="cls-3" d="M1431,643.8a6.73,6.73,0,0,0-2-1.11,37.2,37.2,0,0,1-10-3.21,37.7,37.7,0,0,1-10.5-7.06,35.83,35.83,0,0,1-6.28-7.34,29.24,29.24,0,0,1-4.41-15.55,24.62,24.62,0,0,1,3.75-12.8,45,45,0,0,1,8.92-10.33,7.47,7.47,0,0,0,2.57-6.12c-.16-15-.22-30.07-.39-45.11-.27-24-.62-48-.86-72a5.22,5.22,0,0,0-2.53-4.67c-6.79-4.59-13.51-9.26-20.34-13.79a84.33,84.33,0,0,0-8.21-4.72,57.35,57.35,0,0,0-6.12-2.51q-5.25-2-10.54-3.83c-3.89-1.37-7.79-2.7-11.69-4.05-1.79-.62-2.11-1.33-1.23-3,1.44-2.7,2.93-5.37,4.42-8,3.41-6.14,6.92-12.23,10.22-18.43,2.65-5,5.21-10,7.53-15.13,2.07-4.61,3.8-9.38,5.6-14.11,1.22-3.2,2.35-6.43,3.44-9.68.91-2.69,1.7-5.42,2.55-8.13s1.66-5.25,2.5-7.87c1.14-3.53,2.33-7,3.42-10.58,1-3.12,1.86-6.25,2.67-9.41.93-3.61,1.72-7.25,2.56-10.89.56-2.39,1.1-4.79,1.64-7.18,0-.16.07-.31.09-.47.42-3.31.76-6.64,1.26-9.94,1.64-10.74,1-21.54.7-32.31-.14-4.84-1-9.65-1.57-14.48,0-.16,0-.32-.06-.48-.42-3.55-.76-7.12-1.29-10.66-.39-2.66-1-5.29-1.55-7.93-.4-2-.74-4.06-1.19-6.08-1.31-6-2.62-12-4-18-1-4.47-2.06-8.95-3.27-13.37-1.06-3.88-2.41-7.67-3.56-11.52-.82-2.73-1.5-5.51-2.3-8.26-1.25-4.26-2.57-8.51-3.83-12.77-.72-2.43-1.34-4.89-2.11-7.31a90.09,90.09,0,0,0-3.36-9.86c-3-6.57-6.24-13-9.33-19.49-1.12-2.34-2.07-4.75-3.14-7.11-1.25-2.71-2.55-5.4-3.82-8.1-.33-.71-.62-1.44-1-2.32l2.63-1.74c8.37-5.59,16.79-11.09,25.08-16.8,7.24-5,14.52-10,21.42-15.41a87.24,87.24,0,0,0,11-11c4.7-5.31,9.07-10.91,13.61-16.37,2.56-3.09,5.16-6.15,7.74-9.22a6,6,0,0,1,.39-.59c2.27-2,2.22-3.46,5.07.25,4.12,5.36,8.64,10.42,13.06,15.56,2.41,2.82,4.94,5.54,7.44,8.28,3.76,4.15,7.43,8.41,11.37,12.39a57.41,57.41,0,0,0,7.47,6c8.4,6,16.8,12,25.33,17.87,4.85,3.32,10,6.25,14.95,9.37.66.41,1.29.87,2,1.34l-3.23,7.3c-1.3,2.94-2.53,5.91-3.93,8.8s-3,5.42-4.32,8.21c-2.48,5.3-5,10.59-7.14,16-1.68,4.29-2.81,8.78-4.17,13.19-1.16,3.78-2.27,7.58-3.42,11.36-1.2,3.93-2.54,7.82-3.61,11.77-1.5,5.59-2.8,11.22-4.21,16.83-.85,3.4-1.79,6.78-2.62,10.18-.54,2.24-.93,4.51-1.42,6.76s-1.07,4.8-1.58,7.2c-.4,1.86-.82,3.72-1.13,5.6-.47,2.82-.82,5.66-1.26,8.48-.52,3.29-1.08,6.58-1.62,9.87,0,.32-.11.63-.14,1-.43,5.08-.91,10.17-1.29,15.25-.3,4.06-.66,8.12-.69,12.18a84.73,84.73,0,0,0,1.61,16.65c.54,2.8.79,5.67,1.3,8.48.43,2.33,1.06,4.63,1.58,7,.42,1.86.79,3.73,1.24,5.58.55,2.3,1.17,4.6,1.74,6.9.76,3.07,1.47,6.17,2.28,9.23s1.7,6,2.56,8.95,1.69,5.92,2.6,8.87c.81,2.63,1.74,5.22,2.57,7.85.45,1.42.77,2.9,1.2,4.33,2.82,9.26,5.54,18.56,9.44,27.45a182.09,182.09,0,0,0,10.92,20.73c3.45,5.74,6.41,11.77,9.57,17.68a4.8,4.8,0,0,1,.62,1.55c.11.85-.46,1.23-1.23,1.49-4.93,1.7-9.88,3.34-14.77,5.16-5.07,1.89-10.18,3.76-15.1,6a64.68,64.68,0,0,0-8.67,5.33c-6.85,4.57-13.65,9.23-20.61,14-.08,1.45-.22,3-.24,4.47q-.57,58.06-1.15,116.14a7,7,0,0,0,2.58,5.79c4.24,3.69,8,7.78,10.31,13.05,1.59,3.69,2.72,7.54,2.3,11.56a31,31,0,0,1-6.77,17.15,44.13,44.13,0,0,1-16.33,12.12c-2.63,1.17-5.6,1.57-8.39,2.38-1.14.32-2.23.81-3.34,1.23Zm15.72-69.48c.47-2.88.35-97.87-.12-99.73h-15.62v99.73Z" transform="translate(-137.86 -33.66)"/></g><g id="FOUNDAT_ON" data-name="FOUNDAT ON"><path class="cls-3" d="M647.74,574H627.49V474.06H698v13.81H647.74v31.24h47.09V533H647.74Z" transform="translate(-137.86 -33.66)"/><path class="cls-3" d="M826.57,523.89q0,24.4-15.25,37.94t-43.19,13.54q-28.29,0-43.45-13.44t-15.17-38.17q0-24.75,15.25-38t43.54-13.26q27.86,0,43.06,13.46T826.57,523.89Zm-95.36,0q0,18.47,9.32,28t27.6,9.53q18.2,0,27.47-9.43t9.27-28.1q0-18.39-9.19-27.89t-27.38-9.5q-18.37,0-27.73,9.5T731.21,523.89Z" transform="translate(-137.86 -33.66)"/><path class="cls-3" d="M945.26,474.06v64.67a32.46,32.46,0,0,1-5.94,19.38q-5.94,8.29-17.18,12.78t-26.87,4.48q-23.25,0-36.15-9.85t-12.9-27.07V474.06h20.51v63.23q0,12.38,7.18,18.25t22,5.88q28.89,0,28.89-24.27V474.06Z" transform="translate(-137.86 -33.66)"/><path class="cls-3" d="M1075.17,574h-25l-61.44-79.64H988l.43,4.44q1.18,12.72,1.19,23.25v52H971.09V474.06h24.78l61.27,79.23h.51q-.17-1.57-.68-11.45c-.35-6.59-.51-11.73-.51-15.42V474.06h18.71Z" transform="translate(-137.86 -33.66)"/><path class="cls-3" d="M1203.38,523.07q0,24.75-17.17,37.84T1136.73,574h-35V474.06h38.62q29.83,0,46.4,12.85T1203.38,523.07Zm-21.53.55q0-35.89-42-35.89H1122.2v72.53h14.53Q1181.85,560.26,1181.85,523.62Z" transform="translate(-137.86 -33.66)"/><path class="cls-3" d="M1298.84,574l-12.47-27.75H1238.6L1226.38,574h-21.53l46.74-100.35h22.21L1320.55,574ZM1281,532.16l-11.7-27.2q-1.29-2.74-3.55-8.62t-3.12-8.61a131,131,0,0,1-6.75,18.39l-11.28,26Z" transform="translate(-137.86 -33.66)"/><path class="cls-3" d="M1364.44,574H1344V488.07h-36.75v-14h93.91v14h-36.74Z" transform="translate(-137.86 -33.66)"/><path class="cls-3" d="M1589.82,523.89q0,24.4-15.25,37.94t-43.2,13.54q-28.27,0-43.45-13.44t-15.17-38.17q0-24.75,15.26-38t43.53-13.26q27.86,0,43.07,13.46T1589.82,523.89Zm-95.36,0q0,18.47,9.31,28t27.6,9.53q18.21,0,27.47-9.43t9.28-28.1q0-18.39-9.19-27.89t-27.39-9.5q-18.37,0-27.72,9.5T1494.46,523.89Z" transform="translate(-137.86 -33.66)"/><path class="cls-3" d="M1714.73,574h-25l-61.44-79.64h-.68l.43,4.44q1.18,12.72,1.19,23.25v52h-18.54V474.06h24.78l61.27,79.23h.51q-.18-1.57-.68-11.45t-.52-15.42V474.06h18.72Z" transform="translate(-137.86 -33.66)"/></g></svg>