<?xml version="1.0" encoding="UTF-8"?><svg id="Layer_2" xmlns="http://www.w3.org/2000/svg" viewBox="0 0 1606.61 610.14"><defs><style>.cls-1{fill:#020202;}.cls-2{fill:#fe9002;}</style></defs><g id="wave_sanford_Image"><path class="cls-2" d="M307.14,379.34c35.12-1.73,69.31-8.68,103.02-18.35,46.71-13.4,91.3-32.37,135.55-52.15,16.59-7.42,34.29-10.71,51.62-15.31,62.11-16.47,124.46-32.01,187.51-44.58,56.19-11.2,112.7-20.23,169.75-25.87,30.34-3,60.73-5.01,91.17-6.47,1.47-.07,3.42,.82,4.38-1.28h93c2.93,2.57,6.57,1.52,9.86,1.66,48.66,2.17,96.99,6.96,144.65,17.39,34.28,7.51,67.78,17.31,98.65,34.56,11.4,6.37,22.02,13.81,31.06,23.31,1.86,1.95,4.14,3.72,4.82,6.53-1.47,.98-2.46,.09-3.47-.36-42.74-19.18-87.77-30.16-133.88-37.19-53.88-8.21-108.06-10.51-162.46-7.71-38.16,1.97-75.82,7.65-113.46,14.05-32.16,5.47-64.53,9.72-96.54,16.14-61.12,12.24-121.21,28.59-181.31,44.94-34.22,9.31-68.33,19.1-103.37,25.04-6.07,1.03-12.21,1.91-18.39,1.25-1.9-.2-4.22-.25-5.05-2.55-.82-2.26,.79-3.85,2.12-5.27,6.35-6.74,14.25-11.45,21.97-16.37,5.34-3.4,10.97-6.35,15.86-10.41,1.98-1.64,5.09-3.28,4.1-6.22-.98-2.9-4.49-2.5-7.03-2.6-8.02-.3-15.96,.83-23.86,2.06-23.38,3.62-46.62,8.21-69.47,14.24-11.83,3.12-23.03,8.69-34.45,13.3-40.94,16.52-81.93,32.86-124.64,44.42-15.76,4.27-31.69,7.75-47.7,10.93-14.67-.05-29.33-.1-44-.16v-17Z"/><path class="cls-1" d="M367.14,396.34c14.67,.05,29.33,.1,44,.16,0,.28,0,.56,0,.84-13.68,0-27.36,.03-41.04-.06-.94,0-2.59,1.21-2.96-.94Z"/></g><g id="KHAL__S"><g><path class="cls-1" d="M81.93,335.7c0,17.09,1.86,29.01,5.6,35.77,5.09,9.35,15.6,15.15,31.55,17.4l1.53,3.38-2.54,3.38H4.07l-2.54-3.38,1.53-3.38c15.27-2.25,25.44-8.22,30.53-17.89,3.73-7.08,5.6-18.85,5.6-35.29V150.07c0-16.75-2.04-28.68-6.11-35.77-5.09-9.34-15.61-15.14-31.55-17.4l-1.53-3.38,2.54-3.38H116.53l2.54,3.38-1.53,3.38c-15.27,2.26-25.44,8.22-30.53,17.89-3.4,6.45-5.09,18.21-5.09,35.29v89.92c16.62-4.83,37.66-19.01,63.1-42.54,20.35-18.69,36.97-38.02,49.87-58.01,13.23-15.47,19.85-25.62,19.85-30.46,0-5.15-4.75-9.19-14.25-12.09l-1.02-3.38,2.04-3.38h113.99l2.04,3.38-1.02,3.38c-21.37,2.58-39.69,8.38-54.96,17.4-12.9,7.73-27.31,20.15-43.25,37.22-29.18,31.26-59.2,58.01-90.07,80.25,26.46,0,53.6,12.89,81.42,38.67,14.25,13.22,34.26,36.42,60.05,69.61,21.71,28.04,46.98,44.32,75.82,48.83l1.02,3.38-2.04,3.38h-117.04l-2.04-4.83c2.04-3.22,3.05-6.93,3.05-11.12,0-5.48-1.7-12.08-5.09-19.82-12.21-28.04-32.23-53.98-60.05-77.83-12.21-10.31-26.46-19.65-42.74-28.04-5.77-2.25-11.03-3.38-15.77-3.38-2.38,0-4.58,.32-6.62,.97-6.11,1.29-11.54,3.55-16.28,6.77v77.35Z"/><path class="cls-1" d="M396.38,211.34c0-12.08-1.15-20.67-3.43-25.74-3.57-7.73-10.56-12.45-20.99-14.14l-1.15-2.54,1.91-2.54h82.44l1.91,2.54-1.15,2.54c-11.71,1.69-19.46,6.04-23.28,13.05-2.8,5.08-4.2,14.02-4.2,26.83v59.1h157.62v-59.1c0-12.81-1.66-21.87-4.96-27.19-4.07-7.01-12.34-11.24-24.81-12.69l-1.53-2.54,2.29-2.54h86.25l1.91,2.54-1.15,2.54c-10.94,1.69-18.32,6.29-22.14,13.78-2.55,5.08-3.82,13.78-3.82,26.1v139.23c0,12.33,1.4,21.15,4.2,26.47,3.82,7.25,11.45,11.73,22.9,13.42l1.15,2.54-1.91,2.54h-86.25l-2.29-2.54,1.53-2.54c11.96-1.69,19.97-6.04,24.04-13.05,3.05-5.08,4.58-14.02,4.58-26.83v-68.89h-157.62v68.89c0,12.81,1.53,21.88,4.58,27.19,4.07,7.01,12.08,11.24,24.04,12.69l1.15,2.54-2.29,2.54h-82.05l-1.91-2.54,1.15-2.54c10.17-1.69,16.92-6.53,20.23-14.5,2.03-4.83,3.05-13.29,3.05-25.38V211.34Z"/><path class="cls-1" d="M940.91,390.45l.76,2.54-1.53,2.54h-90.83l-1.53-2.53,.76-2.54c16.28-1.21,24.68-4.83,25.19-10.87l.38-4.71c.25-4.58-1.18-10.5-4.3-17.74l-30.18-67.84h-87.16l-26.42,58.38c-4.85,10.63-7.28,18.61-7.28,23.92,0,10.39,9.03,16.67,27.1,18.85l.76,2.54-1.53,2.54h-75.57l-1.53-2.54,.76-2.54c15.52-3.14,29.13-17.28,40.84-42.42l80.53-172.58,1.53-10.15,1.91-3.26c2.8-.73,5.47-1.09,8.01-1.09h2.29c3.55,0,7.11,.36,10.68,1.09l5.34,9.43,85.49,187.08c9.16,20.3,20.99,30.94,35.49,31.91Zm-105.65-113.48l-38.73-82.94-38.71,82.94h77.44Z"/><path class="cls-1" d="M1026.89,211.34v142.13c0,11.12,1.78,18.73,5.34,22.84,4.07,5.08,11.7,7.61,22.9,7.61h32.82c37.65,0,64.37-10.63,80.15-31.91l5.34-7.25c.76-.48,1.4-.73,1.91-.73l1.53,.36c1.27,.24,2.03,.97,2.29,2.17l-22.9,48.58-192.35,.36-2.29-2.54,1.53-2.54c12.72-1.45,21.37-5.56,25.95-12.33,3.82-5.56,5.72-14.74,5.72-27.55V211.34c0-12.81-1.28-21.63-3.82-26.47-3.82-7.25-11.45-11.72-22.9-13.41l-1.15-2.54,1.91-2.54h90.45l2.29,2.54-1.53,2.54c-13.23,1.45-22.08,5.14-26.52,11.06-4.45,5.93-6.68,15.53-6.68,28.82Z"/><path class="cls-1" d="M1606.61,332.33c0,22.51-10.82,40.06-32.44,52.65-18.32,10.89-39.95,16.34-64.88,16.34s-52.54-5.93-81.29-17.77l-4.2,2.18h-3.43l1.53-48.22c1.01-.48,2.16-.72,3.43-.72,1.53,0,2.67,.49,3.44,1.45,3.05,16.92,12.84,30.34,29.39,40.25,15.01,8.95,32.06,13.42,51.14,13.42,17.3,0,32.18-3.63,44.65-10.88,14.5-8.7,21.75-20.79,21.75-36.26,0-23.2-21.5-41.45-64.5-54.75-56.48-17.4-84.73-40.36-84.73-68.89,0-20.3,9.79-35.89,29.39-46.77,16.28-9.18,35.74-13.78,58.39-13.78,23.91,0,47.71,5.08,71.37,15.23l3.82-1.81h3.43l-1.91,40.25c-.76,.97-1.66,1.57-2.67,1.81-.76,0-1.66-.61-2.67-1.82-4.33-14.37-14.38-25.7-30.15-33.99-14-7.55-29.39-11.32-46.18-11.32-14.5,0-26.59,3.27-36.26,9.81-10.69,7.26-16.03,17.55-16.03,30.86,0,21.55,24.17,39.58,72.51,54.11,51.39,15.25,77.09,38.13,77.09,68.63Z"/></g></g><g id="__Image"><path class="cls-1" d="M1293.1,610.14c-.67-.38-1.31-1.01-2.02-1.11-3.54-.5-6.84-1.76-10.06-3.21-3.89-1.75-7.39-4.13-10.5-7.06-2.35-2.22-4.59-4.55-6.27-7.34-2.89-4.78-4.44-9.9-4.41-15.55,.03-4.67,1.37-8.84,3.75-12.8,2.39-3.97,5.49-7.29,8.92-10.33,1.88-1.66,2.6-3.65,2.57-6.12-.16-15.04-.22-30.07-.39-45.11-.27-23.99-.61-47.99-.85-71.98-.02-2.14-.85-3.53-2.54-4.67-6.79-4.59-13.51-9.26-20.33-13.79-2.63-1.74-5.4-3.28-8.21-4.73-1.96-1-4.06-1.73-6.13-2.5-3.5-1.31-7.01-2.58-10.54-3.83-3.89-1.38-7.79-2.7-11.69-4.05-1.79-.62-2.11-1.33-1.23-2.96,1.45-2.69,2.93-5.37,4.42-8.04,3.41-6.14,6.92-12.23,10.23-18.43,2.65-4.97,5.21-10,7.53-15.13,2.08-4.61,3.8-9.38,5.61-14.1,1.22-3.2,2.34-6.44,3.44-9.68,.91-2.69,1.7-5.42,2.55-8.13,.83-2.63,1.66-5.25,2.5-7.87,1.14-3.53,2.33-7.04,3.41-10.59,.96-3.12,1.87-6.25,2.68-9.4,.92-3.61,1.72-7.26,2.56-10.89,.55-2.39,1.09-4.79,1.64-7.19,.04-.16,.07-.31,.09-.47,.42-3.31,.76-6.63,1.26-9.93,1.64-10.74,1.01-21.54,.7-32.32-.14-4.84-1.02-9.65-1.57-14.48-.02-.16-.04-.32-.06-.48-.42-3.56-.76-7.12-1.28-10.66-.4-2.66-1.03-5.29-1.55-7.93-.4-2.03-.74-4.06-1.18-6.08-1.31-5.99-2.63-11.97-4-17.95-1.03-4.47-2.06-8.95-3.27-13.37-1.06-3.87-2.41-7.67-3.56-11.51-.82-2.74-1.5-5.52-2.3-8.26-1.25-4.26-2.56-8.51-3.83-12.77-.72-2.43-1.34-4.9-2.11-7.31-1.05-3.31-1.94-6.71-3.36-9.86-2.95-6.57-6.23-12.99-9.33-19.49-1.11-2.34-2.06-4.75-3.14-7.11-1.24-2.72-2.55-5.4-3.82-8.11-.33-.71-.62-1.44-.99-2.31,.94-.62,1.79-1.18,2.63-1.74,8.37-5.59,16.79-11.1,25.08-16.8,7.24-4.99,14.52-9.97,21.42-15.4,4.05-3.19,7.6-7.09,11.03-10.96,4.7-5.31,9.08-10.91,13.61-16.37,2.56-3.09,5.16-6.15,7.74-9.22,.15-.18,.23-.43,.4-.58,2.26-2.03,2.21-3.46,5.06,.25,4.12,5.36,8.65,10.42,13.06,15.56,2.42,2.81,4.95,5.53,7.44,8.28,3.77,4.15,7.43,8.41,11.37,12.39,2.24,2.26,4.87,4.18,7.47,6.05,8.4,6.02,16.8,12.04,25.33,17.87,4.85,3.32,9.97,6.25,14.96,9.37,.66,.41,1.29,.87,1.98,1.34-1.13,2.56-2.18,4.93-3.23,7.3-1.3,2.94-2.53,5.91-3.93,8.8-1.35,2.78-3,5.41-4.31,8.21-2.48,5.3-5,10.58-7.14,16.02-1.68,4.28-2.82,8.78-4.17,13.19-1.16,3.78-2.27,7.58-3.43,11.36-1.2,3.93-2.54,7.81-3.61,11.77-1.5,5.58-2.8,11.22-4.21,16.83-.85,3.4-1.79,6.78-2.62,10.18-.54,2.24-.93,4.51-1.42,6.76-.52,2.4-1.07,4.79-1.59,7.19-.4,1.86-.82,3.72-1.13,5.6-.47,2.82-.82,5.66-1.26,8.48-.52,3.29-1.08,6.58-1.62,9.87-.05,.32-.1,.63-.13,.95-.44,5.08-.91,10.17-1.29,15.25-.3,4.06-.66,8.12-.69,12.18-.04,5.59,.54,11.14,1.61,16.64,.54,2.81,.79,5.67,1.3,8.48,.43,2.34,1.05,4.64,1.58,6.96,.42,1.86,.79,3.73,1.24,5.58,.55,2.31,1.17,4.6,1.74,6.9,.76,3.08,1.47,6.17,2.28,9.23,.8,3,1.7,5.97,2.56,8.95,.86,2.96,1.69,5.93,2.59,8.87,.81,2.63,1.74,5.22,2.57,7.85,.45,1.43,.77,2.9,1.21,4.33,2.82,9.26,5.54,18.56,9.44,27.45,3.14,7.17,6.89,14.02,10.92,20.74,3.45,5.73,6.4,11.77,9.56,17.67,.26,.49,.55,1.01,.62,1.55,.11,.85-.46,1.23-1.23,1.5-4.93,1.69-9.88,3.34-14.77,5.16-5.08,1.89-10.18,3.75-15.1,6.01-3.06,1.4-5.85,3.44-8.67,5.32-6.85,4.58-13.65,9.24-20.61,13.96-.08,1.45-.23,2.96-.24,4.46-.39,38.71-.75,77.43-1.16,116.14-.03,2.41,.74,4.18,2.59,5.79,4.23,3.69,8.03,7.78,10.3,13.05,1.59,3.7,2.72,7.54,2.31,11.56-.65,6.3-2.6,12.11-6.77,17.15-4.49,5.42-10.03,9.3-16.33,12.12-2.63,1.17-5.6,1.57-8.39,2.38-1.14,.33-2.23,.82-3.34,1.23h-13.92Zm15.72-69.48c.47-2.87,.35-97.86-.13-99.72h-15.62v99.72h15.74Z"/></g><g id="FOUNDAT_ON"><g><path class="cls-1" d="M509.88,540.34h-20.25v-99.94h70.5v13.81h-50.24v31.24h47.08v13.88h-47.08v41.02Z"/><path class="cls-1" d="M688.71,490.23c0,16.27-5.08,28.92-15.25,37.94s-24.57,13.54-43.19,13.54-33.34-4.48-43.45-13.43c-10.11-8.96-15.17-21.68-15.17-38.18s5.08-29.17,15.25-38.01c10.17-8.84,24.68-13.26,43.54-13.26s32.93,4.49,43.07,13.47c10.14,8.98,15.21,21.62,15.21,37.94Zm-95.36,0c0,12.3,3.1,21.64,9.31,27.99,6.21,6.36,15.41,9.54,27.6,9.54s21.29-3.14,27.47-9.43c6.18-6.29,9.27-15.65,9.27-28.1s-3.06-21.56-9.19-27.89c-6.12-6.33-15.25-9.5-27.39-9.5s-21.49,3.17-27.73,9.5c-6.24,6.33-9.36,15.63-9.36,27.89Z"/><path class="cls-1" d="M807.39,440.4v64.67c0,7.38-1.98,13.84-5.94,19.38-3.96,5.54-9.69,9.8-17.18,12.78-7.49,2.99-16.45,4.48-26.87,4.48-15.5,0-27.54-3.28-36.15-9.84-8.6-6.56-12.9-15.59-12.9-27.07v-64.39h20.51v63.23c0,8.25,2.39,14.33,7.18,18.25,4.79,3.92,12.13,5.88,22.05,5.88,19.25,0,28.88-8.09,28.88-24.27v-63.1h20.42Z"/><path class="cls-1" d="M937.3,540.34h-25.04l-61.44-79.64h-.68l.43,4.44c.8,8.48,1.2,16.22,1.2,23.24v51.95h-18.54v-99.94h24.78l61.27,79.23h.51c-.11-1.05-.34-4.86-.68-11.45-.34-6.58-.51-11.72-.51-15.42v-52.36h18.71v99.94Z"/><path class="cls-1" d="M1065.52,489.41c0,16.5-5.73,29.11-17.18,37.84-11.45,8.73-27.94,13.09-49.47,13.09h-34.95v-99.94h38.62c19.88,0,35.35,4.28,46.4,12.85,11.05,8.57,16.58,20.62,16.58,36.16Zm-21.53,.55c0-23.93-13.99-35.89-41.96-35.89h-17.69v72.53h14.53c30.08,0,45.12-12.21,45.12-36.64Z"/><path class="cls-1" d="M1160.98,540.34l-12.48-27.75h-47.77l-12.22,27.75h-21.53l46.74-100.35h22.22l46.74,100.35h-21.7Zm-17.86-41.84l-11.71-27.21c-.85-1.82-2.04-4.69-3.55-8.61-1.51-3.92-2.55-6.79-3.12-8.61-1.54,5.61-3.79,11.74-6.75,18.39l-11.28,26.04h36.4Z"/><path class="cls-1" d="M1226.58,540.34h-20.42v-85.93h-36.74v-14.01h93.91v14.01h-36.74v85.93Z"/><path class="cls-1" d="M1451.96,490.23c0,16.27-5.08,28.92-15.25,37.94-10.17,9.02-24.57,13.54-43.19,13.54s-33.34-4.48-43.45-13.43c-10.11-8.96-15.17-21.68-15.17-38.18s5.08-29.17,15.25-38.01c10.17-8.84,24.68-13.26,43.54-13.26s32.93,4.49,43.07,13.47c10.14,8.98,15.21,21.62,15.21,37.94Zm-95.36,0c0,12.3,3.1,21.64,9.31,27.99,6.21,6.36,15.41,9.54,27.6,9.54s21.29-3.14,27.47-9.43c6.18-6.29,9.27-15.65,9.27-28.1s-3.06-21.56-9.19-27.89c-6.12-6.33-15.25-9.5-27.39-9.5s-21.49,3.17-27.73,9.5c-6.24,6.33-9.36,15.63-9.36,27.89Z"/><path class="cls-1" d="M1576.86,540.34h-25.04l-61.44-79.64h-.68l.43,4.44c.8,8.48,1.2,16.22,1.2,23.24v51.95h-18.54v-99.94h24.78l61.27,79.23h.51c-.12-1.05-.34-4.86-.68-11.45-.34-6.58-.51-11.72-.51-15.42v-52.36h18.71v99.94Z"/></g></g></svg>