<svg width="20" height="20" viewBox="0 0 20 20" fill="none" xmlns="http://www.w3.org/2000/svg">
<path fill-rule="evenodd" clip-rule="evenodd" d="M12.9117 0.587073C12.2388 0.497073 11.28 0.416656 10 0.416656C8.72003 0.416656 7.76128 0.497073 7.08794 0.587073L7.12961 0.682907C7.22711 0.90374 7.37169 1.22749 7.56003 1.63416C8.07099 2.73548 8.61048 3.82335 9.17794 4.89666L9.23628 5.00624C9.74541 4.9976 10.2546 4.9976 10.7638 5.00624L10.8221 4.89666C11.3896 3.82336 11.9291 2.73549 12.44 1.63416C12.601 1.28683 12.7582 0.937786 12.9117 0.587073ZM1.59836 6.76832C1.37503 6.44249 1.32544 6.02916 1.49211 5.67082C2.85419 2.74499 5.83336 0.833323 5.83336 0.833323C5.83336 0.833323 7.22211 4.14499 9.43961 7.94166C8.48141 8.0276 7.55599 8.33364 6.73548 8.83594C5.91497 9.33823 5.22153 10.0232 4.70919 10.8375C3.60539 9.53355 2.56716 8.17548 1.59836 6.76832ZM15.2904 10.8379C16.3944 9.53384 17.4328 8.17563 18.4017 6.76832C18.625 6.44249 18.6746 6.02916 18.5079 5.67082C17.1459 2.74499 14.1663 0.833323 14.1663 0.833323C14.1663 0.833323 12.7779 4.14499 10.5604 7.94166C11.5186 8.02766 12.4439 8.33373 13.2643 8.83603C14.0848 9.33832 14.7781 10.0237 15.2904 10.8379ZM10 8.95832C7.12336 8.95832 4.79169 11.29 4.79169 14.1667C4.79169 17.0433 7.12336 19.375 10 19.375C12.8767 19.375 15.2084 17.0433 15.2084 14.1667C15.2084 11.29 12.8767 8.95832 10 8.95832ZM10.4625 11.5167L11.0917 12.73L12.4334 12.9942C12.5237 13.012 12.6076 13.0534 12.6767 13.1142C12.7458 13.175 12.7976 13.253 12.8267 13.3403C12.8559 13.4276 12.8613 13.5211 12.8426 13.6112C12.8238 13.7013 12.7816 13.7849 12.72 13.8533L11.7667 14.9137L11.9413 16.3283C11.9529 16.4218 11.9389 16.5167 11.9008 16.6029C11.8627 16.689 11.802 16.7632 11.7251 16.8176C11.6482 16.872 11.5579 16.9045 11.464 16.9117C11.3701 16.9189 11.276 16.9004 11.1917 16.8583L10 16.2633L8.80836 16.8583C8.72408 16.9004 8.62997 16.9189 8.53604 16.9117C8.44211 16.9045 8.35188 16.872 8.27497 16.8176C8.19805 16.7632 8.13732 16.689 8.09925 16.6029C8.06118 16.5167 8.04719 16.4218 8.05878 16.3283L8.23336 14.9137L7.28003 13.8533C7.2185 13.7849 7.17621 13.7013 7.15747 13.6112C7.13873 13.5211 7.1442 13.4276 7.17333 13.3403C7.20246 13.253 7.25421 13.175 7.32331 13.1142C7.39241 13.0534 7.47639 13.012 7.56669 12.9942L8.90836 12.73L9.53753 11.5162C9.58143 11.4315 9.64779 11.3604 9.72935 11.3108C9.81092 11.2612 9.90455 11.2349 10 11.2349C10.0955 11.2349 10.1891 11.2612 10.2707 11.3108C10.3523 11.3604 10.4186 11.4319 10.4625 11.5167Z" fill="white"/>
</svg>
