<svg width="30" height="30" viewBox="0 0 30 30" fill="none" xmlns="http://www.w3.org/2000/svg">
<path fill-rule="evenodd" clip-rule="evenodd" d="M11.8625 1.53625C12.3656 1.27187 13.3363 0.9375 15 0.9375C16.6638 0.9375 17.6344 1.27187 18.1388 1.53625C18.5213 1.73625 18.745 2.055 18.8725 2.32125C19.0538 2.69938 19.4506 3.5525 19.7975 4.47688C20.4696 4.78377 21.1106 5.15442 21.7119 5.58375C22.6869 5.42125 23.625 5.34 24.0438 5.30688C24.3375 5.28438 24.725 5.31937 25.0906 5.55062C25.5719 5.85437 26.3469 6.5275 27.1781 7.96875C28.0106 9.41 28.2056 10.4175 28.2288 10.9862C28.2469 11.4175 28.0831 11.7706 27.9163 12.0144C27.474 12.6608 27.0049 13.2885 26.51 13.8956C26.5796 14.6302 26.5796 15.3698 26.51 16.1044C27.0048 16.7115 27.474 17.3392 27.9163 17.9856C28.0831 18.2294 28.2469 18.5819 28.2288 19.0138C28.2056 19.5825 28.01 20.59 27.1788 22.0312C26.3463 23.4725 25.5713 24.1456 25.0906 24.45C24.7256 24.6812 24.3381 24.7156 24.0438 24.6931C23.2629 24.6335 22.485 24.5411 21.7119 24.4163C21.1106 24.8456 20.4696 25.2163 19.7975 25.5231C19.5194 26.2543 19.2108 26.9734 18.8725 27.6787C18.745 27.945 18.5213 28.2631 18.1388 28.4637C17.6344 28.7275 16.6638 29.0625 15 29.0625C13.3363 29.0625 12.3656 28.7281 11.8613 28.4637C11.4788 28.2637 11.255 27.945 11.1275 27.6787C10.9463 27.3006 10.5494 26.4475 10.2025 25.5231C9.53045 25.2162 8.88938 24.8456 8.28813 24.4163C7.31313 24.5788 6.37438 24.66 5.95563 24.6931C5.66188 24.7156 5.27438 24.6806 4.90938 24.4494C4.42813 24.1456 3.65313 23.4725 2.82188 22.0312C1.98938 20.59 1.79375 19.5825 1.77063 19.0138C1.75313 18.5825 1.91688 18.2294 2.08313 17.9856C2.52538 17.3392 2.99455 16.7115 3.48938 16.1044C3.41975 15.3698 3.41975 14.6302 3.48938 13.8956C2.99455 13.2885 2.52539 12.6608 2.08313 12.0144C1.91688 11.7706 1.75313 11.4181 1.77063 10.9862C1.79438 10.4175 1.98938 9.41 2.82125 7.96875C3.65313 6.5275 4.42875 5.85438 4.90938 5.55C5.27438 5.31875 5.66188 5.28438 5.95625 5.30688C6.375 5.33938 7.3125 5.42188 8.2875 5.58375C8.88896 5.15438 9.53023 4.78372 10.2025 4.47688C10.4806 3.74574 10.7892 3.02657 11.1275 2.32125C11.255 2.055 11.4788 1.73687 11.8613 1.53625H11.8625ZM20 15C20 16.3261 19.4732 17.5979 18.5355 18.5355C17.5979 19.4732 16.3261 20 15 20C13.6739 20 12.4022 19.4732 11.4645 18.5355C10.5268 17.5979 10 16.3261 10 15C10 13.6739 10.5268 12.4021 11.4645 11.4645C12.4022 10.5268 13.6739 10 15 10C16.3261 10 17.5979 10.5268 18.5355 11.4645C19.4732 12.4021 20 13.6739 20 15Z" fill="white"/>
</svg>
