<?xml version="1.0" encoding="UTF-8"?><svg xmlns="http://www.w3.org/2000/svg" viewBox="0 0 831.85 556.36"><defs><style>.d{fill:#d8eff6;}.e{fill:#61cae5;}</style></defs><g id="a"/><g id="b"><g id="c"><g><path class="e" d="M763.59,132.23c-46.78-68.51-173.11-82.86-272.47-85.86C476.71,18.76,448.49,0,416.02,0c-.08,0-.15,0-.23,0,.06,.14,.1,.29,.18,.41,2.71,4.12,5.31,8.37,8.16,12.34,9.22,12.85,19.91,23.62,31.83,32.61,.15,.11,.3,.22,.45,.33h-.24c1.16,.86,2.33,1.72,3.49,2.58-.02,.09-.02,.16-.05,.22-1.62,4.36-3.54,8.56-4.82,13.11-.45,1.6-1.21,3.07-1.79,4.63-.55,1.49-1.07,3-1.56,4.52-.47,1.44-.87,2.91-1.31,4.37-.48,1.56-.97,3.12-1.45,4.68-.49,1.6-1.03,3.19-1.47,4.81-1.1,4.03-2.22,8.04-3.21,12.11-3.2,13.06-5.61,26.34-7.05,39.87-.71,6.63-1.2,13.27-1.43,19.95-.31,9.31-.24,18.62,.55,27.89,.49,5.74,1.09,11.47,1.82,17.17,1.23,9.6,3.2,19,5.6,28.26,.85,3.28,1.77,6.54,2.68,9.8,.34,1.22,.73,2.42,1.08,3.64,.25,.88,.48,1.76,.72,2.64,.26,.94,.51,1.88,.79,2.81,.29,.96,.6,1.92,.9,2.87,.19,.61,.37,1.23,.57,1.85,.22,.66,.46,1.32,.67,1.98,.21,.63,.38,1.27,.59,1.89,.3,.86,.63,1.69,.93,2.55,.31,.9,.57,1.82,.9,2.71,.4,1.1,.84,2.18,1.25,3.27,.31,.82,.57,1.67,.88,2.49,.33,.88,.69,1.74,1.05,2.6,.25,.61,.53,1.2,.78,1.8,.21,.49,.4,.99,.61,1.48,.35,.84,.65,1.72,1.06,2.52,.55,1.09,.52,1.3-.43,1.88-3.62,2.22-7.26,4.39-10.86,6.67-7.13,4.53-14.11,9.37-20.67,15.08-.44,.38-.58,.78-.58,1.42,.02,6.84-.12,7.86-.12,14.71v.93h-.54c38.6,3.1,76.04,24.19,98.82,63.32,10.28,17.66,21.38,35.65,33.76,53.25,69.37,98.6,202.33,155.38,248.57,101.59,46.25-53.78,26.01-301.79-43.36-403.38Zm-189.24,140.44c-14.77,0-26.74-12.37-26.74-27.64s11.97-27.64,26.74-27.64,26.74,12.37,26.74,27.64-11.97,27.64-26.74,27.64Zm59.25,61.25c-14.77,0-26.74-12.37-26.74-27.64s11.97-27.64,26.74-27.64,26.74,12.37,26.74,27.64-11.97,27.64-26.74,27.64Zm0-122.51c-14.77,0-26.74-12.37-26.74-27.64s11.97-27.64,26.74-27.64,26.74,12.37,26.74,27.64-11.97,27.64-26.74,27.64Zm59.25,61.25c-14.77,0-26.74-12.37-26.74-27.64s11.97-27.64,26.74-27.64,26.74,12.37,26.74,27.64-11.97,27.64-26.74,27.64Z"/><path class="d" d="M340.94,46.35c-99.39,2.99-225.86,17.31-272.67,85.87C-1.1,233.81-21.33,481.82,24.91,535.6c46.25,53.79,179.2-2.99,248.57-101.59,12.38-17.6,23.48-35.59,33.76-53.25,22.53-38.7,59.4-59.76,97.56-63.21h-.1v-.88c0-7.14,0-7.96,0-15.1,0-.49-.12-.8-.46-1.07-1.5-1.22-2.95-2.51-4.46-3.71-7.02-5.59-14.42-10.38-21.9-14.97-1.57-.96-3.16-1.91-4.74-2.86-.35-.21-.52-.36-.2-.89,.4-.65,.67-1.43,.97-2.16,.24-.6,.43-1.24,.68-1.84,.32-.78,.69-1.53,1.02-2.31,.26-.62,.48-1.26,.72-1.89,.21-.54,.46-1.07,.65-1.62,.31-.85,.57-1.73,.88-2.58,.33-.89,.7-1.76,1.03-2.65,.22-.59,.39-1.2,.6-1.79,.31-.88,.66-1.74,.96-2.62,.22-.63,.38-1.3,.59-1.94,.31-.95,.63-1.88,.95-2.82,.22-.63,.45-1.26,.65-1.89,.2-.63,.39-1.26,.57-1.9,.26-.93,.5-1.86,.77-2.78,.27-.92,.6-1.81,.86-2.74,.27-.96,.47-1.94,.73-2.9,.26-.98,.58-1.93,.84-2.91,.26-.97,.46-1.96,.7-2.93,.31-1.22,.66-2.44,.97-3.66,.27-1.08,.5-2.18,.74-3.27,.27-1.23,.54-2.45,.8-3.68,.23-1.1,.44-2.21,.66-3.32,.19-.98,.4-1.96,.58-2.94,.29-1.65,.57-3.31,.85-4.96,.33-1.93,.69-3.84,.97-5.78,.34-2.33,.62-4.67,.89-7.01,.41-3.55,.86-7.1,1.17-10.66,.34-3.83,.64-7.68,.78-11.53,.06-1.74,.1-3.48,.15-5.22h.04c.12-4.17,.21-8.35,.17-12.53-.05-5.7-.35-11.4-.61-17.1-.12-2.58-.35-5.16-.59-7.73-.29-2.99-.63-5.98-.97-8.96-.2-1.73-.45-3.46-.7-5.18-.18-1.29-.39-2.58-.58-3.87-.25-1.67-.46-3.34-.74-5-.29-1.69-.63-3.36-.96-5.04-.21-1.08-.45-2.16-.67-3.24-.13-.65-.25-1.3-.38-1.96-.2-1.04-.39-2.08-.62-3.11-.28-1.24-.61-2.46-.9-3.69-.3-1.29-.56-2.61-.88-3.89-.31-1.24-.69-2.45-1.01-3.68-.26-.98-.45-1.98-.72-2.95-.34-1.2-.75-2.37-1.09-3.57-.27-.95-.45-1.94-.74-2.89-.36-1.18-.81-2.32-1.18-3.5-.37-1.16-.68-2.36-1.05-3.52-.4-1.26-.84-2.49-1.27-3.74-.11-.32-.2-.64-.31-.96-.32-.88-.64-1.76-.97-2.64-.23-.61-.47-1.22-.7-1.83-.32-.86-.63-1.72-.94-2.59-.12-.32-.22-.65-.34-.97-.34-.84-.69-1.68-1.04-2.51-.25-.59-.53-1.17-.77-1.77-.23-.58-.41-1.17-.63-1.76-.2-.55-.4-1.1-.62-1.63-.25-.58-.54-1.12-.79-1.7-.24-.54-.41-1.12-.68-1.64-.3-.59-.3-.78,.18-1.13,14.15-10.17,23.51-18.4,34.01-33.77,2.07-3.02,7.06-10.57,9.05-13.69-32.31,.13-60.38,18.85-74.74,46.34Zm-92.65,227.05h-41.19v42.58c0,11.96-9.38,21.66-20.96,21.66s-20.96-9.7-20.96-21.66v-42.58h-41.19c-11.57,0-20.96-9.7-20.96-21.66s9.38-21.66,20.96-21.66h41.19v-42.58c0-11.96,9.38-21.66,20.96-21.66s20.96,9.7,20.96,21.66v42.58h41.19c11.57,0,20.96,9.7,20.96,21.66s-9.38,21.66-20.96,21.66Z"/></g></g></g></svg>