<?xml version="1.0" encoding="UTF-8"?><svg xmlns="http://www.w3.org/2000/svg" viewBox="0 0 337.67 36.99"><defs><style>.d{fill:#d8eff6;}.e{fill:#61cae5;}</style></defs><g id="a"/><g id="b"><g id="c"><g><path class="e" d="M29.21,.63V6.88H10.9c-3.23,0-4.66,1.75-4.66,4.23,0,2.17,1.11,4.23,5.29,4.23h8.36c9.74,0,12.01,5.4,12.01,10.53,0,6.03-3.23,10.48-11.38,10.48H.64v-6.24H20.74c3.39,0,4.92-1.85,4.92-4.45,0-2.33-1.22-4.45-5.61-4.45H11.75C2.22,21.22,0,15.88,0,10.9,0,4.97,3.18,.63,11.11,.63H29.21Z"/><path class="e" d="M45.08,.63V36.35h-6.24V.63h6.24Z"/><path class="e" d="M59.95,.63V15.77h3.44c6.14,0,7.14-.53,9.15-4.45L77.99,.63h6.72l-5.61,11.11c-1.59,3.17-3.28,5.24-6.19,6.51,3.33,.9,4.97,2.75,7.09,6.88l5.77,11.22h-6.98l-5.45-10.58c-1.96-3.81-3.23-4.34-9.95-4.34h-3.44v14.92h-6.24V.63h6.24Z"/><path class="e" d="M97.41,.63V15.19h18.26V.63h6.3V36.35h-6.3v-14.92h-18.26v14.92h-6.24V.63h6.24Z"/><path class="d" d="M160.11,.63V6.88h-14.71c-6.88,0-9.9,3.44-9.9,11.64s2.96,11.59,9.9,11.59h5.93c3.49,0,4.97-2.12,4.97-5.03s-1.48-4.55-4.39-4.55h-7.94v-5.45h8.57c6.35,0,9.47,3.92,9.47,10.11s-3.12,11.17-11.11,11.17h-5.5c-10.42,0-16.14-5.87-16.14-17.83S135.03,.63,145.4,.63h14.71Z"/><path class="d" d="M171.27,36.35h-6.88l12.54-31.75c1.32-3.33,3.76-4.6,7.51-4.6s6.14,1.27,7.41,4.6l12.07,31.75h-6.93l-10.85-28.73c-.32-.85-.9-1.22-1.75-1.22s-1.43,.37-1.8,1.22l-11.32,28.73Z"/><path class="d" d="M215.4,36.35h-6.24V7.78c0-4.66,2.59-7.78,7.94-7.78,4.76,0,7.04,2.54,8.36,6.62l8.68,22.81c.37,.9,1.06,1.48,2.01,1.48,1.06,0,1.85-.79,1.85-2.01V7.78c0-4.66,2.59-7.78,7.88-7.78,4.76,0,7.04,2.54,8.47,6.62l11.06,29.74h-6.72l-10.64-28.79c-.37-.9-1.06-1.53-2.01-1.53-1.06,0-1.8,.79-1.8,2.06V29.16c0,4.71-2.7,7.83-7.94,7.83-4.71,0-7.04-2.54-8.41-6.61l-8.68-22.81c-.37-.9-1.06-1.53-1.96-1.53-1.11,0-1.85,.79-1.85,2.06v28.26Z"/><path class="d" d="M299.26,.63V6.88h-17.89c-3.76,0-5.4,1.75-5.4,4.5,0,2.91,1.85,4.23,5.45,4.23h17.57v5.66h-17.73c-3.6,0-5.45,1.43-5.45,4.34s1.75,4.5,5.4,4.5h18.1v6.24h-18.1c-8.47,0-11.91-4.18-11.91-9.74,0-4.08,1.85-6.83,5.13-8.2-3.33-1.38-5.03-4.13-5.03-8.04,0-5.71,3.54-9.74,11.96-9.74h17.89Z"/><path class="d" d="M334.98,.63V6.88h-18.31c-3.23,0-4.66,1.75-4.66,4.23,0,2.17,1.11,4.23,5.29,4.23h8.36c9.74,0,12.01,5.4,12.01,10.53,0,6.03-3.23,10.48-11.38,10.48h-19.9v-6.24h20.11c3.39,0,4.92-1.85,4.92-4.45,0-2.33-1.22-4.45-5.61-4.45h-8.31c-9.53,0-11.75-5.34-11.75-10.32,0-5.93,3.17-10.27,11.11-10.27h18.1Z"/></g></g></g></svg>