<svg width="856" height="273" viewBox="0 0 856 273" fill="none" xmlns="http://www.w3.org/2000/svg">
<g filter="url(#filter0_d_1113_3)">
<rect x="6" y="7" width="256" height="256" rx="40" fill="#F5F5F7"/>
<rect x="7" y="8" width="254" height="254" rx="39" stroke="#1D1D1F" stroke-width="2"/>
</g>
<g filter="url(#filter1_d_1113_3)">
<rect x="594" y="7" width="256" height="256" rx="40" fill="#F5F5F7"/>
<rect x="595" y="8" width="254" height="254" rx="39" stroke="#1D1D1F" stroke-width="2"/>
</g>
<g filter="url(#filter2_d_1113_3)">
<rect x="300" y="7" width="256" height="256" rx="40" fill="#F5F5F7"/>
<rect x="301" y="8" width="254" height="254" rx="39" stroke="#1D1D1F" stroke-width="2"/>
</g>
<path d="M652.17 164.47C652.59 167.83 653.4 170.98 654.6 173.92L645.78 178.96C643.8 174.46 642.54 169.63 642 164.47H652.17ZM739.92 164.47C739.62 167.05 739.14 169.54 738.48 171.94C737.88 174.34 737.1 176.65 736.14 178.87L727.23 173.74C727.83 172.3 728.34 170.8 728.76 169.24C729.18 167.68 729.51 166.09 729.75 164.47H739.92ZM715.08 190.03C717.66 188.05 719.94 185.77 721.92 183.19L730.74 188.23C729.24 190.27 727.59 192.16 725.79 193.9C724.05 195.64 722.19 197.26 720.21 198.76L715.08 190.03ZM659.91 183.28C660.93 184.6 662.01 185.86 663.15 187.06C664.29 188.2 665.49 189.28 666.75 190.3L661.8 198.94C657.72 195.94 654.18 192.4 651.18 188.32L659.91 183.28ZM666.93 128.2C665.67 129.22 664.47 130.3 663.33 131.44C662.19 132.52 661.11 133.69 660.09 134.95L651.27 129.91C652.77 127.87 654.39 125.98 656.13 124.24C657.93 122.5 659.85 120.88 661.89 119.38L666.93 128.2ZM642.09 153.67C642.63 148.57 643.89 143.77 645.87 139.27L654.6 144.31C653.46 147.25 652.65 150.37 652.17 153.67H642.09ZM685.65 120.37C682.29 120.85 679.2 121.66 676.38 122.8L671.25 113.98C673.53 113.02 675.87 112.24 678.27 111.64C680.67 110.98 683.13 110.5 685.65 110.2V120.37ZM696.45 197.95C699.81 197.47 702.93 196.63 705.81 195.43L710.85 204.16C708.57 205.18 706.23 206.02 703.83 206.68C701.43 207.28 698.97 207.73 696.45 208.03V197.95ZM685.65 208.03C680.49 207.49 675.66 206.23 671.16 204.25L676.2 195.61C677.7 196.21 679.23 196.72 680.79 197.14C682.35 197.56 683.97 197.86 685.65 198.04V208.03ZM729.75 153.67C729.51 152.05 729.18 150.49 728.76 148.99C728.34 147.43 727.83 145.93 727.23 144.49L735.96 139.36C738 143.98 739.32 148.75 739.92 153.67H729.75ZM721.83 135.13C720.81 133.87 719.73 132.7 718.59 131.62C717.45 130.48 716.25 129.4 714.99 128.38L720.03 119.65C722.01 121.15 723.87 122.77 725.61 124.51C727.41 126.25 729.06 128.11 730.56 130.09L721.83 135.13ZM696.45 110.29C701.49 110.95 706.23 112.27 710.67 114.25L705.63 122.89C704.19 122.29 702.69 121.78 701.13 121.36C699.57 120.94 698.01 120.61 696.45 120.37V110.29ZM769.772 64.75C769.772 51.85 764.462 45.4 753.842 45.4C743.162 45.4 737.822 51.85 737.822 64.75V89.5H727.022V64.75C727.022 44.65 735.962 34.6 753.842 34.6C771.662 34.6 780.572 44.65 780.572 64.75V225.4H769.772V64.75ZM750.422 117.4V106.6H800.372V117.4H750.422Z" fill="#1D1D1F"/>
<path d="M70.17 154.47C70.59 157.83 71.4 160.98 72.6 163.92L63.78 168.96C61.8 164.46 60.54 159.63 60 154.47H70.17ZM157.92 154.47C157.62 157.05 157.14 159.54 156.48 161.94C155.88 164.34 155.1 166.65 154.14 168.87L145.23 163.74C145.83 162.3 146.34 160.8 146.76 159.24C147.18 157.68 147.51 156.09 147.75 154.47H157.92ZM133.08 180.03C135.66 178.05 137.94 175.77 139.92 173.19L148.74 178.23C147.24 180.27 145.59 182.16 143.79 183.9C142.05 185.64 140.19 187.26 138.21 188.76L133.08 180.03ZM77.91 173.28C78.93 174.6 80.01 175.86 81.15 177.06C82.29 178.2 83.49 179.28 84.75 180.3L79.8 188.94C75.72 185.94 72.18 182.4 69.18 178.32L77.91 173.28ZM84.93 118.2C83.67 119.22 82.47 120.3 81.33 121.44C80.19 122.52 79.11 123.69 78.09 124.95L69.27 119.91C70.77 117.87 72.39 115.98 74.13 114.24C75.93 112.5 77.85 110.88 79.89 109.38L84.93 118.2ZM60.09 143.67C60.63 138.57 61.89 133.77 63.87 129.27L72.6 134.31C71.46 137.25 70.65 140.37 70.17 143.67H60.09ZM103.65 110.37C100.29 110.85 97.2 111.66 94.38 112.8L89.25 103.98C91.53 103.02 93.87 102.24 96.27 101.64C98.67 100.98 101.13 100.5 103.65 100.2V110.37ZM114.45 187.95C117.81 187.47 120.93 186.63 123.81 185.43L128.85 194.16C126.57 195.18 124.23 196.02 121.83 196.68C119.43 197.28 116.97 197.73 114.45 198.03V187.95ZM103.65 198.03C98.49 197.49 93.66 196.23 89.16 194.25L94.2 185.61C95.7 186.21 97.23 186.72 98.79 187.14C100.35 187.56 101.97 187.86 103.65 188.04V198.03ZM147.75 143.67C147.51 142.05 147.18 140.49 146.76 138.99C146.34 137.43 145.83 135.93 145.23 134.49L153.96 129.36C156 133.98 157.32 138.75 157.92 143.67H147.75ZM139.83 125.13C138.81 123.87 137.73 122.7 136.59 121.62C135.45 120.48 134.25 119.4 132.99 118.38L138.03 109.65C140.01 111.15 141.87 112.77 143.61 114.51C145.41 116.25 147.06 118.11 148.56 120.09L139.83 125.13ZM114.45 100.29C119.49 100.95 124.23 102.27 128.67 104.25L123.63 112.89C122.19 112.29 120.69 111.78 119.13 111.36C117.57 110.94 116.01 110.61 114.45 110.37V100.29ZM218.372 96.6V107.4H198.572V156H187.772V107.4H168.422V96.6H218.372Z" fill="#1D1D1F"/>
<defs>
<filter id="filter0_d_1113_3" x="0" y="5" width="268" height="268" filterUnits="userSpaceOnUse" color-interpolation-filters="sRGB">
<feFlood flood-opacity="0" result="BackgroundImageFix"/>
<feColorMatrix in="SourceAlpha" type="matrix" values="0 0 0 0 0 0 0 0 0 0 0 0 0 0 0 0 0 0 127 0" result="hardAlpha"/>
<feMorphology radius="2" operator="dilate" in="SourceAlpha" result="effect1_dropShadow_1113_3"/>
<feOffset dy="4"/>
<feGaussianBlur stdDeviation="2"/>
<feComposite in2="hardAlpha" operator="out"/>
<feColorMatrix type="matrix" values="0 0 0 0 0 0 0 0 0 0 0 0 0 0 0 0 0 0 0.4 0"/>
<feBlend mode="normal" in2="BackgroundImageFix" result="effect1_dropShadow_1113_3"/>
<feBlend mode="normal" in="SourceGraphic" in2="effect1_dropShadow_1113_3" result="shape"/>
</filter>
<filter id="filter1_d_1113_3" x="588" y="5" width="268" height="268" filterUnits="userSpaceOnUse" color-interpolation-filters="sRGB">
<feFlood flood-opacity="0" result="BackgroundImageFix"/>
<feColorMatrix in="SourceAlpha" type="matrix" values="0 0 0 0 0 0 0 0 0 0 0 0 0 0 0 0 0 0 127 0" result="hardAlpha"/>
<feMorphology radius="2" operator="dilate" in="SourceAlpha" result="effect1_dropShadow_1113_3"/>
<feOffset dy="4"/>
<feGaussianBlur stdDeviation="2"/>
<feComposite in2="hardAlpha" operator="out"/>
<feColorMatrix type="matrix" values="0 0 0 0 0 0 0 0 0 0 0 0 0 0 0 0 0 0 0.4 0"/>
<feBlend mode="normal" in2="BackgroundImageFix" result="effect1_dropShadow_1113_3"/>
<feBlend mode="normal" in="SourceGraphic" in2="effect1_dropShadow_1113_3" result="shape"/>
</filter>
<filter id="filter2_d_1113_3" x="294" y="5" width="268" height="268" filterUnits="userSpaceOnUse" color-interpolation-filters="sRGB">
<feFlood flood-opacity="0" result="BackgroundImageFix"/>
<feColorMatrix in="SourceAlpha" type="matrix" values="0 0 0 0 0 0 0 0 0 0 0 0 0 0 0 0 0 0 127 0" result="hardAlpha"/>
<feMorphology radius="2" operator="dilate" in="SourceAlpha" result="effect1_dropShadow_1113_3"/>
<feOffset dy="4"/>
<feGaussianBlur stdDeviation="2"/>
<feComposite in2="hardAlpha" operator="out"/>
<feColorMatrix type="matrix" values="0 0 0 0 0 0 0 0 0 0 0 0 0 0 0 0 0 0 0.4 0"/>
<feBlend mode="normal" in2="BackgroundImageFix" result="effect1_dropShadow_1113_3"/>
<feBlend mode="normal" in="SourceGraphic" in2="effect1_dropShadow_1113_3" result="shape"/>
</filter>
</defs>
</svg>
