<svg width="559" height="325" viewBox="0 0 559 325" fill="none" xmlns="http://www.w3.org/2000/svg">
<g filter="url(#filter0_d_1113_19)">
<rect x="297" y="33" width="256" height="256" rx="40" fill="#C9B458"/>
</g>
<g filter="url(#filter1_d_1113_19)">
<rect x="6" y="33" width="256" height="256" rx="40" fill="#434B59"/>
</g>
<path d="M461 213C461 221.2 459.067 227.467 455.2 231.8C450.933 236.6 444.267 239 435.2 239C421.867 239 408.933 232.467 396.4 219.4C384.8 207.267 379 192.6 379 175.4C379 156.467 389 147 409 147H449.1V119H365V107H475.6V119H461.1L461 213ZM449.1 159H409C397 159 391 164.467 391 175.4C391 189.4 395.667 201.267 405 211C415.2 221.667 425.267 227 435.2 227C444.4 227 449 222.333 449 213L449.1 159Z" fill="#F5F5F7"/>
<path d="M145 213C145 230.333 136.333 239 119 239C102.867 239 87.3 232.5 72.3 219.5C59.3667 208.3 52.9333 194.133 53 177C53.0667 163.667 61.7333 157 79 157H89V169H79C69.6667 169 65 171.667 65 177C65 190.733 70.0333 201.9 80.1 210.5C93.1 221.5 106.067 227 119 227C128.333 227 133 222.333 133 213V119H39V107H159.5V119H145V213ZM214.422 107V119H192.422V173H180.422V119H158.922V107H214.422Z" fill="#F5F5F7"/>
<defs>
<filter id="filter0_d_1113_19" x="291" y="31" width="268" height="268" filterUnits="userSpaceOnUse" color-interpolation-filters="sRGB">
<feFlood flood-opacity="0" result="BackgroundImageFix"/>
<feColorMatrix in="SourceAlpha" type="matrix" values="0 0 0 0 0 0 0 0 0 0 0 0 0 0 0 0 0 0 127 0" result="hardAlpha"/>
<feMorphology radius="2" operator="dilate" in="SourceAlpha" result="effect1_dropShadow_1113_19"/>
<feOffset dy="4"/>
<feGaussianBlur stdDeviation="2"/>
<feComposite in2="hardAlpha" operator="out"/>
<feColorMatrix type="matrix" values="0 0 0 0 0 0 0 0 0 0 0 0 0 0 0 0 0 0 0.4 0"/>
<feBlend mode="normal" in2="BackgroundImageFix" result="effect1_dropShadow_1113_19"/>
<feBlend mode="normal" in="SourceGraphic" in2="effect1_dropShadow_1113_19" result="shape"/>
</filter>
<filter id="filter1_d_1113_19" x="0" y="31" width="268" height="268" filterUnits="userSpaceOnUse" color-interpolation-filters="sRGB">
<feFlood flood-opacity="0" result="BackgroundImageFix"/>
<feColorMatrix in="SourceAlpha" type="matrix" values="0 0 0 0 0 0 0 0 0 0 0 0 0 0 0 0 0 0 127 0" result="hardAlpha"/>
<feMorphology radius="2" operator="dilate" in="SourceAlpha" result="effect1_dropShadow_1113_19"/>
<feOffset dy="4"/>
<feGaussianBlur stdDeviation="2"/>
<feComposite in2="hardAlpha" operator="out"/>
<feColorMatrix type="matrix" values="0 0 0 0 0 0 0 0 0 0 0 0 0 0 0 0 0 0 0.4 0"/>
<feBlend mode="normal" in2="BackgroundImageFix" result="effect1_dropShadow_1113_19"/>
<feBlend mode="normal" in="SourceGraphic" in2="effect1_dropShadow_1113_19" result="shape"/>
</filter>
</defs>
</svg>
