<svg width="562" height="302" viewBox="0 0 562 302" fill="none" xmlns="http://www.w3.org/2000/svg">
<g filter="url(#filter0_d_1113_34)">
<rect x="300" y="36" width="256" height="256" rx="40" fill="#434B59"/>
</g>
<g filter="url(#filter1_d_1113_34)">
<rect x="6" y="36" width="256" height="256" rx="40" fill="#6AAA64"/>
</g>
<path d="M148 213C148 221.2 146.067 227.467 142.2 231.8C137.933 236.6 131.267 239 122.2 239C108.867 239 95.9333 232.467 83.4 219.4C71.8 207.267 66 192.6 66 175.4C66 156.467 76 147 96 147H136.1V119H52V107H162.6V119H148.1L148 213ZM136.1 159H96C84 159 78 164.467 78 175.4C78 189.4 82.6667 201.267 92 211C102.2 221.667 112.267 227 122.2 227C131.4 227 136 222.333 136 213L136.1 159ZM217.461 107V119H195.461V173H183.461V119H161.961V107H217.461Z" fill="#F5F5F7"/>
<path d="M467.4 209C467.4 224.6 459.6 232.4 444 232.4C429.48 232.4 415.47 226.55 401.97 214.85C390.33 204.77 384.54 192.02 384.6 176.6C384.66 164.6 392.46 158.6 408 158.6H417V169.4H408C399.6 169.4 395.4 171.8 395.4 176.6C395.4 188.96 399.93 199.01 408.99 206.75C420.69 216.65 432.36 221.6 444 221.6C452.4 221.6 456.6 217.4 456.6 209V124.4H372V113.6H480.45V124.4H467.4V209Z" fill="white"/>
<defs>
<filter id="filter0_d_1113_34" x="294" y="34" width="268" height="268" filterUnits="userSpaceOnUse" color-interpolation-filters="sRGB">
<feFlood flood-opacity="0" result="BackgroundImageFix"/>
<feColorMatrix in="SourceAlpha" type="matrix" values="0 0 0 0 0 0 0 0 0 0 0 0 0 0 0 0 0 0 127 0" result="hardAlpha"/>
<feMorphology radius="2" operator="dilate" in="SourceAlpha" result="effect1_dropShadow_1113_34"/>
<feOffset dy="4"/>
<feGaussianBlur stdDeviation="2"/>
<feComposite in2="hardAlpha" operator="out"/>
<feColorMatrix type="matrix" values="0 0 0 0 0 0 0 0 0 0 0 0 0 0 0 0 0 0 0.4 0"/>
<feBlend mode="normal" in2="BackgroundImageFix" result="effect1_dropShadow_1113_34"/>
<feBlend mode="normal" in="SourceGraphic" in2="effect1_dropShadow_1113_34" result="shape"/>
</filter>
<filter id="filter1_d_1113_34" x="0" y="34" width="268" height="268" filterUnits="userSpaceOnUse" color-interpolation-filters="sRGB">
<feFlood flood-opacity="0" result="BackgroundImageFix"/>
<feColorMatrix in="SourceAlpha" type="matrix" values="0 0 0 0 0 0 0 0 0 0 0 0 0 0 0 0 0 0 127 0" result="hardAlpha"/>
<feMorphology radius="2" operator="dilate" in="SourceAlpha" result="effect1_dropShadow_1113_34"/>
<feOffset dy="4"/>
<feGaussianBlur stdDeviation="2"/>
<feComposite in2="hardAlpha" operator="out"/>
<feColorMatrix type="matrix" values="0 0 0 0 0 0 0 0 0 0 0 0 0 0 0 0 0 0 0.4 0"/>
<feBlend mode="normal" in2="BackgroundImageFix" result="effect1_dropShadow_1113_34"/>
<feBlend mode="normal" in="SourceGraphic" in2="effect1_dropShadow_1113_34" result="shape"/>
</filter>
</defs>
</svg>
